<svg width="753" height="55" viewBox="0 0 753 55" fill="none" xmlns="http://www.w3.org/2000/svg">
<g filter="url(#filter0_g_124_892)">
<mask id="mask0_124_892" style="mask-type:luminance" maskUnits="userSpaceOnUse" x="0" y="0" width="753" height="55">
<path d="M752.239 0H0V54.9015H752.239V0Z" fill="white"/>
</mask>
<g mask="url(#mask0_124_892)">
<mask id="mask1_124_892" style="mask-type:luminance" maskUnits="userSpaceOnUse" x="0" y="2" width="762" height="37">
<path d="M762 2.24756H0V38.8486H762V2.24756Z" fill="white"/>
</mask>
<g mask="url(#mask1_124_892)">
<path d="M772.063 31.8213C735.709 32.708 734.709 27.8864 698.171 27.8864C661.631 27.8864 661.631 31.8312 625.091 31.8312C588.55 31.8312 588.55 27.8864 552.01 27.8864C515.47 27.8864 515.47 31.8312 478.931 31.8312C442.39 31.8312 442.39 27.8864 405.849 27.8864C369.31 27.8864 369.31 31.8312 332.772 31.8312C296.232 31.8312 296.232 27.8864 259.693 27.8864C223.152 27.8864 223.152 31.8312 186.611 31.8312C150.071 31.8312 150.071 27.8864 113.531 27.8864C76.9859 27.8864 76.9859 31.8312 40.441 31.8312C3.89607 31.8312 4.52744 28.7816 -31.8343 27.8963C-35.4898 27.8073 -40.793 28.969 -40.793 28.0792C-40.793 27.1899 -24.505 27.1899 -24.505 26.3006C-24.505 25.4109 -40.793 25.4109 -40.793 24.5212C-40.793 23.6315 -24.505 23.6312 -24.505 22.7411C-24.505 21.851 -40.793 21.851 -40.793 20.9609C-40.793 20.0708 -24.505 20.0708 -24.505 19.1806C-24.505 18.2905 -40.793 18.2903 -40.793 17.4C-40.793 16.5101 -24.505 16.5101 -24.505 15.6203C-24.505 14.7296 -40.793 14.7296 -40.793 13.839C-40.793 12.9478 -24.505 12.9478 -24.505 12.0565C-24.505 11.1652 -37.1265 8.40084 -33.4651 8.31151C2.88899 7.42474 3.88892 12.2464 40.427 12.2464C76.965 12.2464 76.9668 8.30158 113.507 8.30158C150.047 8.30158 150.047 12.2464 186.588 12.2464C223.128 12.2464 223.127 8.30158 259.667 8.30158C296.206 8.30158 296.207 12.2464 332.748 12.2464C369.289 12.2464 369.287 8.30158 405.826 8.30158C442.365 8.30158 442.365 12.2464 478.905 12.2464C515.444 12.2464 515.446 8.30158 551.987 8.30158C588.528 8.30158 588.527 12.2464 625.067 12.2464C661.607 12.2464 661.612 8.30158 698.157 8.30158C734.702 8.30158 734.07 11.3512 770.432 12.2365C774.087 12.3255 779.391 11.1638 779.391 12.0536C779.391 12.9429 763.103 12.9429 763.103 13.8321C763.103 14.7214 779.391 14.7218 779.391 15.6115C779.391 16.5012 763.103 16.5016 763.103 17.3917C763.103 18.2818 779.391 18.2818 779.391 19.1719C779.391 20.062 763.103 20.062 763.103 20.9522C763.103 21.8423 779.391 21.8425 779.391 22.7328C779.391 23.6227 763.103 23.6227 763.103 24.5125C763.103 25.4032 779.391 25.4032 779.391 26.2938C779.391 27.185 762.54 27.588 763.26 28.462C764.856 30.4011 775.724 31.7319 772.063 31.8213Z" fill="#00A651"/>
</g>
<path d="M772.128 32.1645C735.774 33.0513 734.774 28.2296 698.236 28.2296C661.696 28.2296 661.696 32.1745 625.156 32.1745C588.615 32.1745 588.615 28.2296 552.075 28.2296C515.535 28.2296 515.535 32.1745 478.996 32.1745C442.455 32.1745 442.455 28.2296 405.914 28.2296C369.375 28.2296 369.375 32.1745 332.837 32.1745C296.297 32.1745 296.297 28.2296 259.758 28.2296C223.217 28.2296 223.217 32.1745 186.676 32.1745C150.136 32.1745 150.136 28.2296 113.596 28.2296C77.0509 28.2296 77.0509 32.1745 40.5059 32.1745C3.96101 32.1745 4.59238 29.1249 -31.7694 28.2395C-35.4249 28.1505 -40.728 29.3122 -40.728 28.4224C-40.728 27.5332 -24.4401 27.5332 -24.4401 26.6439C-24.4401 25.7542 -40.728 25.7542 -40.728 24.8645C-40.728 23.9748 -24.4401 23.9744 -24.4401 23.0843C-24.4401 22.1942 -40.728 22.1942 -40.728 21.3041C-40.728 20.414 -24.4401 20.414 -24.4401 19.5239C-24.4401 18.6337 -40.728 18.6335 -40.728 17.7432C-40.728 16.8533 -24.4401 16.8533 -24.4401 15.9635C-24.4401 15.0729 -40.728 15.0729 -40.728 14.1823C-40.728 13.291 -24.4401 13.291 -24.4401 12.3998C-24.4401 11.5085 -37.0615 8.7441 -33.4001 8.65477C2.95393 7.768 3.95386 12.5897 40.4919 12.5897C77.03 12.5897 77.0318 8.64484 113.572 8.64484C150.112 8.64484 150.112 12.5897 186.653 12.5897C223.193 12.5897 223.192 8.64484 259.732 8.64484C296.271 8.64484 296.272 12.5897 332.813 12.5897C369.354 12.5897 369.352 8.64484 405.891 8.64484C442.43 8.64484 442.43 12.5897 478.97 12.5897C515.509 12.5897 515.511 8.64484 552.052 8.64484C588.593 8.64484 588.592 12.5897 625.132 12.5897C661.672 12.5897 661.677 8.64484 698.222 8.64484C734.767 8.64484 734.135 11.6944 770.497 12.5798C774.152 12.6688 779.456 11.5071 779.456 12.3969C779.456 13.2861 763.168 13.2861 763.168 14.1754C763.168 15.0647 779.456 15.0651 779.456 15.9548C779.456 16.8445 763.168 16.8449 763.168 17.735C763.168 18.6251 779.456 18.6251 779.456 19.5152C779.456 20.4053 763.168 20.4053 763.168 21.2954C763.168 22.1856 779.456 22.1858 779.456 23.0761C779.456 23.966 763.168 23.966 763.168 24.8558C763.168 25.7464 779.456 25.7464 779.456 26.637C779.456 27.5283 762.605 27.9312 763.325 28.8052C764.921 30.7443 775.789 32.0752 772.128 32.1645Z" fill="#00A550"/>
<path d="M772.192 32.5078C735.838 33.3946 734.837 28.5729 698.3 28.5729C661.76 28.5729 661.76 32.5177 625.22 32.5177C588.679 32.5177 588.679 28.5729 552.139 28.5729C515.599 28.5729 515.599 32.5177 479.06 32.5177C442.519 32.5177 442.519 28.5729 405.978 28.5729C369.439 28.5729 369.439 32.5177 332.901 32.5177C296.361 32.5177 296.361 28.5729 259.822 28.5729C223.281 28.5729 223.281 32.5177 186.74 32.5177C150.2 32.5177 150.2 28.5729 113.66 28.5729C77.1148 28.5729 77.1148 32.5177 40.5699 32.5177C4.02498 32.5177 4.65634 29.4681 -31.7054 28.5828C-35.3609 28.4938 -40.6641 29.6555 -40.6641 28.7657C-40.6641 27.8764 -24.3761 27.8764 -24.3761 26.9872C-24.3761 26.0975 -40.6641 26.0975 -40.6641 25.2078C-40.6641 24.3181 -24.3761 24.3177 -24.3761 23.4276C-24.3761 22.5375 -40.6641 22.5375 -40.6641 21.6474C-40.6641 20.7573 -24.3761 20.7573 -24.3761 19.8671C-24.3761 18.977 -40.6641 18.9768 -40.6641 18.0865C-40.6641 17.1966 -24.3761 17.1966 -24.3761 16.3068C-24.3761 15.4161 -40.6641 15.4161 -40.6641 14.5255C-40.6641 13.6343 -24.3761 13.6343 -24.3761 12.743C-24.3761 11.8518 -36.9976 9.08736 -33.3362 8.99803C3.0179 8.11126 4.01782 12.9329 40.5559 12.9329C77.0939 12.9329 77.0957 8.98811 113.636 8.98811C150.176 8.98811 150.176 12.9329 186.717 12.9329C223.257 12.9329 223.256 8.98811 259.795 8.98811C296.335 8.98811 296.336 12.9329 332.877 12.9329C369.418 12.9329 369.416 8.98811 405.955 8.98811C442.494 8.98811 442.494 12.9329 479.034 12.9329C515.573 12.9329 515.575 8.98811 552.116 8.98811C588.657 8.98811 588.656 12.9329 625.196 12.9329C661.736 12.9329 661.741 8.98811 698.286 8.98811C734.83 8.98811 734.199 12.0377 770.561 12.923C774.216 13.012 779.519 11.8503 779.519 12.7401C779.519 13.6294 763.232 13.6294 763.232 14.5187C763.232 15.4084 779.519 15.4084 779.519 16.2981C779.519 17.1878 763.232 17.1882 763.232 18.0783C763.232 18.9683 779.519 18.9683 779.519 19.8584C779.519 20.7485 763.232 20.7485 763.232 21.6387C763.232 22.5288 779.519 22.529 779.519 23.4193C779.519 24.3092 763.232 24.3092 763.232 25.199C763.232 26.0897 779.519 26.0897 779.519 26.9803C779.519 27.8715 762.669 28.2745 763.389 29.1485C764.985 31.0876 775.853 32.4185 772.192 32.5078Z" fill="#00A350"/>
<path d="M772.255 32.8511C735.901 33.7378 734.901 28.9162 698.363 28.9162C661.823 28.9162 661.823 32.861 625.283 32.861C588.743 32.861 588.743 28.9162 552.202 28.9162C515.663 28.9162 515.663 32.861 479.123 32.861C442.583 32.861 442.583 28.9162 406.042 28.9162C369.503 28.9162 369.503 32.861 332.964 32.861C296.425 32.861 296.425 28.9162 259.885 28.9162C223.344 28.9162 223.344 32.861 186.803 32.861C150.263 32.861 150.263 28.9162 113.723 28.9162C77.1783 28.9162 77.1783 32.861 40.6334 32.861C4.08845 32.861 4.71982 29.8114 -31.6419 28.926C-35.2974 28.837 -40.6006 29.9988 -40.6006 29.109C-40.6006 28.2197 -24.3126 28.2197 -24.3126 27.3304C-24.3126 26.4407 -40.6006 26.4407 -40.6006 25.551C-40.6006 24.6613 -24.3126 24.6609 -24.3126 23.7708C-24.3126 22.8807 -40.6006 22.8807 -40.6006 21.9906C-40.6006 21.1005 -24.3126 21.1005 -24.3126 20.2104C-24.3126 19.3203 -40.6006 19.3201 -40.6006 18.4297C-40.6006 17.5399 -24.3126 17.5399 -24.3126 16.65C-24.3126 15.7594 -40.6006 15.7594 -40.6006 14.8688C-40.6006 13.9775 -24.3126 13.9775 -24.3126 13.0863C-24.3126 12.195 -36.9341 9.43062 -33.2727 9.34129C3.08137 8.45452 4.0813 13.2762 40.6194 13.2762C77.1574 13.2762 77.1592 9.33137 113.699 9.33137C150.239 9.33137 150.24 13.2762 186.78 13.2762C223.321 13.2762 223.32 9.33137 259.859 9.33137C296.398 9.33137 296.4 13.2762 332.941 13.2762C369.481 13.2762 369.48 9.33137 406.018 9.33137C442.557 9.33137 442.558 13.2762 479.097 13.2762C515.637 13.2762 515.638 9.33137 552.179 9.33137C588.72 9.33137 588.719 13.2762 625.259 13.2762C661.799 13.2762 661.804 9.33137 698.349 9.33137C734.894 9.33137 734.263 12.381 770.624 13.2663C774.28 13.3553 779.583 12.1936 779.583 13.0834C779.583 13.9726 763.295 13.9726 763.295 14.8619C763.295 15.7516 779.583 15.7516 779.583 16.6413C779.583 17.531 763.295 17.5314 763.295 18.4215C763.295 19.3116 779.583 19.3116 779.583 20.2017C779.583 21.0918 763.295 21.0918 763.295 21.9819C763.295 22.8721 779.583 22.8723 779.583 23.7626C779.583 24.6525 763.295 24.6525 763.295 25.5423C763.295 26.4329 779.583 26.4329 779.583 27.3236C779.583 28.2148 762.733 28.6178 763.452 29.4918C765.049 31.4309 775.916 32.7617 772.255 32.8511Z" fill="#00A24F"/>
<path d="M772.32 33.1938C735.965 34.0806 734.965 29.2589 698.427 29.2589C661.888 29.2589 661.888 33.2038 625.348 33.2038C588.807 33.2038 588.807 29.2589 552.267 29.2589C515.727 29.2589 515.727 33.2038 479.188 33.2038C442.647 33.2038 442.647 29.2589 406.106 29.2589C369.567 29.2589 369.567 33.2038 333.029 33.2038C296.489 33.2038 296.489 29.2589 259.95 29.2589C223.409 29.2589 223.409 33.2038 186.868 33.2038C150.328 33.2038 150.328 29.2589 113.788 29.2589C77.2428 29.2589 77.2428 33.2038 40.6978 33.2038C4.15291 33.2038 4.78427 30.1542 -31.5775 29.2688C-35.233 29.1798 -40.5361 30.3415 -40.5361 29.4517C-40.5361 28.5625 -24.2482 28.5625 -24.2482 27.6732C-24.2482 26.7835 -40.5361 26.7835 -40.5361 25.8938C-40.5361 25.0041 -24.2482 25.0037 -24.2482 24.1136C-24.2482 23.2235 -40.5361 23.2235 -40.5361 22.3334C-40.5361 21.4433 -24.2482 21.4433 -24.2482 20.5532C-24.2482 19.663 -40.5361 19.6628 -40.5361 18.7725C-40.5361 17.8826 -24.2482 17.8826 -24.2482 16.9928C-24.2482 16.1022 -40.5361 16.1022 -40.5361 15.2115C-40.5361 14.3203 -24.2482 14.3203 -24.2482 13.4291C-24.2482 12.5378 -36.8696 9.7734 -33.2082 9.68407C3.14583 8.7973 4.14575 13.619 40.6838 13.619C77.2219 13.619 77.2236 9.67414 113.764 9.67414C150.304 9.67414 150.304 13.619 186.845 13.619C223.385 13.619 223.384 9.67414 259.923 9.67414C296.463 9.67414 296.464 13.619 333.005 13.619C369.546 13.619 369.544 9.67414 406.083 9.67414C442.621 9.67414 442.622 13.619 479.162 13.619C515.701 13.619 515.703 9.67414 552.244 9.67414C588.785 9.67414 588.784 13.619 625.324 13.619C661.863 13.619 661.869 9.67414 698.413 9.67414C734.958 9.67414 734.327 12.7237 770.689 13.6091C774.344 13.6981 779.647 12.5364 779.647 13.4262C779.647 14.3154 763.359 14.3154 763.359 15.2047C763.359 16.0944 779.647 16.0944 779.647 16.9841C779.647 17.8738 763.359 17.8742 763.359 18.7643C763.359 19.6544 779.647 19.6544 779.647 20.5445C779.647 21.4346 763.359 21.4346 763.359 22.3247C763.359 23.2148 779.647 23.215 779.647 24.1054C779.647 24.9952 763.359 24.9952 763.359 25.8851C763.359 26.7757 779.647 26.7757 779.647 27.6663C779.647 28.5576 762.797 28.9605 763.517 29.8345C765.113 31.7736 775.981 33.1045 772.32 33.1938Z" fill="#00A04E"/>
<path d="M772.382 33.5371C736.028 34.4239 735.028 29.6022 698.49 29.6022C661.951 29.6022 661.951 33.547 625.411 33.547C588.87 33.547 588.87 29.6022 552.33 29.6022C515.79 29.6022 515.79 33.547 479.251 33.547C442.71 33.547 442.71 29.6022 406.169 29.6022C369.63 29.6022 369.63 33.547 333.092 33.547C296.552 33.547 296.552 29.6022 260.013 29.6022C223.472 29.6022 223.472 33.547 186.931 33.547C150.391 33.547 150.391 29.6022 113.851 29.6022C77.3057 29.6022 77.3058 33.547 40.7608 33.547C4.21589 33.547 4.84726 30.4974 -31.5145 29.6121C-35.17 29.5231 -40.4731 30.6848 -40.4731 29.795C-40.4731 28.9057 -24.1852 28.9057 -24.1852 28.0165C-24.1852 27.1268 -40.4731 27.1268 -40.4731 26.2371C-40.4731 25.3474 -24.1852 25.347 -24.1852 24.4569C-24.1852 23.5668 -40.4731 23.5668 -40.4731 22.6767C-40.4731 21.7866 -24.1852 21.7866 -24.1852 20.8964C-24.1852 20.0063 -40.4731 20.0061 -40.4731 19.1158C-40.4731 18.2259 -24.1852 18.2259 -24.1852 17.3361C-24.1852 16.4454 -40.4731 16.4454 -40.4731 15.5548C-40.4731 14.6636 -24.1852 14.6636 -24.1852 13.7723C-24.1852 12.881 -36.8066 10.1167 -33.1452 10.0273C3.20881 9.14056 4.20874 13.9622 40.7468 13.9622C77.2848 13.9622 77.2866 10.0174 113.827 10.0174C150.367 10.0174 150.367 13.9622 186.908 13.9622C223.448 13.9622 223.447 10.0174 259.986 10.0174C296.526 10.0174 296.527 13.9622 333.068 13.9622C369.609 13.9622 369.607 10.0174 406.146 10.0174C442.685 10.0174 442.685 13.9622 479.225 13.9622C515.764 13.9622 515.766 10.0174 552.307 10.0174C588.848 10.0174 588.847 13.9622 625.387 13.9622C661.926 13.9622 661.932 10.0174 698.476 10.0174C735.021 10.0174 734.39 13.067 770.752 13.9523C774.407 14.0413 779.71 12.8796 779.71 13.7694C779.71 14.6587 763.422 14.6587 763.422 15.5479C763.422 16.4376 779.71 16.4376 779.71 17.3273C779.71 18.217 763.422 18.2174 763.422 19.1075C763.422 19.9976 779.71 19.9976 779.71 20.8877C779.71 21.7778 763.422 21.7778 763.422 22.668C763.422 23.5581 779.71 23.5583 779.71 24.4486C779.71 25.3385 763.422 25.3385 763.422 26.2283C763.422 27.119 779.71 27.119 779.71 28.0096C779.71 28.9008 762.86 29.3038 763.58 30.1778C765.176 32.1169 776.044 33.4478 772.382 33.5371Z" fill="#009F4E"/>
<path d="M772.447 33.8808C736.093 34.7676 735.093 29.9459 698.555 29.9459C662.015 29.9459 662.015 33.8908 625.475 33.8908C588.935 33.8908 588.935 29.9459 552.394 29.9459C515.855 29.9459 515.855 33.8908 479.315 33.8908C442.774 33.8908 442.774 29.9459 406.234 29.9459C369.695 29.9459 369.695 33.8908 333.156 33.8908C296.617 33.8908 296.617 29.9459 260.077 29.9459C223.536 29.9459 223.536 33.8908 186.995 33.8908C150.455 33.8908 150.455 29.9459 113.915 29.9459C77.3702 29.9459 77.3702 33.8908 40.8253 33.8908C4.28034 33.8908 4.91171 30.8412 -31.45 29.9558C-35.1055 29.8668 -40.4087 31.0286 -40.4087 30.1388C-40.4087 29.2495 -24.1208 29.2495 -24.1208 28.3602C-24.1208 27.4705 -40.4087 27.4705 -40.4087 26.5808C-40.4087 25.6911 -24.1208 25.6907 -24.1208 24.8006C-24.1208 23.9105 -40.4087 23.9105 -40.4087 23.0204C-40.4087 22.1303 -24.1208 22.1303 -24.1208 21.2402C-24.1208 20.3501 -40.4087 20.3499 -40.4087 19.4595C-40.4087 18.5697 -24.1208 18.5697 -24.1208 17.6798C-24.1208 16.7892 -40.4087 16.7892 -40.4087 15.8986C-40.4087 15.0073 -24.1208 15.0073 -24.1208 14.1161C-24.1208 13.2248 -36.7422 10.4604 -33.0808 10.3711C3.27326 9.48431 4.27319 14.306 40.8112 14.306C77.3493 14.306 77.3511 10.3612 113.891 10.3612C150.431 10.3612 150.432 14.306 186.972 14.306C223.513 14.306 223.512 10.3612 260.051 10.3612C296.59 10.3612 296.592 14.306 333.133 14.306C369.673 14.306 369.671 10.3612 406.21 10.3612C442.749 10.3612 442.75 14.306 479.289 14.306C515.829 14.306 515.83 10.3612 552.371 10.3612C588.912 10.3612 588.911 14.306 625.451 14.306C661.991 14.306 661.996 10.3612 698.541 10.3612C735.086 10.3612 734.454 13.4108 770.816 14.2961C774.472 14.3851 779.775 13.2234 779.775 14.1132C779.775 15.0024 763.487 15.0024 763.487 15.8917C763.487 16.781 779.775 16.7814 779.775 17.6711C779.775 18.5608 763.487 18.5612 763.487 19.4513C763.487 20.3414 779.775 20.3414 779.775 21.2315C779.775 22.1216 763.487 22.1216 763.487 23.0117C763.487 23.9019 779.775 23.9021 779.775 24.7924C779.775 25.6823 763.487 25.6823 763.487 26.5721C763.487 27.4627 779.775 27.4627 779.775 28.3534C779.775 29.2446 762.924 29.6475 763.644 30.5215C765.241 32.4607 776.108 33.7915 772.447 33.8808Z" fill="#009E4D"/>
<path d="M772.509 34.2236C736.155 35.1104 735.155 30.2887 698.617 30.2887C662.078 30.2887 662.078 34.2335 625.538 34.2335C588.997 34.2335 588.997 30.2887 552.457 30.2887C515.917 30.2887 515.917 34.2335 479.378 34.2335C442.837 34.2335 442.837 30.2887 406.296 30.2887C369.757 30.2887 369.757 34.2335 333.218 34.2335C296.679 34.2335 296.679 30.2887 260.14 30.2887C223.6 30.2887 223.599 34.2335 187.057 34.2335C150.517 34.2335 150.517 30.2887 113.978 30.2887C77.4327 30.2887 77.4327 34.2335 40.8878 34.2335C4.34284 34.2335 4.97421 31.1839 -31.3875 30.2986C-35.043 30.2096 -40.3462 31.3713 -40.3462 30.4815C-40.3462 29.5923 -24.0583 29.5923 -24.0583 28.703C-24.0583 27.8133 -40.3462 27.8133 -40.3462 26.9236C-40.3462 26.0339 -24.0583 26.0335 -24.0583 25.1434C-24.0583 24.2533 -40.3462 24.2533 -40.3462 23.3632C-40.3462 22.4731 -24.0583 22.4731 -24.0583 21.583C-24.0583 20.6928 -40.3462 20.6926 -40.3462 19.8023C-40.3462 18.9124 -24.0583 18.9124 -24.0583 18.0226C-24.0583 17.132 -40.3462 17.132 -40.3462 16.2413C-40.3462 15.3501 -24.0583 15.3501 -24.0583 14.4588C-24.0583 13.5676 -36.6797 10.8032 -33.0183 10.7139C3.33576 9.82708 4.33569 14.6488 40.8737 14.6488C77.4118 14.6488 77.4136 10.7039 113.954 10.7039C150.494 10.7039 150.494 14.6488 187.035 14.6488C223.575 14.6488 223.574 10.7039 260.113 10.7039C296.653 10.7039 296.654 14.6488 333.195 14.6488C369.736 14.6488 369.734 10.7039 406.273 10.7039C442.811 10.7039 442.812 14.6488 479.352 14.6488C515.891 14.6488 515.893 10.7039 552.434 10.7039C588.975 10.7039 588.974 14.6488 625.514 14.6488C662.053 14.6488 662.058 10.7039 698.603 10.7039C735.148 10.7039 734.517 13.7535 770.879 14.6389C774.534 14.7279 779.837 13.5661 779.837 14.4559C779.837 15.3452 763.549 15.3452 763.549 16.2345C763.549 17.1237 779.837 17.1242 779.837 18.0139C779.837 18.9036 763.549 18.904 763.549 19.7941C763.549 20.6842 779.837 20.6842 779.837 21.5743C779.837 22.4644 763.549 22.4644 763.549 23.3545C763.549 24.2446 779.837 24.2448 779.837 25.1352C779.837 26.025 763.549 26.025 763.549 26.9149C763.549 27.8055 779.837 27.8055 779.837 28.6961C779.837 29.5874 762.987 29.9903 763.707 30.8643C765.303 32.8034 776.171 34.1343 772.509 34.2236Z" fill="#009C4C"/>
<path d="M772.574 34.5669C736.22 35.4536 735.22 30.632 698.682 30.632C662.142 30.632 662.142 34.5768 625.602 34.5768C589.062 34.5768 589.062 30.632 552.521 30.632C515.982 30.632 515.982 34.5768 479.442 34.5768C442.901 34.5768 442.901 30.632 406.361 30.632C369.822 30.632 369.822 34.5768 333.283 34.5768C296.743 34.5768 296.743 30.632 260.204 30.632C223.663 30.632 223.663 34.5768 187.122 34.5768C150.582 34.5768 150.582 30.632 114.042 30.632C77.4972 30.632 77.4972 34.5768 40.9522 34.5768C4.40729 34.5768 5.03867 31.5272 -31.3231 30.6419C-34.9786 30.5529 -40.2817 31.7146 -40.2817 30.8248C-40.2817 29.9355 -23.9938 29.9355 -23.9938 29.0463C-23.9938 28.1566 -40.2817 28.1566 -40.2817 27.2669C-40.2817 26.3772 -23.9938 26.3768 -23.9938 25.4867C-23.9938 24.5966 -40.2817 24.5966 -40.2817 23.7065C-40.2817 22.8164 -23.9938 22.8164 -23.9938 21.9262C-23.9938 21.0361 -40.2817 21.0359 -40.2817 20.1456C-40.2817 19.2557 -23.9938 19.2557 -23.9938 18.3659C-23.9938 17.4752 -40.2817 17.4752 -40.2817 16.5846C-40.2817 15.6934 -23.9938 15.6934 -23.9938 14.8021C-23.9938 13.9108 -36.6152 11.1464 -32.9538 11.0571C3.40022 10.1703 4.40015 14.992 40.9382 14.992C77.4763 14.992 77.478 11.0472 114.018 11.0472C150.558 11.0472 150.559 14.992 187.099 14.992C223.64 14.992 223.639 11.0472 260.178 11.0472C296.717 11.0472 296.719 14.992 333.26 14.992C369.8 14.992 369.798 11.0472 406.337 11.0472C442.876 11.0472 442.877 14.992 479.416 14.992C515.955 14.992 515.957 11.0472 552.498 11.0472C589.039 11.0472 589.038 14.992 625.578 14.992C662.118 14.992 662.123 11.0472 698.668 11.0472C735.213 11.0472 734.581 14.0968 770.943 14.9821C774.599 15.0711 779.902 13.9094 779.902 14.7992C779.902 15.6885 763.614 15.6885 763.614 16.5777C763.614 17.467 779.902 17.4674 779.902 18.3571C779.902 19.2468 763.614 19.2472 763.614 20.1373C763.614 21.0274 779.902 21.0274 779.902 21.9175C779.902 22.8076 763.614 22.8076 763.614 23.6978C763.614 24.5879 779.902 24.5881 779.902 25.4784C779.902 26.3683 763.614 26.3683 763.614 27.2581C763.614 28.1488 779.902 28.1488 779.902 29.0394C779.902 29.9306 763.051 30.3336 763.771 31.2076C765.368 33.1467 776.235 34.4775 772.574 34.5669Z" fill="#009B4B"/>
<path d="M772.638 34.9101C736.284 35.7969 735.284 30.9752 698.746 30.9752C662.206 30.9752 662.206 34.9201 625.666 34.9201C589.125 34.9201 589.125 30.9752 552.585 30.9752C516.046 30.9752 516.046 34.9201 479.506 34.9201C442.965 34.9201 442.965 30.9752 406.424 30.9752C369.886 30.9752 369.886 34.9201 333.347 34.9201C296.807 34.9201 296.807 30.9752 260.268 30.9752C223.727 30.9752 223.727 34.9201 187.186 34.9201C150.646 34.9201 150.646 30.9752 114.106 30.9752C77.5611 30.9752 77.5611 34.9201 41.0162 34.9201C4.47126 34.9201 5.10263 31.8705 -31.2591 30.9851C-34.9146 30.8961 -40.2178 32.0578 -40.2178 31.168C-40.2178 30.2788 -23.9298 30.2788 -23.9298 29.3895C-23.9298 28.4998 -40.2178 28.4998 -40.2178 27.6101C-40.2178 26.7204 -23.9298 26.72 -23.9298 25.8299C-23.9298 24.9398 -40.2178 24.9398 -40.2178 24.0497C-40.2178 23.1596 -23.9298 23.1596 -23.9298 22.2695C-23.9298 21.3794 -40.2178 21.3792 -40.2178 20.4888C-40.2178 19.599 -23.9298 19.599 -23.9298 18.7091C-23.9298 17.8185 -40.2178 17.8185 -40.2178 16.9279C-40.2178 16.0366 -23.9298 16.0366 -23.9298 15.1454C-23.9298 14.2541 -36.5513 11.4897 -32.8899 11.4004C3.46418 10.5136 4.46411 15.3353 41.0022 15.3353C77.5402 15.3353 77.542 11.3905 114.082 11.3905C150.622 11.3905 150.623 15.3353 187.163 15.3353C223.704 15.3353 223.702 11.3905 260.242 11.3905C296.781 11.3905 296.783 15.3353 333.323 15.3353C369.864 15.3353 369.862 11.3905 406.401 11.3905C442.94 11.3905 442.941 15.3353 479.48 15.3353C516.019 15.3353 516.021 11.3905 552.562 11.3905C589.103 11.3905 589.102 15.3353 625.642 15.3353C662.182 15.3353 662.187 11.3905 698.732 11.3905C735.277 11.3905 734.645 14.44 771.007 15.3254C774.663 15.4144 779.966 14.2527 779.966 15.1425C779.966 16.0317 763.678 16.0317 763.678 16.921C763.678 17.8107 779.966 17.8107 779.966 18.7004C779.966 19.5901 763.678 19.5905 763.678 20.4806C763.678 21.3707 779.966 21.3707 779.966 22.2608C779.966 23.1509 763.678 23.1509 763.678 24.041C763.678 24.9312 779.966 24.9314 779.966 25.8217C779.966 26.7116 763.678 26.7116 763.678 27.6014C763.678 28.492 779.966 28.492 779.966 29.3827C779.966 30.2739 763.115 30.6768 763.835 31.5508C765.432 33.49 776.299 34.8208 772.638 34.9101Z" fill="#00994B"/>
<path d="M772.702 35.2534C736.348 36.1402 735.348 31.3185 698.81 31.3185C662.27 31.3185 662.27 35.2633 625.73 35.2633C589.189 35.2633 589.189 31.3185 552.649 31.3185C516.11 31.3185 516.109 35.2633 479.57 35.2633C443.029 35.2633 443.029 31.3185 406.488 31.3185C369.95 31.3185 369.95 35.2633 333.411 35.2633C296.871 35.2633 296.871 31.3185 260.332 31.3185C223.791 31.3185 223.791 35.2633 187.25 35.2633C150.71 35.2633 150.71 31.3185 114.17 31.3185C77.6251 31.3185 77.6251 35.2633 41.0802 35.2633C4.53523 35.2633 5.1666 32.2137 -31.1952 31.3284C-34.8506 31.2394 -40.1538 32.4011 -40.1538 31.5113C-40.1538 30.622 -23.8659 30.622 -23.8659 29.7328C-23.8659 28.8431 -40.1538 28.8431 -40.1538 27.9534C-40.1538 27.0637 -23.8659 27.0633 -23.8659 26.1732C-23.8659 25.2831 -40.1538 25.2831 -40.1538 24.393C-40.1538 23.5029 -23.8659 23.5029 -23.8659 22.6127C-23.8659 21.7226 -40.1538 21.7224 -40.1538 20.8321C-40.1538 19.9422 -23.8659 19.9422 -23.8659 19.0524C-23.8659 18.1618 -40.1538 18.1618 -40.1538 17.2711C-40.1538 16.3799 -23.8659 16.3799 -23.8659 15.4886C-23.8659 14.5974 -36.4873 11.833 -32.8259 11.7436C3.52815 10.8569 4.52808 15.6785 41.0661 15.6785C77.6042 15.6785 77.606 11.7337 114.146 11.7337C150.686 11.7337 150.686 15.6785 187.227 15.6785C223.768 15.6785 223.766 11.7337 260.306 11.7337C296.845 11.7337 296.847 15.6785 333.387 15.6785C369.928 15.6785 369.926 11.7337 406.465 11.7337C443.004 11.7337 443.004 15.6785 479.544 15.6785C516.083 15.6785 516.085 11.7337 552.626 11.7337C589.167 11.7337 589.166 15.6785 625.706 15.6785C662.246 15.6785 662.251 11.7337 698.796 11.7337C735.341 11.7337 734.709 14.7833 771.071 15.6686C774.727 15.7576 780.03 14.5959 780.03 15.4857C780.03 16.375 763.742 16.375 763.742 17.2643C763.742 18.1535 780.03 18.154 780.03 19.0437C780.03 19.9334 763.742 19.9338 763.742 20.8239C763.742 21.714 780.03 21.714 780.03 22.6041C780.03 23.4942 763.742 23.4942 763.742 24.3843C763.742 25.2744 780.03 25.2746 780.03 26.1649C780.03 27.0548 763.742 27.0548 763.742 27.9446C763.742 28.8353 780.03 28.8353 780.03 29.7259C780.03 30.6171 763.179 31.0201 763.899 31.8941C765.496 33.8332 776.363 35.1641 772.702 35.2534Z" fill="#00984A"/>
<path d="M772.765 35.5962C736.411 36.4829 735.411 31.6613 698.873 31.6613C662.333 31.6613 662.333 35.6061 625.793 35.6061C589.253 35.6061 589.253 31.6613 552.712 31.6613C516.173 31.6613 516.173 35.6061 479.634 35.6061C443.093 35.6061 443.093 31.6613 406.552 31.6613C370.013 31.6613 370.013 35.6061 333.474 35.6061C296.935 35.6061 296.935 31.6613 260.395 31.6613C223.854 31.6613 223.854 35.6061 187.313 35.6061C150.773 35.6061 150.773 31.6613 114.233 31.6613C77.6886 31.6613 77.6886 35.6061 41.1436 35.6061C4.59871 35.6061 5.23007 32.5565 -31.1317 31.6712C-34.7872 31.5822 -40.0903 32.7439 -40.0903 31.8541C-40.0903 30.9648 -23.8024 30.9648 -23.8024 30.0755C-23.8024 29.1858 -40.0903 29.1858 -40.0903 28.2961C-40.0903 27.4065 -23.8024 27.406 -23.8024 26.516C-23.8024 25.6259 -40.0903 25.6259 -40.0903 24.7358C-40.0903 23.8457 -23.8024 23.8457 -23.8024 22.9555C-23.8024 22.0654 -40.0903 22.0652 -40.0903 21.1749C-40.0903 20.285 -23.8024 20.285 -23.8024 19.3952C-23.8024 18.5045 -40.0903 18.5045 -40.0903 17.6139C-40.0903 16.7227 -23.8024 16.7227 -23.8024 15.8314C-23.8024 14.9401 -36.4238 12.1757 -32.7624 12.0864C3.59163 11.1996 4.59155 16.0213 41.1296 16.0213C77.6677 16.0213 77.6695 12.0765 114.209 12.0765C150.749 12.0765 150.75 16.0213 187.29 16.0213C223.831 16.0213 223.83 12.0765 260.369 12.0765C296.909 12.0765 296.91 16.0213 333.451 16.0213C369.992 16.0213 369.99 12.0765 406.529 12.0765C443.067 12.0765 443.068 16.0213 479.607 16.0213C516.147 16.0213 516.149 12.0765 552.69 12.0765C589.231 12.0765 589.23 16.0213 625.769 16.0213C662.309 16.0213 662.314 12.0765 698.859 12.0765C735.404 12.0765 734.773 15.1261 771.135 16.0114C774.79 16.1004 780.093 14.9387 780.093 15.8285C780.093 16.7178 763.805 16.7178 763.805 17.607C763.805 18.4967 780.093 18.4967 780.093 19.3864C780.093 20.2761 763.805 20.2765 763.805 21.1666C763.805 22.0567 780.093 22.0567 780.093 22.9468C780.093 23.8369 763.805 23.8369 763.805 24.7271C763.805 25.6172 780.093 25.6174 780.093 26.5077C780.093 27.3976 763.805 27.3976 763.805 28.2874C763.805 29.1781 780.093 29.1781 780.093 30.0687C780.093 30.9599 763.243 31.3629 763.962 32.2369C765.559 34.176 776.427 35.5068 772.765 35.5962Z" fill="#009649"/>
<path d="M772.829 35.9399C736.475 36.8267 735.475 32.005 698.937 32.005C662.397 32.005 662.397 35.9498 625.857 35.9498C589.317 35.9498 589.317 32.005 552.776 32.005C516.237 32.005 516.237 35.9498 479.698 35.9498C443.157 35.9498 443.157 32.005 406.616 32.005C370.075 32.005 370.077 35.9498 333.538 35.9498C296.999 35.9498 296.999 32.005 260.459 32.005C223.918 32.005 223.918 35.9498 187.377 35.9498C150.837 35.9498 150.837 32.005 114.297 32.005C77.7525 32.005 77.7525 35.9498 41.2076 35.9498C4.66267 35.9498 5.29404 32.9002 -31.0677 32.0149C-34.7232 31.9259 -40.0264 33.0876 -40.0264 32.1978C-40.0264 31.3086 -23.7384 31.3086 -23.7384 30.4193C-23.7384 29.5296 -40.0264 29.5296 -40.0264 28.6399C-40.0264 27.7502 -23.7384 27.7498 -23.7384 26.8597C-23.7384 25.9696 -40.0264 25.9696 -40.0264 25.0795C-40.0264 24.1894 -23.7384 24.1894 -23.7384 23.2993C-23.7384 22.4091 -40.0264 22.4089 -40.0264 21.5186C-40.0264 20.6287 -23.7384 20.6287 -23.7384 19.7389C-23.7384 18.8483 -40.0264 18.8483 -40.0264 17.9576C-40.0264 17.0664 -23.7384 17.0664 -23.7384 16.1751C-23.7384 15.2839 -36.3599 12.5195 -32.6985 12.4302C3.65559 11.5434 4.65552 16.3651 41.1936 16.3651C77.7316 16.3651 77.7334 12.4202 114.273 12.4202C150.813 12.4202 150.814 16.3651 187.354 16.3651C223.895 16.3651 223.894 12.4202 260.433 12.4202C296.972 12.4202 296.974 16.3651 333.515 16.3651C370.056 16.3651 370.054 12.4202 406.593 12.4202C443.131 12.4202 443.132 16.3651 479.671 16.3651C516.211 16.3651 516.212 12.4202 552.754 12.4202C589.295 12.4202 589.293 16.3651 625.833 16.3651C662.373 16.3651 662.378 12.4202 698.923 12.4202C735.468 12.4202 734.837 15.4698 771.198 16.3552C774.854 16.4442 780.157 15.2824 780.157 16.1722C780.157 17.0615 763.869 17.0615 763.869 17.9508C763.869 18.8405 780.157 18.8405 780.157 19.7302C780.157 20.6199 763.869 20.6203 763.869 21.5104C763.869 22.4005 780.157 22.4005 780.157 23.2906C780.157 24.1807 763.869 24.1807 763.869 25.0708C763.869 25.9609 780.157 25.9611 780.157 26.8515C780.157 27.7413 763.869 27.7413 763.869 28.6312C763.869 29.5218 780.157 29.5218 780.157 30.4124C780.157 31.3037 763.307 31.7066 764.026 32.5806C765.623 34.5197 776.491 35.8506 772.829 35.9399Z" fill="#009549"/>
<path d="M772.894 36.2832C736.54 37.17 735.54 32.3483 699.002 32.3483C662.462 32.3483 662.462 36.2931 625.922 36.2931C589.381 36.2931 589.381 32.3483 552.841 32.3483C516.301 32.3483 516.301 36.2931 479.762 36.2931C443.221 36.2931 443.221 32.3483 406.68 32.3483C370.142 32.3483 370.141 36.2931 333.603 36.2931C297.063 36.2931 297.063 32.3483 260.524 32.3483C223.983 32.3483 223.983 36.2931 187.442 36.2931C150.902 36.2931 150.902 32.3483 114.362 32.3483C77.817 32.3483 77.817 36.2931 41.2721 36.2931C4.72712 36.2931 5.35849 33.2435 -31.0033 32.3582C-34.6588 32.2692 -39.9619 33.4309 -39.9619 32.5411C-39.9619 31.6518 -23.674 31.6518 -23.674 30.7626C-23.674 29.8729 -39.9619 29.8729 -39.9619 28.9832C-39.9619 28.0935 -23.674 28.0931 -23.674 27.203C-23.674 26.3129 -39.9619 26.3129 -39.9619 25.4228C-39.9619 24.5327 -23.674 24.5327 -23.674 23.6425C-23.674 22.7524 -39.9619 22.7522 -39.9619 21.8619C-39.9619 20.972 -23.674 20.972 -23.674 20.0822C-23.674 19.1915 -39.9619 19.1915 -39.9619 18.3009C-39.9619 17.4097 -23.674 17.4097 -23.674 16.5184C-23.674 15.6271 -36.2954 12.8628 -32.634 12.7734C3.72004 11.8867 4.71997 16.7083 41.258 16.7083C77.7961 16.7083 77.7979 12.7635 114.338 12.7635C150.878 12.7635 150.878 16.7083 187.419 16.7083C223.959 16.7083 223.958 12.7635 260.498 12.7635C297.037 12.7635 297.039 16.7083 333.579 16.7083C370.12 16.7083 370.118 12.7635 406.657 12.7635C443.196 12.7635 443.196 16.7083 479.736 16.7083C516.275 16.7083 516.277 12.7635 552.818 12.7635C589.359 12.7635 589.358 16.7083 625.898 16.7083C662.438 16.7083 662.443 12.7635 698.988 12.7635C735.533 12.7635 734.901 15.8131 771.263 16.6984C774.919 16.7874 780.222 15.6257 780.222 16.5155C780.222 17.4048 763.934 17.4048 763.934 18.294C763.934 19.1833 780.222 19.1837 780.222 20.0734C780.222 20.9631 763.934 20.9635 763.934 21.8536C763.934 22.7437 780.222 22.7437 780.222 23.6338C780.222 24.5239 763.934 24.5239 763.934 25.4141C763.934 26.3042 780.222 26.3044 780.222 27.1947C780.222 28.0846 763.934 28.0846 763.934 28.9744C763.934 29.8651 780.222 29.8651 780.222 30.7557C780.222 31.6469 763.371 32.0499 764.091 32.9239C765.687 34.863 776.555 36.1939 772.894 36.2832Z" fill="#009448"/>
<path d="M772.957 36.626C736.603 37.5127 735.603 32.6911 699.065 32.6911C662.525 32.6911 662.525 36.6359 625.985 36.6359C589.445 36.6359 589.445 32.6911 552.904 32.6911C516.365 32.6911 516.365 36.6359 479.826 36.6359C443.285 36.6359 443.285 32.6911 406.744 32.6911C370.205 32.6911 370.205 36.6359 333.666 36.6359C297.127 36.6359 297.127 32.6911 260.587 32.6911C224.046 32.6911 224.046 36.6359 187.505 36.6359C150.965 36.6359 150.965 32.6911 114.425 32.6911C77.8805 32.6911 77.8805 36.6359 41.3355 36.6359C4.7906 36.6359 5.42197 33.5863 -30.9398 32.7009C-34.5953 32.6119 -39.8984 33.7737 -39.8984 32.8839C-39.8984 31.9946 -23.6105 31.9946 -23.6105 31.1053C-23.6105 30.2156 -39.8984 30.2156 -39.8984 29.3259C-39.8984 28.4362 -23.6105 28.4358 -23.6105 27.5457C-23.6105 26.6556 -39.8984 26.6556 -39.8984 25.7655C-39.8984 24.8754 -23.6105 24.8754 -23.6105 23.9853C-23.6105 23.0952 -39.8984 23.095 -39.8984 22.2046C-39.8984 21.3148 -23.6105 21.3148 -23.6105 20.4249C-23.6105 19.5343 -39.8984 19.5343 -39.8984 18.6437C-39.8984 17.7524 -23.6105 17.7524 -23.6105 16.8612C-23.6105 15.9699 -36.2319 13.2055 -32.5705 13.1162C3.78352 12.2294 4.78345 17.0511 41.3215 17.0511C77.8596 17.0511 77.8613 13.1063 114.401 13.1063C150.941 13.1063 150.942 17.0511 187.482 17.0511C224.023 17.0511 224.022 13.1063 260.561 13.1063C297.1 13.1063 297.102 17.0511 333.643 17.0511C370.184 17.0511 370.182 13.1063 406.72 13.1063C443.259 13.1063 443.26 17.0511 479.799 17.0511C516.339 17.0511 516.34 13.1063 552.881 13.1063C589.423 13.1063 589.421 17.0511 625.961 17.0511C662.501 17.0511 662.506 13.1063 699.051 13.1063C735.596 13.1063 734.965 16.1559 771.326 17.0412C774.982 17.1302 780.285 15.9685 780.285 16.8583C780.285 17.7475 763.997 17.7475 763.997 18.6368C763.997 19.5261 780.285 19.5265 780.285 20.4162C780.285 21.3059 763.997 21.3063 763.997 22.1964C763.997 23.0865 780.285 23.0865 780.285 23.9766C780.285 24.8667 763.997 24.8667 763.997 25.7568C763.997 26.647 780.285 26.6472 780.285 27.5375C780.285 28.4274 763.997 28.4274 763.997 29.3172C763.997 30.2078 780.285 30.2078 780.285 31.0985C780.285 31.9897 763.435 32.3927 764.154 33.2667C765.751 35.2058 776.618 36.5366 772.957 36.626Z" fill="#009247"/>
<path d="M773.02 36.9692C736.666 37.856 735.666 33.0343 699.128 33.0343C662.588 33.0343 662.588 36.9791 626.048 36.9791C589.508 36.9791 589.508 33.0343 552.967 33.0343C516.428 33.0343 516.428 36.9791 479.889 36.9791C443.348 36.9791 443.348 33.0343 406.807 33.0343C370.268 33.0343 370.268 36.9791 333.729 36.9791C297.19 36.9791 297.19 33.0343 260.65 33.0343C224.109 33.0343 224.109 36.9791 187.568 36.9791C151.028 36.9791 151.028 33.0343 114.488 33.0343C77.9434 33.0343 77.9434 36.9791 41.3985 36.9791C4.85358 36.9791 5.48495 33.9295 -30.8768 33.0442C-34.5323 32.9552 -39.8354 34.1169 -39.8354 33.2271C-39.8354 32.3379 -23.5475 32.3379 -23.5475 31.4486C-23.5475 30.5589 -39.8354 30.5589 -39.8354 29.6692C-39.8354 28.7795 -23.5475 28.7791 -23.5475 27.889C-23.5475 26.9989 -39.8354 26.9989 -39.8354 26.1088C-39.8354 25.2187 -23.5475 25.2187 -23.5475 24.3286C-23.5475 23.4384 -39.8354 23.4382 -39.8354 22.5479C-39.8354 21.658 -23.5475 21.658 -23.5475 20.7682C-23.5475 19.8776 -39.8354 19.8776 -39.8354 18.9869C-39.8354 18.0957 -23.5475 18.0957 -23.5475 17.2044C-23.5475 16.3132 -36.169 13.5488 -32.5075 13.4595C3.84651 12.5727 4.84643 17.3944 41.3845 17.3944C77.9225 17.3944 77.9243 13.4495 114.464 13.4495C151.004 13.4495 151.005 17.3944 187.545 17.3944C224.086 17.3944 224.085 13.4495 260.624 13.4495C297.163 13.4495 297.165 17.3944 333.706 17.3944C370.247 17.3944 370.245 13.4495 406.783 13.4495C443.322 13.4495 443.323 17.3944 479.862 17.3944C516.402 17.3944 516.403 13.4495 552.944 13.4495C589.486 13.4495 589.484 17.3944 626.024 17.3944C662.564 17.3944 662.569 13.4495 699.114 13.4495C735.659 13.4495 735.028 16.4991 771.389 17.3845C775.045 17.4735 780.348 16.3117 780.348 17.2015C780.348 18.0908 764.06 18.0908 764.06 18.9801C764.06 19.8693 780.348 19.8698 780.348 20.7595C780.348 21.6492 764.06 21.6496 764.06 22.5397C764.06 23.4298 780.348 23.4298 780.348 24.3199C780.348 25.21 764.06 25.21 764.06 26.1001C764.06 26.9902 780.348 26.9904 780.348 27.8808C780.348 28.7706 764.06 28.7706 764.06 29.6605C764.06 30.5511 780.348 30.5511 780.348 31.4417C780.348 32.333 763.498 32.7359 764.217 33.6099C765.814 35.549 776.681 36.8799 773.02 36.9692Z" fill="#009147"/>
<path d="M773.084 37.313C736.73 38.1997 735.73 33.3781 699.192 33.3781C662.652 33.3781 662.652 37.3229 626.112 37.3229C589.572 37.3229 589.572 33.3781 553.031 33.3781C516.492 33.3781 516.492 37.3229 479.953 37.3229C443.412 37.3229 443.412 33.3781 406.871 33.3781C370.332 33.3781 370.332 37.3229 333.793 37.3229C297.254 37.3229 297.254 33.3781 260.714 33.3781C224.173 33.3781 224.173 37.3229 187.632 37.3229C151.092 37.3229 151.092 33.3781 114.552 33.3781C78.0074 33.3781 78.0074 37.3229 41.4625 37.3229C4.91755 37.3229 5.54892 34.2733 -30.8128 33.388C-34.4683 33.299 -39.7715 34.4607 -39.7715 33.5709C-39.7715 32.6816 -23.4835 32.6816 -23.4835 31.7923C-23.4835 30.9026 -39.7715 30.9026 -39.7715 30.0129C-39.7715 29.1232 -23.4835 29.1228 -23.4835 28.2327C-23.4835 27.3426 -39.7715 27.3426 -39.7715 26.4525C-39.7715 25.5625 -23.4835 25.5624 -23.4835 24.6723C-23.4835 23.7822 -39.7715 23.782 -39.7715 22.8917C-39.7715 22.0018 -23.4835 22.0018 -23.4835 21.112C-23.4835 20.2213 -39.7715 20.2213 -39.7715 19.3307C-39.7715 18.4395 -23.4835 18.4395 -23.4835 17.5482C-23.4835 16.6569 -36.105 13.8925 -32.4436 13.8032C3.91047 12.9164 4.9104 17.7381 41.4484 17.7381C77.9865 17.7381 77.9883 13.7933 114.528 13.7933C151.068 13.7933 151.069 17.7381 187.609 17.7381C224.15 17.7381 224.149 13.7933 260.688 13.7933C297.227 13.7933 297.229 17.7381 333.77 17.7381C370.311 17.7381 370.309 13.7933 406.847 13.7933C443.386 13.7933 443.387 17.7381 479.926 17.7381C516.466 17.7381 516.467 13.7933 553.008 13.7933C589.55 13.7933 589.548 17.7381 626.088 17.7381C662.628 17.7381 662.633 13.7933 699.178 13.7933C735.723 13.7933 735.092 16.8429 771.453 17.7282C775.109 17.8172 780.412 16.6555 780.412 17.5453C780.412 18.4346 764.124 18.4346 764.124 19.3238C764.124 20.2131 780.412 20.2135 780.412 21.1032C780.412 21.9929 764.124 21.9933 764.124 22.8834C764.124 23.7735 780.412 23.7735 780.412 24.6636C780.412 25.5537 764.124 25.5537 764.124 26.4439C764.124 27.334 780.412 27.3342 780.412 28.2245C780.412 29.1144 764.124 29.1144 764.124 30.0042C764.124 30.8949 780.412 30.8949 780.412 31.7855C780.412 32.6767 763.562 33.0797 764.281 33.9537C765.878 35.8928 776.745 37.2236 773.084 37.313Z" fill="#008F46"/>
<path d="M773.148 37.6557C736.794 38.5425 735.794 33.7208 699.256 33.7208C662.716 33.7208 662.716 37.6657 626.176 37.6657C589.636 37.6657 589.636 33.7208 553.095 33.7208C516.556 33.7208 516.556 37.6657 480.016 37.6657C443.476 37.6657 443.476 33.7208 406.935 33.7208C370.396 33.7208 370.396 37.6657 333.857 37.6657C297.318 37.6657 297.318 33.7208 260.778 33.7208C224.237 33.7208 224.237 37.6657 187.696 37.6657C151.156 37.6657 151.156 33.7208 114.616 33.7208C78.0714 33.7208 78.0714 37.6657 41.5264 37.6657C4.98151 37.6657 5.61288 34.6161 -30.7489 33.7307C-34.4044 33.6417 -39.7075 34.8035 -39.7075 33.9137C-39.7075 33.0244 -23.4196 33.0244 -23.4196 32.1351C-23.4196 31.2454 -39.7075 31.2454 -39.7075 30.3557C-39.7075 29.466 -23.4196 29.4656 -23.4196 28.5755C-23.4196 27.6854 -39.7075 27.6854 -39.7075 26.7953C-39.7075 25.9052 -23.4196 25.9052 -23.4196 25.0151C-23.4196 24.125 -39.7075 24.1248 -39.7075 23.2344C-39.7075 22.3446 -23.4196 22.3446 -23.4196 21.4547C-23.4196 20.5641 -39.7075 20.5641 -39.7075 19.6735C-39.7075 18.7822 -23.4196 18.7822 -23.4196 17.891C-23.4196 16.9997 -36.041 14.2353 -32.3796 14.146C3.97444 13.2592 4.97436 18.0809 41.5124 18.0809C78.0505 18.0809 78.0523 14.1361 114.592 14.1361C151.132 14.1361 151.133 18.0809 187.673 18.0809C224.214 18.0809 224.213 14.1361 260.752 14.1361C297.291 14.1361 297.293 18.0809 333.834 18.0809C370.375 18.0809 370.373 14.1361 406.911 14.1361C443.45 14.1361 443.451 18.0809 479.99 18.0809C516.53 18.0809 516.531 14.1361 553.072 14.1361C589.613 14.1361 589.612 18.0809 626.152 18.0809C662.692 18.0809 662.697 14.1361 699.242 14.1361C735.787 14.1361 735.156 17.1857 771.517 18.071C775.173 18.16 780.476 16.9983 780.476 17.8881C780.476 18.7773 764.188 18.7773 764.188 19.6666C764.188 20.5559 780.476 20.5563 780.476 21.446C780.476 22.3357 764.188 22.3361 764.188 23.2262C764.188 24.1163 780.476 24.1163 780.476 25.0064C780.476 25.8965 764.188 25.8965 764.188 26.7866C764.188 27.6768 780.476 27.677 780.476 28.5673C780.476 29.4572 764.188 29.4572 764.188 30.347C764.188 31.2376 780.476 31.2376 780.476 32.1283C780.476 33.0195 763.626 33.4224 764.345 34.2965C765.942 36.2356 776.809 37.5664 773.148 37.6557Z" fill="#008E45"/>
<path d="M773.212 37.999C736.858 38.8858 735.857 34.0641 699.32 34.0641C662.78 34.0641 662.78 38.0089 626.24 38.0089C589.699 38.0089 589.699 34.0641 553.159 34.0641C516.619 34.0641 516.619 38.0089 480.08 38.0089C443.539 38.0089 443.539 34.0641 406.998 34.0641C370.459 34.0641 370.459 38.0089 333.921 38.0089C297.381 38.0089 297.381 34.0641 260.842 34.0641C224.301 34.0641 224.301 38.0089 187.76 38.0089C151.22 38.0089 151.22 34.0641 114.68 34.0641C78.1348 34.0641 78.1349 38.0089 41.5899 38.0089C5.04499 38.0089 5.67636 34.9593 -30.6854 34.074C-34.3409 33.985 -39.644 35.1467 -39.644 34.2569C-39.644 33.3677 -23.3561 33.3676 -23.3561 32.4784C-23.3561 31.5887 -39.644 31.5887 -39.644 30.699C-39.644 29.8093 -23.3561 29.8089 -23.3561 28.9188C-23.3561 28.0287 -39.644 28.0287 -39.644 27.1386C-39.644 26.2485 -23.3561 26.2485 -23.3561 25.3584C-23.3561 24.4682 -39.644 24.468 -39.644 23.5777C-39.644 22.6878 -23.3561 22.6878 -23.3561 21.798C-23.3561 20.9074 -39.644 20.9074 -39.644 20.0167C-39.644 19.1255 -23.3561 19.1255 -23.3561 18.2342C-23.3561 17.343 -35.9775 14.5786 -32.3161 14.4892C4.03791 13.6025 5.03784 18.4241 41.5759 18.4241C78.114 18.4241 78.1157 14.4793 114.656 14.4793C151.196 14.4793 151.196 18.4241 187.737 18.4241C224.277 18.4241 224.276 14.4793 260.816 14.4793C297.355 14.4793 297.356 18.4241 333.897 18.4241C370.438 18.4241 370.436 14.4793 406.975 14.4793C443.514 14.4793 443.514 18.4241 480.054 18.4241C516.593 18.4241 516.595 14.4793 553.136 14.4793C589.677 14.4793 589.676 18.4241 626.216 18.4241C662.755 18.4241 662.761 14.4793 699.306 14.4793C735.85 14.4793 735.219 17.5289 771.581 18.4143C775.236 18.5033 780.54 17.3415 780.54 18.2313C780.54 19.1206 764.252 19.1206 764.252 20.0099C764.252 20.8996 780.54 20.8996 780.54 21.7893C780.54 22.679 764.252 22.6794 764.252 23.5695C764.252 24.4596 780.54 24.4596 780.54 25.3497C780.54 26.2398 764.252 26.2398 764.252 27.1299C764.252 28.02 780.54 28.0202 780.54 28.9106C780.54 29.8004 764.252 29.8004 764.252 30.6903C764.252 31.5809 780.54 31.5809 780.54 32.4715C780.54 33.3628 763.689 33.7657 764.409 34.6397C766.005 36.5788 776.873 37.9097 773.212 37.999Z" fill="#008D45"/>
<path d="M773.274 38.3423C736.92 39.229 735.92 34.4074 699.382 34.4074C662.842 34.4074 662.842 38.3522 626.302 38.3522C589.762 38.3522 589.762 34.4074 553.221 34.4074C516.682 34.4074 516.682 38.3522 480.142 38.3522C443.602 38.3522 443.602 34.4074 407.061 34.4074C370.522 34.4074 370.522 38.3522 333.983 38.3522C297.444 38.3522 297.444 34.4074 260.904 34.4074C224.363 34.4074 224.363 38.3522 187.822 38.3522C151.282 38.3522 151.282 34.4074 114.742 34.4074C78.1973 34.4074 78.1974 38.3522 41.6524 38.3522C5.10749 38.3522 5.73886 35.3026 -30.6229 34.4173C-34.2784 34.3283 -39.5815 35.49 -39.5815 34.6002C-39.5815 33.7109 -23.2936 33.7109 -23.2936 32.8216C-23.2936 31.9319 -39.5815 31.9319 -39.5815 31.0422C-39.5815 30.1525 -23.2936 30.1521 -23.2936 29.262C-23.2936 28.3719 -39.5815 28.3719 -39.5815 27.4818C-39.5815 26.5917 -23.2936 26.5917 -23.2936 25.7016C-23.2936 24.8115 -39.5815 24.8113 -39.5815 23.921C-39.5815 23.0311 -23.2936 23.0311 -23.2936 22.1413C-23.2936 21.2506 -39.5815 21.2506 -39.5815 20.36C-39.5815 19.4688 -23.2936 19.4688 -23.2936 18.5775C-23.2936 17.6862 -35.915 14.9218 -32.2536 14.8325C4.10041 13.9457 5.10034 18.7674 41.6384 18.7674C78.1765 18.7674 78.1782 14.8226 114.718 14.8226C151.258 14.8226 151.259 18.7674 187.799 18.7674C224.34 18.7674 224.339 14.8226 260.878 14.8226C297.417 14.8226 297.419 18.7674 333.96 18.7674C370.501 18.7674 370.499 14.8226 407.037 14.8226C443.576 14.8226 443.577 18.7674 480.116 18.7674C516.656 18.7674 516.657 14.8226 553.198 14.8226C589.739 14.8226 589.738 18.7674 626.278 18.7674C662.818 18.7674 662.823 14.8226 699.368 14.8226C735.913 14.8226 735.282 17.8722 771.643 18.7575C775.299 18.8465 780.602 17.6848 780.602 18.5746C780.602 19.4639 764.314 19.4639 764.314 20.3531C764.314 21.2424 780.602 21.2428 780.602 22.1325C780.602 23.0222 764.314 23.0226 764.314 23.9127C764.314 24.8028 780.602 24.8028 780.602 25.6929C780.602 26.583 764.314 26.583 764.314 27.4732C764.314 28.3633 780.602 28.3635 780.602 29.2538C780.602 30.1437 764.314 30.1437 764.314 31.0335C764.314 31.9241 780.602 31.9241 780.602 32.8148C780.602 33.706 763.752 34.109 764.471 34.983C766.068 36.9221 776.935 38.2529 773.274 38.3423Z" fill="#008B44"/>
<path d="M773.34 38.6855C736.986 39.5723 735.985 34.7506 699.448 34.7506C662.908 34.7506 662.908 38.6955 626.368 38.6955C589.827 38.6955 589.827 34.7506 553.287 34.7506C516.747 34.7506 516.747 38.6955 480.208 38.6955C443.667 38.6955 443.667 34.7506 407.126 34.7506C370.587 34.7506 370.587 38.6955 334.049 38.6955C297.509 38.6955 297.509 34.7506 260.97 34.7506C224.429 34.7506 224.429 38.6955 187.888 38.6955C151.348 38.6955 151.348 34.7506 114.808 34.7506C78.2628 34.7506 78.2628 38.6955 41.7179 38.6955C5.17292 38.6955 5.80429 35.6459 -30.5575 34.7605C-34.213 34.6715 -39.5161 35.8332 -39.5161 34.9434C-39.5161 34.0542 -23.2282 34.0542 -23.2282 33.1649C-23.2282 32.2752 -39.5161 32.2752 -39.5161 31.3855C-39.5161 30.4958 -23.2282 30.4954 -23.2282 29.6053C-23.2282 28.7152 -39.5161 28.7152 -39.5161 27.8251C-39.5161 26.935 -23.2282 26.935 -23.2282 26.0449C-23.2282 25.1547 -39.5161 25.1545 -39.5161 24.2642C-39.5161 23.3743 -23.2282 23.3743 -23.2282 22.4845C-23.2282 21.5939 -39.5161 21.5939 -39.5161 20.7032C-39.5161 19.812 -23.2282 19.812 -23.2282 18.9208C-23.2282 18.0295 -35.8496 15.2651 -32.1882 15.1758C4.16584 14.289 5.16577 19.1107 41.7038 19.1107C78.2419 19.1107 78.2437 15.1658 114.784 15.1658C151.324 15.1658 151.324 19.1107 187.865 19.1107C224.405 19.1107 224.404 15.1658 260.943 15.1658C297.483 15.1658 297.484 19.1107 334.025 19.1107C370.566 19.1107 370.564 15.1658 407.103 15.1658C443.642 15.1658 443.642 19.1107 480.182 19.1107C516.721 19.1107 516.723 15.1658 553.264 15.1658C589.805 15.1658 589.804 19.1107 626.344 19.1107C662.883 19.1107 662.889 15.1658 699.433 15.1658C735.978 15.1658 735.347 18.2154 771.709 19.1008C775.364 19.1898 780.667 18.0281 780.667 18.9179C780.667 19.8071 764.379 19.8071 764.379 20.6964C764.379 21.5861 780.667 21.5861 780.667 22.4758C780.667 23.3655 764.379 23.3659 764.379 24.256C764.379 25.1461 780.667 25.1461 780.667 26.0362C780.667 26.9263 764.379 26.9263 764.379 27.8164C764.379 28.7065 780.667 28.7067 780.667 29.5971C780.667 30.4869 764.379 30.4869 764.379 31.3768C764.379 32.2674 780.667 32.2674 780.667 33.158C780.667 34.0493 763.817 34.4522 764.537 35.3262C766.133 37.2653 777.001 38.5962 773.34 38.6855Z" fill="#008A43"/>
<path d="M773.403 39.0283C737.049 39.9151 736.049 35.0934 699.511 35.0934C662.972 35.0934 662.972 39.0382 626.432 39.0382C589.891 39.0382 589.891 35.0934 553.351 35.0934C516.811 35.0934 516.811 39.0382 480.272 39.0382C443.731 39.0382 443.731 35.0934 407.19 35.0934C370.649 35.0934 370.651 39.0382 334.112 39.0382C297.573 39.0382 297.573 35.0934 261.034 35.0934C224.493 35.0934 224.493 39.0382 187.951 39.0382C151.412 39.0382 151.412 35.0934 114.872 35.0934C78.3268 35.0934 78.3267 39.0382 41.7818 39.0382C5.23689 39.0382 5.86826 35.9886 -30.4935 35.1033C-34.149 35.0143 -39.4521 36.176 -39.4521 35.2862C-39.4521 34.3969 -23.1642 34.3969 -23.1642 33.5077C-23.1642 32.618 -39.4521 32.618 -39.4521 31.7283C-39.4521 30.8386 -23.1642 30.8382 -23.1642 29.9481C-23.1642 29.058 -39.4521 29.058 -39.4521 28.1679C-39.4521 27.2778 -23.1642 27.2778 -23.1642 26.3876C-23.1642 25.4975 -39.4521 25.4973 -39.4521 24.607C-39.4521 23.7171 -23.1642 23.7171 -23.1642 22.8273C-23.1642 21.9367 -39.4521 21.9367 -39.4521 21.046C-39.4521 20.1548 -23.1642 20.1548 -23.1642 19.2635C-23.1642 18.3723 -35.7856 15.6079 -32.1242 15.5185C4.22981 14.6318 5.22974 19.4534 41.7678 19.4534C78.3058 19.4534 78.3076 15.5086 114.848 15.5086C151.388 15.5086 151.388 19.4534 187.929 19.4534C224.469 19.4534 224.468 15.5086 261.007 15.5086C297.547 15.5086 297.548 19.4534 334.089 19.4534C370.63 19.4534 370.628 15.5086 407.167 15.5086C443.706 15.5086 443.706 19.4534 480.246 19.4534C516.785 19.4534 516.787 15.5086 553.328 15.5086C589.869 15.5086 589.868 19.4534 626.408 19.4534C662.947 19.4534 662.953 15.5086 699.497 15.5086C736.042 15.5086 735.411 18.5582 771.773 19.4436C775.428 19.5325 780.731 18.3708 780.731 19.2606C780.731 20.1499 764.443 20.1499 764.443 21.0392C764.443 21.9289 780.731 21.9289 780.731 22.8186C780.731 23.7083 764.443 23.7087 764.443 24.5988C764.443 25.4889 780.731 25.4889 780.731 26.379C780.731 27.2691 764.443 27.2691 764.443 28.1592C764.443 29.0493 780.731 29.0495 780.731 29.9399C780.731 30.8297 764.443 30.8297 764.443 31.7196C764.443 32.6102 780.731 32.6102 780.731 33.5008C780.731 34.392 763.881 34.795 764.601 35.669C766.197 37.6081 777.065 38.939 773.403 39.0283Z" fill="#008843"/>
<path d="M773.467 39.3721C737.112 40.2588 736.112 35.4371 699.574 35.4371C663.035 35.4371 663.035 39.382 626.495 39.382C589.954 39.382 589.954 35.4371 553.414 35.4371C516.874 35.4371 516.874 39.382 480.335 39.382C443.794 39.382 443.794 35.4371 407.253 35.4371C370.714 35.4371 370.714 39.382 334.175 39.382C297.636 39.382 297.636 35.4371 261.097 35.4371C224.556 35.4371 224.556 39.382 188.014 39.382C151.475 39.382 151.475 35.4371 114.935 35.4371C78.3897 35.4371 78.3897 39.382 41.8448 39.382C5.29987 39.382 5.93124 36.3324 -30.4305 35.447C-34.086 35.358 -39.3892 36.5198 -39.3892 35.63C-39.3892 34.7407 -23.1012 34.7407 -23.1012 33.8514C-23.1012 32.9617 -39.3892 32.9617 -39.3892 32.072C-39.3892 31.1823 -23.1012 31.1819 -23.1012 30.2918C-23.1012 29.4017 -39.3892 29.4017 -39.3892 28.5116C-39.3892 27.6215 -23.1012 27.6215 -23.1012 26.7314C-23.1012 25.8413 -39.3892 25.8411 -39.3892 24.9507C-39.3892 24.0609 -23.1012 24.0609 -23.1012 23.171C-23.1012 22.2804 -39.3892 22.2804 -39.3892 21.3898C-39.3892 20.4985 -23.1012 20.4985 -23.1012 19.6073C-23.1012 18.716 -35.7227 15.9516 -32.0613 15.8623C4.2928 14.9755 5.29272 19.7972 41.8308 19.7972C78.3688 19.7972 78.3706 15.8524 114.911 15.8524C151.451 15.8524 151.451 19.7972 187.992 19.7972C224.532 19.7972 224.531 15.8524 261.07 15.8524C297.61 15.8524 297.611 19.7972 334.152 19.7972C370.693 19.7972 370.691 15.8524 407.23 15.8524C443.768 15.8524 443.769 19.7972 480.309 19.7972C516.848 19.7972 516.85 15.8524 553.391 15.8524C589.932 15.8524 589.931 19.7972 626.471 19.7972C663.01 19.7972 663.016 15.8524 699.56 15.8524C736.105 15.8524 735.474 18.902 771.836 19.7873C775.491 19.8763 780.794 18.7146 780.794 19.6044C780.794 20.4936 764.506 20.4936 764.506 21.3829C764.506 22.2722 780.794 22.2726 780.794 23.1623C780.794 24.052 764.506 24.0524 764.506 24.9425C764.506 25.8326 780.794 25.8326 780.794 26.7227C780.794 27.6128 764.506 27.6128 764.506 28.5029C764.506 29.3931 780.794 29.3933 780.794 30.2836C780.794 31.1735 764.506 31.1735 764.506 32.0633C764.506 32.9539 780.794 32.9539 780.794 33.8446C780.794 34.7358 763.944 35.1387 764.664 36.0128C766.26 37.9519 777.128 39.2827 773.467 39.3721Z" fill="#008742"/>
<path d="M773.53 39.7153C737.176 40.6021 736.176 35.7804 699.638 35.7804C663.098 35.7804 663.098 39.7252 626.558 39.7252C590.018 39.7252 590.018 35.7804 553.477 35.7804C516.938 35.7804 516.938 39.7252 480.398 39.7252C443.857 39.7252 443.857 35.7804 407.317 35.7804C370.778 35.7804 370.778 39.7252 334.239 39.7252C297.7 39.7252 297.7 35.7804 261.16 35.7804C224.619 35.7804 224.619 39.7252 188.078 39.7252C151.538 39.7252 151.538 35.7804 114.998 35.7804C78.4532 35.7804 78.4532 39.7252 41.9083 39.7252C5.36335 39.7252 5.99472 36.6756 -30.367 35.7903C-34.0225 35.7013 -39.3257 36.863 -39.3257 35.9732C-39.3257 35.084 -23.0377 35.084 -23.0377 34.1947C-23.0377 33.305 -39.3257 33.305 -39.3257 32.4153C-39.3257 31.5256 -23.0377 31.5252 -23.0377 30.6351C-23.0377 29.745 -39.3257 29.745 -39.3257 28.8549C-39.3257 27.9648 -23.0377 27.9648 -23.0377 27.0747C-23.0377 26.1845 -39.3257 26.1843 -39.3257 25.294C-39.3257 24.4041 -23.0377 24.4041 -23.0377 23.5143C-23.0377 22.6237 -39.3257 22.6237 -39.3257 21.733C-39.3257 20.8418 -23.0377 20.8418 -23.0377 19.9505C-23.0377 19.0593 -35.6592 16.2949 -31.9978 16.2056C4.35627 15.3188 5.3562 20.1405 41.8943 20.1405C78.4323 20.1405 78.4341 16.1956 114.974 16.1956C151.514 16.1956 151.515 20.1405 188.055 20.1405C224.596 20.1405 224.595 16.1956 261.134 16.1956C297.673 16.1956 297.675 20.1405 334.216 20.1405C370.756 20.1405 370.754 16.1956 407.293 16.1956C443.832 16.1956 443.833 20.1405 480.372 20.1405C516.911 20.1405 516.913 16.1956 553.454 16.1956C589.995 16.1956 589.994 20.1405 626.534 20.1405C663.074 20.1405 663.079 16.1956 699.624 16.1956C736.169 16.1956 735.537 19.2452 771.899 20.1306C775.555 20.2196 780.858 19.0578 780.858 19.9476C780.858 20.8369 764.57 20.8369 764.57 21.7262C764.57 22.6154 780.858 22.6159 780.858 23.5056C780.858 24.3953 764.57 24.3957 764.57 25.2858C764.57 26.1759 780.858 26.1759 780.858 27.066C780.858 27.9561 764.57 27.9561 764.57 28.8462C764.57 29.7363 780.858 29.7365 780.858 30.6269C780.858 31.5167 764.57 31.5167 764.57 32.4066C764.57 33.2972 780.858 33.2972 780.858 34.1878C780.858 35.0791 764.007 35.482 764.727 36.356C766.324 38.2951 777.191 39.626 773.53 39.7153Z" fill="#008541"/>
<path d="M773.594 40.0581C737.24 40.9449 736.24 36.1232 699.702 36.1232C663.163 36.1232 663.163 40.068 626.623 40.068C590.082 40.068 590.082 36.1232 553.542 36.1232C517.002 36.1232 517.002 40.068 480.463 40.068C443.922 40.068 443.922 36.1232 407.381 36.1232C370.842 36.1232 370.842 40.068 334.303 40.068C297.764 40.068 297.764 36.1232 261.225 36.1232C224.683 36.1232 224.683 40.068 188.142 40.068C151.602 40.068 151.602 36.1232 115.063 36.1232C78.5177 36.1232 78.5177 40.068 41.9727 40.068C5.42781 40.068 6.05918 37.0184 -30.3026 36.1331C-33.9581 36.0441 -39.2612 37.2058 -39.2612 36.316C-39.2612 35.4267 -22.9733 35.4267 -22.9733 34.5375C-22.9733 33.6478 -39.2612 33.6478 -39.2612 32.7581C-39.2612 31.8684 -22.9733 31.868 -22.9733 30.9779C-22.9733 30.0878 -39.2612 30.0878 -39.2612 29.1977C-39.2612 28.3076 -22.9733 28.3076 -22.9733 27.4174C-22.9733 26.5273 -39.2612 26.5271 -39.2612 25.6368C-39.2612 24.7469 -22.9733 24.7469 -22.9733 23.8571C-22.9733 22.9664 -39.2612 22.9664 -39.2612 22.0758C-39.2612 21.1846 -22.9733 21.1846 -22.9733 20.2933C-22.9733 19.402 -35.5947 16.6377 -31.9333 16.5483C4.42073 15.6616 5.42065 20.4832 41.9587 20.4832C78.4968 20.4832 78.4986 16.5384 115.039 16.5384C151.579 16.5384 151.579 20.4832 188.12 20.4832C224.66 20.4832 224.659 16.5384 261.198 16.5384C297.738 16.5384 297.739 20.4832 334.28 20.4832C370.821 20.4832 370.819 16.5384 407.358 16.5384C443.896 16.5384 443.897 20.4832 480.437 20.4832C516.976 20.4832 516.978 16.5384 553.519 16.5384C590.06 16.5384 590.059 20.4832 626.599 20.4832C663.138 20.4832 663.143 16.5384 699.688 16.5384C736.233 16.5384 735.602 19.588 771.964 20.4733C775.619 20.5623 780.922 19.4006 780.922 20.2904C780.922 21.1797 764.634 21.1797 764.634 22.0689C764.634 22.9582 780.922 22.9586 780.922 23.8483C780.922 24.738 764.634 24.7384 764.634 25.6285C764.634 26.5186 780.922 26.5186 780.922 27.4087C780.922 28.2988 764.634 28.2988 764.634 29.189C764.634 30.0791 780.922 30.0793 780.922 30.9696C780.922 31.8595 764.634 31.8595 764.634 32.7493C764.634 33.64 780.922 33.64 780.922 34.5306C780.922 35.4218 764.072 35.8248 764.792 36.6988C766.388 38.6379 777.256 39.9688 773.594 40.0581Z" fill="#008440"/>
<path d="M773.658 40.4013C737.304 41.2881 736.304 36.4664 699.766 36.4664C663.227 36.4664 663.227 40.4113 626.687 40.4113C590.146 40.4113 590.146 36.4664 553.605 36.4664C517.066 36.4664 517.066 40.4113 480.527 40.4113C443.986 40.4113 443.986 36.4664 407.445 36.4664C370.906 36.4664 370.906 40.4113 334.367 40.4113C297.828 40.4113 297.828 36.4664 261.289 36.4664C224.747 36.4664 224.747 40.4113 188.206 40.4113C151.666 40.4113 151.666 36.4664 115.127 36.4664C78.5816 36.4664 78.5816 40.4113 42.0367 40.4113C5.49177 40.4113 6.12314 37.3617 -30.2386 36.4763C-33.8941 36.3873 -39.1973 37.5491 -39.1973 36.6593C-39.1973 35.77 -22.9093 35.77 -22.9093 34.8807C-22.9093 33.991 -39.1973 33.991 -39.1973 33.1013C-39.1973 32.2116 -22.9093 32.2112 -22.9093 31.3211C-22.9093 30.431 -39.1973 30.431 -39.1973 29.5409C-39.1973 28.6508 -22.9093 28.6508 -22.9093 27.7607C-22.9093 26.8706 -39.1973 26.8704 -39.1973 25.98C-39.1973 25.0902 -22.9093 25.0902 -22.9093 24.2003C-22.9093 23.3097 -39.1973 23.3097 -39.1973 22.4191C-39.1973 21.5278 -22.9093 21.5278 -22.9093 20.6366C-22.9093 19.7453 -35.5308 16.9809 -31.8694 16.8916C4.48469 16.0048 5.48462 20.8265 42.0227 20.8265C78.5607 20.8265 78.5625 16.8817 115.102 16.8817C151.642 16.8817 151.643 20.8265 188.184 20.8265C224.724 20.8265 224.723 16.8817 261.262 16.8817C297.802 16.8817 297.803 20.8265 334.344 20.8265C370.885 20.8265 370.883 16.8817 407.422 16.8817C443.96 16.8817 443.961 20.8265 480.5 20.8265C517.04 20.8265 517.042 16.8817 553.583 16.8817C590.124 16.8817 590.123 20.8265 626.662 20.8265C663.202 20.8265 663.207 16.8817 699.752 16.8817C736.297 16.8817 735.666 19.9313 772.028 20.8166C775.683 20.9056 780.986 19.7439 780.986 20.6337C780.986 21.5229 764.698 21.5229 764.698 22.4122C764.698 23.3015 780.986 23.3019 780.986 24.1916C780.986 25.0813 764.698 25.0817 764.698 25.9718C764.698 26.8619 780.986 26.8619 780.986 27.752C780.986 28.6421 764.698 28.6421 764.698 29.5322C764.698 30.4224 780.986 30.4226 780.986 31.3129C780.986 32.2028 764.698 32.2028 764.698 33.0926C764.698 33.9832 780.986 33.9832 780.986 34.8739C780.986 35.7651 764.136 36.168 764.856 37.0421C766.452 38.9812 777.32 40.312 773.658 40.4013Z" fill="#008340"/>
<path d="M773.721 40.7446C737.367 41.6314 736.367 36.8097 699.829 36.8097C663.29 36.8097 663.289 40.7545 626.75 40.7545C590.209 40.7545 590.209 36.8097 553.668 36.8097C517.129 36.8097 517.129 40.7545 480.59 40.7545C444.049 40.7545 444.049 36.8097 407.508 36.8097C370.969 36.8097 370.969 40.7545 334.43 40.7545C297.891 40.7545 297.891 36.8097 261.352 36.8097C224.81 36.8097 224.81 40.7545 188.269 40.7545C151.729 40.7545 151.729 36.8097 115.19 36.8097C78.6446 36.8097 78.6446 40.7545 42.0997 40.7545C5.55476 40.7545 6.18613 37.7049 -30.1756 36.8196C-33.8311 36.7306 -39.1343 37.8923 -39.1343 37.0025C-39.1343 36.1133 -22.8463 36.1133 -22.8463 35.224C-22.8463 34.3343 -39.1343 34.3343 -39.1343 33.4446C-39.1343 32.5549 -22.8463 32.5545 -22.8463 31.6644C-22.8463 30.7743 -39.1343 30.7743 -39.1343 29.8842C-39.1343 28.9941 -22.8463 28.9941 -22.8463 28.104C-22.8463 27.2138 -39.1343 27.2136 -39.1343 26.3233C-39.1343 25.4334 -22.8463 25.4334 -22.8463 24.5436C-22.8463 23.653 -39.1343 23.653 -39.1343 22.7623C-39.1343 21.8711 -22.8463 21.8711 -22.8463 20.9798C-22.8463 20.0886 -35.4678 17.3242 -31.8064 17.2348C4.54768 16.3481 5.54761 21.1698 42.0857 21.1698C78.6237 21.1698 78.6255 17.2249 115.165 17.2249C151.705 17.2249 151.706 21.1698 188.247 21.1698C224.787 21.1698 224.786 17.2249 261.325 17.2249C297.865 17.2249 297.866 21.1698 334.407 21.1698C370.948 21.1698 370.946 17.2249 407.485 17.2249C444.023 17.2249 444.024 21.1698 480.563 21.1698C517.103 21.1698 517.105 17.2249 553.646 17.2249C590.187 17.2249 590.186 21.1698 626.725 21.1698C663.265 21.1698 663.27 17.2249 699.815 17.2249C736.36 17.2249 735.729 20.2745 772.091 21.1599C775.746 21.2489 781.049 20.0871 781.049 20.9769C781.049 21.8662 764.761 21.8662 764.761 22.7555C764.761 23.6447 781.049 23.6452 781.049 24.5349C781.049 25.4246 764.761 25.425 764.761 26.3151C764.761 27.2052 781.049 27.2052 781.049 28.0953C781.049 28.9854 764.761 28.9854 764.761 29.8755C764.761 30.7656 781.049 30.7658 781.049 31.6562C781.049 32.546 764.761 32.546 764.761 33.4359C764.761 34.3265 781.049 34.3265 781.049 35.2171C781.049 36.1084 764.199 36.5113 764.919 37.3853C766.515 39.3244 777.383 40.6553 773.721 40.7446Z" fill="#00813F"/>
<path d="M773.786 41.0884C737.432 41.9751 736.432 37.1535 699.894 37.1535C663.354 37.1535 663.354 41.0983 626.814 41.0983C590.273 41.0983 590.273 37.1535 553.733 37.1535C517.193 37.1535 517.193 41.0983 480.654 41.0983C444.113 41.0983 444.113 37.1535 407.572 37.1535C371.032 37.1535 371.034 41.0983 334.495 41.0983C297.955 41.0983 297.955 37.1535 261.416 37.1535C224.877 37.1535 224.875 41.0983 188.334 41.0983C151.794 41.0983 151.794 37.1535 115.254 37.1535C78.7091 37.1535 78.7091 41.0983 42.1641 41.0983C5.61921 41.0983 6.25058 38.0487 -30.1112 37.1633C-33.7667 37.0744 -39.0698 38.2361 -39.0698 37.3463C-39.0698 36.457 -22.7819 36.457 -22.7819 35.5677C-22.7819 34.678 -39.0698 34.678 -39.0698 33.7883C-39.0698 32.8986 -22.7819 32.8982 -22.7819 32.0081C-22.7819 31.118 -39.0698 31.118 -39.0698 30.2279C-39.0698 29.3378 -22.7819 29.3378 -22.7819 28.4477C-22.7819 27.5576 -39.0698 27.5574 -39.0698 26.667C-39.0698 25.7772 -22.7819 25.7772 -22.7819 24.8873C-22.7819 23.9967 -39.0698 23.9967 -39.0698 23.1061C-39.0698 22.2149 -22.7819 22.2148 -22.7819 21.3236C-22.7819 20.4323 -35.4033 17.6679 -31.7419 17.5786C4.61213 16.6918 5.61206 21.5135 42.1501 21.5135C78.6882 21.5135 78.6899 17.5687 115.23 17.5687C151.77 17.5687 151.77 21.5135 188.311 21.5135C224.852 21.5135 224.85 17.5687 261.39 17.5687C297.929 17.5687 297.931 21.5135 334.471 21.5135C371.012 21.5135 371.01 17.5687 407.549 17.5687C444.088 17.5687 444.089 21.5135 480.628 21.5135C517.167 21.5135 517.169 17.5687 553.71 17.5687C590.251 17.5687 590.25 21.5135 626.79 21.5135C663.33 21.5135 663.335 17.5687 699.88 17.5687C736.425 17.5687 735.793 20.6183 772.155 21.5036C775.811 21.5926 781.114 20.4309 781.114 21.3207C781.114 22.21 764.826 22.21 764.826 23.0992C764.826 23.9889 781.114 23.9889 781.114 24.8786C781.114 25.7683 764.826 25.7687 764.826 26.6588C764.826 27.5489 781.114 27.5489 781.114 28.439C781.114 29.3291 764.826 29.3291 764.826 30.2192C764.826 31.1094 781.114 31.1096 781.114 31.9999C781.114 32.8898 764.826 32.8898 764.826 33.7796C764.826 34.6702 781.114 34.6702 781.114 35.5609C781.114 36.4521 764.263 36.8551 764.983 37.7291C766.579 39.6682 777.447 40.999 773.786 41.0884Z" fill="#00803E"/>
<path d="M773.849 41.4311C737.495 42.3179 736.495 37.4962 699.957 37.4962C663.417 37.4962 663.417 41.4411 626.877 41.4411C590.336 41.4411 590.336 37.4962 553.796 37.4962C517.256 37.4962 517.256 41.4411 480.717 41.4411C444.176 41.4411 444.176 37.4962 407.635 37.4962C371.097 37.4962 371.097 41.4411 334.558 41.4411C298.018 41.4411 298.018 37.4962 261.479 37.4962C224.938 37.4962 224.938 41.4411 188.397 41.4411C151.857 41.4411 151.857 37.4962 115.317 37.4962C78.7721 37.4962 78.7721 41.4411 42.2271 41.4411C5.6822 41.4411 6.31357 38.3915 -30.0482 37.5061C-33.7037 37.4171 -39.0068 38.5788 -39.0068 37.689C-39.0068 36.7998 -22.7189 36.7998 -22.7189 35.9105C-22.7189 35.0208 -39.0068 35.0208 -39.0068 34.1311C-39.0068 33.2414 -22.7189 33.241 -22.7189 32.3509C-22.7189 31.4608 -39.0068 31.4608 -39.0068 30.5707C-39.0068 29.6806 -22.7189 29.6806 -22.7189 28.7905C-22.7189 27.9003 -39.0068 27.9001 -39.0068 27.0098C-39.0068 26.1199 -22.7189 26.12 -22.7189 25.2301C-22.7189 24.3395 -39.0068 24.3395 -39.0068 23.4489C-39.0068 22.5576 -22.7189 22.5576 -22.7189 21.6664C-22.7189 20.7751 -35.3403 18.0107 -31.6789 17.9214C4.67512 17.0346 5.67505 21.8563 42.2131 21.8563C78.7512 21.8563 78.7529 17.9114 115.293 17.9114C151.833 17.9114 151.833 21.8563 188.374 21.8563C224.915 21.8563 224.913 17.9114 261.453 17.9114C297.992 17.9114 297.994 21.8563 334.534 21.8563C371.075 21.8563 371.073 17.9114 407.612 17.9114C444.151 17.9114 444.151 21.8563 480.691 21.8563C517.23 21.8563 517.232 17.9114 553.773 17.9114C590.314 17.9114 590.313 21.8563 626.853 21.8563C663.393 21.8563 663.398 17.9114 699.943 17.9114C736.488 17.9114 735.856 20.961 772.218 21.8464C775.874 21.9354 781.177 20.7737 781.177 21.6635C781.177 22.5527 764.889 22.5527 764.889 23.442C764.889 24.3317 781.177 24.3317 781.177 25.2214C781.177 26.1111 764.889 26.1115 764.889 27.0016C764.889 27.8917 781.177 27.8917 781.177 28.7818C781.177 29.6719 764.889 29.6719 764.889 30.562C764.889 31.4522 781.177 31.4524 781.177 32.3427C781.177 33.2326 764.889 33.2326 764.889 34.1224C764.889 35.013 781.177 35.013 781.177 35.9036C781.177 36.7949 764.326 37.1978 765.046 38.0718C766.642 40.0109 777.51 41.3418 773.849 41.4311Z" fill="#007E3E"/>
<mask id="mask2_124_892" style="mask-type:luminance" maskUnits="userSpaceOnUse" x="1" y="12" width="763" height="37">
<path d="M763.85 12.2007H1.8501V48.8017H763.85V12.2007Z" fill="white"/>
</mask>
<g mask="url(#mask2_124_892)">
<path d="M773.913 41.7744C737.559 42.6612 736.559 37.8395 700.021 37.8395C663.481 37.8395 663.481 41.7843 626.941 41.7843C590.4 41.7843 590.4 37.8395 553.86 37.8395C517.32 37.8395 517.32 41.7843 480.781 41.7843C444.24 41.7843 444.24 37.8395 407.699 37.8395C371.161 37.8395 371.161 41.7843 334.622 41.7843C298.082 41.7843 298.082 37.8395 261.543 37.8395C225.002 37.8395 225.002 41.7843 188.461 41.7843C151.921 41.7843 151.921 37.8395 115.381 37.8395C78.836 37.8395 78.836 41.7843 42.2911 41.7843C5.74616 41.7843 6.37753 38.7347 -29.9842 37.8494C-33.6397 37.7604 -38.9429 38.9221 -38.9429 38.0323C-38.9429 37.143 -22.6549 37.143 -22.6549 36.2538C-22.6549 35.3641 -38.9429 35.3641 -38.9429 34.4744C-38.9429 33.5847 -22.6549 33.5843 -22.6549 32.6942C-22.6549 31.8041 -38.9429 31.8041 -38.9429 30.914C-38.9429 30.0239 -22.6549 30.0239 -22.6549 29.1337C-22.6549 28.2436 -38.9429 28.2434 -38.9429 27.3531C-38.9429 26.4632 -22.6549 26.4632 -22.6549 25.5734C-22.6549 24.6827 -38.9429 24.6827 -38.9429 23.7921C-38.9429 22.9009 -22.6549 22.9009 -22.6549 22.0096C-22.6549 21.1184 -35.2764 18.354 -31.615 18.2646C4.73908 17.3779 5.73901 22.1995 42.2771 22.1995C78.8151 22.1995 78.8169 18.2547 115.357 18.2547C151.897 18.2547 151.897 22.1995 188.438 22.1995C224.978 22.1995 224.977 18.2547 261.517 18.2547C298.056 18.2547 298.058 22.1995 334.598 22.1995C371.139 22.1995 371.137 18.2547 407.676 18.2547C444.215 18.2547 444.215 22.1995 480.755 22.1995C517.294 22.1995 517.296 18.2547 553.837 18.2547C590.378 18.2547 590.377 22.1995 626.917 22.1995C663.457 22.1995 663.462 18.2547 700.007 18.2547C736.552 18.2547 735.92 21.3043 772.282 22.1896C775.938 22.2786 781.241 21.1169 781.241 22.0067C781.241 22.896 764.953 22.896 764.953 23.7853C764.953 24.675 781.241 24.675 781.241 25.5647C781.241 26.4544 764.953 26.4548 764.953 27.3449C764.953 28.235 781.241 28.235 781.241 29.125C781.241 30.0151 764.953 30.0151 764.953 30.9053C764.953 31.7954 781.241 31.7956 781.241 32.6859C781.241 33.5758 764.953 33.5758 764.953 34.4656C764.953 35.3563 781.241 35.3563 781.241 36.2469C781.241 37.1381 764.39 37.5411 765.11 38.4151C766.706 40.3542 777.574 41.6851 773.913 41.7744Z" fill="#007D3D"/>
</g>
</g>
</g>
<defs>
<filter id="filter0_g_124_892" x="-16.1" y="-7.89736" width="784.439" height="65.8807" filterUnits="userSpaceOnUse" color-interpolation-filters="sRGB">
<feFlood flood-opacity="0" result="BackgroundImageFix"/>
<feBlend mode="normal" in="SourceGraphic" in2="BackgroundImageFix" result="shape"/>
<feTurbulence type="fractalNoise" baseFrequency="1.1111111640930176 1.1111111640930176" numOctaves="3" seed="2461" result="displacementX" />
<feTurbulence type="fractalNoise" baseFrequency="1.1111111640930176 1.1111111640930176" numOctaves="3" seed="2462" result="displacementY" />
<feColorMatrix in="displacementX" type="matrix" values="0 0 0 1 0  0 0 0 0 0  0 0 0 0 0  0 0 0 0 1" result="displacementXRed" />
<feColorMatrix in="displacementY" type="matrix" values="0 0 0 0 0  0 0 0 1 0  0 0 0 0 0  0 0 0 0 1" />
<feComposite in="displacementXRed" operator="arithmetic" k1="0" k2="1" k3="1" k4="0"/>
<feDisplacementMap in="shape" scale="32.200000762939453" xChannelSelector="R" yChannelSelector="G" width="100%" height="100%" />
<feColorMatrix type="matrix" values="0 0 0 0 0  0 0 0 0 0  0 0 0 0 0  0 0 0 1 0" />
<feComponentTransfer result="sourceDisplacedAlpha">
<feFuncA type="gamma" exponent="0.2" />
</feComponentTransfer>
<feColorMatrix in="shape" type="matrix" values="0 0 0 0 0  0 0 0 0 0  0 0 0 0 0  0 0 0 1 0" />
<feComponentTransfer result="inputSourceAlpha">
<feFuncA type="gamma" exponent="0.2" />
</feComponentTransfer>
<feComposite in="sourceDisplacedAlpha" operator="arithmetic" k1="1" k2="0" k3="0" k4="0" result="displacementAlphasMultiplied"/>
<feComposite in="displacementAlphasMultiplied"  operator="arithmetic" k1="0" k2="0" k3="-0.5" k4="0.5" result="centeringAdjustment"/>
<feComposite in="displacementX" in2="displacementAlphasMultiplied" operator="arithmetic" k1="1" k2="0" k3="0" k4="0" />
<feComposite in="centeringAdjustment" operator="arithmetic" k1="0" k2="1" k3="1" k4="0" />
<feColorMatrix  type="matrix" values="0 0 0 1 0  0 0 0 0 0  0 0 0 0 0  0 0 0 0 1" result="displacementXFinal" />
<feComposite in="displacementY" in2="displacementAlphasMultiplied" operator="arithmetic" k1="1" k2="0" k3="0" k4="0" />
<feComposite in="centeringAdjustment" operator="arithmetic" k1="0" k2="1" k3="1" k4="0" />
<feColorMatrix  type="matrix" values="0 0 0 0 0  0 0 0 1 0  0 0 0 0 0  0 0 0 0 1" result="displacementYFinal" />
<feComposite in="displacementXFinal" in2="displacementYFinal" operator="arithmetic" k1="0" k2="1" k3="1" k4="0" />
<feComposite in2="displacementAlphasMultiplied" operator="in" result="displacementMap" />
<feFlood flood-color="rgb(127, 127, 127)" flood-opacity="1"/>
<feComposite in2="displacementAlphasMultiplied" operator="out" />
<feComposite in2="displacementMap" operator="over" result="displacementMapWithBg"/>
<feDisplacementMap in="shape" scale="32.200000762939453" xChannelSelector="R" yChannelSelector="G" width="100%" height="100%" result="displacedImage" />
<feColorMatrix in="shape" type="matrix" values="1 0 0 0 0  0 1 0 0 0  0 0 1 0 0  0 0 0 127 0" result="imageOpaque" />
<feDisplacementMap in="imageOpaque" in2="displacementMapWithBg" scale="32.200000762939453" xChannelSelector="R" yChannelSelector="G" width="100%" height="100%" result="displacedImageOpaque" />
<feColorMatrix in="displacedImage" type="matrix" values="0 0 0 1 0  0 0 0 0 0  0 0 0 0 0  0 0 0 127 0" result="displacedImageRed" />
<feColorMatrix in="shape" type="matrix" values="0 0 0 1 0  0 0 0 0 0  0 0 0 0 0  0 0 0 127 0" />
<feComposite in="displacedImageRed"  operator="atop" result="transparencyRedMap"/>
<feColorMatrix in="transparencyRedMap" type="matrix" values="0 0 0 0 0  0 0 0 0 0  0 0 0 0 0  1 0 0 0 0" result="transparencyAlphaMap" />
<feComposite in="displacedImageOpaque" in2="imageOpaque" operator="over" />
<feComposite in2="transparencyAlphaMap" operator="in" result="effect1_texture_124_892"/>
</filter>
</defs>
</svg>
