<svg width="806" height="198" viewBox="0 0 806 198" fill="none" xmlns="http://www.w3.org/2000/svg">
<g filter="url(#filter0_g_124_561)">
<path d="M197.317 39C103.585 39 27.6001 41.0207 27.6001 43.5134V63.0715C27.6001 65.5642 103.585 67.5849 197.317 67.5849C291.049 67.5849 367.034 65.5642 367.034 63.0715V43.5134C367.034 41.0207 291.049 39 197.317 39Z" fill="url(#paint0_linear_124_561)"/>
<path d="M197.317 47.8152C289.732 47.8152 364.649 45.8615 364.649 43.4515C364.649 41.0416 289.732 39.0879 197.317 39.0879C104.902 39.0879 29.9849 41.0416 29.9849 43.4515C29.9849 45.8615 104.902 47.8152 197.317 47.8152Z" fill="url(#paint1_linear_124_561)"/>
</g>
<g filter="url(#filter1_g_124_561)">
<path d="M607.884 39C512.915 39 435.928 41.0207 435.928 43.5134V63.0715C435.928 65.5642 512.915 67.5849 607.884 67.5849C702.852 67.5849 779.839 65.5642 779.839 63.0715V43.5134C779.839 41.0207 702.852 39 607.884 39Z" fill="url(#paint2_linear_124_561)"/>
<path d="M607.884 47.8152C701.518 47.8152 777.423 45.8615 777.423 43.4515C777.423 41.0416 701.518 39.0879 607.884 39.0879C514.25 39.0879 438.344 41.0416 438.344 43.4515C438.344 45.8615 514.25 47.8152 607.884 47.8152Z" fill="url(#paint3_linear_124_561)"/>
</g>
<g filter="url(#filter2_g_124_561)">
<mask id="mask0_124_561" style="mask-type:luminance" maskUnits="userSpaceOnUse" x="27" y="43" width="753" height="55">
<path d="M779.839 43.0024H27.6001V97.904H779.839V43.0024Z" fill="white"/>
</mask>
<g mask="url(#mask0_124_561)">
<mask id="mask1_124_561" style="mask-type:luminance" maskUnits="userSpaceOnUse" x="27" y="45" width="763" height="37">
<path d="M789.6 45.25H27.6001V81.851H789.6V45.25Z" fill="white"/>
</mask>
<g mask="url(#mask1_124_561)">
<path d="M799.663 74.8237C763.309 75.7105 762.309 70.8888 725.771 70.8888C689.231 70.8888 689.231 74.8336 652.691 74.8336C616.15 74.8336 616.15 70.8888 579.61 70.8888C543.07 70.8888 543.07 74.8336 506.531 74.8336C469.99 74.8336 469.99 70.8888 433.449 70.8888C396.911 70.8888 396.911 74.8336 360.372 74.8336C323.832 74.8336 323.832 70.8888 287.293 70.8888C250.752 70.8888 250.752 74.8336 214.211 74.8336C177.671 74.8336 177.671 70.8888 141.131 70.8888C104.586 70.8888 104.586 74.8336 68.0411 74.8336C31.4962 74.8336 32.1275 71.784 -4.23422 70.8987C-7.88971 70.8097 -13.1929 71.9714 -13.1929 71.0816C-13.1929 70.1924 3.09507 70.1924 3.09507 69.3031C3.09507 68.4134 -13.1929 68.4134 -13.1929 67.5237C-13.1929 66.634 3.09507 66.6336 3.09507 65.7435C3.09507 64.8534 -13.1929 64.8534 -13.1929 63.9633C-13.1929 63.0732 3.09507 63.0732 3.09507 62.1831C3.09507 61.2929 -13.1929 61.2927 -13.1929 60.4024C-13.1929 59.5125 3.09507 59.5125 3.09507 58.6227C3.09507 57.7321 -13.1929 57.7321 -13.1929 56.8414C-13.1929 55.9502 3.09507 55.9502 3.09507 55.0589C3.09507 54.1677 -9.52637 51.4033 -5.86496 51.3139C30.4891 50.4272 31.489 55.2489 68.0271 55.2489C104.565 55.2489 104.567 51.304 141.107 51.304C177.647 51.304 177.647 55.2489 214.188 55.2489C250.728 55.2489 250.727 51.304 287.267 51.304C323.806 51.304 323.808 55.2489 360.348 55.2489C396.889 55.2489 396.887 51.304 433.426 51.304C469.965 51.304 469.965 55.2489 506.505 55.2489C543.044 55.2489 543.046 51.304 579.587 51.304C616.128 51.304 616.127 55.2489 652.667 55.2489C689.207 55.2489 689.212 51.304 725.757 51.304C762.302 51.304 761.67 54.3536 798.032 55.239C801.688 55.328 806.991 54.1662 806.991 55.056C806.991 55.9453 790.703 55.9453 790.703 56.8346C790.703 57.7238 806.991 57.7243 806.991 58.614C806.991 59.5037 790.703 59.5041 790.703 60.3942C790.703 61.2843 806.991 61.2843 806.991 62.1744C806.991 63.0645 790.703 63.0645 790.703 63.9546C790.703 64.8447 806.991 64.8449 806.991 65.7353C806.991 66.6251 790.703 66.6251 790.703 67.515C790.703 68.4056 806.991 68.4056 806.991 69.2962C806.991 70.1875 790.14 70.5904 790.86 71.4644C792.456 73.4035 803.324 74.7344 799.663 74.8237Z" fill="#00A651"/>
</g>
<path d="M799.728 75.167C763.374 76.0537 762.374 71.2321 725.836 71.2321C689.296 71.2321 689.296 75.1769 652.756 75.1769C616.215 75.1769 616.215 71.2321 579.675 71.2321C543.135 71.2321 543.135 75.1769 506.596 75.1769C470.055 75.1769 470.055 71.2321 433.514 71.2321C396.975 71.2321 396.975 75.1769 360.437 75.1769C323.897 75.1769 323.897 71.2321 287.358 71.2321C250.817 71.2321 250.817 75.1769 214.276 75.1769C177.736 75.1769 177.736 71.2321 141.196 71.2321C104.651 71.2321 104.651 75.1769 68.106 75.1769C31.5611 75.1769 32.1925 72.1273 -4.16927 71.242C-7.82477 71.153 -13.1279 72.3147 -13.1279 71.4249C-13.1279 70.5356 3.16001 70.5356 3.16001 69.6464C3.16001 68.7567 -13.1279 68.7567 -13.1279 67.867C-13.1279 66.9773 3.16001 66.9769 3.16001 66.0868C3.16001 65.1967 -13.1279 65.1967 -13.1279 64.3066C-13.1279 63.4165 3.16001 63.4165 3.16001 62.5263C3.16001 61.6362 -13.1279 61.636 -13.1279 60.7457C-13.1279 59.8558 3.16001 59.8558 3.16001 58.966C3.16001 58.0753 -13.1279 58.0753 -13.1279 57.1847C-13.1279 56.2935 3.16001 56.2935 3.16001 55.4022C3.16001 54.5109 -9.46143 51.7465 -5.80002 51.6572C30.554 50.7704 31.554 55.5921 68.092 55.5921C104.63 55.5921 104.632 51.6473 141.172 51.6473C177.712 51.6473 177.712 55.5921 214.253 55.5921C250.793 55.5921 250.792 51.6473 287.332 51.6473C323.871 51.6473 323.873 55.5921 360.413 55.5921C396.954 55.5921 396.952 51.6473 433.491 51.6473C470.03 51.6473 470.03 55.5921 506.57 55.5921C543.109 55.5921 543.111 51.6473 579.652 51.6473C616.193 51.6473 616.192 55.5921 652.732 55.5921C689.272 55.5921 689.277 51.6473 725.822 51.6473C762.367 51.6473 761.735 54.6969 798.097 55.5822C801.752 55.6712 807.056 54.5095 807.056 55.3993C807.056 56.2886 790.768 56.2886 790.768 57.1778C790.768 58.0671 807.056 58.0675 807.056 58.9572C807.056 59.8469 790.768 59.8473 790.768 60.7374C790.768 61.6275 807.056 61.6275 807.056 62.5176C807.056 63.4077 790.768 63.4077 790.768 64.2979C790.768 65.188 807.056 65.1882 807.056 66.0785C807.056 66.9684 790.768 66.9684 790.768 67.8582C790.768 68.7489 807.056 68.7489 807.056 69.6395C807.056 70.5307 790.205 70.9337 790.925 71.8077C792.521 73.7468 803.389 75.0776 799.728 75.167Z" fill="#00A550"/>
<path d="M799.792 75.5102C763.438 76.397 762.438 71.5753 725.9 71.5753C689.36 71.5753 689.36 75.5202 652.82 75.5202C616.279 75.5202 616.279 71.5753 579.739 71.5753C543.199 71.5753 543.199 75.5202 506.66 75.5202C470.119 75.5202 470.119 71.5753 433.578 71.5753C397.039 71.5753 397.039 75.5202 360.501 75.5202C323.961 75.5202 323.961 71.5753 287.422 71.5753C250.881 71.5753 250.881 75.5202 214.34 75.5202C177.8 75.5202 177.8 71.5753 141.26 71.5753C104.715 71.5753 104.715 75.5202 68.17 75.5202C31.6251 75.5202 32.2564 72.4706 -4.10531 71.5852C-7.7608 71.4962 -13.064 72.6579 -13.064 71.7681C-13.064 70.8789 3.22398 70.8789 3.22398 69.9896C3.22398 69.0999 -13.064 69.0999 -13.064 68.2102C-13.064 67.3205 3.22398 67.3201 3.22398 66.43C3.22398 65.5399 -13.064 65.5399 -13.064 64.6498C-13.064 63.7597 3.22398 63.7597 3.22398 62.8696C3.22398 61.9795 -13.064 61.9793 -13.064 61.0889C-13.064 60.1991 3.22398 60.1991 3.22398 59.3092C3.22398 58.4186 -13.064 58.4186 -13.064 57.528C-13.064 56.6367 3.22398 56.6367 3.22398 55.7455C3.22398 54.8542 -9.39747 52.0898 -5.73605 52.0005C30.618 51.1137 31.6179 55.9354 68.156 55.9354C104.694 55.9354 104.696 51.9905 141.236 51.9905C177.776 51.9905 177.776 55.9354 214.317 55.9354C250.857 55.9354 250.856 51.9905 287.396 51.9905C323.935 51.9905 323.937 55.9354 360.477 55.9354C397.018 55.9354 397.016 51.9905 433.555 51.9905C470.094 51.9905 470.094 55.9354 506.634 55.9354C543.173 55.9354 543.175 51.9905 579.716 51.9905C616.257 51.9905 616.256 55.9354 652.796 55.9354C689.336 55.9354 689.341 51.9905 725.886 51.9905C762.431 51.9905 761.799 55.0401 798.161 55.9255C801.816 56.0145 807.12 54.8528 807.12 55.7426C807.12 56.6318 790.832 56.6318 790.832 57.5211C790.832 58.4108 807.12 58.4108 807.12 59.3005C807.12 60.1902 790.832 60.1906 790.832 61.0807C790.832 61.9708 807.12 61.9708 807.12 62.8609C807.12 63.751 790.832 63.751 790.832 64.6411C790.832 65.5313 807.12 65.5315 807.12 66.4218C807.12 67.3117 790.832 67.3117 790.832 68.2015C790.832 69.0921 807.12 69.0921 807.12 69.9828C807.12 70.874 790.269 71.2769 790.989 72.1509C792.585 74.0901 803.453 75.4209 799.792 75.5102Z" fill="#00A350"/>
<path d="M799.855 75.8535C763.501 76.7403 762.501 71.9186 725.963 71.9186C689.423 71.9186 689.423 75.8634 652.883 75.8634C616.343 75.8634 616.343 71.9186 579.802 71.9186C543.263 71.9186 543.263 75.8634 506.724 75.8634C470.183 75.8634 470.183 71.9186 433.642 71.9186C397.103 71.9186 397.103 75.8634 360.564 75.8634C324.025 75.8634 324.025 71.9186 287.485 71.9186C250.944 71.9186 250.944 75.8634 214.403 75.8634C177.863 75.8634 177.863 71.9186 141.323 71.9186C104.778 71.9186 104.778 75.8634 68.2335 75.8634C31.6885 75.8634 32.3199 72.8138 -4.04183 71.9285C-7.69733 71.8395 -13.0005 73.0012 -13.0005 72.1114C-13.0005 71.2221 3.28745 71.2221 3.28745 70.3329C3.28745 69.4432 -13.0005 69.4432 -13.0005 68.5535C-13.0005 67.6638 3.28745 67.6634 3.28745 66.7733C3.28745 65.8832 -13.0005 65.8832 -13.0005 64.9931C-13.0005 64.103 3.28745 64.103 3.28745 63.2128C3.28745 62.3227 -13.0005 62.3225 -13.0005 61.4322C-13.0005 60.5423 3.28745 60.5423 3.28745 59.6525C3.28745 58.7618 -13.0005 58.7618 -13.0005 57.8712C-13.0005 56.98 3.28745 56.98 3.28745 56.0887C3.28745 55.1975 -9.33399 52.4331 -5.67258 52.3437C30.6815 51.457 31.6814 56.2786 68.2195 56.2786C104.758 56.2786 104.759 52.3338 141.299 52.3338C177.839 52.3338 177.84 56.2786 214.38 56.2786C250.921 56.2786 250.92 52.3338 287.459 52.3338C323.998 52.3338 324 56.2786 360.541 56.2786C397.082 56.2786 397.08 52.3338 433.618 52.3338C470.157 52.3338 470.158 56.2786 506.697 56.2786C543.237 56.2786 543.238 52.3338 579.779 52.3338C616.321 52.3338 616.319 56.2786 652.859 56.2786C689.399 56.2786 689.404 52.3338 725.949 52.3338C762.494 52.3338 761.863 55.3834 798.224 56.2687C801.88 56.3577 807.183 55.196 807.183 56.0858C807.183 56.9751 790.895 56.9751 790.895 57.8644C790.895 58.7541 807.183 58.7541 807.183 59.6438C807.183 60.5335 790.895 60.5339 790.895 61.424C790.895 62.3141 807.183 62.3141 807.183 63.2042C807.183 64.0943 790.895 64.0943 790.895 64.9844C790.895 65.8745 807.183 65.8747 807.183 66.765C807.183 67.6549 790.895 67.6549 790.895 68.5447C790.895 69.4354 807.183 69.4354 807.183 70.326C807.183 71.2172 790.333 71.6202 791.052 72.4942C792.649 74.4333 803.516 75.7642 799.855 75.8535Z" fill="#00A24F"/>
<path d="M799.92 76.1963C763.566 77.083 762.565 72.2614 726.028 72.2614C689.488 72.2614 689.488 76.2062 652.948 76.2062C616.407 76.2062 616.407 72.2614 579.867 72.2614C543.327 72.2614 543.327 76.2062 506.788 76.2062C470.247 76.2062 470.247 72.2614 433.706 72.2614C397.167 72.2614 397.167 76.2062 360.629 76.2062C324.089 76.2062 324.089 72.2614 287.55 72.2614C251.009 72.2614 251.009 76.2062 214.468 76.2062C177.928 76.2062 177.928 72.2614 141.388 72.2614C104.843 72.2614 104.843 76.2062 68.2979 76.2062C31.753 76.2062 32.3844 73.1566 -3.97738 72.2713C-7.63287 72.1823 -12.936 73.344 -12.936 72.4542C-12.936 71.5649 3.35191 71.5649 3.35191 70.6756C3.35191 69.7859 -12.936 69.7859 -12.936 68.8962C-12.936 68.0065 3.35191 68.0061 3.35191 67.116C3.35191 66.2259 -12.936 66.2259 -12.936 65.3358C-12.936 64.4458 3.35191 64.4458 3.35191 63.5556C3.35191 62.6655 -12.936 62.6653 -12.936 61.775C-12.936 60.8851 3.35191 60.8851 3.35191 59.9953C3.35191 59.1046 -12.936 59.1046 -12.936 58.214C-12.936 57.3228 3.35191 57.3228 3.35191 56.4315C3.35191 55.5402 -9.26954 52.7758 -5.60813 52.6865C30.7459 51.7997 31.7458 56.6214 68.2839 56.6214C104.822 56.6214 104.824 52.6766 141.364 52.6766C177.904 52.6766 177.904 56.6214 214.445 56.6214C250.985 56.6214 250.984 52.6766 287.524 52.6766C324.063 52.6766 324.064 56.6214 360.605 56.6214C397.146 56.6214 397.144 52.6766 433.683 52.6766C470.222 52.6766 470.222 56.6214 506.762 56.6214C543.301 56.6214 543.303 52.6766 579.844 52.6766C616.385 52.6766 616.384 56.6214 652.924 56.6214C689.464 56.6214 689.469 52.6766 726.014 52.6766C762.558 52.6766 761.927 55.7262 798.289 56.6115C801.944 56.7005 807.248 55.5388 807.248 56.4286C807.248 57.3179 790.96 57.3179 790.96 58.2071C790.96 59.0968 807.248 59.0968 807.248 59.9865C807.248 60.8762 790.96 60.8766 790.96 61.7667C790.96 62.6568 807.248 62.6568 807.248 63.5469C807.248 64.437 790.96 64.437 790.96 65.3272C790.96 66.2173 807.248 66.2175 807.248 67.1078C807.248 67.9977 790.96 67.9977 790.96 68.8875C790.96 69.7782 807.248 69.7782 807.248 70.6688C807.248 71.56 790.397 71.963 791.117 72.837C792.713 74.7761 803.581 76.1069 799.92 76.1963Z" fill="#00A04E"/>
<path d="M799.983 76.5395C763.628 77.4263 762.628 72.6046 726.091 72.6046C689.551 72.6046 689.551 76.5495 653.011 76.5495C616.47 76.5495 616.47 72.6046 579.93 72.6046C543.39 72.6046 543.39 76.5495 506.851 76.5495C470.31 76.5495 470.31 72.6046 433.769 72.6046C397.23 72.6046 397.23 76.5495 360.692 76.5495C324.152 76.5495 324.152 72.6046 287.613 72.6046C251.072 72.6046 251.072 76.5495 214.531 76.5495C177.991 76.5495 177.991 72.6046 141.451 72.6046C104.906 72.6046 104.906 76.5495 68.3609 76.5495C31.816 76.5495 32.4474 73.4999 -3.91439 72.6145C-7.56989 72.5255 -12.873 73.6872 -12.873 72.7974C-12.873 71.9082 3.4149 71.9082 3.4149 71.0189C3.4149 70.1292 -12.873 70.1292 -12.873 69.2395C-12.873 68.3498 3.4149 68.3494 3.4149 67.4593C3.4149 66.5692 -12.873 66.5692 -12.873 65.6791C-12.873 64.789 3.4149 64.789 3.4149 63.8989C3.4149 63.0087 -12.873 63.0085 -12.873 62.1182C-12.873 61.2283 3.4149 61.2283 3.4149 60.3385C3.4149 59.4479 -12.873 59.4479 -12.873 58.5573C-12.873 57.666 3.4149 57.666 3.4149 56.7748C3.4149 55.8835 -9.20655 53.1191 -5.54514 53.0298C30.8089 52.143 31.8088 56.9647 68.3469 56.9647C104.885 56.9647 104.887 53.0198 141.427 53.0198C177.967 53.0198 177.967 56.9647 214.508 56.9647C251.048 56.9647 251.047 53.0198 287.586 53.0198C324.126 53.0198 324.127 56.9647 360.668 56.9647C397.209 56.9647 397.207 53.0198 433.746 53.0198C470.285 53.0198 470.285 56.9647 506.825 56.9647C543.364 56.9647 543.366 53.0198 579.907 53.0198C616.448 53.0198 616.447 56.9647 652.987 56.9647C689.527 56.9647 689.532 53.0198 726.077 53.0198C762.621 53.0198 761.99 56.0694 798.352 56.9548C802.007 57.0438 807.311 55.8821 807.311 56.7719C807.311 57.6611 791.023 57.6611 791.023 58.5504C791.023 59.4401 807.311 59.4401 807.311 60.3298C807.311 61.2195 791.023 61.2199 791.023 62.11C791.023 63.0001 807.311 63.0001 807.311 63.8902C807.311 64.7803 791.023 64.7803 791.023 65.6704C791.023 66.5606 807.311 66.5608 807.311 67.4511C807.311 68.341 791.023 68.341 791.023 69.2308C791.023 70.1214 807.311 70.1214 807.311 71.012C807.311 71.9033 790.46 72.3062 791.18 73.1802C792.776 75.1194 803.644 76.4502 799.983 76.5395Z" fill="#009F4E"/>
<path d="M800.047 76.8833C763.693 77.77 762.693 72.9484 726.155 72.9484C689.615 72.9484 689.615 76.8932 653.075 76.8932C616.535 76.8932 616.535 72.9484 579.994 72.9484C543.455 72.9484 543.455 76.8932 506.915 76.8932C470.375 76.8932 470.375 72.9484 433.834 72.9484C397.295 72.9484 397.295 76.8932 360.756 76.8932C324.217 76.8932 324.217 72.9484 287.677 72.9484C251.136 72.9484 251.136 76.8932 214.595 76.8932C178.055 76.8932 178.055 72.9484 141.515 72.9484C104.97 72.9484 104.97 76.8932 68.4254 76.8932C31.8804 76.8932 32.5118 73.8436 -3.84994 72.9583C-7.50544 72.8693 -12.8086 74.031 -12.8086 73.1412C-12.8086 72.2519 3.47935 72.2519 3.47935 71.3627C3.47935 70.473 -12.8086 70.473 -12.8086 69.5833C-12.8086 68.6936 3.47935 68.6932 3.47935 67.8031C3.47935 66.913 -12.8086 66.913 -12.8086 66.0229C-12.8086 65.1328 3.47935 65.1328 3.47935 64.2426C3.47935 63.3525 -12.8086 63.3523 -12.8086 62.462C-12.8086 61.5721 3.47935 61.5721 3.47935 60.6823C3.47935 59.7916 -12.8086 59.7916 -12.8086 58.901C-12.8086 58.0098 3.47935 58.0098 3.47935 57.1185C3.47935 56.2272 -9.1421 53.4628 -5.48069 53.3735C30.8734 52.4868 31.8733 57.3084 68.4113 57.3084C104.949 57.3084 104.951 53.3636 141.491 53.3636C178.031 53.3636 178.032 57.3084 214.572 57.3084C251.113 57.3084 251.112 53.3636 287.651 53.3636C324.19 53.3636 324.192 57.3084 360.733 57.3084C397.273 57.3084 397.272 53.3636 433.81 53.3636C470.349 53.3636 470.35 57.3084 506.889 57.3084C543.429 57.3084 543.43 53.3636 579.971 53.3636C616.512 53.3636 616.511 57.3084 653.051 57.3084C689.591 57.3084 689.596 53.3636 726.141 53.3636C762.686 53.3636 762.055 56.4132 798.416 57.2985C802.072 57.3875 807.375 56.2258 807.375 57.1156C807.375 58.0049 791.087 58.0049 791.087 58.8941C791.087 59.7834 807.375 59.7838 807.375 60.6735C807.375 61.5632 791.087 61.5636 791.087 62.4537C791.087 63.3438 807.375 63.3438 807.375 64.2339C807.375 65.124 791.087 65.124 791.087 66.0142C791.087 66.9043 807.375 66.9045 807.375 67.7948C807.375 68.6847 791.087 68.6847 791.087 69.5745C791.087 70.4652 807.375 70.4652 807.375 71.3558C807.375 72.247 790.525 72.65 791.244 73.524C792.841 75.4631 803.708 76.7939 800.047 76.8833Z" fill="#009E4D"/>
<path d="M800.11 77.2261C763.756 78.1128 762.755 73.2911 726.218 73.2911C689.678 73.2911 689.678 77.236 653.138 77.236C616.597 77.236 616.597 73.2911 580.057 73.2911C543.517 73.2911 543.517 77.236 506.978 77.236C470.437 77.236 470.437 73.2911 433.896 73.2911C397.357 73.2911 397.357 77.236 360.819 77.236C324.279 77.236 324.279 73.2911 287.74 73.2911C251.2 73.2911 251.199 77.236 214.658 77.236C178.118 77.236 178.118 73.2911 141.578 73.2911C105.033 73.2911 105.033 77.236 68.4879 77.236C31.9429 77.236 32.5743 74.1864 -3.78744 73.301C-7.44294 73.212 -12.7461 74.3738 -12.7461 73.484C-12.7461 72.5947 3.54185 72.5947 3.54185 71.7054C3.54185 70.8157 -12.7461 70.8157 -12.7461 69.926C-12.7461 69.0363 3.54185 69.0359 3.54185 68.1458C3.54185 67.2557 -12.7461 67.2557 -12.7461 66.3656C-12.7461 65.4755 3.54185 65.4755 3.54185 64.5854C3.54185 63.6953 -12.7461 63.6951 -12.7461 62.8047C-12.7461 61.9149 3.54185 61.9149 3.54185 61.025C3.54185 60.1344 -12.7461 60.1344 -12.7461 59.2438C-12.7461 58.3525 3.54185 58.3525 3.54185 57.4613C3.54185 56.57 -9.0796 53.8056 -5.41819 53.7163C30.9359 52.8295 31.9358 57.6512 68.4738 57.6512C105.012 57.6512 105.014 53.7064 141.554 53.7064C178.094 53.7064 178.094 57.6512 214.635 57.6512C251.175 57.6512 251.174 53.7064 287.713 53.7064C324.253 53.7064 324.254 57.6512 360.795 57.6512C397.336 57.6512 397.334 53.7064 433.873 53.7064C470.412 53.7064 470.412 57.6512 506.952 57.6512C543.491 57.6512 543.493 53.7064 580.034 53.7064C616.575 53.7064 616.574 57.6512 653.114 57.6512C689.653 57.6512 689.659 53.7064 726.204 53.7064C762.748 53.7064 762.117 56.756 798.479 57.6413C802.134 57.7303 807.437 56.5686 807.437 57.4584C807.437 58.3476 791.15 58.3476 791.15 59.2369C791.15 60.1262 807.437 60.1266 807.437 61.0163C807.437 61.906 791.15 61.9064 791.15 62.7965C791.15 63.6866 807.437 63.6866 807.437 64.5767C807.437 65.4668 791.15 65.4668 791.15 66.3569C791.15 67.2471 807.437 67.2473 807.437 68.1376C807.437 69.0275 791.15 69.0275 791.15 69.9173C791.15 70.8079 807.437 70.8079 807.437 71.6986C807.437 72.5898 790.587 72.9928 791.307 73.8668C792.903 75.8059 803.771 77.1367 800.11 77.2261Z" fill="#009C4C"/>
<path d="M800.174 77.5693C763.82 78.4561 762.82 73.6344 726.282 73.6344C689.742 73.6344 689.742 77.5792 653.202 77.5792C616.662 77.5792 616.662 73.6344 580.121 73.6344C543.582 73.6344 543.582 77.5792 507.042 77.5792C470.501 77.5792 470.501 73.6344 433.961 73.6344C397.422 73.6344 397.422 77.5792 360.883 77.5792C324.344 77.5792 324.344 73.6344 287.804 73.6344C251.263 73.6344 251.263 77.5792 214.722 77.5792C178.182 77.5792 178.182 73.6344 141.642 73.6344C105.097 73.6344 105.097 77.5792 68.5523 77.5792C32.0074 77.5792 32.6388 74.5296 -3.72299 73.6443C-7.37848 73.5553 -12.6816 74.717 -12.6816 73.8272C-12.6816 72.938 3.6063 72.938 3.6063 72.0487C3.6063 71.159 -12.6816 71.159 -12.6816 70.2693C-12.6816 69.3796 3.6063 69.3792 3.6063 68.4891C3.6063 67.599 -12.6816 67.599 -12.6816 66.7089C-12.6816 65.8188 3.6063 65.8188 3.6063 64.9287C3.6063 64.0385 -12.6816 64.0383 -12.6816 63.148C-12.6816 62.2581 3.6063 62.2581 3.6063 61.3683C3.6063 60.4777 -12.6816 60.4777 -12.6816 59.587C-12.6816 58.6958 3.6063 58.6958 3.6063 57.8045C3.6063 56.9133 -9.01514 54.1489 -5.35373 54.0596C31.0003 53.1728 32.0002 57.9945 68.5383 57.9945C105.076 57.9945 105.078 54.0496 141.618 54.0496C178.158 54.0496 178.159 57.9945 214.699 57.9945C251.24 57.9945 251.239 54.0496 287.778 54.0496C324.317 54.0496 324.319 57.9945 360.86 57.9945C397.4 57.9945 397.399 54.0496 433.937 54.0496C470.476 54.0496 470.477 57.9945 507.016 57.9945C543.556 57.9945 543.557 54.0496 580.098 54.0496C616.639 54.0496 616.638 57.9945 653.178 57.9945C689.718 57.9945 689.723 54.0496 726.268 54.0496C762.813 54.0496 762.181 57.0992 798.543 57.9846C802.199 58.0736 807.502 56.9118 807.502 57.8016C807.502 58.6909 791.214 58.6909 791.214 59.5802C791.214 60.4694 807.502 60.4699 807.502 61.3596C807.502 62.2493 791.214 62.2497 791.214 63.1398C791.214 64.0299 807.502 64.0299 807.502 64.92C807.502 65.8101 791.214 65.8101 791.214 66.7002C791.214 67.5903 807.502 67.5905 807.502 68.4809C807.502 69.3707 791.214 69.3707 791.214 70.2606C791.214 71.1512 807.502 71.1512 807.502 72.0418C807.502 72.9331 790.651 73.336 791.371 74.21C792.968 76.1491 803.835 77.48 800.174 77.5693Z" fill="#009B4B"/>
<path d="M800.238 77.9126C763.884 78.7993 762.884 73.9777 726.346 73.9777C689.806 73.9777 689.806 77.9225 653.266 77.9225C616.726 77.9225 616.726 73.9777 580.185 73.9777C543.646 73.9777 543.646 77.9225 507.106 77.9225C470.565 77.9225 470.565 73.9777 434.025 73.9777C397.486 73.9777 397.486 77.9225 360.947 77.9225C324.408 77.9225 324.408 73.9777 287.868 73.9777C251.327 73.9777 251.327 77.9225 214.786 77.9225C178.246 77.9225 178.246 73.9777 141.706 73.9777C105.161 73.9777 105.161 77.9225 68.6163 77.9225C32.0714 77.9225 32.7027 74.8729 -3.65902 73.9876C-7.31452 73.8986 -12.6177 75.0603 -12.6177 74.1705C-12.6177 73.2812 3.67026 73.2812 3.67026 72.392C3.67026 71.5023 -12.6177 71.5023 -12.6177 70.6126C-12.6177 69.7229 3.67026 69.7225 3.67026 68.8324C3.67026 67.9423 -12.6177 67.9423 -12.6177 67.0522C-12.6177 66.1621 3.67026 66.1621 3.67026 65.2719C3.67026 64.3818 -12.6177 64.3816 -12.6177 63.4913C-12.6177 62.6014 3.67026 62.6014 3.67026 61.7116C3.67026 60.8209 -12.6177 60.8209 -12.6177 59.9303C-12.6177 59.0391 3.67026 59.0391 3.67026 58.1478C3.67026 57.2565 -8.95118 54.4921 -5.28977 54.4028C31.0643 53.516 32.0642 58.3377 68.6023 58.3377C105.14 58.3377 105.142 54.3929 141.682 54.3929C178.222 54.3929 178.223 58.3377 214.763 58.3377C251.304 58.3377 251.303 54.3929 287.842 54.3929C324.381 54.3929 324.383 58.3377 360.924 58.3377C397.464 58.3377 397.462 54.3929 434.001 54.3929C470.54 54.3929 470.541 58.3377 507.08 58.3377C543.619 58.3377 543.621 54.3929 580.162 54.3929C616.703 54.3929 616.702 58.3377 653.242 58.3377C689.782 58.3377 689.787 54.3929 726.332 54.3929C762.877 54.3929 762.245 57.4425 798.607 58.3278C802.263 58.4168 807.566 57.2551 807.566 58.1449C807.566 59.0342 791.278 59.0342 791.278 59.9234C791.278 60.8131 807.566 60.8131 807.566 61.7028C807.566 62.5925 791.278 62.5929 791.278 63.483C791.278 64.3731 807.566 64.3731 807.566 65.2632C807.566 66.1533 791.278 66.1533 791.278 67.0435C791.278 67.9336 807.566 67.9338 807.566 68.8241C807.566 69.714 791.278 69.714 791.278 70.6038C791.278 71.4945 807.566 71.4945 807.566 72.3851C807.566 73.2763 790.715 73.6793 791.435 74.5533C793.032 76.4924 803.899 77.8232 800.238 77.9126Z" fill="#00994B"/>
<path d="M800.302 78.2558C763.948 79.1426 762.948 74.3209 726.41 74.3209C689.87 74.3209 689.87 78.2658 653.33 78.2658C616.79 78.2658 616.79 74.3209 580.249 74.3209C543.71 74.3209 543.71 78.2658 507.17 78.2658C470.629 78.2658 470.629 74.3209 434.089 74.3209C397.55 74.3209 397.55 78.2658 361.011 78.2658C324.472 78.2658 324.472 74.3209 287.932 74.3209C251.391 74.3209 251.391 78.2658 214.85 78.2658C178.31 78.2658 178.31 74.3209 141.77 74.3209C105.225 74.3209 105.225 78.2658 68.6803 78.2658C32.1353 78.2658 32.7667 75.2162 -3.59505 74.3308C-7.25055 74.2418 -12.5537 75.4036 -12.5537 74.5138C-12.5537 73.6245 3.73423 73.6245 3.73423 72.7352C3.73423 71.8455 -12.5537 71.8455 -12.5537 70.9558C-12.5537 70.0661 3.73423 70.0657 3.73423 69.1756C3.73423 68.2855 -12.5537 68.2855 -12.5537 67.3954C-12.5537 66.5053 3.73423 66.5053 3.73423 65.6152C3.73423 64.7251 -12.5537 64.7249 -12.5537 63.8345C-12.5537 62.9447 3.73423 62.9447 3.73423 62.0548C3.73423 61.1642 -12.5537 61.1642 -12.5537 60.2736C-12.5537 59.3823 3.73423 59.3823 3.73423 58.4911C3.73423 57.5998 -8.88721 54.8354 -5.2258 54.7461C31.1282 53.8593 32.1282 58.681 68.6662 58.681C105.204 58.681 105.206 54.7362 141.746 54.7362C178.286 54.7362 178.287 58.681 214.827 58.681C251.368 58.681 251.367 54.7362 287.906 54.7362C324.445 54.7362 324.447 58.681 360.988 58.681C397.528 58.681 397.526 54.7362 434.065 54.7362C470.604 54.7362 470.605 58.681 507.144 58.681C543.683 58.681 543.685 54.7362 580.226 54.7362C616.767 54.7362 616.766 58.681 653.306 58.681C689.846 58.681 689.851 54.7362 726.396 54.7362C762.941 54.7362 762.309 57.7858 798.671 58.6711C802.327 58.7601 807.63 57.5984 807.63 58.4882C807.63 59.3774 791.342 59.3774 791.342 60.2667C791.342 61.156 807.63 61.1564 807.63 62.0461C807.63 62.9358 791.342 62.9362 791.342 63.8263C791.342 64.7164 807.63 64.7164 807.63 65.6065C807.63 66.4966 791.342 66.4966 791.342 67.3867C791.342 68.2769 807.63 68.2771 807.63 69.1674C807.63 70.0573 791.342 70.0573 791.342 70.9471C791.342 71.8377 807.63 71.8377 807.63 72.7284C807.63 73.6196 790.779 74.0225 791.499 74.8965C793.096 76.8357 803.963 78.1665 800.302 78.2558Z" fill="#00984A"/>
<path d="M800.365 78.5986C764.011 79.4854 763.011 74.6637 726.473 74.6637C689.934 74.6637 689.934 78.6085 653.394 78.6085C616.853 78.6085 616.853 74.6637 580.313 74.6637C543.773 74.6637 543.773 78.6085 507.234 78.6085C470.693 78.6085 470.693 74.6637 434.152 74.6637C397.613 74.6637 397.613 78.6085 361.074 78.6085C324.535 78.6085 324.535 74.6637 287.996 74.6637C251.454 74.6637 251.454 78.6085 214.913 78.6085C178.373 78.6085 178.373 74.6637 141.834 74.6637C105.289 74.6637 105.289 78.6085 68.7437 78.6085C32.1988 78.6085 32.8302 75.5589 -3.53158 74.6736C-7.18707 74.5846 -12.4902 75.7463 -12.4902 74.8565C-12.4902 73.9673 3.79771 73.9673 3.79771 73.078C3.79771 72.1883 -12.4902 72.1883 -12.4902 71.2986C-12.4902 70.4089 3.79771 70.4085 3.79771 69.5184C3.79771 68.6283 -12.4902 68.6283 -12.4902 67.7382C-12.4902 66.8481 3.79771 66.8481 3.79771 65.958C3.79771 65.0678 -12.4902 65.0676 -12.4902 64.1773C-12.4902 63.2874 3.79771 63.2874 3.79771 62.3976C3.79771 61.507 -12.4902 61.507 -12.4902 60.6163C-12.4902 59.7251 3.79771 59.7251 3.79771 58.8338C3.79771 57.9426 -8.82373 55.1782 -5.16232 55.0889C31.1917 54.2021 32.1917 59.0238 68.7297 59.0238C105.268 59.0238 105.27 55.0789 141.81 55.0789C178.35 55.0789 178.35 59.0238 214.891 59.0238C251.431 59.0238 251.43 55.0789 287.969 55.0789C324.509 55.0789 324.51 59.0238 361.051 59.0238C397.592 59.0238 397.59 55.0789 434.129 55.0789C470.667 55.0789 470.668 59.0238 507.208 59.0238C543.747 59.0238 543.749 55.0789 580.29 55.0789C616.831 55.0789 616.83 59.0238 653.37 59.0238C689.909 59.0238 689.914 55.0789 726.459 55.0789C763.004 55.0789 762.373 58.1285 798.735 59.0139C802.39 59.1029 807.693 57.9411 807.693 58.8309C807.693 59.7202 791.405 59.7202 791.405 60.6095C791.405 61.4992 807.693 61.4992 807.693 62.3889C807.693 63.2786 791.405 63.279 791.405 64.1691C791.405 65.0592 807.693 65.0592 807.693 65.9493C807.693 66.8394 791.405 66.8394 791.405 67.7295C791.405 68.6196 807.693 68.6198 807.693 69.5102C807.693 70.4 791.405 70.4 791.405 71.2899C791.405 72.1805 807.693 72.1805 807.693 73.0711C807.693 73.9624 790.843 74.3653 791.563 75.2393C793.159 77.1784 804.027 78.5093 800.365 78.5986Z" fill="#009649"/>
<path d="M800.429 78.9424C764.075 79.8291 763.075 75.0075 726.537 75.0075C689.998 75.0075 689.998 78.9523 653.458 78.9523C616.917 78.9523 616.917 75.0075 580.376 75.0075C543.837 75.0075 543.837 78.9523 507.298 78.9523C470.757 78.9523 470.757 75.0075 434.216 75.0075C397.675 75.0075 397.677 78.9523 361.138 78.9523C324.599 78.9523 324.599 75.0075 288.06 75.0075C251.518 75.0075 251.518 78.9523 214.977 78.9523C178.437 78.9523 178.437 75.0075 141.898 75.0075C105.353 75.0075 105.353 78.9523 68.8077 78.9523C32.2628 78.9523 32.8941 75.9027 -3.46761 75.0174C-7.12311 74.9284 -12.4263 76.0901 -12.4263 75.2003C-12.4263 74.311 3.86167 74.311 3.86167 73.4217C3.86167 72.532 -12.4263 72.532 -12.4263 71.6423C-12.4263 70.7526 3.86167 70.7522 3.86167 69.8621C3.86167 68.972 -12.4263 68.972 -12.4263 68.0819C-12.4263 67.1918 3.86167 67.1918 3.86167 66.3017C3.86167 65.4116 -12.4263 65.4114 -12.4263 64.521C-12.4263 63.6312 3.86167 63.6312 3.86167 62.7413C3.86167 61.8507 -12.4263 61.8507 -12.4263 60.9601C-12.4263 60.0689 3.86167 60.0689 3.86167 59.1776C3.86167 58.2863 -8.75977 55.5219 -5.09836 55.4326C31.2557 54.5458 32.2556 59.3675 68.7937 59.3675C105.332 59.3675 105.334 55.4227 141.873 55.4227C178.413 55.4227 178.414 59.3675 214.955 59.3675C251.495 59.3675 251.494 55.4227 288.033 55.4227C324.573 55.4227 324.574 59.3675 361.115 59.3675C397.656 59.3675 397.654 55.4227 434.193 55.4227C470.731 55.4227 470.732 59.3675 507.271 59.3675C543.811 59.3675 543.813 55.4227 580.354 55.4227C616.895 55.4227 616.894 59.3675 653.433 59.3675C689.973 59.3675 689.978 55.4227 726.523 55.4227C763.068 55.4227 762.437 58.4723 798.799 59.3576C802.454 59.4466 807.757 58.2849 807.757 59.1747C807.757 60.064 791.469 60.064 791.469 60.9532C791.469 61.8429 807.757 61.8429 807.757 62.7326C807.757 63.6223 791.469 63.6227 791.469 64.5128C791.469 65.4029 807.757 65.4029 807.757 66.293C807.757 67.1831 791.469 67.1831 791.469 68.0732C791.469 68.9634 807.757 68.9636 807.757 69.8539C807.757 70.7438 791.469 70.7438 791.469 71.6336C791.469 72.5242 807.757 72.5242 807.757 73.4149C807.757 74.3061 790.907 74.7091 791.627 75.5831C793.223 77.5222 804.091 78.853 800.429 78.9424Z" fill="#009549"/>
<path d="M800.494 79.2856C764.14 80.1724 763.14 75.3507 726.602 75.3507C690.062 75.3507 690.062 79.2956 653.522 79.2956C616.981 79.2956 616.981 75.3507 580.441 75.3507C543.902 75.3507 543.901 79.2956 507.362 79.2956C470.821 79.2956 470.821 75.3507 434.28 75.3507C397.742 75.3507 397.742 79.2956 361.203 79.2956C324.663 79.2956 324.663 75.3507 288.124 75.3507C251.583 75.3507 251.583 79.2956 215.042 79.2956C178.502 79.2956 178.502 75.3507 141.962 75.3507C105.417 75.3507 105.417 79.2956 68.8722 79.2956C32.3272 79.2956 32.9586 76.246 -3.40316 75.3606C-7.05866 75.2716 -12.3618 76.4333 -12.3618 75.5435C-12.3618 74.6543 3.92612 74.6543 3.92612 73.765C3.92612 72.8753 -12.3618 72.8753 -12.3618 71.9856C-12.3618 71.0959 3.92612 71.0955 3.92612 70.2054C3.92612 69.3153 -12.3618 69.3153 -12.3618 68.4252C-12.3618 67.5351 3.92612 67.5351 3.92612 66.645C3.92612 65.7548 -12.3618 65.7546 -12.3618 64.8643C-12.3618 63.9744 3.92612 63.9744 3.92612 63.0846C3.92612 62.194 -12.3618 62.194 -12.3618 61.3033C-12.3618 60.4121 3.92612 60.4121 3.92612 59.5208C3.92612 58.6296 -8.69532 55.8652 -5.03391 55.7759C31.3201 54.8891 32.3201 59.7108 68.8581 59.7108C105.396 59.7108 105.398 55.7659 141.938 55.7659C178.478 55.7659 178.478 59.7108 215.019 59.7108C251.56 59.7108 251.558 55.7659 288.098 55.7659C324.637 55.7659 324.639 59.7108 361.179 59.7108C397.72 59.7108 397.718 55.7659 434.257 55.7659C470.796 55.7659 470.797 59.7108 507.336 59.7108C543.875 59.7108 543.877 55.7659 580.418 55.7659C616.959 55.7659 616.958 59.7108 653.498 59.7108C690.038 59.7108 690.043 55.7659 726.588 55.7659C763.133 55.7659 762.501 58.8155 798.863 59.7009C802.519 59.7899 807.822 58.6282 807.822 59.518C807.822 60.4072 791.534 60.4072 791.534 61.2965C791.534 62.1858 807.822 62.1862 807.822 63.0759C807.822 63.9656 791.534 63.966 791.534 64.8561C791.534 65.7462 807.822 65.7462 807.822 66.6363C807.822 67.5264 791.534 67.5264 791.534 68.4165C791.534 69.3066 807.822 69.3068 807.822 70.1972C807.822 71.087 791.534 71.087 791.534 71.9769C791.534 72.8675 807.822 72.8675 807.822 73.7581C807.822 74.6494 790.971 75.0523 791.691 75.9263C793.288 77.8654 804.155 79.1963 800.494 79.2856Z" fill="#009448"/>
<path d="M800.557 79.6284C764.203 80.5152 763.203 75.6935 726.665 75.6935C690.125 75.6935 690.125 79.6383 653.585 79.6383C617.045 79.6383 617.045 75.6935 580.504 75.6935C543.965 75.6935 543.965 79.6383 507.426 79.6383C470.885 79.6383 470.885 75.6935 434.344 75.6935C397.805 75.6935 397.805 79.6383 361.266 79.6383C324.727 79.6383 324.727 75.6935 288.187 75.6935C251.646 75.6935 251.646 79.6383 215.105 79.6383C178.565 79.6383 178.565 75.6935 142.025 75.6935C105.481 75.6935 105.481 79.6383 68.9356 79.6383C32.3907 79.6383 33.0221 76.5887 -3.33968 75.7034C-6.99518 75.6144 -12.2983 76.7761 -12.2983 75.8863C-12.2983 74.997 3.9896 74.997 3.9896 74.1078C3.9896 73.2181 -12.2983 73.2181 -12.2983 72.3284C-12.2983 71.4387 3.9896 71.4383 3.9896 70.5482C3.9896 69.6581 -12.2983 69.6581 -12.2983 68.768C-12.2983 67.8779 3.9896 67.8779 3.9896 66.9877C3.9896 66.0976 -12.2983 66.0974 -12.2983 65.2071C-12.2983 64.3172 3.9896 64.3172 3.9896 63.4274C3.9896 62.5368 -12.2983 62.5368 -12.2983 61.6461C-12.2983 60.7549 3.9896 60.7549 3.9896 59.8636C3.9896 58.9724 -8.63184 56.208 -4.97043 56.1186C31.3836 55.2319 32.3835 60.0535 68.9216 60.0535C105.46 60.0535 105.461 56.1087 142.001 56.1087C178.541 56.1087 178.542 60.0535 215.082 60.0535C251.623 60.0535 251.622 56.1087 288.161 56.1087C324.7 56.1087 324.702 60.0535 361.243 60.0535C397.784 60.0535 397.782 56.1087 434.321 56.1087C470.859 56.1087 470.86 60.0535 507.399 60.0535C543.939 60.0535 543.94 56.1087 580.482 56.1087C617.023 56.1087 617.022 60.0535 653.561 60.0535C690.101 60.0535 690.106 56.1087 726.651 56.1087C763.196 56.1087 762.565 59.1583 798.927 60.0436C802.582 60.1326 807.885 58.9709 807.885 59.8607C807.885 60.75 791.597 60.75 791.597 61.6393C791.597 62.5285 807.885 62.529 807.885 63.4187C807.885 64.3084 791.597 64.3088 791.597 65.1989C791.597 66.089 807.885 66.089 807.885 66.9791C807.885 67.8692 791.597 67.8692 791.597 68.7593C791.597 69.6494 807.885 69.6496 807.885 70.54C807.885 71.4298 791.597 71.4298 791.597 72.3197C791.597 73.2103 807.885 73.2103 807.885 74.1009C807.885 74.9921 791.035 75.3951 791.754 76.2691C793.351 78.2082 804.219 79.5391 800.557 79.6284Z" fill="#009247"/>
<path d="M800.62 79.9717C764.266 80.8584 763.266 76.0368 726.728 76.0368C690.188 76.0368 690.188 79.9816 653.648 79.9816C617.108 79.9816 617.108 76.0368 580.567 76.0368C544.028 76.0368 544.028 79.9816 507.489 79.9816C470.948 79.9816 470.948 76.0368 434.407 76.0368C397.868 76.0368 397.868 79.9816 361.329 79.9816C324.79 79.9816 324.79 76.0368 288.25 76.0368C251.709 76.0368 251.709 79.9816 215.168 79.9816C178.628 79.9816 178.628 76.0368 142.088 76.0368C105.544 76.0368 105.544 79.9816 68.9986 79.9816C32.4537 79.9816 33.0851 76.932 -3.2767 76.0466C-6.93219 75.9577 -12.2354 77.1194 -12.2354 76.2296C-12.2354 75.3403 4.05259 75.3403 4.05259 74.451C4.05259 73.5613 -12.2354 73.5613 -12.2354 72.6716C-12.2354 71.7819 4.05259 71.7815 4.05259 70.8914C4.05259 70.0013 -12.2354 70.0013 -12.2354 69.1112C-12.2354 68.2211 4.05259 68.2211 4.05259 67.331C4.05259 66.4409 -12.2354 66.4407 -12.2354 65.5503C-12.2354 64.6605 4.05259 64.6605 4.05259 63.7706C4.05259 62.88 -12.2354 62.88 -12.2354 61.9894C-12.2354 61.0981 4.05259 61.0981 4.05259 60.2069C4.05259 59.3156 -8.56885 56.5512 -4.90744 56.4619C31.4466 55.5751 32.4465 60.3968 68.9846 60.3968C105.523 60.3968 105.524 56.452 142.064 56.452C178.604 56.452 178.605 60.3968 215.145 60.3968C251.686 60.3968 251.685 56.452 288.224 56.452C324.763 56.452 324.765 60.3968 361.306 60.3968C397.847 60.3968 397.845 56.452 434.384 56.452C470.922 56.452 470.923 60.3968 507.462 60.3968C544.002 60.3968 544.003 56.452 580.545 56.452C617.086 56.452 617.085 60.3968 653.624 60.3968C690.164 60.3968 690.169 56.452 726.714 56.452C763.259 56.452 762.628 59.5016 798.989 60.3869C802.645 60.4759 807.948 59.3142 807.948 60.204C807.948 61.0933 791.66 61.0933 791.66 61.9825C791.66 62.8718 807.948 62.8722 807.948 63.7619C807.948 64.6516 791.66 64.652 791.66 65.5421C791.66 66.4322 807.948 66.4322 807.948 67.3223C807.948 68.2124 791.66 68.2124 791.66 69.1025C791.66 69.9927 807.948 69.9929 807.948 70.8832C807.948 71.7731 791.66 71.7731 791.66 72.6629C791.66 73.5535 807.948 73.5535 807.948 74.4442C807.948 75.3354 791.098 75.7384 791.817 76.6124C793.414 78.5515 804.282 79.8823 800.62 79.9717Z" fill="#009147"/>
<path d="M800.684 80.3154C764.33 81.2022 763.33 76.3805 726.792 76.3805C690.252 76.3805 690.252 80.3253 653.712 80.3253C617.172 80.3253 617.172 76.3805 580.631 76.3805C544.092 76.3805 544.092 80.3253 507.553 80.3253C471.012 80.3253 471.012 76.3805 434.471 76.3805C397.932 76.3805 397.932 80.3253 361.393 80.3253C324.854 80.3253 324.854 76.3805 288.314 76.3805C251.773 76.3805 251.773 80.3253 215.232 80.3253C178.692 80.3253 178.692 76.3805 142.152 76.3805C105.608 76.3805 105.608 80.3253 69.0626 80.3253C32.5176 80.3253 33.149 77.2757 -3.21273 76.3904C-6.86823 76.3014 -12.1714 77.4631 -12.1714 76.5733C-12.1714 75.6841 4.11655 75.6841 4.11655 74.7948C4.11655 73.9051 -12.1714 73.9051 -12.1714 73.0154C-12.1714 72.1257 4.11655 72.1253 4.11655 71.2352C4.11655 70.3451 -12.1714 70.3451 -12.1714 69.455C-12.1714 68.5649 4.11655 68.5649 4.11655 67.6748C4.11655 66.7846 -12.1714 66.7844 -12.1714 65.8941C-12.1714 65.0042 4.11655 65.0042 4.11655 64.1144C4.11655 63.2238 -12.1714 63.2238 -12.1714 62.3331C-12.1714 61.4419 4.11655 61.4419 4.11655 60.5506C4.11655 59.6594 -8.50489 56.895 -4.84348 56.8056C31.5106 55.9189 32.5105 60.7406 69.0485 60.7406C105.587 60.7406 105.588 56.7957 142.128 56.7957C178.668 56.7957 178.669 60.7406 215.209 60.7406C251.75 60.7406 251.749 56.7957 288.288 56.7957C324.827 56.7957 324.829 60.7406 361.37 60.7406C397.911 60.7406 397.909 56.7957 434.448 56.7957C470.986 56.7957 470.987 60.7406 507.526 60.7406C544.066 60.7406 544.067 56.7957 580.609 56.7957C617.15 56.7957 617.149 60.7406 653.688 60.7406C690.228 60.7406 690.233 56.7957 726.778 56.7957C763.323 56.7957 762.692 59.8453 799.054 60.7307C802.709 60.8197 808.012 59.6579 808.012 60.5477C808.012 61.437 791.724 61.437 791.724 62.3263C791.724 63.2155 808.012 63.216 808.012 64.1057C808.012 64.9954 791.724 64.9958 791.724 65.8859C791.724 66.776 808.012 66.776 808.012 67.6661C808.012 68.5562 791.724 68.5562 791.724 69.4463C791.724 70.3364 808.012 70.3366 808.012 71.227C808.012 72.1168 791.724 72.1168 791.724 73.0067C791.724 73.8973 808.012 73.8973 808.012 74.7879C808.012 75.6792 791.162 76.0821 791.881 76.9561C793.478 78.8952 804.346 80.2261 800.684 80.3154Z" fill="#008F46"/>
<path d="M800.748 80.6582C764.394 81.545 763.394 76.7233 726.856 76.7233C690.316 76.7233 690.316 80.6681 653.776 80.6681C617.236 80.6681 617.236 76.7233 580.695 76.7233C544.156 76.7233 544.156 80.6681 507.617 80.6681C471.076 80.6681 471.076 76.7233 434.535 76.7233C397.996 76.7233 397.996 80.6681 361.457 80.6681C324.918 80.6681 324.918 76.7233 288.378 76.7233C251.837 76.7233 251.837 80.6681 215.296 80.6681C178.756 80.6681 178.756 76.7233 142.216 76.7233C105.671 76.7233 105.671 80.6681 69.1265 80.6681C32.5816 80.6681 33.213 77.6185 -3.14877 76.7332C-6.80426 76.6442 -12.1074 77.8059 -12.1074 76.9161C-12.1074 76.0268 4.18052 76.0268 4.18052 75.1376C4.18052 74.2479 -12.1074 74.2479 -12.1074 73.3582C-12.1074 72.4685 4.18052 72.4681 4.18052 71.578C4.18052 70.6879 -12.1074 70.6879 -12.1074 69.7978C-12.1074 68.9077 4.18052 68.9077 4.18052 68.0175C4.18052 67.1274 -12.1074 67.1272 -12.1074 66.2369C-12.1074 65.347 4.18052 65.347 4.18052 64.4572C4.18052 63.5665 -12.1074 63.5665 -12.1074 62.6759C-12.1074 61.7847 4.18052 61.7847 4.18052 60.8934C4.18052 60.0021 -8.44092 57.2378 -4.77951 57.1484C31.5745 56.2617 32.5745 61.0833 69.1125 61.0833C105.651 61.0833 105.652 57.1385 142.192 57.1385C178.732 57.1385 178.733 61.0833 215.273 61.0833C251.814 61.0833 251.813 57.1385 288.352 57.1385C324.891 57.1385 324.893 61.0833 361.434 61.0833C397.975 61.0833 397.973 57.1385 434.511 57.1385C471.05 57.1385 471.051 61.0833 507.59 61.0833C544.13 61.0833 544.131 57.1385 580.672 57.1385C617.214 57.1385 617.212 61.0833 653.752 61.0833C690.292 61.0833 690.297 57.1385 726.842 57.1385C763.387 57.1385 762.756 60.1881 799.118 61.0734C802.773 61.1624 808.076 60.0007 808.076 60.8905C808.076 61.7798 791.788 61.7798 791.788 62.669C791.788 63.5583 808.076 63.5587 808.076 64.4484C808.076 65.3381 791.788 65.3385 791.788 66.2286C791.788 67.1187 808.076 67.1187 808.076 68.0088C808.076 68.8989 791.788 68.8989 791.788 69.7891C791.788 70.6792 808.076 70.6794 808.076 71.5697C808.076 72.4596 791.788 72.4596 791.788 73.3494C791.788 74.2401 808.076 74.2401 808.076 75.1307C808.076 76.0219 791.226 76.4249 791.945 77.2989C793.542 79.238 804.41 80.5689 800.748 80.6582Z" fill="#008E45"/>
<path d="M800.812 81.0014C764.458 81.8882 763.458 77.0665 726.92 77.0665C690.38 77.0665 690.38 81.0114 653.84 81.0114C617.299 81.0114 617.299 77.0665 580.759 77.0665C544.219 77.0665 544.219 81.0114 507.68 81.0114C471.139 81.0114 471.139 77.0665 434.598 77.0665C398.059 77.0665 398.059 81.0114 361.521 81.0114C324.981 81.0114 324.981 77.0665 288.442 77.0665C251.901 77.0665 251.901 81.0114 215.36 81.0114C178.82 81.0114 178.82 77.0665 142.28 77.0665C105.735 77.0665 105.735 81.0114 69.19 81.0114C32.6451 81.0114 33.2765 77.9618 -3.08529 77.0764C-6.74079 76.9874 -12.0439 78.1492 -12.0439 77.2594C-12.0439 76.3701 4.24399 76.3701 4.24399 75.4808C4.24399 74.5911 -12.0439 74.5911 -12.0439 73.7014C-12.0439 72.8117 4.24399 72.8113 4.24399 71.9212C4.24399 71.0311 -12.0439 71.0311 -12.0439 70.141C-12.0439 69.2509 4.24399 69.2509 4.24399 68.3608C4.24399 67.4707 -12.0439 67.4705 -12.0439 66.5801C-12.0439 65.6903 4.24399 65.6903 4.24399 64.8004C4.24399 63.9098 -12.0439 63.9098 -12.0439 63.0192C-12.0439 62.1279 4.24399 62.1279 4.24399 61.2367C4.24399 60.3454 -8.37745 57.581 -4.71604 57.4917C31.638 56.6049 32.6379 61.4266 69.176 61.4266C105.714 61.4266 105.716 57.4818 142.256 57.4818C178.796 57.4818 178.796 61.4266 215.337 61.4266C251.877 61.4266 251.876 57.4818 288.416 57.4818C324.955 57.4818 324.957 61.4266 361.497 61.4266C398.038 61.4266 398.036 57.4818 434.575 57.4818C471.114 57.4818 471.114 61.4266 507.654 61.4266C544.193 61.4266 544.195 57.4818 580.736 57.4818C617.277 57.4818 617.276 61.4266 653.816 61.4266C690.356 61.4266 690.361 57.4818 726.906 57.4818C763.451 57.4818 762.819 60.5314 799.181 61.4167C802.836 61.5057 808.14 60.344 808.14 61.2338C808.14 62.123 791.852 62.123 791.852 63.0123C791.852 63.902 808.14 63.902 808.14 64.7917C808.14 65.6814 791.852 65.6818 791.852 66.5719C791.852 67.462 808.14 67.462 808.14 68.3521C808.14 69.2422 791.852 69.2422 791.852 70.1323C791.852 71.0225 808.14 71.0227 808.14 71.913C808.14 72.8029 791.852 72.8029 791.852 73.6927C791.852 74.5833 808.14 74.5833 808.14 75.474C808.14 76.3652 791.289 76.7681 792.009 77.6422C793.605 79.5813 804.473 80.9121 800.812 81.0014Z" fill="#008D45"/>
<path d="M800.874 81.3447C764.52 82.2315 763.52 77.4098 726.982 77.4098C690.442 77.4098 690.442 81.3546 653.902 81.3546C617.362 81.3546 617.362 77.4098 580.821 77.4098C544.282 77.4098 544.282 81.3546 507.743 81.3546C471.202 81.3546 471.202 77.4098 434.661 77.4098C398.122 77.4098 398.122 81.3546 361.583 81.3546C325.044 81.3546 325.044 77.4098 288.504 77.4098C251.963 77.4098 251.963 81.3546 215.422 81.3546C178.882 81.3546 178.882 77.4098 142.342 77.4098C105.797 77.4098 105.797 81.3546 69.2525 81.3546C32.7076 81.3546 33.339 78.305 -3.02279 77.4197C-6.67829 77.3307 -11.9814 78.4924 -11.9814 77.6026C-11.9814 76.7133 4.30649 76.7134 4.30649 75.8241C4.30649 74.9344 -11.9814 74.9344 -11.9814 74.0447C-11.9814 73.155 4.30649 73.1546 4.30649 72.2645C4.30649 71.3744 -11.9814 71.3744 -11.9814 70.4843C-11.9814 69.5942 4.30649 69.5942 4.30649 68.7041C4.30649 67.8139 -11.9814 67.8137 -11.9814 66.9234C-11.9814 66.0335 4.30649 66.0335 4.30649 65.1437C4.30649 64.2531 -11.9814 64.2531 -11.9814 63.3624C-11.9814 62.4712 4.30649 62.4712 4.30649 61.5799C4.30649 60.6887 -8.31495 57.9243 -4.65354 57.8349C31.7005 56.9482 32.7004 61.7698 69.2385 61.7698C105.777 61.7698 105.778 57.825 142.318 57.825C178.858 57.825 178.859 61.7698 215.399 61.7698C251.94 61.7698 251.939 57.825 288.478 57.825C325.017 57.825 325.019 61.7698 361.56 61.7698C398.101 61.7698 398.099 57.825 434.637 57.825C471.176 57.825 471.177 61.7698 507.716 61.7698C544.256 61.7698 544.257 57.825 580.798 57.825C617.34 57.825 617.338 61.7698 653.878 61.7698C690.418 61.7698 690.423 57.825 726.968 57.825C763.513 57.825 762.882 60.8746 799.243 61.76C802.899 61.849 808.202 60.6872 808.202 61.577C808.202 62.4663 791.914 62.4663 791.914 63.3556C791.914 64.2448 808.202 64.2453 808.202 65.135C808.202 66.0247 791.914 66.0251 791.914 66.9152C791.914 67.8053 808.202 67.8053 808.202 68.6954C808.202 69.5855 791.914 69.5855 791.914 70.4756C791.914 71.3657 808.202 71.3659 808.202 72.2563C808.202 73.1461 791.914 73.1461 791.914 74.036C791.914 74.9266 808.202 74.9266 808.202 75.8172C808.202 76.7085 791.352 77.1114 792.071 77.9854C793.668 79.9245 804.535 81.2554 800.874 81.3447Z" fill="#008B44"/>
<path d="M800.94 81.688C764.586 82.5747 763.586 77.7531 727.048 77.7531C690.508 77.7531 690.508 81.6979 653.968 81.6979C617.427 81.6979 617.427 77.7531 580.887 77.7531C544.347 77.7531 544.347 81.6979 507.808 81.6979C471.267 81.6979 471.267 77.7531 434.726 77.7531C398.187 77.7531 398.187 81.6979 361.649 81.6979C325.109 81.6979 325.109 77.7531 288.57 77.7531C252.029 77.7531 252.029 81.6979 215.488 81.6979C178.948 81.6979 178.948 77.7531 142.408 77.7531C105.863 77.7531 105.863 81.6979 69.318 81.6979C32.773 81.6979 33.4044 78.6483 -2.95736 77.763C-6.61286 77.674 -11.916 78.8357 -11.916 77.9459C-11.916 77.0566 4.37192 77.0566 4.37192 76.1673C4.37192 75.2776 -11.916 75.2776 -11.916 74.3879C-11.916 73.4982 4.37192 73.4978 4.37192 72.6077C4.37192 71.7176 -11.916 71.7176 -11.916 70.8275C-11.916 69.9374 4.37192 69.9374 4.37192 69.0473C4.37192 68.1572 -11.916 68.157 -11.916 67.2667C-11.916 66.3768 4.37192 66.3768 4.37192 65.487C4.37192 64.5963 -11.916 64.5963 -11.916 63.7057C-11.916 62.8145 4.37192 62.8145 4.37192 61.9232C4.37192 61.0319 -8.24952 58.2675 -4.58811 58.1782C31.7659 57.2914 32.7659 62.1131 69.3039 62.1131C105.842 62.1131 105.844 58.1683 142.384 58.1683C178.924 58.1683 178.924 62.1131 215.465 62.1131C252.005 62.1131 252.004 58.1683 288.544 58.1683C325.083 58.1683 325.084 62.1131 361.625 62.1131C398.166 62.1131 398.164 58.1683 434.703 58.1683C471.242 58.1683 471.242 62.1131 507.782 62.1131C544.321 62.1131 544.323 58.1683 580.864 58.1683C617.405 58.1683 617.404 62.1131 653.944 62.1131C690.484 62.1131 690.489 58.1683 727.034 58.1683C763.579 58.1683 762.947 61.2179 799.309 62.1032C802.964 62.1922 808.268 61.0305 808.268 61.9203C808.268 62.8096 791.98 62.8096 791.98 63.6988C791.98 64.5885 808.268 64.5885 808.268 65.4782C808.268 66.3679 791.98 66.3683 791.98 67.2584C791.98 68.1485 808.268 68.1485 808.268 69.0386C808.268 69.9287 791.98 69.9287 791.98 70.8189C791.98 71.709 808.268 71.7092 808.268 72.5995C808.268 73.4894 791.98 73.4894 791.98 74.3792C791.98 75.2699 808.268 75.2699 808.268 76.1605C808.268 77.0517 791.417 77.4547 792.137 78.3287C793.733 80.2678 804.601 81.5986 800.94 81.688Z" fill="#008A43"/>
<path d="M801.004 82.0307C764.649 82.9175 763.649 78.0958 727.112 78.0958C690.572 78.0958 690.572 82.0407 654.032 82.0407C617.491 82.0407 617.491 78.0958 580.951 78.0958C544.411 78.0958 544.411 82.0407 507.872 82.0407C471.331 82.0407 471.331 78.0958 434.79 78.0958C398.249 78.0958 398.251 82.0407 361.713 82.0407C325.173 82.0407 325.173 78.0958 288.634 78.0958C252.093 78.0958 252.093 82.0407 215.552 82.0407C179.012 82.0407 179.012 78.0958 142.472 78.0958C105.927 78.0958 105.927 82.0407 69.3819 82.0407C32.837 82.0407 33.4684 78.9911 -2.8934 78.1057C-6.54889 78.0167 -11.8521 79.1785 -11.8521 78.2887C-11.8521 77.3994 4.43589 77.3994 4.43589 76.5101C4.43589 75.6204 -11.8521 75.6204 -11.8521 74.7307C-11.8521 73.841 4.43589 73.8406 4.43589 72.9505C4.43589 72.0604 -11.8521 72.0604 -11.8521 71.1703C-11.8521 70.2802 4.43589 70.2802 4.43589 69.3901C4.43589 68.5 -11.8521 68.4998 -11.8521 67.6094C-11.8521 66.7196 4.43589 66.7196 4.43589 65.8297C4.43589 64.9391 -11.8521 64.9391 -11.8521 64.0485C-11.8521 63.1572 4.43589 63.1572 4.43589 62.266C4.43589 61.3747 -8.18555 58.6103 -4.52414 58.521C31.8299 57.6342 32.8298 62.4559 69.3679 62.4559C105.906 62.4559 105.908 58.5111 142.448 58.5111C178.988 58.5111 178.988 62.4559 215.529 62.4559C252.069 62.4559 252.068 58.5111 288.607 58.5111C325.147 58.5111 325.148 62.4559 361.689 62.4559C398.23 62.4559 398.228 58.5111 434.767 58.5111C471.306 58.5111 471.306 62.4559 507.846 62.4559C544.385 62.4559 544.387 58.5111 580.928 58.5111C617.469 58.5111 617.468 62.4559 654.008 62.4559C690.548 62.4559 690.553 58.5111 727.098 58.5111C763.642 58.5111 763.011 61.5607 799.373 62.446C803.028 62.535 808.331 61.3733 808.331 62.2631C808.331 63.1523 792.044 63.1523 792.044 64.0416C792.044 64.9313 808.331 64.9313 808.331 65.821C808.331 66.7107 792.044 66.7111 792.044 67.6012C792.044 68.4913 808.331 68.4913 808.331 69.3814C808.331 70.2715 792.044 70.2715 792.044 71.1616C792.044 72.0518 808.331 72.052 808.331 72.9423C808.331 73.8322 792.044 73.8322 792.044 74.722C792.044 75.6126 808.331 75.6126 808.331 76.5033C808.331 77.3945 791.481 77.7974 792.201 78.6715C793.797 80.6106 804.665 81.9414 801.004 82.0307Z" fill="#008843"/>
<path d="M801.067 82.3745C764.713 83.2613 763.712 78.4396 727.175 78.4396C690.635 78.4396 690.635 82.3844 654.095 82.3844C617.554 82.3844 617.554 78.4396 581.014 78.4396C544.474 78.4396 544.474 82.3844 507.935 82.3844C471.394 82.3844 471.394 78.4396 434.853 78.4396C398.314 78.4396 398.314 82.3844 361.776 82.3844C325.236 82.3844 325.236 78.4396 288.697 78.4396C252.156 78.4396 252.156 82.3844 215.615 82.3844C179.075 82.3844 179.075 78.4396 142.535 78.4396C105.99 78.4396 105.99 82.3844 69.4449 82.3844C32.9 82.3844 33.5313 79.3348 -2.83041 78.4495C-6.4859 78.3605 -11.7891 79.5222 -11.7891 78.6324C-11.7891 77.7431 4.49888 77.7431 4.49888 76.8539C4.49888 75.9642 -11.7891 75.9642 -11.7891 75.0745C-11.7891 74.1848 4.49888 74.1844 4.49888 73.2943C4.49888 72.4042 -11.7891 72.4042 -11.7891 71.5141C-11.7891 70.624 4.49888 70.624 4.49888 69.7338C4.49888 68.8437 -11.7891 68.8435 -11.7891 67.9532C-11.7891 67.0633 4.49888 67.0633 4.49888 66.1735C4.49888 65.2828 -11.7891 65.2828 -11.7891 64.3922C-11.7891 63.501 4.49888 63.501 4.49888 62.6097C4.49888 61.7185 -8.12257 58.9541 -4.46116 58.8647C31.8929 57.978 32.8928 62.7996 69.4309 62.7996C105.969 62.7996 105.971 58.8548 142.511 58.8548C179.051 58.8548 179.051 62.7996 215.592 62.7996C252.132 62.7996 252.131 58.8548 288.67 58.8548C325.21 58.8548 325.211 62.7996 361.752 62.7996C398.293 62.7996 398.291 58.8548 434.83 58.8548C471.369 58.8548 471.369 62.7996 507.909 62.7996C544.448 62.7996 544.45 58.8548 580.991 58.8548C617.532 58.8548 617.531 62.7996 654.071 62.7996C690.611 62.7996 690.616 58.8548 727.161 58.8548C763.705 58.8548 763.074 61.9044 799.436 62.7897C803.091 62.8787 808.394 61.717 808.394 62.6068C808.394 63.4961 792.107 63.4961 792.107 64.3854C792.107 65.2746 808.394 65.2751 808.394 66.1648C808.394 67.0545 792.107 67.0549 792.107 67.9449C792.107 68.835 808.394 68.835 808.394 69.7251C808.394 70.6152 792.107 70.6152 792.107 71.5054C792.107 72.3955 808.394 72.3957 808.394 73.286C808.394 74.1759 792.107 74.1759 792.107 75.0657C792.107 75.9564 808.394 75.9564 808.394 76.847C808.394 77.7382 791.544 78.1412 792.264 79.0152C793.86 80.9543 804.728 82.2852 801.067 82.3745Z" fill="#008742"/>
<path d="M801.13 82.7178C764.776 83.6045 763.776 78.7828 727.238 78.7828C690.698 78.7828 690.698 82.7277 654.158 82.7277C617.618 82.7277 617.618 78.7828 581.077 78.7828C544.538 78.7828 544.538 82.7277 507.998 82.7277C471.457 82.7277 471.457 78.7828 434.917 78.7828C398.378 78.7828 398.378 82.7277 361.839 82.7277C325.3 82.7277 325.3 78.7828 288.76 78.7828C252.219 78.7828 252.219 82.7277 215.678 82.7277C179.138 82.7277 179.138 78.7828 142.598 78.7828C106.053 78.7828 106.053 82.7277 69.5084 82.7277C32.9635 82.7277 33.5948 79.6781 -2.76693 78.7927C-6.42243 78.7037 -11.7256 79.8655 -11.7256 78.9757C-11.7256 78.0864 4.56236 78.0864 4.56236 77.1971C4.56236 76.3074 -11.7256 76.3074 -11.7256 75.4177C-11.7256 74.528 4.56236 74.5276 4.56236 73.6375C4.56236 72.7474 -11.7256 72.7474 -11.7256 71.8573C-11.7256 70.9672 4.56236 70.9672 4.56236 70.0771C4.56236 69.187 -11.7256 69.1868 -11.7256 68.2964C-11.7256 67.4066 4.56236 67.4066 4.56236 66.5167C4.56236 65.6261 -11.7256 65.6261 -11.7256 64.7355C-11.7256 63.8442 4.56236 63.8442 4.56236 62.953C4.56236 62.0617 -8.05909 59.2973 -4.39768 59.208C31.9564 58.3212 32.9563 63.1429 69.4944 63.1429C106.032 63.1429 106.034 59.1981 142.574 59.1981C179.114 59.1981 179.115 63.1429 215.655 63.1429C252.196 63.1429 252.195 59.1981 288.734 59.1981C325.273 59.1981 325.275 63.1429 361.816 63.1429C398.356 63.1429 398.355 59.1981 434.893 59.1981C471.432 59.1981 471.433 63.1429 507.972 63.1429C544.512 63.1429 544.513 59.1981 581.054 59.1981C617.595 59.1981 617.594 63.1429 654.134 63.1429C690.674 63.1429 690.679 59.1981 727.224 59.1981C763.769 59.1981 763.138 62.2477 799.499 63.133C803.155 63.222 808.458 62.0603 808.458 62.9501C808.458 63.8393 792.17 63.8393 792.17 64.7286C792.17 65.6179 808.458 65.6183 808.458 66.508C808.458 67.3977 792.17 67.3981 792.17 68.2882C792.17 69.1783 808.458 69.1783 808.458 70.0684C808.458 70.9585 792.17 70.9585 792.17 71.8486C792.17 72.7388 808.458 72.739 808.458 73.6293C808.458 74.5192 792.17 74.5192 792.17 75.409C792.17 76.2996 808.458 76.2996 808.458 77.1903C808.458 78.0815 791.608 78.4845 792.327 79.3585C793.924 81.2976 804.791 82.6284 801.13 82.7178Z" fill="#008541"/>
<path d="M801.194 83.0605C764.84 83.9473 763.84 79.1256 727.302 79.1256C690.763 79.1256 690.763 83.0705 654.223 83.0705C617.682 83.0705 617.682 79.1256 581.142 79.1256C544.602 79.1256 544.602 83.0705 508.063 83.0705C471.522 83.0705 471.522 79.1256 434.981 79.1256C398.442 79.1256 398.442 83.0705 361.904 83.0705C325.364 83.0705 325.364 79.1256 288.825 79.1256C252.284 79.1256 252.284 83.0705 215.743 83.0705C179.203 83.0705 179.203 79.1256 142.663 79.1256C106.118 79.1256 106.118 83.0705 69.5728 83.0705C33.0279 83.0705 33.6593 80.0208 -2.70248 79.1355C-6.35797 79.0465 -11.6611 80.2082 -11.6611 79.3184C-11.6611 78.4292 4.62681 78.4292 4.62681 77.5399C4.62681 76.6502 -11.6611 76.6502 -11.6611 75.7605C-11.6611 74.8708 4.62681 74.8704 4.62681 73.9803C4.62681 73.0902 -11.6611 73.0902 -11.6611 72.2001C-11.6611 71.31 4.62681 71.31 4.62681 70.4199C4.62681 69.5297 -11.6611 69.5295 -11.6611 68.6392C-11.6611 67.7493 4.62681 67.7493 4.62681 66.8595C4.62681 65.9689 -11.6611 65.9689 -11.6611 65.0782C-11.6611 64.187 4.62681 64.187 4.62681 63.2958C4.62681 62.4045 -7.99463 59.6401 -4.33322 59.5508C32.0208 58.664 33.0208 63.4857 69.5588 63.4857C106.097 63.4857 106.099 59.5408 142.639 59.5408C179.179 59.5408 179.179 63.4857 215.72 63.4857C252.26 63.4857 252.259 59.5408 288.798 59.5408C325.338 59.5408 325.339 63.4857 361.88 63.4857C398.421 63.4857 398.419 59.5408 434.958 59.5408C471.497 59.5408 471.497 63.4857 508.037 63.4857C544.576 63.4857 544.578 59.5408 581.119 59.5408C617.66 59.5408 617.659 63.4857 654.199 63.4857C690.738 63.4857 690.744 59.5408 727.288 59.5408C763.833 59.5408 763.202 62.5904 799.564 63.4758C803.219 63.5648 808.522 62.4031 808.522 63.2929C808.522 64.1821 792.234 64.1821 792.234 65.0714C792.234 65.9607 808.522 65.9611 808.522 66.8508C808.522 67.7405 792.234 67.7409 792.234 68.631C792.234 69.5211 808.522 69.5211 808.522 70.4112C808.522 71.3013 792.234 71.3013 792.234 72.1914C792.234 73.0815 808.522 73.0817 808.522 73.9721C808.522 74.8619 792.234 74.8619 792.234 75.7518C792.234 76.6424 808.522 76.6424 808.522 77.533C808.522 78.4243 791.672 78.8272 792.392 79.7012C793.988 81.6403 804.856 82.9712 801.194 83.0605Z" fill="#008440"/>
<path d="M801.258 83.4038C764.904 84.2906 763.904 79.4689 727.366 79.4689C690.827 79.4689 690.827 83.4137 654.287 83.4137C617.746 83.4137 617.746 79.4689 581.206 79.4689C544.666 79.4689 544.666 83.4137 508.127 83.4137C471.586 83.4137 471.586 79.4689 435.045 79.4689C398.506 79.4689 398.506 83.4137 361.968 83.4137C325.428 83.4137 325.428 79.4689 288.889 79.4689C252.348 79.4689 252.348 83.4137 215.806 83.4137C179.267 83.4137 179.267 79.4689 142.727 79.4689C106.182 79.4689 106.182 83.4137 69.6368 83.4137C33.0919 83.4137 33.7232 80.3641 -2.63851 79.4788C-6.29401 79.3898 -11.5972 80.5515 -11.5972 79.6617C-11.5972 78.7724 4.69077 78.7724 4.69077 77.8832C4.69077 76.9935 -11.5972 76.9935 -11.5972 76.1038C-11.5972 75.2141 4.69077 75.2137 4.69077 74.3236C4.69077 73.4335 -11.5972 73.4335 -11.5972 72.5434C-11.5972 71.6533 4.69077 71.6533 4.69077 70.7631C4.69077 69.873 -11.5972 69.8728 -11.5972 68.9825C-11.5972 68.0926 4.69077 68.0926 4.69077 67.2028C4.69077 66.3121 -11.5972 66.3121 -11.5972 65.4215C-11.5972 64.5303 4.69077 64.5303 4.69077 63.639C4.69077 62.7477 -7.93067 59.9834 -4.26926 59.894C32.0848 59.0073 33.0847 63.8289 69.6228 63.8289C106.161 63.8289 106.163 59.8841 142.703 59.8841C179.243 59.8841 179.243 63.8289 215.784 63.8289C252.324 63.8289 252.323 59.8841 288.862 59.8841C325.402 59.8841 325.403 63.8289 361.944 63.8289C398.485 63.8289 398.483 59.8841 435.022 59.8841C471.56 59.8841 471.561 63.8289 508.101 63.8289C544.64 63.8289 544.642 59.8841 581.183 59.8841C617.724 59.8841 617.723 63.8289 654.263 63.8289C690.802 63.8289 690.808 59.8841 727.352 59.8841C763.897 59.8841 763.266 62.9337 799.628 63.819C803.283 63.908 808.586 62.7463 808.586 63.6361C808.586 64.5254 792.298 64.5254 792.298 65.4146C792.298 66.3039 808.586 66.3043 808.586 67.194C808.586 68.0837 792.298 68.0841 792.298 68.9742C792.298 69.8643 808.586 69.8643 808.586 70.7544C808.586 71.6445 792.298 71.6445 792.298 72.5347C792.298 73.4248 808.586 73.425 808.586 74.3153C808.586 75.2052 792.298 75.2052 792.298 76.095C792.298 76.9857 808.586 76.9857 808.586 77.8763C808.586 78.7675 791.736 79.1705 792.456 80.0445C794.052 81.9836 804.92 83.3145 801.258 83.4038Z" fill="#008340"/>
<path d="M801.321 83.7471C764.967 84.6338 763.967 79.8121 727.429 79.8121C690.89 79.8121 690.89 83.757 654.35 83.757C617.809 83.757 617.809 79.8121 581.269 79.8121C544.729 79.8121 544.729 83.757 508.19 83.757C471.649 83.757 471.649 79.8121 435.108 79.8121C398.569 79.8121 398.569 83.757 362.03 83.757C325.491 83.757 325.491 79.8121 288.952 79.8121C252.411 79.8121 252.411 83.757 215.869 83.757C179.329 83.757 179.329 79.8121 142.79 79.8121C106.245 79.8121 106.245 83.757 69.6998 83.757C33.1549 83.757 33.7862 80.7074 -2.57552 79.822C-6.23102 79.733 -11.5342 80.8948 -11.5342 80.005C-11.5342 79.1157 4.75376 79.1157 4.75376 78.2264C4.75376 77.3367 -11.5342 77.3367 -11.5342 76.447C-11.5342 75.5573 4.75376 75.5569 4.75376 74.6668C4.75376 73.7767 -11.5342 73.7767 -11.5342 72.8866C-11.5342 71.9965 4.75376 71.9965 4.75376 71.1064C4.75376 70.2163 -11.5342 70.2161 -11.5342 69.3257C-11.5342 68.4359 4.75376 68.4359 4.75376 67.546C4.75376 66.6554 -11.5342 66.6554 -11.5342 65.7648C-11.5342 64.8735 4.75376 64.8735 4.75376 63.9823C4.75376 63.091 -7.86768 60.3266 -4.20627 60.2373C32.1478 59.3505 33.1477 64.1722 69.6858 64.1722C106.224 64.1722 106.226 60.2274 142.766 60.2274C179.306 60.2274 179.306 64.1722 215.847 64.1722C252.387 64.1722 252.386 60.2274 288.925 60.2274C325.465 60.2274 325.466 64.1722 362.007 64.1722C398.548 64.1722 398.546 60.2274 435.085 60.2274C471.623 60.2274 471.624 64.1722 508.164 64.1722C544.703 64.1722 544.705 60.2274 581.246 60.2274C617.787 60.2274 617.786 64.1722 654.326 64.1722C690.865 64.1722 690.87 60.2274 727.415 60.2274C763.96 60.2274 763.329 63.277 799.691 64.1623C803.346 64.2513 808.649 63.0896 808.649 63.9794C808.649 64.8686 792.361 64.8686 792.361 65.7579C792.361 66.6472 808.649 66.6476 808.649 67.5373C808.649 68.427 792.361 68.4274 792.361 69.3175C792.361 70.2076 808.649 70.2076 808.649 71.0977C808.649 71.9878 792.361 71.9878 792.361 72.8779C792.361 73.7681 808.649 73.7683 808.649 74.6586C808.649 75.5485 792.361 75.5485 792.361 76.4383C792.361 77.3289 808.649 77.3289 808.649 78.2196C808.649 79.1108 791.799 79.5138 792.519 80.3878C794.115 82.3269 804.983 83.6577 801.321 83.7471Z" fill="#00813F"/>
<path d="M801.386 84.0908C765.032 84.9776 764.032 80.1559 727.494 80.1559C690.954 80.1559 690.954 84.1007 654.414 84.1007C617.874 84.1007 617.874 80.1559 581.333 80.1559C544.794 80.1559 544.794 84.1007 508.254 84.1007C471.713 84.1007 471.713 80.1559 435.173 80.1559C398.632 80.1559 398.634 84.1007 362.095 84.1007C325.555 84.1007 325.556 80.1559 289.016 80.1559C252.477 80.1559 252.475 84.1007 215.934 84.1007C179.394 84.1007 179.394 80.1559 142.854 80.1559C106.309 80.1559 106.309 84.1007 69.7642 84.1007C33.2193 84.1007 33.8507 81.0511 -2.51107 80.1658C-6.16657 80.0768 -11.4697 81.2385 -11.4697 80.3487C-11.4697 79.4594 4.81821 79.4594 4.81821 78.5702C4.81821 77.6805 -11.4697 77.6805 -11.4697 76.7908C-11.4697 75.9011 4.81821 75.9007 4.81821 75.0106C4.81821 74.1205 -11.4697 74.1205 -11.4697 73.2304C-11.4697 72.3403 4.81821 72.3403 4.81821 71.4502C4.81821 70.56 -11.4697 70.5598 -11.4697 69.6695C-11.4697 68.7796 4.81821 68.7796 4.81821 67.8898C4.81821 66.9992 -11.4697 66.9992 -11.4697 66.1085C-11.4697 65.2173 4.81821 65.2173 4.81821 64.326C4.81821 63.4348 -7.80323 60.6704 -4.14182 60.581C32.2122 59.6943 33.2122 64.5159 69.7502 64.5159C106.288 64.5159 106.29 60.5711 142.83 60.5711C179.37 60.5711 179.371 64.5159 215.911 64.5159C252.452 64.5159 252.451 60.5711 288.99 60.5711C325.529 60.5711 325.531 64.5159 362.072 64.5159C398.612 64.5159 398.61 60.5711 435.149 60.5711C471.688 60.5711 471.689 64.5159 508.228 64.5159C544.767 64.5159 544.769 60.5711 581.31 60.5711C617.851 60.5711 617.85 64.5159 654.39 64.5159C690.93 64.5159 690.935 60.5711 727.48 60.5711C764.025 60.5711 763.393 63.6207 799.755 64.5061C803.411 64.595 808.714 63.4333 808.714 64.3231C808.714 65.2124 792.426 65.2124 792.426 66.1017C792.426 66.9914 808.714 66.9914 808.714 67.8811C808.714 68.7708 792.426 68.7712 792.426 69.6613C792.426 70.5514 808.714 70.5514 808.714 71.4415C808.714 72.3316 792.426 72.3316 792.426 73.2217C792.426 74.1118 808.714 74.112 808.714 75.0024C808.714 75.8922 792.426 75.8922 792.426 76.7821C792.426 77.6727 808.714 77.6727 808.714 78.5633C808.714 79.4545 791.863 79.8575 792.583 80.7315C794.18 82.6706 805.047 84.0015 801.386 84.0908Z" fill="#00803E"/>
<path d="M801.449 84.4336C765.095 85.3203 764.095 80.4987 727.557 80.4987C691.017 80.4987 691.017 84.4435 654.477 84.4435C617.937 84.4435 617.936 80.4987 581.396 80.4987C544.857 80.4987 544.857 84.4435 508.317 84.4435C471.776 84.4435 471.776 80.4987 435.236 80.4987C398.697 80.4987 398.697 84.4435 362.158 84.4435C325.618 84.4435 325.618 80.4987 289.079 80.4987C252.538 80.4987 252.538 84.4435 215.997 84.4435C179.457 84.4435 179.457 80.4987 142.917 80.4987C106.372 80.4987 106.372 84.4435 69.8272 84.4435C33.2823 84.4435 33.9137 81.3939 -2.44808 80.5086C-6.10358 80.4196 -11.4067 81.5813 -11.4067 80.6915C-11.4067 79.8022 4.8812 79.8022 4.8812 78.9129C4.8812 78.0233 -11.4067 78.0233 -11.4067 77.1336C-11.4067 76.2439 4.8812 76.2435 4.8812 75.3534C4.8812 74.4633 -11.4067 74.4633 -11.4067 73.5732C-11.4067 72.6831 4.8812 72.6831 4.8812 71.7929C4.8812 70.9028 -11.4067 70.9026 -11.4067 70.0123C-11.4067 69.1224 4.8812 69.1224 4.8812 68.2326C4.8812 67.3419 -11.4067 67.3419 -11.4067 66.4513C-11.4067 65.5601 4.8812 65.5601 4.8812 64.6688C4.8812 63.7775 -7.74024 61.0131 -4.07883 60.9238C32.2752 60.037 33.2751 64.8587 69.8132 64.8587C106.351 64.8587 106.353 60.9139 142.893 60.9139C179.433 60.9139 179.434 64.8587 215.974 64.8587C252.515 64.8587 252.514 60.9139 289.053 60.9139C325.592 60.9139 325.594 64.8587 362.135 64.8587C398.675 64.8587 398.673 60.9139 435.212 60.9139C471.751 60.9139 471.752 64.8587 508.291 64.8587C544.83 64.8587 544.832 60.9139 581.373 60.9139C617.914 60.9139 617.913 64.8587 654.453 64.8587C690.993 64.8587 690.998 60.9139 727.543 60.9139C764.088 60.9139 763.456 63.9635 799.818 64.8488C803.474 64.9378 808.777 63.7761 808.777 64.6659C808.777 65.5552 792.489 65.5552 792.489 66.4444C792.489 67.3341 808.777 67.3341 808.777 68.2238C808.777 69.1135 792.489 69.1139 792.489 70.004C792.489 70.8941 808.777 70.8941 808.777 71.7842C808.777 72.6743 792.489 72.6743 792.489 73.5645C792.489 74.4546 808.777 74.4548 808.777 75.3451C808.777 76.235 792.489 76.235 792.489 77.1248C792.489 78.0155 808.777 78.0155 808.777 78.9061C808.777 79.7973 791.926 80.2003 792.646 81.0743C794.243 83.0134 805.11 84.3442 801.449 84.4336Z" fill="#007E3E"/>
<mask id="mask2_124_561" style="mask-type:luminance" maskUnits="userSpaceOnUse" x="29" y="55" width="763" height="37">
<path d="M791.45 55.2031H29.4502V91.8041H791.45V55.2031Z" fill="white"/>
</mask>
<g mask="url(#mask2_124_561)">
<path d="M801.513 84.7768C765.159 85.6636 764.159 80.8419 727.621 80.8419C691.081 80.8419 691.081 84.7868 654.541 84.7868C618 84.7868 618 80.8419 581.46 80.8419C544.921 80.8419 544.921 84.7868 508.381 84.7868C471.84 84.7868 471.84 80.8419 435.3 80.8419C398.761 80.8419 398.761 84.7868 362.222 84.7868C325.682 84.7868 325.682 80.8419 289.143 80.8419C252.602 80.8419 252.602 84.7868 216.061 84.7868C179.521 84.7868 179.521 80.8419 142.981 80.8419C106.436 80.8419 106.436 84.7868 69.8912 84.7868C33.3463 84.7868 33.9776 81.7372 -2.38412 80.8518C-6.03962 80.7628 -11.3428 81.9245 -11.3428 81.0347C-11.3428 80.1455 4.94517 80.1455 4.94517 79.2562C4.94517 78.3665 -11.3428 78.3665 -11.3428 77.4768C-11.3428 76.5871 4.94517 76.5867 4.94517 75.6966C4.94517 74.8065 -11.3428 74.8065 -11.3428 73.9164C-11.3428 73.0263 4.94517 73.0263 4.94517 72.1362C4.94517 71.2461 -11.3428 71.2459 -11.3428 70.3555C-11.3428 69.4657 4.94517 69.4657 4.94517 68.5758C4.94517 67.6852 -11.3428 67.6852 -11.3428 66.7946C-11.3428 65.9033 4.94517 65.9033 4.94517 65.0121C4.94517 64.1208 -7.67628 61.3564 -4.01487 61.2671C32.3392 60.3803 33.3391 65.202 69.8772 65.202C106.415 65.202 106.417 61.2571 142.957 61.2571C179.497 61.2571 179.498 65.202 216.038 65.202C252.579 65.202 252.577 61.2571 289.117 61.2571C325.656 61.2571 325.658 65.202 362.198 65.202C398.739 65.202 398.737 61.2571 435.276 61.2571C471.815 61.2571 471.816 65.202 508.355 65.202C544.894 65.202 544.896 61.2571 581.437 61.2571C617.978 61.2571 617.977 65.202 654.517 65.202C691.057 65.202 691.062 61.2571 727.607 61.2571C764.152 61.2571 763.52 64.3067 799.882 65.1921C803.538 65.2811 808.841 64.1194 808.841 65.0092C808.841 65.8984 792.553 65.8984 792.553 66.7877C792.553 67.6774 808.841 67.6774 808.841 68.5671C808.841 69.4568 792.553 69.4572 792.553 70.3473C792.553 71.2374 808.841 71.2374 808.841 72.1275C808.841 73.0176 792.553 73.0176 792.553 73.9077C792.553 74.7979 808.841 74.7981 808.841 75.6884C808.841 76.5783 792.553 76.5783 792.553 77.4681C792.553 78.3587 808.841 78.3587 808.841 79.2494C808.841 80.1406 791.99 80.5435 792.71 81.4175C794.307 83.3567 805.174 84.6875 801.513 84.7768Z" fill="#007D3D"/>
</g>
</g>
</g>
<g filter="url(#filter3_g_124_561)">
<path d="M797.6 97.887L7.6001 98C18.5809 97.9984 27.4814 87.749 27.48 75.1072L777.715 75C777.717 87.6418 786.619 97.8886 797.6 97.887Z" fill="url(#paint4_linear_124_561)"/>
</g>
<g clip-path="url(#clip0_124_561)" filter="url(#filter4_g_124_561)">
<path d="M779.839 97.9038H27.6001V148H779.839V97.9038Z" fill="url(#paint5_linear_124_561)"/>
</g>
<g filter="url(#filter5_d_124_561)">
<path d="M744.921 184.31L50.0704 184.31C36.5649 184.31 25.6002 173.834 25.6002 160.93L25.6002 145L777.363 145L777.363 153.313C777.363 170.421 762.826 184.31 744.921 184.31Z" fill="url(#paint6_linear_124_561)"/>
<path d="M454.725 169.2C457.289 170.065 456.428 171.841 452.802 173.167C449.177 174.492 441.596 174.001 441.596 174.001C441.596 174.001 439.892 171.359 443.518 170.034C447.144 168.708 452.161 168.335 454.725 169.2Z" fill="#FFF3CC"/>
<path d="M298.175 156.163C300.739 157.028 299.878 158.804 296.253 160.13C292.627 161.455 285.046 160.964 285.046 160.964C285.046 160.964 283.343 158.322 286.968 156.997C290.594 155.671 295.611 155.297 298.175 156.163Z" fill="#FFF3CC"/>
<path d="M106.672 174.122C109.236 174.987 108.375 176.763 104.749 178.089C101.124 179.415 93.5423 178.923 93.5423 178.923C93.5423 178.923 91.8393 176.282 95.4649 174.956C99.0905 173.63 104.108 173.257 106.672 174.122Z" fill="#FFF3CC"/>
<path d="M630.052 163.532C632.615 164.397 631.755 166.173 628.129 167.499C624.504 168.825 616.922 168.333 616.922 168.333C616.922 168.333 615.219 165.692 618.845 164.366C622.47 163.04 627.488 162.667 630.052 163.532Z" fill="#FFF3CC"/>
</g>
<g filter="url(#filter6_d_124_561)">
<path d="M59.0423 5.67237e-06L753.892 0.000127164C767.398 0.000129525 778.363 10.4766 778.363 23.3806L778.363 39.3102L26.6001 39.31L26.6001 30.9975C26.6001 13.8895 41.137 2.54171e-06 59.0423 5.67237e-06Z" fill="url(#paint7_linear_124_561)"/>
<path d="M349.238 15.1104C346.674 14.2452 347.535 12.4692 351.16 11.1434C354.786 9.81766 362.367 10.3094 362.367 10.3094C362.367 10.3094 364.07 12.9506 360.445 14.2764C356.819 15.6021 351.802 15.9755 349.238 15.1104Z" fill="#FFF3CC"/>
<path d="M505.788 28.1475C503.224 27.2823 504.085 25.5063 507.71 24.1805C511.336 22.8548 518.917 23.3465 518.917 23.3465C518.917 23.3465 520.62 25.9877 516.995 27.3135C513.369 28.6392 508.352 29.0126 505.788 28.1475Z" fill="#FFF3CC"/>
<path d="M697.291 10.188C694.727 9.32286 695.588 7.54684 699.214 6.22106C702.839 4.89529 710.421 5.38705 710.421 5.38705C710.421 5.38705 712.124 8.02822 708.498 9.35399C704.872 10.6798 699.855 11.0531 697.291 10.188Z" fill="#FFF3CC"/>
<path d="M173.911 20.7778C171.347 19.9127 172.208 18.1367 175.834 16.8109C179.459 15.4851 187.041 15.9769 187.041 15.9769C187.041 15.9769 188.744 18.6181 185.118 19.9438C181.493 21.2696 176.475 21.643 173.911 20.7778Z" fill="#FFF3CC"/>
</g>
<defs>
<filter id="filter0_g_124_561" x="19.6001" y="31" width="355.434" height="44.585" filterUnits="userSpaceOnUse" color-interpolation-filters="sRGB">
<feFlood flood-opacity="0" result="BackgroundImageFix"/>
<feBlend mode="normal" in="SourceGraphic" in2="BackgroundImageFix" result="shape"/>
<feTurbulence type="fractalNoise" baseFrequency="0.76923078298568726 0.76923078298568726" numOctaves="3" seed="2267" />
<feDisplacementMap in="shape" scale="16" xChannelSelector="R" yChannelSelector="G" result="displacedImage" width="100%" height="100%" />
<feMerge result="effect1_texture_124_561">
<feMergeNode in="displacedImage"/>
</feMerge>
</filter>
<filter id="filter1_g_124_561" x="427.928" y="31" width="359.911" height="44.585" filterUnits="userSpaceOnUse" color-interpolation-filters="sRGB">
<feFlood flood-opacity="0" result="BackgroundImageFix"/>
<feBlend mode="normal" in="SourceGraphic" in2="BackgroundImageFix" result="shape"/>
<feTurbulence type="fractalNoise" baseFrequency="0.76923078298568726 0.76923078298568726" numOctaves="3" seed="2267" />
<feDisplacementMap in="shape" scale="16" xChannelSelector="R" yChannelSelector="G" result="displacedImage" width="100%" height="100%" />
<feMerge result="effect1_texture_124_561">
<feMergeNode in="displacedImage"/>
</feMerge>
</filter>
<filter id="filter2_g_124_561" x="13.4001" y="37.0051" width="780.639" height="62.0807" filterUnits="userSpaceOnUse" color-interpolation-filters="sRGB">
<feFlood flood-opacity="0" result="BackgroundImageFix"/>
<feBlend mode="normal" in="SourceGraphic" in2="BackgroundImageFix" result="shape"/>
<feTurbulence type="fractalNoise" baseFrequency="0.71428573131561279 0.71428573131561279" numOctaves="3" seed="2461" />
<feDisplacementMap in="shape" scale="28.399999618530273" xChannelSelector="R" yChannelSelector="G" result="displacedImage" width="100%" height="100%" />
<feMerge result="effect1_texture_124_561">
<feMergeNode in="displacedImage"/>
</feMerge>
</filter>
<filter id="filter3_g_124_561" x="9.77516e-05" y="67.4" width="805.2" height="38.2" filterUnits="userSpaceOnUse" color-interpolation-filters="sRGB">
<feFlood flood-opacity="0" result="BackgroundImageFix"/>
<feBlend mode="normal" in="SourceGraphic" in2="BackgroundImageFix" result="shape"/>
<feTurbulence type="fractalNoise" baseFrequency="0.58823525905609131 0.58823525905609131" numOctaves="3" seed="5733" />
<feDisplacementMap in="shape" scale="15.199999809265137" xChannelSelector="R" yChannelSelector="G" result="displacedImage" width="100%" height="100%" />
<feMerge result="effect1_texture_124_561">
<feMergeNode in="displacedImage"/>
</feMerge>
</filter>
<filter id="filter4_g_124_561" x="22.1001" y="92.4038" width="763.239" height="61.0962" filterUnits="userSpaceOnUse" color-interpolation-filters="sRGB">
<feFlood flood-opacity="0" result="BackgroundImageFix"/>
<feBlend mode="normal" in="SourceGraphic" in2="BackgroundImageFix" result="shape"/>
<feTurbulence type="fractalNoise" baseFrequency="0.55555558204650879 0.55555558204650879" numOctaves="3" seed="3752" />
<feDisplacementMap in="shape" scale="11" xChannelSelector="R" yChannelSelector="G" result="displacedImage" width="100%" height="100%" />
<feMerge result="effect1_texture_124_561">
<feMergeNode in="displacedImage"/>
</feMerge>
</filter>
<filter id="filter5_d_124_561" x="10.3001" y="127.7" width="782.363" height="69.9101" filterUnits="userSpaceOnUse" color-interpolation-filters="sRGB">
<feFlood flood-opacity="0" result="BackgroundImageFix"/>
<feColorMatrix in="SourceAlpha" type="matrix" values="0 0 0 0 0 0 0 0 0 0 0 0 0 0 0 0 0 0 127 0" result="hardAlpha"/>
<feOffset dy="-2"/>
<feGaussianBlur stdDeviation="7.65"/>
<feComposite in2="hardAlpha" operator="out"/>
<feColorMatrix type="matrix" values="0 0 0 0 0 0 0 0 0 0 0 0 0 0 0 0 0 0 0.08 0"/>
<feBlend mode="normal" in2="BackgroundImageFix" result="effect1_dropShadow_124_561"/>
<feBlend mode="normal" in="SourceGraphic" in2="effect1_dropShadow_124_561" result="shape"/>
</filter>
<filter id="filter6_d_124_561" x="24.3001" y="0" width="756.363" height="44.6101" filterUnits="userSpaceOnUse" color-interpolation-filters="sRGB">
<feFlood flood-opacity="0" result="BackgroundImageFix"/>
<feColorMatrix in="SourceAlpha" type="matrix" values="0 0 0 0 0 0 0 0 0 0 0 0 0 0 0 0 0 0 127 0" result="hardAlpha"/>
<feOffset dy="3"/>
<feGaussianBlur stdDeviation="1.15"/>
<feComposite in2="hardAlpha" operator="out"/>
<feColorMatrix type="matrix" values="0 0 0 0 0 0 0 0 0 0 0 0 0 0 0 0 0 0 0.27 0"/>
<feBlend mode="normal" in2="BackgroundImageFix" result="effect1_dropShadow_124_561"/>
<feBlend mode="normal" in="SourceGraphic" in2="effect1_dropShadow_124_561" result="shape"/>
</filter>
<linearGradient id="paint0_linear_124_561" x1="197.317" y1="41.8709" x2="197.317" y2="63.4125" gradientUnits="userSpaceOnUse">
<stop stop-color="#F42B00"/>
<stop offset="1" stop-color="#BA0000"/>
</linearGradient>
<linearGradient id="paint1_linear_124_561" x1="197.317" y1="40.2582" x2="197.317" y2="46.8351" gradientUnits="userSpaceOnUse">
<stop stop-color="#F46400"/>
<stop offset="1" stop-color="#BA0000"/>
</linearGradient>
<linearGradient id="paint2_linear_124_561" x1="607.884" y1="41.8709" x2="607.884" y2="63.4125" gradientUnits="userSpaceOnUse">
<stop stop-color="#F42B00"/>
<stop offset="1" stop-color="#BA0000"/>
</linearGradient>
<linearGradient id="paint3_linear_124_561" x1="607.884" y1="40.2582" x2="607.884" y2="46.8351" gradientUnits="userSpaceOnUse">
<stop stop-color="#F46400"/>
<stop offset="1" stop-color="#BA0000"/>
</linearGradient>
<linearGradient id="paint4_linear_124_561" x1="402.599" y1="97.9995" x2="402.599" y2="75.1109" gradientUnits="userSpaceOnUse">
<stop stop-color="#FFD600"/>
<stop offset="1" stop-color="#E7962F"/>
</linearGradient>
<linearGradient id="paint5_linear_124_561" x1="403.719" y1="148" x2="403.719" y2="97.9038" gradientUnits="userSpaceOnUse">
<stop stop-color="#FCA378"/>
<stop offset="0.3912" stop-color="#FBA176"/>
<stop offset="0.5501" stop-color="#FB9E6E"/>
<stop offset="0.6669" stop-color="#FA9762"/>
<stop offset="0.763" stop-color="#F98E51"/>
<stop offset="0.8464" stop-color="#F7823A"/>
<stop offset="0.9197" stop-color="#F6741E"/>
<stop offset="0.9835" stop-color="#F46400"/>
</linearGradient>
<linearGradient id="paint6_linear_124_561" x1="401.481" y1="184.31" x2="401.481" y2="145" gradientUnits="userSpaceOnUse">
<stop offset="0.413462" stop-color="#FFE9B0"/>
<stop offset="0.846154" stop-color="#F3C38F"/>
<stop offset="0.9986" stop-color="#E8A171"/>
</linearGradient>
<linearGradient id="paint7_linear_124_561" x1="402.481" y1="6.57212e-05" x2="402.481" y2="39.3101" gradientUnits="userSpaceOnUse">
<stop offset="0.413462" stop-color="#FFE9B0"/>
<stop offset="0.846154" stop-color="#F3C38F"/>
<stop offset="0.9986" stop-color="#E8A171"/>
</linearGradient>
<clipPath id="clip0_124_561">
<rect width="752.239" height="50.096" fill="white" transform="translate(27.6001 97.9038)"/>
</clipPath>
</defs>
</svg>
