<svg width="792" height="201" viewBox="0 0 792 201" fill="none" xmlns="http://www.w3.org/2000/svg">
<g filter="url(#filter0_g_124_1011)">
<path d="M189.717 39C95.9848 39 20 41.0207 20 43.5134V63.0715C20 65.5642 95.9848 67.5849 189.717 67.5849C283.449 67.5849 359.434 65.5642 359.434 63.0715V43.5134C359.434 41.0207 283.449 39 189.717 39Z" fill="url(#paint0_linear_124_1011)"/>
<path d="M189.717 47.8152C282.132 47.8152 357.049 45.8615 357.049 43.4515C357.049 41.0416 282.132 39.0879 189.717 39.0879C97.3019 39.0879 22.3848 41.0416 22.3848 43.4515C22.3848 45.8615 97.3019 47.8152 189.717 47.8152Z" fill="url(#paint1_linear_124_1011)"/>
</g>
<g filter="url(#filter1_g_124_1011)">
<path d="M600.284 39C505.315 39 428.328 41.0207 428.328 43.5134V63.0715C428.328 65.5642 505.315 67.5849 600.284 67.5849C695.252 67.5849 772.239 65.5642 772.239 63.0715V43.5134C772.239 41.0207 695.252 39 600.284 39Z" fill="url(#paint2_linear_124_1011)"/>
<path d="M600.283 47.8152C693.917 47.8152 769.823 45.8615 769.823 43.4515C769.823 41.0416 693.917 39.0879 600.283 39.0879C506.649 39.0879 430.744 41.0416 430.744 43.4515C430.744 45.8615 506.649 47.8152 600.283 47.8152Z" fill="url(#paint3_linear_124_1011)"/>
</g>
<g filter="url(#filter2_g_124_1011)">
<mask id="mask0_124_1011" style="mask-type:luminance" maskUnits="userSpaceOnUse" x="20" y="43" width="753" height="55">
<path d="M772.239 43.0024H20V97.904H772.239V43.0024Z" fill="white"/>
</mask>
<g mask="url(#mask0_124_1011)">
<mask id="mask1_124_1011" style="mask-type:luminance" maskUnits="userSpaceOnUse" x="20" y="45" width="762" height="37">
<path d="M782 45.25H20V81.851H782V45.25Z" fill="white"/>
</mask>
<g mask="url(#mask1_124_1011)">
<path d="M792.063 74.8237C755.709 75.7105 754.709 70.8888 718.171 70.8888C681.631 70.8888 681.631 74.8336 645.091 74.8336C608.55 74.8336 608.55 70.8888 572.01 70.8888C535.47 70.8888 535.47 74.8336 498.931 74.8336C462.39 74.8336 462.39 70.8888 425.849 70.8888C389.31 70.8888 389.31 74.8336 352.772 74.8336C316.232 74.8336 316.232 70.8888 279.693 70.8888C243.152 70.8888 243.152 74.8336 206.611 74.8336C170.071 74.8336 170.071 70.8888 133.531 70.8888C96.9859 70.8888 96.9859 74.8336 60.441 74.8336C23.8961 74.8336 24.5274 71.784 -11.8343 70.8987C-15.4898 70.8097 -20.793 71.9714 -20.793 71.0816C-20.793 70.1924 -4.50503 70.1924 -4.50503 69.3031C-4.50503 68.4134 -20.793 68.4134 -20.793 67.5237C-20.793 66.634 -4.50503 66.6336 -4.50503 65.7435C-4.50503 64.8534 -20.793 64.8534 -20.793 63.9633C-20.793 63.0732 -4.50503 63.0732 -4.50503 62.1831C-4.50503 61.2929 -20.793 61.2927 -20.793 60.4024C-20.793 59.5125 -4.50503 59.5125 -4.50503 58.6227C-4.50503 57.7321 -20.793 57.7321 -20.793 56.8414C-20.793 55.9502 -4.50503 55.9502 -4.50503 55.0589C-4.50503 54.1677 -17.1265 51.4033 -13.4651 51.3139C22.889 50.4272 23.8889 55.2489 60.427 55.2489C96.965 55.2489 96.9668 51.304 133.507 51.304C170.047 51.304 170.047 55.2489 206.588 55.2489C243.128 55.2489 243.127 51.304 279.667 51.304C316.206 51.304 316.207 55.2489 352.748 55.2489C389.289 55.2489 389.287 51.304 425.826 51.304C462.365 51.304 462.365 55.2489 498.905 55.2489C535.444 55.2489 535.446 51.304 571.987 51.304C608.528 51.304 608.527 55.2489 645.067 55.2489C681.607 55.2489 681.612 51.304 718.157 51.304C754.702 51.304 754.07 54.3536 790.432 55.239C794.087 55.328 799.391 54.1662 799.391 55.056C799.391 55.9453 783.103 55.9453 783.103 56.8346C783.103 57.7238 799.391 57.7243 799.391 58.614C799.391 59.5037 783.103 59.5041 783.103 60.3942C783.103 61.2843 799.391 61.2843 799.391 62.1744C799.391 63.0645 783.103 63.0645 783.103 63.9546C783.103 64.8447 799.391 64.8449 799.391 65.7353C799.391 66.6251 783.103 66.6251 783.103 67.515C783.103 68.4056 799.391 68.4056 799.391 69.2962C799.391 70.1875 782.54 70.5904 783.26 71.4644C784.856 73.4035 795.724 74.7344 792.063 74.8237Z" fill="#00A651"/>
</g>
<path d="M792.128 75.167C755.774 76.0537 754.774 71.2321 718.236 71.2321C681.696 71.2321 681.696 75.1769 645.156 75.1769C608.615 75.1769 608.615 71.2321 572.075 71.2321C535.535 71.2321 535.535 75.1769 498.996 75.1769C462.455 75.1769 462.455 71.2321 425.914 71.2321C389.375 71.2321 389.375 75.1769 352.837 75.1769C316.297 75.1769 316.297 71.2321 279.758 71.2321C243.217 71.2321 243.217 75.1769 206.676 75.1769C170.136 75.1769 170.136 71.2321 133.596 71.2321C97.0509 71.2321 97.0509 75.1769 60.5059 75.1769C23.961 75.1769 24.5924 72.1273 -11.7694 71.242C-15.4249 71.153 -20.728 72.3147 -20.728 71.4249C-20.728 70.5356 -4.44009 70.5356 -4.44009 69.6464C-4.44009 68.7567 -20.728 68.7567 -20.728 67.867C-20.728 66.9773 -4.44009 66.9769 -4.44009 66.0868C-4.44009 65.1967 -20.728 65.1967 -20.728 64.3066C-20.728 63.4165 -4.44009 63.4165 -4.44009 62.5263C-4.44009 61.6362 -20.728 61.636 -20.728 60.7457C-20.728 59.8558 -4.44009 59.8558 -4.44009 58.966C-4.44009 58.0753 -20.728 58.0753 -20.728 57.1847C-20.728 56.2935 -4.44009 56.2935 -4.44009 55.4022C-4.44009 54.5109 -17.0615 51.7465 -13.4001 51.6572C22.9539 50.7704 23.9539 55.5921 60.4919 55.5921C97.03 55.5921 97.0318 51.6473 133.572 51.6473C170.112 51.6473 170.112 55.5921 206.653 55.5921C243.193 55.5921 243.192 51.6473 279.732 51.6473C316.271 51.6473 316.272 55.5921 352.813 55.5921C389.354 55.5921 389.352 51.6473 425.891 51.6473C462.43 51.6473 462.43 55.5921 498.97 55.5921C535.509 55.5921 535.511 51.6473 572.052 51.6473C608.593 51.6473 608.592 55.5921 645.132 55.5921C681.672 55.5921 681.677 51.6473 718.222 51.6473C754.767 51.6473 754.135 54.6969 790.497 55.5822C794.152 55.6712 799.456 54.5095 799.456 55.3993C799.456 56.2886 783.168 56.2886 783.168 57.1778C783.168 58.0671 799.456 58.0675 799.456 58.9572C799.456 59.8469 783.168 59.8473 783.168 60.7374C783.168 61.6275 799.456 61.6275 799.456 62.5176C799.456 63.4077 783.168 63.4077 783.168 64.2979C783.168 65.188 799.456 65.1882 799.456 66.0785C799.456 66.9684 783.168 66.9684 783.168 67.8582C783.168 68.7489 799.456 68.7489 799.456 69.6395C799.456 70.5307 782.605 70.9337 783.325 71.8077C784.921 73.7468 795.789 75.0776 792.128 75.167Z" fill="#00A550"/>
<path d="M792.192 75.5102C755.838 76.397 754.837 71.5753 718.3 71.5753C681.76 71.5753 681.76 75.5202 645.22 75.5202C608.679 75.5202 608.679 71.5753 572.139 71.5753C535.599 71.5753 535.599 75.5202 499.06 75.5202C462.519 75.5202 462.519 71.5753 425.978 71.5753C389.439 71.5753 389.439 75.5202 352.901 75.5202C316.361 75.5202 316.361 71.5753 279.822 71.5753C243.281 71.5753 243.281 75.5202 206.74 75.5202C170.2 75.5202 170.2 71.5753 133.66 71.5753C97.1148 71.5753 97.1148 75.5202 60.5699 75.5202C24.025 75.5202 24.6563 72.4706 -11.7054 71.5852C-15.3609 71.4962 -20.6641 72.6579 -20.6641 71.7681C-20.6641 70.8789 -4.37612 70.8789 -4.37612 69.9896C-4.37612 69.0999 -20.6641 69.0999 -20.6641 68.2102C-20.6641 67.3205 -4.37612 67.3201 -4.37612 66.43C-4.37612 65.5399 -20.6641 65.5399 -20.6641 64.6498C-20.6641 63.7597 -4.37612 63.7597 -4.37612 62.8696C-4.37612 61.9795 -20.6641 61.9793 -20.6641 61.0889C-20.6641 60.1991 -4.37612 60.1991 -4.37612 59.3092C-4.37612 58.4186 -20.6641 58.4186 -20.6641 57.528C-20.6641 56.6367 -4.37612 56.6367 -4.37612 55.7455C-4.37612 54.8542 -16.9976 52.0898 -13.3362 52.0005C23.0179 51.1137 24.0178 55.9354 60.5559 55.9354C97.0939 55.9354 97.0957 51.9905 133.636 51.9905C170.176 51.9905 170.176 55.9354 206.717 55.9354C243.257 55.9354 243.256 51.9905 279.795 51.9905C316.335 51.9905 316.336 55.9354 352.877 55.9354C389.418 55.9354 389.416 51.9905 425.955 51.9905C462.494 51.9905 462.494 55.9354 499.034 55.9354C535.573 55.9354 535.575 51.9905 572.116 51.9905C608.657 51.9905 608.656 55.9354 645.196 55.9354C681.736 55.9354 681.741 51.9905 718.286 51.9905C754.83 51.9905 754.199 55.0401 790.561 55.9255C794.216 56.0145 799.519 54.8528 799.519 55.7426C799.519 56.6318 783.232 56.6318 783.232 57.5211C783.232 58.4108 799.519 58.4108 799.519 59.3005C799.519 60.1902 783.232 60.1906 783.232 61.0807C783.232 61.9708 799.519 61.9708 799.519 62.8609C799.519 63.751 783.232 63.751 783.232 64.6411C783.232 65.5313 799.519 65.5315 799.519 66.4218C799.519 67.3117 783.232 67.3117 783.232 68.2015C783.232 69.0921 799.519 69.0921 799.519 69.9828C799.519 70.874 782.669 71.2769 783.389 72.1509C784.985 74.0901 795.853 75.4209 792.192 75.5102Z" fill="#00A350"/>
<path d="M792.255 75.8535C755.901 76.7403 754.901 71.9186 718.363 71.9186C681.823 71.9186 681.823 75.8634 645.283 75.8634C608.743 75.8634 608.743 71.9186 572.202 71.9186C535.663 71.9186 535.663 75.8634 499.123 75.8634C462.583 75.8634 462.583 71.9186 426.042 71.9186C389.503 71.9186 389.503 75.8634 352.964 75.8634C316.425 75.8634 316.425 71.9186 279.885 71.9186C243.344 71.9186 243.344 75.8634 206.803 75.8634C170.263 75.8634 170.263 71.9186 133.723 71.9186C97.1783 71.9186 97.1783 75.8634 60.6334 75.8634C24.0885 75.8634 24.7198 72.8138 -11.6419 71.9285C-15.2974 71.8395 -20.6006 73.0012 -20.6006 72.1114C-20.6006 71.2221 -4.31264 71.2221 -4.31264 70.3329C-4.31264 69.4432 -20.6006 69.4432 -20.6006 68.5535C-20.6006 67.6638 -4.31264 67.6634 -4.31264 66.7733C-4.31264 65.8832 -20.6006 65.8832 -20.6006 64.9931C-20.6006 64.103 -4.31264 64.103 -4.31264 63.2128C-4.31264 62.3227 -20.6006 62.3225 -20.6006 61.4322C-20.6006 60.5423 -4.31264 60.5423 -4.31264 59.6525C-4.31264 58.7618 -20.6006 58.7618 -20.6006 57.8712C-20.6006 56.98 -4.31264 56.98 -4.31264 56.0887C-4.31264 55.1975 -16.9341 52.4331 -13.2727 52.3437C23.0814 51.457 24.0813 56.2786 60.6194 56.2786C97.1574 56.2786 97.1592 52.3338 133.699 52.3338C170.239 52.3338 170.24 56.2786 206.78 56.2786C243.321 56.2786 243.32 52.3338 279.859 52.3338C316.398 52.3338 316.4 56.2786 352.941 56.2786C389.481 56.2786 389.48 52.3338 426.018 52.3338C462.557 52.3338 462.558 56.2786 499.097 56.2786C535.637 56.2786 535.638 52.3338 572.179 52.3338C608.72 52.3338 608.719 56.2786 645.259 56.2786C681.799 56.2786 681.804 52.3338 718.349 52.3338C754.894 52.3338 754.263 55.3834 790.624 56.2687C794.28 56.3577 799.583 55.196 799.583 56.0858C799.583 56.9751 783.295 56.9751 783.295 57.8644C783.295 58.7541 799.583 58.7541 799.583 59.6438C799.583 60.5335 783.295 60.5339 783.295 61.424C783.295 62.3141 799.583 62.3141 799.583 63.2042C799.583 64.0943 783.295 64.0943 783.295 64.9844C783.295 65.8745 799.583 65.8747 799.583 66.765C799.583 67.6549 783.295 67.6549 783.295 68.5447C783.295 69.4354 799.583 69.4354 799.583 70.326C799.583 71.2172 782.733 71.6202 783.452 72.4942C785.049 74.4333 795.916 75.7642 792.255 75.8535Z" fill="#00A24F"/>
<path d="M792.32 76.1963C755.965 77.083 754.965 72.2614 718.427 72.2614C681.888 72.2614 681.888 76.2062 645.348 76.2062C608.807 76.2062 608.807 72.2614 572.267 72.2614C535.727 72.2614 535.727 76.2062 499.188 76.2062C462.647 76.2062 462.647 72.2614 426.106 72.2614C389.567 72.2614 389.567 76.2062 353.029 76.2062C316.489 76.2062 316.489 72.2614 279.95 72.2614C243.409 72.2614 243.409 76.2062 206.868 76.2062C170.328 76.2062 170.328 72.2614 133.788 72.2614C97.2428 72.2614 97.2428 76.2062 60.6978 76.2062C24.1529 76.2062 24.7843 73.1566 -11.5775 72.2713C-15.233 72.1823 -20.5361 73.344 -20.5361 72.4542C-20.5361 71.5649 -4.24819 71.5649 -4.24819 70.6756C-4.24819 69.7859 -20.5361 69.7859 -20.5361 68.8962C-20.5361 68.0065 -4.24819 68.0061 -4.24819 67.116C-4.24819 66.2259 -20.5361 66.2259 -20.5361 65.3358C-20.5361 64.4458 -4.24819 64.4458 -4.24819 63.5556C-4.24819 62.6655 -20.5361 62.6653 -20.5361 61.775C-20.5361 60.8851 -4.24819 60.8851 -4.24819 59.9953C-4.24819 59.1046 -20.5361 59.1046 -20.5361 58.214C-20.5361 57.3228 -4.24819 57.3228 -4.24819 56.4315C-4.24819 55.5402 -16.8696 52.7758 -13.2082 52.6865C23.1458 51.7997 24.1458 56.6214 60.6838 56.6214C97.2219 56.6214 97.2236 52.6766 133.764 52.6766C170.304 52.6766 170.304 56.6214 206.845 56.6214C243.385 56.6214 243.384 52.6766 279.923 52.6766C316.463 52.6766 316.464 56.6214 353.005 56.6214C389.546 56.6214 389.544 52.6766 426.083 52.6766C462.621 52.6766 462.622 56.6214 499.162 56.6214C535.701 56.6214 535.703 52.6766 572.244 52.6766C608.785 52.6766 608.784 56.6214 645.324 56.6214C681.863 56.6214 681.869 52.6766 718.413 52.6766C754.958 52.6766 754.327 55.7262 790.689 56.6115C794.344 56.7005 799.647 55.5388 799.647 56.4286C799.647 57.3179 783.359 57.3179 783.359 58.2071C783.359 59.0968 799.647 59.0968 799.647 59.9865C799.647 60.8762 783.359 60.8766 783.359 61.7667C783.359 62.6568 799.647 62.6568 799.647 63.5469C799.647 64.437 783.359 64.437 783.359 65.3272C783.359 66.2173 799.647 66.2175 799.647 67.1078C799.647 67.9977 783.359 67.9977 783.359 68.8875C783.359 69.7782 799.647 69.7782 799.647 70.6688C799.647 71.56 782.797 71.963 783.517 72.837C785.113 74.7761 795.981 76.1069 792.32 76.1963Z" fill="#00A04E"/>
<path d="M792.382 76.5395C756.028 77.4263 755.028 72.6046 718.49 72.6046C681.951 72.6046 681.951 76.5495 645.411 76.5495C608.87 76.5495 608.87 72.6046 572.33 72.6046C535.79 72.6046 535.79 76.5495 499.251 76.5495C462.71 76.5495 462.71 72.6046 426.169 72.6046C389.63 72.6046 389.63 76.5495 353.092 76.5495C316.552 76.5495 316.552 72.6046 280.013 72.6046C243.472 72.6046 243.472 76.5495 206.931 76.5495C170.391 76.5495 170.391 72.6046 133.851 72.6046C97.3057 72.6046 97.3058 76.5495 60.7608 76.5495C24.2159 76.5495 24.8473 73.4999 -11.5145 72.6145C-15.17 72.5255 -20.4731 73.6872 -20.4731 72.7974C-20.4731 71.9082 -4.1852 71.9082 -4.1852 71.0189C-4.1852 70.1292 -20.4731 70.1292 -20.4731 69.2395C-20.4731 68.3498 -4.1852 68.3494 -4.1852 67.4593C-4.1852 66.5692 -20.4731 66.5692 -20.4731 65.6791C-20.4731 64.789 -4.1852 64.789 -4.1852 63.8989C-4.1852 63.0087 -20.4731 63.0085 -20.4731 62.1182C-20.4731 61.2283 -4.1852 61.2283 -4.1852 60.3385C-4.1852 59.4479 -20.4731 59.4479 -20.4731 58.5573C-20.4731 57.666 -4.1852 57.666 -4.1852 56.7748C-4.1852 55.8835 -16.8066 53.1191 -13.1452 53.0298C23.2088 52.143 24.2087 56.9647 60.7468 56.9647C97.2848 56.9647 97.2866 53.0198 133.827 53.0198C170.367 53.0198 170.367 56.9647 206.908 56.9647C243.448 56.9647 243.447 53.0198 279.986 53.0198C316.526 53.0198 316.527 56.9647 353.068 56.9647C389.609 56.9647 389.607 53.0198 426.146 53.0198C462.685 53.0198 462.685 56.9647 499.225 56.9647C535.764 56.9647 535.766 53.0198 572.307 53.0198C608.848 53.0198 608.847 56.9647 645.387 56.9647C681.926 56.9647 681.932 53.0198 718.476 53.0198C755.021 53.0198 754.39 56.0694 790.752 56.9548C794.407 57.0438 799.71 55.8821 799.71 56.7719C799.71 57.6611 783.422 57.6611 783.422 58.5504C783.422 59.4401 799.71 59.4401 799.71 60.3298C799.71 61.2195 783.422 61.2199 783.422 62.11C783.422 63.0001 799.71 63.0001 799.71 63.8902C799.71 64.7803 783.422 64.7803 783.422 65.6704C783.422 66.5606 799.71 66.5608 799.71 67.4511C799.71 68.341 783.422 68.341 783.422 69.2308C783.422 70.1214 799.71 70.1214 799.71 71.012C799.71 71.9033 782.86 72.3062 783.58 73.1802C785.176 75.1194 796.044 76.4502 792.382 76.5395Z" fill="#009F4E"/>
<path d="M792.447 76.8833C756.093 77.77 755.093 72.9484 718.555 72.9484C682.015 72.9484 682.015 76.8932 645.475 76.8932C608.935 76.8932 608.935 72.9484 572.394 72.9484C535.855 72.9484 535.855 76.8932 499.315 76.8932C462.774 76.8932 462.774 72.9484 426.234 72.9484C389.695 72.9484 389.695 76.8932 353.156 76.8932C316.617 76.8932 316.617 72.9484 280.077 72.9484C243.536 72.9484 243.536 76.8932 206.995 76.8932C170.455 76.8932 170.455 72.9484 133.915 72.9484C97.3702 72.9484 97.3702 76.8932 60.8253 76.8932C24.2803 76.8932 24.9117 73.8436 -11.45 72.9583C-15.1055 72.8693 -20.4087 74.031 -20.4087 73.1412C-20.4087 72.2519 -4.12075 72.2519 -4.12075 71.3627C-4.12075 70.473 -20.4087 70.473 -20.4087 69.5833C-20.4087 68.6936 -4.12075 68.6932 -4.12075 67.8031C-4.12075 66.913 -20.4087 66.913 -20.4087 66.0229C-20.4087 65.1328 -4.12075 65.1328 -4.12075 64.2426C-4.12075 63.3525 -20.4087 63.3523 -20.4087 62.462C-20.4087 61.5721 -4.12075 61.5721 -4.12075 60.6823C-4.12075 59.7916 -20.4087 59.7916 -20.4087 58.901C-20.4087 58.0098 -4.12075 58.0098 -4.12075 57.1185C-4.12075 56.2272 -16.7422 53.4628 -13.0808 53.3735C23.2733 52.4868 24.2732 57.3084 60.8112 57.3084C97.3493 57.3084 97.3511 53.3636 133.891 53.3636C170.431 53.3636 170.432 57.3084 206.972 57.3084C243.513 57.3084 243.512 53.3636 280.051 53.3636C316.59 53.3636 316.592 57.3084 353.133 57.3084C389.673 57.3084 389.671 53.3636 426.21 53.3636C462.749 53.3636 462.75 57.3084 499.289 57.3084C535.829 57.3084 535.83 53.3636 572.371 53.3636C608.912 53.3636 608.911 57.3084 645.451 57.3084C681.991 57.3084 681.996 53.3636 718.541 53.3636C755.086 53.3636 754.454 56.4132 790.816 57.2985C794.472 57.3875 799.775 56.2258 799.775 57.1156C799.775 58.0049 783.487 58.0049 783.487 58.8941C783.487 59.7834 799.775 59.7838 799.775 60.6735C799.775 61.5632 783.487 61.5636 783.487 62.4537C783.487 63.3438 799.775 63.3438 799.775 64.2339C799.775 65.124 783.487 65.124 783.487 66.0142C783.487 66.9043 799.775 66.9045 799.775 67.7948C799.775 68.6847 783.487 68.6847 783.487 69.5745C783.487 70.4652 799.775 70.4652 799.775 71.3558C799.775 72.247 782.924 72.65 783.644 73.524C785.241 75.4631 796.108 76.7939 792.447 76.8833Z" fill="#009E4D"/>
<path d="M792.509 77.2261C756.155 78.1128 755.155 73.2911 718.617 73.2911C682.078 73.2911 682.078 77.236 645.538 77.236C608.997 77.236 608.997 73.2911 572.457 73.2911C535.917 73.2911 535.917 77.236 499.378 77.236C462.837 77.236 462.837 73.2911 426.296 73.2911C389.757 73.2911 389.757 77.236 353.218 77.236C316.679 77.236 316.679 73.2911 280.14 73.2911C243.6 73.2911 243.599 77.236 207.057 77.236C170.517 77.236 170.517 73.2911 133.978 73.2911C97.4327 73.2911 97.4327 77.236 60.8878 77.236C24.3428 77.236 24.9742 74.1864 -11.3875 73.301C-15.043 73.212 -20.3462 74.3738 -20.3462 73.484C-20.3462 72.5947 -4.05825 72.5947 -4.05825 71.7054C-4.05825 70.8157 -20.3462 70.8157 -20.3462 69.926C-20.3462 69.0363 -4.05825 69.0359 -4.05825 68.1458C-4.05825 67.2557 -20.3462 67.2557 -20.3462 66.3656C-20.3462 65.4755 -4.05825 65.4755 -4.05825 64.5854C-4.05825 63.6953 -20.3462 63.6951 -20.3462 62.8047C-20.3462 61.9149 -4.05825 61.9149 -4.05825 61.025C-4.05825 60.1344 -20.3462 60.1344 -20.3462 59.2438C-20.3462 58.3525 -4.05825 58.3525 -4.05825 57.4613C-4.05825 56.57 -16.6797 53.8056 -13.0183 53.7163C23.3358 52.8295 24.3357 57.6512 60.8737 57.6512C97.4118 57.6512 97.4136 53.7064 133.954 53.7064C170.494 53.7064 170.494 57.6512 207.035 57.6512C243.575 57.6512 243.574 53.7064 280.113 53.7064C316.653 53.7064 316.654 57.6512 353.195 57.6512C389.736 57.6512 389.734 53.7064 426.273 53.7064C462.811 53.7064 462.812 57.6512 499.352 57.6512C535.891 57.6512 535.893 53.7064 572.434 53.7064C608.975 53.7064 608.974 57.6512 645.514 57.6512C682.053 57.6512 682.058 53.7064 718.603 53.7064C755.148 53.7064 754.517 56.756 790.879 57.6413C794.534 57.7303 799.837 56.5686 799.837 57.4584C799.837 58.3476 783.549 58.3476 783.549 59.2369C783.549 60.1262 799.837 60.1266 799.837 61.0163C799.837 61.906 783.549 61.9064 783.549 62.7965C783.549 63.6866 799.837 63.6866 799.837 64.5767C799.837 65.4668 783.549 65.4668 783.549 66.3569C783.549 67.2471 799.837 67.2473 799.837 68.1376C799.837 69.0275 783.549 69.0275 783.549 69.9173C783.549 70.8079 799.837 70.8079 799.837 71.6986C799.837 72.5898 782.987 72.9928 783.707 73.8668C785.303 75.8059 796.171 77.1367 792.509 77.2261Z" fill="#009C4C"/>
<path d="M792.574 77.5693C756.22 78.4561 755.22 73.6344 718.682 73.6344C682.142 73.6344 682.142 77.5792 645.602 77.5792C609.062 77.5792 609.062 73.6344 572.521 73.6344C535.982 73.6344 535.982 77.5792 499.442 77.5792C462.901 77.5792 462.901 73.6344 426.361 73.6344C389.822 73.6344 389.822 77.5792 353.283 77.5792C316.743 77.5792 316.743 73.6344 280.204 73.6344C243.663 73.6344 243.663 77.5792 207.122 77.5792C170.582 77.5792 170.582 73.6344 134.042 73.6344C97.4972 73.6344 97.4972 77.5792 60.9522 77.5792C24.4073 77.5792 25.0387 74.5296 -11.3231 73.6443C-14.9786 73.5553 -20.2817 74.717 -20.2817 73.8272C-20.2817 72.938 -3.9938 72.938 -3.9938 72.0487C-3.9938 71.159 -20.2817 71.159 -20.2817 70.2693C-20.2817 69.3796 -3.9938 69.3792 -3.9938 68.4891C-3.9938 67.599 -20.2817 67.599 -20.2817 66.7089C-20.2817 65.8188 -3.9938 65.8188 -3.9938 64.9287C-3.9938 64.0385 -20.2817 64.0383 -20.2817 63.148C-20.2817 62.2581 -3.9938 62.2581 -3.9938 61.3683C-3.9938 60.4777 -20.2817 60.4777 -20.2817 59.587C-20.2817 58.6958 -3.9938 58.6958 -3.9938 57.8045C-3.9938 56.9133 -16.6152 54.1489 -12.9538 54.0596C23.4002 53.1728 24.4001 57.9945 60.9382 57.9945C97.4763 57.9945 97.478 54.0496 134.018 54.0496C170.558 54.0496 170.559 57.9945 207.099 57.9945C243.64 57.9945 243.639 54.0496 280.178 54.0496C316.717 54.0496 316.719 57.9945 353.26 57.9945C389.8 57.9945 389.798 54.0496 426.337 54.0496C462.876 54.0496 462.877 57.9945 499.416 57.9945C535.955 57.9945 535.957 54.0496 572.498 54.0496C609.039 54.0496 609.038 57.9945 645.578 57.9945C682.118 57.9945 682.123 54.0496 718.668 54.0496C755.213 54.0496 754.581 57.0992 790.943 57.9846C794.599 58.0736 799.902 56.9118 799.902 57.8016C799.902 58.6909 783.614 58.6909 783.614 59.5802C783.614 60.4694 799.902 60.4699 799.902 61.3596C799.902 62.2493 783.614 62.2497 783.614 63.1398C783.614 64.0299 799.902 64.0299 799.902 64.92C799.902 65.8101 783.614 65.8101 783.614 66.7002C783.614 67.5903 799.902 67.5905 799.902 68.4809C799.902 69.3707 783.614 69.3707 783.614 70.2606C783.614 71.1512 799.902 71.1512 799.902 72.0418C799.902 72.9331 783.051 73.336 783.771 74.21C785.368 76.1491 796.235 77.48 792.574 77.5693Z" fill="#009B4B"/>
<path d="M792.638 77.9126C756.284 78.7993 755.284 73.9777 718.746 73.9777C682.206 73.9777 682.206 77.9225 645.666 77.9225C609.125 77.9225 609.125 73.9777 572.585 73.9777C536.046 73.9777 536.046 77.9225 499.506 77.9225C462.965 77.9225 462.965 73.9777 426.424 73.9777C389.886 73.9777 389.886 77.9225 353.347 77.9225C316.807 77.9225 316.807 73.9777 280.268 73.9777C243.727 73.9777 243.727 77.9225 207.186 77.9225C170.646 77.9225 170.646 73.9777 134.106 73.9777C97.5611 73.9777 97.5611 77.9225 61.0162 77.9225C24.4713 77.9225 25.1026 74.8729 -11.2591 73.9876C-14.9146 73.8986 -20.2178 75.0603 -20.2178 74.1705C-20.2178 73.2812 -3.92983 73.2812 -3.92983 72.392C-3.92983 71.5023 -20.2178 71.5023 -20.2178 70.6126C-20.2178 69.7229 -3.92983 69.7225 -3.92983 68.8324C-3.92983 67.9423 -20.2178 67.9423 -20.2178 67.0522C-20.2178 66.1621 -3.92983 66.1621 -3.92983 65.2719C-3.92983 64.3818 -20.2178 64.3816 -20.2178 63.4913C-20.2178 62.6014 -3.92983 62.6014 -3.92983 61.7116C-3.92983 60.8209 -20.2178 60.8209 -20.2178 59.9303C-20.2178 59.0391 -3.92983 59.0391 -3.92983 58.1478C-3.92983 57.2565 -16.5513 54.4921 -12.8899 54.4028C23.4642 53.516 24.4641 58.3377 61.0022 58.3377C97.5402 58.3377 97.542 54.3929 134.082 54.3929C170.622 54.3929 170.623 58.3377 207.163 58.3377C243.704 58.3377 243.702 54.3929 280.242 54.3929C316.781 54.3929 316.783 58.3377 353.323 58.3377C389.864 58.3377 389.862 54.3929 426.401 54.3929C462.94 54.3929 462.941 58.3377 499.48 58.3377C536.019 58.3377 536.021 54.3929 572.562 54.3929C609.103 54.3929 609.102 58.3377 645.642 58.3377C682.182 58.3377 682.187 54.3929 718.732 54.3929C755.277 54.3929 754.645 57.4425 791.007 58.3278C794.663 58.4168 799.966 57.2551 799.966 58.1449C799.966 59.0342 783.678 59.0342 783.678 59.9234C783.678 60.8131 799.966 60.8131 799.966 61.7028C799.966 62.5925 783.678 62.5929 783.678 63.483C783.678 64.3731 799.966 64.3731 799.966 65.2632C799.966 66.1533 783.678 66.1533 783.678 67.0435C783.678 67.9336 799.966 67.9338 799.966 68.8241C799.966 69.714 783.678 69.714 783.678 70.6038C783.678 71.4945 799.966 71.4945 799.966 72.3851C799.966 73.2763 783.115 73.6793 783.835 74.5533C785.432 76.4924 796.299 77.8232 792.638 77.9126Z" fill="#00994B"/>
<path d="M792.702 78.2558C756.348 79.1426 755.348 74.3209 718.81 74.3209C682.27 74.3209 682.27 78.2658 645.73 78.2658C609.189 78.2658 609.189 74.3209 572.649 74.3209C536.11 74.3209 536.109 78.2658 499.57 78.2658C463.029 78.2658 463.029 74.3209 426.488 74.3209C389.95 74.3209 389.95 78.2658 353.411 78.2658C316.871 78.2658 316.871 74.3209 280.332 74.3209C243.791 74.3209 243.791 78.2658 207.25 78.2658C170.71 78.2658 170.71 74.3209 134.17 74.3209C97.6251 74.3209 97.6251 78.2658 61.0802 78.2658C24.5352 78.2658 25.1666 75.2162 -11.1952 74.3308C-14.8506 74.2418 -20.1538 75.4036 -20.1538 74.5138C-20.1538 73.6245 -3.86587 73.6245 -3.86587 72.7352C-3.86587 71.8455 -20.1538 71.8455 -20.1538 70.9558C-20.1538 70.0661 -3.86587 70.0657 -3.86587 69.1756C-3.86587 68.2855 -20.1538 68.2855 -20.1538 67.3954C-20.1538 66.5053 -3.86587 66.5053 -3.86587 65.6152C-3.86587 64.7251 -20.1538 64.7249 -20.1538 63.8345C-20.1538 62.9447 -3.86587 62.9447 -3.86587 62.0548C-3.86587 61.1642 -20.1538 61.1642 -20.1538 60.2736C-20.1538 59.3823 -3.86587 59.3823 -3.86587 58.4911C-3.86587 57.5998 -16.4873 54.8354 -12.8259 54.7461C23.5281 53.8593 24.5281 58.681 61.0661 58.681C97.6042 58.681 97.606 54.7362 134.146 54.7362C170.686 54.7362 170.686 58.681 207.227 58.681C243.768 58.681 243.766 54.7362 280.306 54.7362C316.845 54.7362 316.847 58.681 353.387 58.681C389.928 58.681 389.926 54.7362 426.465 54.7362C463.004 54.7362 463.004 58.681 499.544 58.681C536.083 58.681 536.085 54.7362 572.626 54.7362C609.167 54.7362 609.166 58.681 645.706 58.681C682.246 58.681 682.251 54.7362 718.796 54.7362C755.341 54.7362 754.709 57.7858 791.071 58.6711C794.727 58.7601 800.03 57.5984 800.03 58.4882C800.03 59.3774 783.742 59.3774 783.742 60.2667C783.742 61.156 800.03 61.1564 800.03 62.0461C800.03 62.9358 783.742 62.9362 783.742 63.8263C783.742 64.7164 800.03 64.7164 800.03 65.6065C800.03 66.4966 783.742 66.4966 783.742 67.3867C783.742 68.2769 800.03 68.2771 800.03 69.1674C800.03 70.0573 783.742 70.0573 783.742 70.9471C783.742 71.8377 800.03 71.8377 800.03 72.7284C800.03 73.6196 783.179 74.0225 783.899 74.8965C785.496 76.8357 796.363 78.1665 792.702 78.2558Z" fill="#00984A"/>
<path d="M792.765 78.5986C756.411 79.4854 755.411 74.6637 718.873 74.6637C682.333 74.6637 682.333 78.6085 645.793 78.6085C609.253 78.6085 609.253 74.6637 572.712 74.6637C536.173 74.6637 536.173 78.6085 499.634 78.6085C463.093 78.6085 463.093 74.6637 426.552 74.6637C390.013 74.6637 390.013 78.6085 353.474 78.6085C316.935 78.6085 316.935 74.6637 280.395 74.6637C243.854 74.6637 243.854 78.6085 207.313 78.6085C170.773 78.6085 170.773 74.6637 134.233 74.6637C97.6886 74.6637 97.6886 78.6085 61.1436 78.6085C24.5987 78.6085 25.2301 75.5589 -11.1317 74.6736C-14.7872 74.5846 -20.0903 75.7463 -20.0903 74.8565C-20.0903 73.9673 -3.80239 73.9673 -3.80239 73.078C-3.80239 72.1883 -20.0903 72.1883 -20.0903 71.2986C-20.0903 70.4089 -3.80239 70.4085 -3.80239 69.5184C-3.80239 68.6283 -20.0903 68.6283 -20.0903 67.7382C-20.0903 66.8481 -3.80239 66.8481 -3.80239 65.958C-3.80239 65.0678 -20.0903 65.0676 -20.0903 64.1773C-20.0903 63.2874 -3.80239 63.2874 -3.80239 62.3976C-3.80239 61.507 -20.0903 61.507 -20.0903 60.6163C-20.0903 59.7251 -3.80239 59.7251 -3.80239 58.8338C-3.80239 57.9426 -16.4238 55.1782 -12.7624 55.0889C23.5916 54.2021 24.5916 59.0238 61.1296 59.0238C97.6677 59.0238 97.6695 55.0789 134.209 55.0789C170.749 55.0789 170.75 59.0238 207.29 59.0238C243.831 59.0238 243.83 55.0789 280.369 55.0789C316.909 55.0789 316.91 59.0238 353.451 59.0238C389.992 59.0238 389.99 55.0789 426.529 55.0789C463.067 55.0789 463.068 59.0238 499.607 59.0238C536.147 59.0238 536.149 55.0789 572.69 55.0789C609.231 55.0789 609.23 59.0238 645.769 59.0238C682.309 59.0238 682.314 55.0789 718.859 55.0789C755.404 55.0789 754.773 58.1285 791.135 59.0139C794.79 59.1029 800.093 57.9411 800.093 58.8309C800.093 59.7202 783.805 59.7202 783.805 60.6095C783.805 61.4992 800.093 61.4992 800.093 62.3889C800.093 63.2786 783.805 63.279 783.805 64.1691C783.805 65.0592 800.093 65.0592 800.093 65.9493C800.093 66.8394 783.805 66.8394 783.805 67.7295C783.805 68.6196 800.093 68.6198 800.093 69.5102C800.093 70.4 783.805 70.4 783.805 71.2899C783.805 72.1805 800.093 72.1805 800.093 73.0711C800.093 73.9624 783.243 74.3653 783.962 75.2393C785.559 77.1784 796.427 78.5093 792.765 78.5986Z" fill="#009649"/>
<path d="M792.829 78.9424C756.475 79.8291 755.475 75.0075 718.937 75.0075C682.397 75.0075 682.397 78.9523 645.857 78.9523C609.317 78.9523 609.317 75.0075 572.776 75.0075C536.237 75.0075 536.237 78.9523 499.698 78.9523C463.157 78.9523 463.157 75.0075 426.616 75.0075C390.075 75.0075 390.077 78.9523 353.538 78.9523C316.999 78.9523 316.999 75.0075 280.459 75.0075C243.918 75.0075 243.918 78.9523 207.377 78.9523C170.837 78.9523 170.837 75.0075 134.297 75.0075C97.7525 75.0075 97.7525 78.9523 61.2076 78.9523C24.6627 78.9523 25.294 75.9027 -11.0677 75.0174C-14.7232 74.9284 -20.0264 76.0901 -20.0264 75.2003C-20.0264 74.311 -3.73843 74.311 -3.73843 73.4217C-3.73843 72.532 -20.0264 72.532 -20.0264 71.6423C-20.0264 70.7526 -3.73843 70.7522 -3.73843 69.8621C-3.73843 68.972 -20.0264 68.972 -20.0264 68.0819C-20.0264 67.1918 -3.73843 67.1918 -3.73843 66.3017C-3.73843 65.4116 -20.0264 65.4114 -20.0264 64.521C-20.0264 63.6312 -3.73843 63.6312 -3.73843 62.7413C-3.73843 61.8507 -20.0264 61.8507 -20.0264 60.9601C-20.0264 60.0689 -3.73843 60.0689 -3.73843 59.1776C-3.73843 58.2863 -16.3599 55.5219 -12.6985 55.4326C23.6556 54.5458 24.6555 59.3675 61.1936 59.3675C97.7316 59.3675 97.7334 55.4227 134.273 55.4227C170.813 55.4227 170.814 59.3675 207.354 59.3675C243.895 59.3675 243.894 55.4227 280.433 55.4227C316.972 55.4227 316.974 59.3675 353.515 59.3675C390.056 59.3675 390.054 55.4227 426.593 55.4227C463.131 55.4227 463.132 59.3675 499.671 59.3675C536.211 59.3675 536.212 55.4227 572.754 55.4227C609.295 55.4227 609.293 59.3675 645.833 59.3675C682.373 59.3675 682.378 55.4227 718.923 55.4227C755.468 55.4227 754.837 58.4723 791.198 59.3576C794.854 59.4466 800.157 58.2849 800.157 59.1747C800.157 60.064 783.869 60.064 783.869 60.9532C783.869 61.8429 800.157 61.8429 800.157 62.7326C800.157 63.6223 783.869 63.6227 783.869 64.5128C783.869 65.4029 800.157 65.4029 800.157 66.293C800.157 67.1831 783.869 67.1831 783.869 68.0732C783.869 68.9634 800.157 68.9636 800.157 69.8539C800.157 70.7438 783.869 70.7438 783.869 71.6336C783.869 72.5242 800.157 72.5242 800.157 73.4149C800.157 74.3061 783.307 74.7091 784.026 75.5831C785.623 77.5222 796.491 78.853 792.829 78.9424Z" fill="#009549"/>
<path d="M792.894 79.2856C756.54 80.1724 755.54 75.3507 719.002 75.3507C682.462 75.3507 682.462 79.2956 645.922 79.2956C609.381 79.2956 609.381 75.3507 572.841 75.3507C536.301 75.3507 536.301 79.2956 499.762 79.2956C463.221 79.2956 463.221 75.3507 426.68 75.3507C390.142 75.3507 390.141 79.2956 353.603 79.2956C317.063 79.2956 317.063 75.3507 280.524 75.3507C243.983 75.3507 243.983 79.2956 207.442 79.2956C170.902 79.2956 170.902 75.3507 134.362 75.3507C97.817 75.3507 97.817 79.2956 61.2721 79.2956C24.7271 79.2956 25.3585 76.246 -11.0033 75.3606C-14.6588 75.2716 -19.9619 76.4333 -19.9619 75.5435C-19.9619 74.6543 -3.67397 74.6543 -3.67397 73.765C-3.67397 72.8753 -19.9619 72.8753 -19.9619 71.9856C-19.9619 71.0959 -3.67397 71.0955 -3.67397 70.2054C-3.67397 69.3153 -19.9619 69.3153 -19.9619 68.4252C-19.9619 67.5351 -3.67397 67.5351 -3.67397 66.645C-3.67397 65.7548 -19.9619 65.7546 -19.9619 64.8643C-19.9619 63.9744 -3.67397 63.9744 -3.67397 63.0846C-3.67397 62.194 -19.9619 62.194 -19.9619 61.3033C-19.9619 60.4121 -3.67397 60.4121 -3.67397 59.5208C-3.67397 58.6296 -16.2954 55.8652 -12.634 55.7759C23.72 54.8891 24.72 59.7108 61.258 59.7108C97.7961 59.7108 97.7979 55.7659 134.338 55.7659C170.878 55.7659 170.878 59.7108 207.419 59.7108C243.959 59.7108 243.958 55.7659 280.498 55.7659C317.037 55.7659 317.039 59.7108 353.579 59.7108C390.12 59.7108 390.118 55.7659 426.657 55.7659C463.196 55.7659 463.196 59.7108 499.736 59.7108C536.275 59.7108 536.277 55.7659 572.818 55.7659C609.359 55.7659 609.358 59.7108 645.898 59.7108C682.438 59.7108 682.443 55.7659 718.988 55.7659C755.533 55.7659 754.901 58.8155 791.263 59.7009C794.919 59.7899 800.222 58.6282 800.222 59.518C800.222 60.4072 783.934 60.4072 783.934 61.2965C783.934 62.1858 800.222 62.1862 800.222 63.0759C800.222 63.9656 783.934 63.966 783.934 64.8561C783.934 65.7462 800.222 65.7462 800.222 66.6363C800.222 67.5264 783.934 67.5264 783.934 68.4165C783.934 69.3066 800.222 69.3068 800.222 70.1972C800.222 71.087 783.934 71.087 783.934 71.9769C783.934 72.8675 800.222 72.8675 800.222 73.7581C800.222 74.6494 783.371 75.0523 784.091 75.9263C785.687 77.8654 796.555 79.1963 792.894 79.2856Z" fill="#009448"/>
<path d="M792.957 79.6284C756.603 80.5152 755.603 75.6935 719.065 75.6935C682.525 75.6935 682.525 79.6383 645.985 79.6383C609.445 79.6383 609.445 75.6935 572.904 75.6935C536.365 75.6935 536.365 79.6383 499.826 79.6383C463.285 79.6383 463.285 75.6935 426.744 75.6935C390.205 75.6935 390.205 79.6383 353.666 79.6383C317.127 79.6383 317.127 75.6935 280.587 75.6935C244.046 75.6935 244.046 79.6383 207.505 79.6383C170.965 79.6383 170.965 75.6935 134.425 75.6935C97.8805 75.6935 97.8805 79.6383 61.3355 79.6383C24.7906 79.6383 25.422 76.5887 -10.9398 75.7034C-14.5953 75.6144 -19.8984 76.7761 -19.8984 75.8863C-19.8984 74.997 -3.6105 74.997 -3.6105 74.1078C-3.6105 73.2181 -19.8984 73.2181 -19.8984 72.3284C-19.8984 71.4387 -3.6105 71.4383 -3.6105 70.5482C-3.6105 69.6581 -19.8984 69.6581 -19.8984 68.768C-19.8984 67.8779 -3.6105 67.8779 -3.6105 66.9877C-3.6105 66.0976 -19.8984 66.0974 -19.8984 65.2071C-19.8984 64.3172 -3.6105 64.3172 -3.6105 63.4274C-3.6105 62.5368 -19.8984 62.5368 -19.8984 61.6461C-19.8984 60.7549 -3.6105 60.7549 -3.6105 59.8636C-3.6105 58.9724 -16.2319 56.208 -12.5705 56.1186C23.7835 55.2319 24.7834 60.0535 61.3215 60.0535C97.8596 60.0535 97.8613 56.1087 134.401 56.1087C170.941 56.1087 170.942 60.0535 207.482 60.0535C244.023 60.0535 244.022 56.1087 280.561 56.1087C317.1 56.1087 317.102 60.0535 353.643 60.0535C390.184 60.0535 390.182 56.1087 426.72 56.1087C463.259 56.1087 463.26 60.0535 499.799 60.0535C536.339 60.0535 536.34 56.1087 572.881 56.1087C609.423 56.1087 609.421 60.0535 645.961 60.0535C682.501 60.0535 682.506 56.1087 719.051 56.1087C755.596 56.1087 754.965 59.1583 791.326 60.0436C794.982 60.1326 800.285 58.9709 800.285 59.8607C800.285 60.75 783.997 60.75 783.997 61.6393C783.997 62.5285 800.285 62.529 800.285 63.4187C800.285 64.3084 783.997 64.3088 783.997 65.1989C783.997 66.089 800.285 66.089 800.285 66.9791C800.285 67.8692 783.997 67.8692 783.997 68.7593C783.997 69.6494 800.285 69.6496 800.285 70.54C800.285 71.4298 783.997 71.4298 783.997 72.3197C783.997 73.2103 800.285 73.2103 800.285 74.1009C800.285 74.9921 783.435 75.3951 784.154 76.2691C785.751 78.2082 796.618 79.5391 792.957 79.6284Z" fill="#009247"/>
<path d="M793.02 79.9717C756.666 80.8584 755.666 76.0368 719.128 76.0368C682.588 76.0368 682.588 79.9816 646.048 79.9816C609.508 79.9816 609.508 76.0368 572.967 76.0368C536.428 76.0368 536.428 79.9816 499.889 79.9816C463.348 79.9816 463.348 76.0368 426.807 76.0368C390.268 76.0368 390.268 79.9816 353.729 79.9816C317.19 79.9816 317.19 76.0368 280.65 76.0368C244.109 76.0368 244.109 79.9816 207.568 79.9816C171.028 79.9816 171.028 76.0368 134.488 76.0368C97.9434 76.0368 97.9434 79.9816 61.3985 79.9816C24.8536 79.9816 25.485 76.932 -10.8768 76.0466C-14.5323 75.9577 -19.8354 77.1194 -19.8354 76.2296C-19.8354 75.3403 -3.54751 75.3403 -3.54751 74.451C-3.54751 73.5613 -19.8354 73.5613 -19.8354 72.6716C-19.8354 71.7819 -3.54751 71.7815 -3.54751 70.8914C-3.54751 70.0013 -19.8354 70.0013 -19.8354 69.1112C-19.8354 68.2211 -3.54751 68.2211 -3.54751 67.331C-3.54751 66.4409 -19.8354 66.4407 -19.8354 65.5503C-19.8354 64.6605 -3.54751 64.6605 -3.54751 63.7706C-3.54751 62.88 -19.8354 62.88 -19.8354 61.9894C-19.8354 61.0981 -3.54751 61.0981 -3.54751 60.2069C-3.54751 59.3156 -16.169 56.5512 -12.5075 56.4619C23.8465 55.5751 24.8464 60.3968 61.3845 60.3968C97.9225 60.3968 97.9243 56.452 134.464 56.452C171.004 56.452 171.005 60.3968 207.545 60.3968C244.086 60.3968 244.085 56.452 280.624 56.452C317.163 56.452 317.165 60.3968 353.706 60.3968C390.247 60.3968 390.245 56.452 426.783 56.452C463.322 56.452 463.323 60.3968 499.862 60.3968C536.402 60.3968 536.403 56.452 572.944 56.452C609.486 56.452 609.484 60.3968 646.024 60.3968C682.564 60.3968 682.569 56.452 719.114 56.452C755.659 56.452 755.028 59.5016 791.389 60.3869C795.045 60.4759 800.348 59.3142 800.348 60.204C800.348 61.0933 784.06 61.0933 784.06 61.9825C784.06 62.8718 800.348 62.8722 800.348 63.7619C800.348 64.6516 784.06 64.652 784.06 65.5421C784.06 66.4322 800.348 66.4322 800.348 67.3223C800.348 68.2124 784.06 68.2124 784.06 69.1025C784.06 69.9927 800.348 69.9929 800.348 70.8832C800.348 71.7731 784.06 71.7731 784.06 72.6629C784.06 73.5535 800.348 73.5535 800.348 74.4442C800.348 75.3354 783.498 75.7384 784.217 76.6124C785.814 78.5515 796.681 79.8823 793.02 79.9717Z" fill="#009147"/>
<path d="M793.084 80.3154C756.73 81.2022 755.73 76.3805 719.192 76.3805C682.652 76.3805 682.652 80.3253 646.112 80.3253C609.572 80.3253 609.572 76.3805 573.031 76.3805C536.492 76.3805 536.492 80.3253 499.953 80.3253C463.412 80.3253 463.412 76.3805 426.871 76.3805C390.332 76.3805 390.332 80.3253 353.793 80.3253C317.254 80.3253 317.254 76.3805 280.714 76.3805C244.173 76.3805 244.173 80.3253 207.632 80.3253C171.092 80.3253 171.092 76.3805 134.552 76.3805C98.0074 76.3805 98.0074 80.3253 61.4625 80.3253C24.9175 80.3253 25.5489 77.2757 -10.8128 76.3904C-14.4683 76.3014 -19.7715 77.4631 -19.7715 76.5733C-19.7715 75.6841 -3.48354 75.6841 -3.48354 74.7948C-3.48354 73.9051 -19.7715 73.9051 -19.7715 73.0154C-19.7715 72.1257 -3.48354 72.1253 -3.48354 71.2352C-3.48354 70.3451 -19.7715 70.3451 -19.7715 69.455C-19.7715 68.5649 -3.48354 68.5649 -3.48354 67.6748C-3.48354 66.7846 -19.7715 66.7844 -19.7715 65.8941C-19.7715 65.0042 -3.48354 65.0042 -3.48354 64.1144C-3.48354 63.2238 -19.7715 63.2238 -19.7715 62.3331C-19.7715 61.4419 -3.48354 61.4419 -3.48354 60.5506C-3.48354 59.6594 -16.105 56.895 -12.4436 56.8056C23.9105 55.9189 24.9104 60.7406 61.4484 60.7406C97.9865 60.7406 97.9883 56.7957 134.528 56.7957C171.068 56.7957 171.069 60.7406 207.609 60.7406C244.15 60.7406 244.149 56.7957 280.688 56.7957C317.227 56.7957 317.229 60.7406 353.77 60.7406C390.311 60.7406 390.309 56.7957 426.847 56.7957C463.386 56.7957 463.387 60.7406 499.926 60.7406C536.466 60.7406 536.467 56.7957 573.008 56.7957C609.55 56.7957 609.548 60.7406 646.088 60.7406C682.628 60.7406 682.633 56.7957 719.178 56.7957C755.723 56.7957 755.092 59.8453 791.453 60.7307C795.109 60.8197 800.412 59.6579 800.412 60.5477C800.412 61.437 784.124 61.437 784.124 62.3263C784.124 63.2155 800.412 63.216 800.412 64.1057C800.412 64.9954 784.124 64.9958 784.124 65.8859C784.124 66.776 800.412 66.776 800.412 67.6661C800.412 68.5562 784.124 68.5562 784.124 69.4463C784.124 70.3364 800.412 70.3366 800.412 71.227C800.412 72.1168 784.124 72.1168 784.124 73.0067C784.124 73.8973 800.412 73.8973 800.412 74.7879C800.412 75.6792 783.562 76.0821 784.281 76.9561C785.878 78.8952 796.745 80.2261 793.084 80.3154Z" fill="#008F46"/>
<path d="M793.148 80.6582C756.794 81.545 755.794 76.7233 719.256 76.7233C682.716 76.7233 682.716 80.6681 646.176 80.6681C609.636 80.6681 609.636 76.7233 573.095 76.7233C536.556 76.7233 536.556 80.6681 500.016 80.6681C463.476 80.6681 463.476 76.7233 426.935 76.7233C390.396 76.7233 390.396 80.6681 353.857 80.6681C317.318 80.6681 317.318 76.7233 280.778 76.7233C244.237 76.7233 244.237 80.6681 207.696 80.6681C171.156 80.6681 171.156 76.7233 134.616 76.7233C98.0714 76.7233 98.0714 80.6681 61.5264 80.6681C24.9815 80.6681 25.6129 77.6185 -10.7489 76.7332C-14.4044 76.6442 -19.7075 77.8059 -19.7075 76.9161C-19.7075 76.0268 -3.41958 76.0268 -3.41958 75.1376C-3.41958 74.2479 -19.7075 74.2479 -19.7075 73.3582C-19.7075 72.4685 -3.41958 72.4681 -3.41958 71.578C-3.41958 70.6879 -19.7075 70.6879 -19.7075 69.7978C-19.7075 68.9077 -3.41958 68.9077 -3.41958 68.0175C-3.41958 67.1274 -19.7075 67.1272 -19.7075 66.2369C-19.7075 65.347 -3.41958 65.347 -3.41958 64.4572C-3.41958 63.5665 -19.7075 63.5665 -19.7075 62.6759C-19.7075 61.7847 -3.41958 61.7847 -3.41958 60.8934C-3.41958 60.0021 -16.041 57.2378 -12.3796 57.1484C23.9744 56.2617 24.9744 61.0833 61.5124 61.0833C98.0505 61.0833 98.0523 57.1385 134.592 57.1385C171.132 57.1385 171.133 61.0833 207.673 61.0833C244.214 61.0833 244.213 57.1385 280.752 57.1385C317.291 57.1385 317.293 61.0833 353.834 61.0833C390.375 61.0833 390.373 57.1385 426.911 57.1385C463.45 57.1385 463.451 61.0833 499.99 61.0833C536.53 61.0833 536.531 57.1385 573.072 57.1385C609.613 57.1385 609.612 61.0833 646.152 61.0833C682.692 61.0833 682.697 57.1385 719.242 57.1385C755.787 57.1385 755.156 60.1881 791.517 61.0734C795.173 61.1624 800.476 60.0007 800.476 60.8905C800.476 61.7798 784.188 61.7798 784.188 62.669C784.188 63.5583 800.476 63.5587 800.476 64.4484C800.476 65.3381 784.188 65.3385 784.188 66.2286C784.188 67.1187 800.476 67.1187 800.476 68.0088C800.476 68.8989 784.188 68.8989 784.188 69.7891C784.188 70.6792 800.476 70.6794 800.476 71.5697C800.476 72.4596 784.188 72.4596 784.188 73.3494C784.188 74.2401 800.476 74.2401 800.476 75.1307C800.476 76.0219 783.626 76.4249 784.345 77.2989C785.942 79.238 796.809 80.5689 793.148 80.6582Z" fill="#008E45"/>
<path d="M793.212 81.0014C756.858 81.8882 755.857 77.0665 719.32 77.0665C682.78 77.0665 682.78 81.0114 646.24 81.0114C609.699 81.0114 609.699 77.0665 573.159 77.0665C536.619 77.0665 536.619 81.0114 500.08 81.0114C463.539 81.0114 463.539 77.0665 426.998 77.0665C390.459 77.0665 390.459 81.0114 353.921 81.0114C317.381 81.0114 317.381 77.0665 280.842 77.0665C244.301 77.0665 244.301 81.0114 207.76 81.0114C171.22 81.0114 171.22 77.0665 134.68 77.0665C98.1348 77.0665 98.1349 81.0114 61.5899 81.0114C25.045 81.0114 25.6764 77.9618 -10.6854 77.0764C-14.3409 76.9874 -19.644 78.1492 -19.644 77.2594C-19.644 76.3701 -3.3561 76.3701 -3.3561 75.4808C-3.3561 74.5911 -19.644 74.5911 -19.644 73.7014C-19.644 72.8117 -3.3561 72.8113 -3.3561 71.9212C-3.3561 71.0311 -19.644 71.0311 -19.644 70.141C-19.644 69.2509 -3.3561 69.2509 -3.3561 68.3608C-3.3561 67.4707 -19.644 67.4705 -19.644 66.5801C-19.644 65.6903 -3.3561 65.6903 -3.3561 64.8004C-3.3561 63.9098 -19.644 63.9098 -19.644 63.0192C-19.644 62.1279 -3.3561 62.1279 -3.3561 61.2367C-3.3561 60.3454 -15.9775 57.581 -12.3161 57.4917C24.0379 56.6049 25.0378 61.4266 61.5759 61.4266C98.114 61.4266 98.1157 57.4818 134.656 57.4818C171.196 57.4818 171.196 61.4266 207.737 61.4266C244.277 61.4266 244.276 57.4818 280.816 57.4818C317.355 57.4818 317.356 61.4266 353.897 61.4266C390.438 61.4266 390.436 57.4818 426.975 57.4818C463.514 57.4818 463.514 61.4266 500.054 61.4266C536.593 61.4266 536.595 57.4818 573.136 57.4818C609.677 57.4818 609.676 61.4266 646.216 61.4266C682.755 61.4266 682.761 57.4818 719.306 57.4818C755.85 57.4818 755.219 60.5314 791.581 61.4167C795.236 61.5057 800.54 60.344 800.54 61.2338C800.54 62.123 784.252 62.123 784.252 63.0123C784.252 63.902 800.54 63.902 800.54 64.7917C800.54 65.6814 784.252 65.6818 784.252 66.5719C784.252 67.462 800.54 67.462 800.54 68.3521C800.54 69.2422 784.252 69.2422 784.252 70.1323C784.252 71.0225 800.54 71.0227 800.54 71.913C800.54 72.8029 784.252 72.8029 784.252 73.6927C784.252 74.5833 800.54 74.5833 800.54 75.474C800.54 76.3652 783.689 76.7681 784.409 77.6422C786.005 79.5813 796.873 80.9121 793.212 81.0014Z" fill="#008D45"/>
<path d="M793.274 81.3447C756.92 82.2315 755.92 77.4098 719.382 77.4098C682.842 77.4098 682.842 81.3546 646.302 81.3546C609.762 81.3546 609.762 77.4098 573.221 77.4098C536.682 77.4098 536.682 81.3546 500.142 81.3546C463.602 81.3546 463.602 77.4098 427.061 77.4098C390.522 77.4098 390.522 81.3546 353.983 81.3546C317.444 81.3546 317.444 77.4098 280.904 77.4098C244.363 77.4098 244.363 81.3546 207.822 81.3546C171.282 81.3546 171.282 77.4098 134.742 77.4098C98.1973 77.4098 98.1974 81.3546 61.6524 81.3546C25.1075 81.3546 25.7389 78.305 -10.6229 77.4197C-14.2784 77.3307 -19.5815 78.4924 -19.5815 77.6026C-19.5815 76.7133 -3.2936 76.7134 -3.2936 75.8241C-3.2936 74.9344 -19.5815 74.9344 -19.5815 74.0447C-19.5815 73.155 -3.2936 73.1546 -3.2936 72.2645C-3.2936 71.3744 -19.5815 71.3744 -19.5815 70.4843C-19.5815 69.5942 -3.2936 69.5942 -3.2936 68.7041C-3.2936 67.8139 -19.5815 67.8137 -19.5815 66.9234C-19.5815 66.0335 -3.2936 66.0335 -3.2936 65.1437C-3.2936 64.2531 -19.5815 64.2531 -19.5815 63.3624C-19.5815 62.4712 -3.2936 62.4712 -3.2936 61.5799C-3.2936 60.6887 -15.915 57.9243 -12.2536 57.8349C24.1004 56.9482 25.1003 61.7698 61.6384 61.7698C98.1765 61.7698 98.1782 57.825 134.718 57.825C171.258 57.825 171.259 61.7698 207.799 61.7698C244.34 61.7698 244.339 57.825 280.878 57.825C317.417 57.825 317.419 61.7698 353.96 61.7698C390.501 61.7698 390.499 57.825 427.037 57.825C463.576 57.825 463.577 61.7698 500.116 61.7698C536.656 61.7698 536.657 57.825 573.198 57.825C609.739 57.825 609.738 61.7698 646.278 61.7698C682.818 61.7698 682.823 57.825 719.368 57.825C755.913 57.825 755.282 60.8746 791.643 61.76C795.299 61.849 800.602 60.6872 800.602 61.577C800.602 62.4663 784.314 62.4663 784.314 63.3556C784.314 64.2448 800.602 64.2453 800.602 65.135C800.602 66.0247 784.314 66.0251 784.314 66.9152C784.314 67.8053 800.602 67.8053 800.602 68.6954C800.602 69.5855 784.314 69.5855 784.314 70.4756C784.314 71.3657 800.602 71.3659 800.602 72.2563C800.602 73.1461 784.314 73.1461 784.314 74.036C784.314 74.9266 800.602 74.9266 800.602 75.8172C800.602 76.7085 783.752 77.1114 784.471 77.9854C786.068 79.9245 796.935 81.2554 793.274 81.3447Z" fill="#008B44"/>
<path d="M793.34 81.688C756.986 82.5747 755.985 77.7531 719.448 77.7531C682.908 77.7531 682.908 81.6979 646.368 81.6979C609.827 81.6979 609.827 77.7531 573.287 77.7531C536.747 77.7531 536.747 81.6979 500.208 81.6979C463.667 81.6979 463.667 77.7531 427.126 77.7531C390.587 77.7531 390.587 81.6979 354.049 81.6979C317.509 81.6979 317.509 77.7531 280.97 77.7531C244.429 77.7531 244.429 81.6979 207.888 81.6979C171.348 81.6979 171.348 77.7531 134.808 77.7531C98.2628 77.7531 98.2628 81.6979 61.7179 81.6979C25.1729 81.6979 25.8043 78.6483 -10.5575 77.763C-14.213 77.674 -19.5161 78.8357 -19.5161 77.9459C-19.5161 77.0566 -3.22817 77.0566 -3.22817 76.1673C-3.22817 75.2776 -19.5161 75.2776 -19.5161 74.3879C-19.5161 73.4982 -3.22817 73.4978 -3.22817 72.6077C-3.22817 71.7176 -19.5161 71.7176 -19.5161 70.8275C-19.5161 69.9374 -3.22817 69.9374 -3.22817 69.0473C-3.22817 68.1572 -19.5161 68.157 -19.5161 67.2667C-19.5161 66.3768 -3.22817 66.3768 -3.22817 65.487C-3.22817 64.5963 -19.5161 64.5963 -19.5161 63.7057C-19.5161 62.8145 -3.22817 62.8145 -3.22817 61.9232C-3.22817 61.0319 -15.8496 58.2675 -12.1882 58.1782C24.1658 57.2914 25.1658 62.1131 61.7038 62.1131C98.2419 62.1131 98.2437 58.1683 134.784 58.1683C171.324 58.1683 171.324 62.1131 207.865 62.1131C244.405 62.1131 244.404 58.1683 280.943 58.1683C317.483 58.1683 317.484 62.1131 354.025 62.1131C390.566 62.1131 390.564 58.1683 427.103 58.1683C463.642 58.1683 463.642 62.1131 500.182 62.1131C536.721 62.1131 536.723 58.1683 573.264 58.1683C609.805 58.1683 609.804 62.1131 646.344 62.1131C682.883 62.1131 682.889 58.1683 719.433 58.1683C755.978 58.1683 755.347 61.2179 791.709 62.1032C795.364 62.1922 800.667 61.0305 800.667 61.9203C800.667 62.8096 784.379 62.8096 784.379 63.6988C784.379 64.5885 800.667 64.5885 800.667 65.4782C800.667 66.3679 784.379 66.3683 784.379 67.2584C784.379 68.1485 800.667 68.1485 800.667 69.0386C800.667 69.9287 784.379 69.9287 784.379 70.8189C784.379 71.709 800.667 71.7092 800.667 72.5995C800.667 73.4894 784.379 73.4894 784.379 74.3792C784.379 75.2699 800.667 75.2699 800.667 76.1605C800.667 77.0517 783.817 77.4547 784.537 78.3287C786.133 80.2678 797.001 81.5986 793.34 81.688Z" fill="#008A43"/>
<path d="M793.403 82.0307C757.049 82.9175 756.049 78.0958 719.511 78.0958C682.972 78.0958 682.972 82.0407 646.432 82.0407C609.891 82.0407 609.891 78.0958 573.351 78.0958C536.811 78.0958 536.811 82.0407 500.272 82.0407C463.731 82.0407 463.731 78.0958 427.19 78.0958C390.649 78.0958 390.651 82.0407 354.112 82.0407C317.573 82.0407 317.573 78.0958 281.034 78.0958C244.493 78.0958 244.493 82.0407 207.951 82.0407C171.412 82.0407 171.412 78.0958 134.872 78.0958C98.3268 78.0958 98.3267 82.0407 61.7818 82.0407C25.2369 82.0407 25.8683 78.9911 -10.4935 78.1057C-14.149 78.0167 -19.4521 79.1785 -19.4521 78.2887C-19.4521 77.3994 -3.16421 77.3994 -3.16421 76.5101C-3.16421 75.6204 -19.4521 75.6204 -19.4521 74.7307C-19.4521 73.841 -3.16421 73.8406 -3.16421 72.9505C-3.16421 72.0604 -19.4521 72.0604 -19.4521 71.1703C-19.4521 70.2802 -3.16421 70.2802 -3.16421 69.3901C-3.16421 68.5 -19.4521 68.4998 -19.4521 67.6094C-19.4521 66.7196 -3.16421 66.7196 -3.16421 65.8297C-3.16421 64.9391 -19.4521 64.9391 -19.4521 64.0485C-19.4521 63.1572 -3.16421 63.1572 -3.16421 62.266C-3.16421 61.3747 -15.7856 58.6103 -12.1242 58.521C24.2298 57.6342 25.2297 62.4559 61.7678 62.4559C98.3058 62.4559 98.3076 58.5111 134.848 58.5111C171.388 58.5111 171.388 62.4559 207.929 62.4559C244.469 62.4559 244.468 58.5111 281.007 58.5111C317.547 58.5111 317.548 62.4559 354.089 62.4559C390.63 62.4559 390.628 58.5111 427.167 58.5111C463.706 58.5111 463.706 62.4559 500.246 62.4559C536.785 62.4559 536.787 58.5111 573.328 58.5111C609.869 58.5111 609.868 62.4559 646.408 62.4559C682.947 62.4559 682.953 58.5111 719.497 58.5111C756.042 58.5111 755.411 61.5607 791.773 62.446C795.428 62.535 800.731 61.3733 800.731 62.2631C800.731 63.1523 784.443 63.1523 784.443 64.0416C784.443 64.9313 800.731 64.9313 800.731 65.821C800.731 66.7107 784.443 66.7111 784.443 67.6012C784.443 68.4913 800.731 68.4913 800.731 69.3814C800.731 70.2715 784.443 70.2715 784.443 71.1616C784.443 72.0518 800.731 72.052 800.731 72.9423C800.731 73.8322 784.443 73.8322 784.443 74.722C784.443 75.6126 800.731 75.6126 800.731 76.5033C800.731 77.3945 783.881 77.7974 784.601 78.6715C786.197 80.6106 797.065 81.9414 793.403 82.0307Z" fill="#008843"/>
<path d="M793.467 82.3745C757.112 83.2613 756.112 78.4396 719.574 78.4396C683.035 78.4396 683.035 82.3844 646.495 82.3844C609.954 82.3844 609.954 78.4396 573.414 78.4396C536.874 78.4396 536.874 82.3844 500.335 82.3844C463.794 82.3844 463.794 78.4396 427.253 78.4396C390.714 78.4396 390.714 82.3844 354.175 82.3844C317.636 82.3844 317.636 78.4396 281.097 78.4396C244.556 78.4396 244.556 82.3844 208.014 82.3844C171.475 82.3844 171.475 78.4396 134.935 78.4396C98.3897 78.4396 98.3897 82.3844 61.8448 82.3844C25.2999 82.3844 25.9312 79.3348 -10.4305 78.4495C-14.086 78.3605 -19.3892 79.5222 -19.3892 78.6324C-19.3892 77.7431 -3.10122 77.7431 -3.10122 76.8539C-3.10122 75.9642 -19.3892 75.9642 -19.3892 75.0745C-19.3892 74.1848 -3.10122 74.1844 -3.10122 73.2943C-3.10122 72.4042 -19.3892 72.4042 -19.3892 71.5141C-19.3892 70.624 -3.10122 70.624 -3.10122 69.7338C-3.10122 68.8437 -19.3892 68.8435 -19.3892 67.9532C-19.3892 67.0633 -3.10122 67.0633 -3.10122 66.1735C-3.10122 65.2828 -19.3892 65.2828 -19.3892 64.3922C-19.3892 63.501 -3.10122 63.501 -3.10122 62.6097C-3.10122 61.7185 -15.7227 58.9541 -12.0613 58.8647C24.2928 57.978 25.2927 62.7996 61.8308 62.7996C98.3688 62.7996 98.3706 58.8548 134.911 58.8548C171.451 58.8548 171.451 62.7996 207.992 62.7996C244.532 62.7996 244.531 58.8548 281.07 58.8548C317.61 58.8548 317.611 62.7996 354.152 62.7996C390.693 62.7996 390.691 58.8548 427.23 58.8548C463.768 58.8548 463.769 62.7996 500.309 62.7996C536.848 62.7996 536.85 58.8548 573.391 58.8548C609.932 58.8548 609.931 62.7996 646.471 62.7996C683.01 62.7996 683.016 58.8548 719.56 58.8548C756.105 58.8548 755.474 61.9044 791.836 62.7897C795.491 62.8787 800.794 61.717 800.794 62.6068C800.794 63.4961 784.506 63.4961 784.506 64.3854C784.506 65.2746 800.794 65.2751 800.794 66.1648C800.794 67.0545 784.506 67.0549 784.506 67.9449C784.506 68.835 800.794 68.835 800.794 69.7251C800.794 70.6152 784.506 70.6152 784.506 71.5054C784.506 72.3955 800.794 72.3957 800.794 73.286C800.794 74.1759 784.506 74.1759 784.506 75.0657C784.506 75.9564 800.794 75.9564 800.794 76.847C800.794 77.7382 783.944 78.1412 784.664 79.0152C786.26 80.9543 797.128 82.2852 793.467 82.3745Z" fill="#008742"/>
<path d="M793.53 82.7178C757.176 83.6045 756.176 78.7828 719.638 78.7828C683.098 78.7828 683.098 82.7277 646.558 82.7277C610.018 82.7277 610.018 78.7828 573.477 78.7828C536.938 78.7828 536.938 82.7277 500.398 82.7277C463.857 82.7277 463.857 78.7828 427.317 78.7828C390.778 78.7828 390.778 82.7277 354.239 82.7277C317.7 82.7277 317.7 78.7828 281.16 78.7828C244.619 78.7828 244.619 82.7277 208.078 82.7277C171.538 82.7277 171.538 78.7828 134.998 78.7828C98.4532 78.7828 98.4532 82.7277 61.9083 82.7277C25.3634 82.7277 25.9947 79.6781 -10.367 78.7927C-14.0225 78.7037 -19.3257 79.8655 -19.3257 78.9757C-19.3257 78.0864 -3.03774 78.0864 -3.03774 77.1971C-3.03774 76.3074 -19.3257 76.3074 -19.3257 75.4177C-19.3257 74.528 -3.03774 74.5276 -3.03774 73.6375C-3.03774 72.7474 -19.3257 72.7474 -19.3257 71.8573C-19.3257 70.9672 -3.03774 70.9672 -3.03774 70.0771C-3.03774 69.187 -19.3257 69.1868 -19.3257 68.2964C-19.3257 67.4066 -3.03774 67.4066 -3.03774 66.5167C-3.03774 65.6261 -19.3257 65.6261 -19.3257 64.7355C-19.3257 63.8442 -3.03774 63.8442 -3.03774 62.953C-3.03774 62.0617 -15.6592 59.2973 -11.9978 59.208C24.3563 58.3212 25.3562 63.1429 61.8943 63.1429C98.4323 63.1429 98.4341 59.1981 134.974 59.1981C171.514 59.1981 171.515 63.1429 208.055 63.1429C244.596 63.1429 244.595 59.1981 281.134 59.1981C317.673 59.1981 317.675 63.1429 354.216 63.1429C390.756 63.1429 390.754 59.1981 427.293 59.1981C463.832 59.1981 463.833 63.1429 500.372 63.1429C536.911 63.1429 536.913 59.1981 573.454 59.1981C609.995 59.1981 609.994 63.1429 646.534 63.1429C683.074 63.1429 683.079 59.1981 719.624 59.1981C756.169 59.1981 755.537 62.2477 791.899 63.133C795.555 63.222 800.858 62.0603 800.858 62.9501C800.858 63.8393 784.57 63.8393 784.57 64.7286C784.57 65.6179 800.858 65.6183 800.858 66.508C800.858 67.3977 784.57 67.3981 784.57 68.2882C784.57 69.1783 800.858 69.1783 800.858 70.0684C800.858 70.9585 784.57 70.9585 784.57 71.8486C784.57 72.7388 800.858 72.739 800.858 73.6293C800.858 74.5192 784.57 74.5192 784.57 75.409C784.57 76.2996 800.858 76.2996 800.858 77.1903C800.858 78.0815 784.007 78.4845 784.727 79.3585C786.324 81.2976 797.191 82.6284 793.53 82.7178Z" fill="#008541"/>
<path d="M793.594 83.0605C757.24 83.9473 756.24 79.1256 719.702 79.1256C683.163 79.1256 683.163 83.0705 646.623 83.0705C610.082 83.0705 610.082 79.1256 573.542 79.1256C537.002 79.1256 537.002 83.0705 500.463 83.0705C463.922 83.0705 463.922 79.1256 427.381 79.1256C390.842 79.1256 390.842 83.0705 354.303 83.0705C317.764 83.0705 317.764 79.1256 281.225 79.1256C244.683 79.1256 244.683 83.0705 208.142 83.0705C171.602 83.0705 171.602 79.1256 135.063 79.1256C98.5177 79.1256 98.5177 83.0705 61.9727 83.0705C25.4278 83.0705 26.0592 80.0208 -10.3026 79.1355C-13.9581 79.0465 -19.2612 80.2082 -19.2612 79.3184C-19.2612 78.4292 -2.97329 78.4292 -2.97329 77.5399C-2.97329 76.6502 -19.2612 76.6502 -19.2612 75.7605C-19.2612 74.8708 -2.97329 74.8704 -2.97329 73.9803C-2.97329 73.0902 -19.2612 73.0902 -19.2612 72.2001C-19.2612 71.31 -2.97329 71.31 -2.97329 70.4199C-2.97329 69.5297 -19.2612 69.5295 -19.2612 68.6392C-19.2612 67.7493 -2.97329 67.7493 -2.97329 66.8595C-2.97329 65.9689 -19.2612 65.9689 -19.2612 65.0782C-19.2612 64.187 -2.97329 64.187 -2.97329 63.2958C-2.97329 62.4045 -15.5947 59.6401 -11.9333 59.5508C24.4207 58.664 25.4207 63.4857 61.9587 63.4857C98.4968 63.4857 98.4986 59.5408 135.039 59.5408C171.579 59.5408 171.579 63.4857 208.12 63.4857C244.66 63.4857 244.659 59.5408 281.198 59.5408C317.738 59.5408 317.739 63.4857 354.28 63.4857C390.821 63.4857 390.819 59.5408 427.358 59.5408C463.896 59.5408 463.897 63.4857 500.437 63.4857C536.976 63.4857 536.978 59.5408 573.519 59.5408C610.06 59.5408 610.059 63.4857 646.599 63.4857C683.138 63.4857 683.143 59.5408 719.688 59.5408C756.233 59.5408 755.602 62.5904 791.964 63.4758C795.619 63.5648 800.922 62.4031 800.922 63.2929C800.922 64.1821 784.634 64.1821 784.634 65.0714C784.634 65.9607 800.922 65.9611 800.922 66.8508C800.922 67.7405 784.634 67.7409 784.634 68.631C784.634 69.5211 800.922 69.5211 800.922 70.4112C800.922 71.3013 784.634 71.3013 784.634 72.1914C784.634 73.0815 800.922 73.0817 800.922 73.9721C800.922 74.8619 784.634 74.8619 784.634 75.7518C784.634 76.6424 800.922 76.6424 800.922 77.533C800.922 78.4243 784.072 78.8272 784.792 79.7012C786.388 81.6403 797.256 82.9712 793.594 83.0605Z" fill="#008440"/>
<path d="M793.658 83.4038C757.304 84.2906 756.304 79.4689 719.766 79.4689C683.227 79.4689 683.227 83.4137 646.687 83.4137C610.146 83.4137 610.146 79.4689 573.605 79.4689C537.066 79.4689 537.066 83.4137 500.527 83.4137C463.986 83.4137 463.986 79.4689 427.445 79.4689C390.906 79.4689 390.906 83.4137 354.367 83.4137C317.828 83.4137 317.828 79.4689 281.289 79.4689C244.747 79.4689 244.747 83.4137 208.206 83.4137C171.666 83.4137 171.666 79.4689 135.127 79.4689C98.5816 79.4689 98.5816 83.4137 62.0367 83.4137C25.4918 83.4137 26.1231 80.3641 -10.2386 79.4788C-13.8941 79.3898 -19.1973 80.5515 -19.1973 79.6617C-19.1973 78.7724 -2.90932 78.7724 -2.90932 77.8832C-2.90932 76.9935 -19.1973 76.9935 -19.1973 76.1038C-19.1973 75.2141 -2.90932 75.2137 -2.90932 74.3236C-2.90932 73.4335 -19.1973 73.4335 -19.1973 72.5434C-19.1973 71.6533 -2.90932 71.6533 -2.90932 70.7631C-2.90932 69.873 -19.1973 69.8728 -19.1973 68.9825C-19.1973 68.0926 -2.90932 68.0926 -2.90932 67.2028C-2.90932 66.3121 -19.1973 66.3121 -19.1973 65.4215C-19.1973 64.5303 -2.90932 64.5303 -2.90932 63.639C-2.90932 62.7477 -15.5308 59.9834 -11.8694 59.894C24.4847 59.0073 25.4846 63.8289 62.0227 63.8289C98.5607 63.8289 98.5625 59.8841 135.102 59.8841C171.642 59.8841 171.643 63.8289 208.184 63.8289C244.724 63.8289 244.723 59.8841 281.262 59.8841C317.802 59.8841 317.803 63.8289 354.344 63.8289C390.885 63.8289 390.883 59.8841 427.422 59.8841C463.96 59.8841 463.961 63.8289 500.5 63.8289C537.04 63.8289 537.042 59.8841 573.583 59.8841C610.124 59.8841 610.123 63.8289 646.662 63.8289C683.202 63.8289 683.207 59.8841 719.752 59.8841C756.297 59.8841 755.666 62.9337 792.028 63.819C795.683 63.908 800.986 62.7463 800.986 63.6361C800.986 64.5254 784.698 64.5254 784.698 65.4146C784.698 66.3039 800.986 66.3043 800.986 67.194C800.986 68.0837 784.698 68.0841 784.698 68.9742C784.698 69.8643 800.986 69.8643 800.986 70.7544C800.986 71.6445 784.698 71.6445 784.698 72.5347C784.698 73.4248 800.986 73.425 800.986 74.3153C800.986 75.2052 784.698 75.2052 784.698 76.095C784.698 76.9857 800.986 76.9857 800.986 77.8763C800.986 78.7675 784.136 79.1705 784.856 80.0445C786.452 81.9836 797.32 83.3145 793.658 83.4038Z" fill="#008340"/>
<path d="M793.721 83.7471C757.367 84.6338 756.367 79.8121 719.829 79.8121C683.29 79.8121 683.289 83.757 646.75 83.757C610.209 83.757 610.209 79.8121 573.668 79.8121C537.129 79.8121 537.129 83.757 500.59 83.757C464.049 83.757 464.049 79.8121 427.508 79.8121C390.969 79.8121 390.969 83.757 354.43 83.757C317.891 83.757 317.891 79.8121 281.352 79.8121C244.81 79.8121 244.81 83.757 208.269 83.757C171.729 83.757 171.729 79.8121 135.19 79.8121C98.6446 79.8121 98.6446 83.757 62.0997 83.757C25.5548 83.757 26.1861 80.7074 -10.1756 79.822C-13.8311 79.733 -19.1343 80.8948 -19.1343 80.005C-19.1343 79.1157 -2.84634 79.1157 -2.84634 78.2264C-2.84634 77.3367 -19.1343 77.3367 -19.1343 76.447C-19.1343 75.5573 -2.84634 75.5569 -2.84634 74.6668C-2.84634 73.7767 -19.1343 73.7767 -19.1343 72.8866C-19.1343 71.9965 -2.84634 71.9965 -2.84634 71.1064C-2.84634 70.2163 -19.1343 70.2161 -19.1343 69.3257C-19.1343 68.4359 -2.84634 68.4359 -2.84634 67.546C-2.84634 66.6554 -19.1343 66.6554 -19.1343 65.7648C-19.1343 64.8735 -2.84634 64.8735 -2.84634 63.9823C-2.84634 63.091 -15.4678 60.3266 -11.8064 60.2373C24.5477 59.3505 25.5476 64.1722 62.0857 64.1722C98.6237 64.1722 98.6255 60.2274 135.165 60.2274C171.705 60.2274 171.706 64.1722 208.247 64.1722C244.787 64.1722 244.786 60.2274 281.325 60.2274C317.865 60.2274 317.866 64.1722 354.407 64.1722C390.948 64.1722 390.946 60.2274 427.485 60.2274C464.023 60.2274 464.024 64.1722 500.563 64.1722C537.103 64.1722 537.105 60.2274 573.646 60.2274C610.187 60.2274 610.186 64.1722 646.725 64.1722C683.265 64.1722 683.27 60.2274 719.815 60.2274C756.36 60.2274 755.729 63.277 792.091 64.1623C795.746 64.2513 801.049 63.0896 801.049 63.9794C801.049 64.8686 784.761 64.8686 784.761 65.7579C784.761 66.6472 801.049 66.6476 801.049 67.5373C801.049 68.427 784.761 68.4274 784.761 69.3175C784.761 70.2076 801.049 70.2076 801.049 71.0977C801.049 71.9878 784.761 71.9878 784.761 72.8779C784.761 73.7681 801.049 73.7683 801.049 74.6586C801.049 75.5485 784.761 75.5485 784.761 76.4383C784.761 77.3289 801.049 77.3289 801.049 78.2196C801.049 79.1108 784.199 79.5138 784.919 80.3878C786.515 82.3269 797.383 83.6577 793.721 83.7471Z" fill="#00813F"/>
<path d="M793.786 84.0908C757.432 84.9776 756.432 80.1559 719.894 80.1559C683.354 80.1559 683.354 84.1007 646.814 84.1007C610.273 84.1007 610.273 80.1559 573.733 80.1559C537.193 80.1559 537.193 84.1007 500.654 84.1007C464.113 84.1007 464.113 80.1559 427.572 80.1559C391.032 80.1559 391.034 84.1007 354.495 84.1007C317.955 84.1007 317.955 80.1559 281.416 80.1559C244.877 80.1559 244.875 84.1007 208.334 84.1007C171.794 84.1007 171.794 80.1559 135.254 80.1559C98.7091 80.1559 98.7091 84.1007 62.1641 84.1007C25.6192 84.1007 26.2506 81.0511 -10.1112 80.1658C-13.7667 80.0768 -19.0698 81.2385 -19.0698 80.3487C-19.0698 79.4594 -2.78188 79.4594 -2.78188 78.5702C-2.78188 77.6805 -19.0698 77.6805 -19.0698 76.7908C-19.0698 75.9011 -2.78188 75.9007 -2.78188 75.0106C-2.78188 74.1205 -19.0698 74.1205 -19.0698 73.2304C-19.0698 72.3403 -2.78188 72.3403 -2.78188 71.4502C-2.78188 70.56 -19.0698 70.5598 -19.0698 69.6695C-19.0698 68.7796 -2.78188 68.7796 -2.78188 67.8898C-2.78188 66.9992 -19.0698 66.9992 -19.0698 66.1085C-19.0698 65.2173 -2.78188 65.2173 -2.78188 64.326C-2.78188 63.4348 -15.4033 60.6704 -11.7419 60.581C24.6121 59.6943 25.6121 64.5159 62.1501 64.5159C98.6882 64.5159 98.6899 60.5711 135.23 60.5711C171.77 60.5711 171.77 64.5159 208.311 64.5159C244.852 64.5159 244.85 60.5711 281.39 60.5711C317.929 60.5711 317.931 64.5159 354.471 64.5159C391.012 64.5159 391.01 60.5711 427.549 60.5711C464.088 60.5711 464.089 64.5159 500.628 64.5159C537.167 64.5159 537.169 60.5711 573.71 60.5711C610.251 60.5711 610.25 64.5159 646.79 64.5159C683.33 64.5159 683.335 60.5711 719.88 60.5711C756.425 60.5711 755.793 63.6207 792.155 64.5061C795.811 64.595 801.114 63.4333 801.114 64.3231C801.114 65.2124 784.826 65.2124 784.826 66.1017C784.826 66.9914 801.114 66.9914 801.114 67.8811C801.114 68.7708 784.826 68.7712 784.826 69.6613C784.826 70.5514 801.114 70.5514 801.114 71.4415C801.114 72.3316 784.826 72.3316 784.826 73.2217C784.826 74.1118 801.114 74.112 801.114 75.0024C801.114 75.8922 784.826 75.8922 784.826 76.7821C784.826 77.6727 801.114 77.6727 801.114 78.5633C801.114 79.4545 784.263 79.8575 784.983 80.7315C786.579 82.6706 797.447 84.0015 793.786 84.0908Z" fill="#00803E"/>
<path d="M793.849 84.4336C757.495 85.3203 756.495 80.4987 719.957 80.4987C683.417 80.4987 683.417 84.4435 646.877 84.4435C610.336 84.4435 610.336 80.4987 573.796 80.4987C537.256 80.4987 537.256 84.4435 500.717 84.4435C464.176 84.4435 464.176 80.4987 427.635 80.4987C391.097 80.4987 391.097 84.4435 354.558 84.4435C318.018 84.4435 318.018 80.4987 281.479 80.4987C244.938 80.4987 244.938 84.4435 208.397 84.4435C171.857 84.4435 171.857 80.4987 135.317 80.4987C98.7721 80.4987 98.7721 84.4435 62.2271 84.4435C25.6822 84.4435 26.3136 81.3939 -10.0482 80.5086C-13.7037 80.4196 -19.0068 81.5813 -19.0068 80.6915C-19.0068 79.8022 -2.7189 79.8022 -2.7189 78.9129C-2.7189 78.0233 -19.0068 78.0233 -19.0068 77.1336C-19.0068 76.2439 -2.7189 76.2435 -2.7189 75.3534C-2.7189 74.4633 -19.0068 74.4633 -19.0068 73.5732C-19.0068 72.6831 -2.7189 72.6831 -2.7189 71.7929C-2.7189 70.9028 -19.0068 70.9026 -19.0068 70.0123C-19.0068 69.1224 -2.7189 69.1224 -2.7189 68.2326C-2.7189 67.3419 -19.0068 67.3419 -19.0068 66.4513C-19.0068 65.5601 -2.7189 65.5601 -2.7189 64.6688C-2.7189 63.7775 -15.3403 61.0131 -11.6789 60.9238C24.6751 60.037 25.675 64.8587 62.2131 64.8587C98.7512 64.8587 98.7529 60.9139 135.293 60.9139C171.833 60.9139 171.833 64.8587 208.374 64.8587C244.915 64.8587 244.913 60.9139 281.453 60.9139C317.992 60.9139 317.994 64.8587 354.534 64.8587C391.075 64.8587 391.073 60.9139 427.612 60.9139C464.151 60.9139 464.151 64.8587 500.691 64.8587C537.23 64.8587 537.232 60.9139 573.773 60.9139C610.314 60.9139 610.313 64.8587 646.853 64.8587C683.393 64.8587 683.398 60.9139 719.943 60.9139C756.488 60.9139 755.856 63.9635 792.218 64.8488C795.874 64.9378 801.177 63.7761 801.177 64.6659C801.177 65.5552 784.889 65.5552 784.889 66.4444C784.889 67.3341 801.177 67.3341 801.177 68.2238C801.177 69.1135 784.889 69.1139 784.889 70.004C784.889 70.8941 801.177 70.8941 801.177 71.7842C801.177 72.6743 784.889 72.6743 784.889 73.5645C784.889 74.4546 801.177 74.4548 801.177 75.3451C801.177 76.235 784.889 76.235 784.889 77.1248C784.889 78.0155 801.177 78.0155 801.177 78.9061C801.177 79.7973 784.326 80.2003 785.046 81.0743C786.642 83.0134 797.51 84.3442 793.849 84.4336Z" fill="#007E3E"/>
<mask id="mask2_124_1011" style="mask-type:luminance" maskUnits="userSpaceOnUse" x="21" y="55" width="763" height="37">
<path d="M783.85 55.2031H21.8501V91.8041H783.85V55.2031Z" fill="white"/>
</mask>
<g mask="url(#mask2_124_1011)">
<path d="M793.913 84.7768C757.559 85.6636 756.559 80.8419 720.021 80.8419C683.481 80.8419 683.481 84.7868 646.941 84.7868C610.4 84.7868 610.4 80.8419 573.86 80.8419C537.32 80.8419 537.32 84.7868 500.781 84.7868C464.24 84.7868 464.24 80.8419 427.699 80.8419C391.161 80.8419 391.161 84.7868 354.622 84.7868C318.082 84.7868 318.082 80.8419 281.543 80.8419C245.002 80.8419 245.002 84.7868 208.461 84.7868C171.921 84.7868 171.921 80.8419 135.381 80.8419C98.836 80.8419 98.836 84.7868 62.2911 84.7868C25.7462 84.7868 26.3775 81.7372 -9.98422 80.8518C-13.6397 80.7628 -18.9429 81.9245 -18.9429 81.0347C-18.9429 80.1455 -2.65493 80.1455 -2.65493 79.2562C-2.65493 78.3665 -18.9429 78.3665 -18.9429 77.4768C-18.9429 76.5871 -2.65493 76.5867 -2.65493 75.6966C-2.65493 74.8065 -18.9429 74.8065 -18.9429 73.9164C-18.9429 73.0263 -2.65493 73.0263 -2.65493 72.1362C-2.65493 71.2461 -18.9429 71.2459 -18.9429 70.3555C-18.9429 69.4657 -2.65493 69.4657 -2.65493 68.5758C-2.65493 67.6852 -18.9429 67.6852 -18.9429 66.7946C-18.9429 65.9033 -2.65493 65.9033 -2.65493 65.0121C-2.65493 64.1208 -15.2764 61.3564 -11.615 61.2671C24.7391 60.3803 25.739 65.202 62.2771 65.202C98.8151 65.202 98.8169 61.2571 135.357 61.2571C171.897 61.2571 171.897 65.202 208.438 65.202C244.978 65.202 244.977 61.2571 281.517 61.2571C318.056 61.2571 318.058 65.202 354.598 65.202C391.139 65.202 391.137 61.2571 427.676 61.2571C464.215 61.2571 464.215 65.202 500.755 65.202C537.294 65.202 537.296 61.2571 573.837 61.2571C610.378 61.2571 610.377 65.202 646.917 65.202C683.457 65.202 683.462 61.2571 720.007 61.2571C756.552 61.2571 755.92 64.3067 792.282 65.1921C795.938 65.2811 801.241 64.1194 801.241 65.0092C801.241 65.8984 784.953 65.8984 784.953 66.7877C784.953 67.6774 801.241 67.6774 801.241 68.5671C801.241 69.4568 784.953 69.4572 784.953 70.3473C784.953 71.2374 801.241 71.2374 801.241 72.1275C801.241 73.0176 784.953 73.0176 784.953 73.9077C784.953 74.7979 801.241 74.7981 801.241 75.6884C801.241 76.5783 784.953 76.5783 784.953 77.4681C784.953 78.3587 801.241 78.3587 801.241 79.2494C801.241 80.1406 784.39 80.5435 785.11 81.4175C786.706 83.3567 797.574 84.6875 793.913 84.7768Z" fill="#007D3D"/>
</g>
</g>
</g>
<g filter="url(#filter3_g_124_1011)">
<path d="M792 97.887L0 98C11.0086 97.9984 19.9316 87.749 19.9303 75.1072L772.065 75C772.066 87.6418 780.992 97.8886 792 97.887Z" fill="url(#paint4_linear_124_1011)"/>
</g>
<g clip-path="url(#clip0_124_1011)" filter="url(#filter4_g_124_1011)">
<path d="M772 98H20V148H772V98Z" fill="url(#paint5_linear_124_1011)"/>
</g>
<g filter="url(#filter5_d_124_1011)">
<path d="M739.548 187.31L44.4781 187.31C30.9683 187.31 20.0001 176.834 20.0001 163.93L20.0001 148L772 148L772 156.313C772 173.421 757.459 187.31 739.548 187.31Z" fill="url(#paint6_linear_124_1011)"/>
<path d="M449.26 172.2C451.825 173.065 450.964 174.841 447.337 176.167C443.71 177.492 436.127 177.001 436.127 177.001C436.127 177.001 434.423 174.359 438.05 173.034C441.677 171.708 446.696 171.335 449.26 172.2Z" fill="#FFF3CC"/>
<path d="M292.661 159.163C295.226 160.028 294.365 161.804 290.738 163.13C287.111 164.455 279.527 163.964 279.527 163.964C279.527 163.964 277.824 161.322 281.451 159.997C285.077 158.671 290.096 158.297 292.661 159.163Z" fill="#FFF3CC"/>
<path d="M101.097 177.122C103.662 177.987 102.801 179.763 99.174 181.089C95.5472 182.415 87.9635 181.923 87.9635 181.923C87.9635 181.923 86.2599 179.282 89.8866 177.956C93.5134 176.63 98.5324 176.257 101.097 177.122Z" fill="#FFF3CC"/>
<path d="M624.643 166.532C627.207 167.397 626.346 169.173 622.719 170.499C619.093 171.825 611.509 171.333 611.509 171.333C611.509 171.333 609.805 168.692 613.432 167.366C617.059 166.04 622.078 165.667 624.643 166.532Z" fill="#FFF3CC"/>
</g>
<g filter="url(#filter6_d_124_1011)">
<path d="M51.4422 5.67237e-06L746.292 0.000127164C759.798 0.000129525 770.763 10.4766 770.763 23.3806L770.763 39.3102L19 39.31L19 30.9975C19 13.8895 33.5369 2.54171e-06 51.4422 5.67237e-06Z" fill="url(#paint7_linear_124_1011)"/>
<path d="M341.638 15.1104C339.074 14.2452 339.935 12.4692 343.56 11.1434C347.186 9.81766 354.767 10.3094 354.767 10.3094C354.767 10.3094 356.47 12.9506 352.845 14.2764C349.219 15.6021 344.202 15.9755 341.638 15.1104Z" fill="#FFF3CC"/>
<path d="M498.188 28.1475C495.624 27.2823 496.485 25.5063 500.11 24.1805C503.736 22.8548 511.317 23.3465 511.317 23.3465C511.317 23.3465 513.02 25.9877 509.395 27.3135C505.769 28.6392 500.751 29.0126 498.188 28.1475Z" fill="#FFF3CC"/>
<path d="M689.691 10.188C687.127 9.32286 687.988 7.54684 691.614 6.22106C695.239 4.89529 702.82 5.38705 702.82 5.38705C702.82 5.38705 704.524 8.02822 700.898 9.35399C697.272 10.6798 692.255 11.0531 689.691 10.188Z" fill="#FFF3CC"/>
<path d="M166.311 20.7778C163.747 19.9127 164.608 18.1367 168.234 16.8109C171.859 15.4851 179.441 15.9769 179.441 15.9769C179.441 15.9769 181.144 18.6181 177.518 19.9438C173.892 21.2696 168.875 21.643 166.311 20.7778Z" fill="#FFF3CC"/>
</g>
<defs>
<filter id="filter0_g_124_1011" x="5" y="24" width="369.434" height="58.585" filterUnits="userSpaceOnUse" color-interpolation-filters="sRGB">
<feFlood flood-opacity="0" result="BackgroundImageFix"/>
<feBlend mode="normal" in="SourceGraphic" in2="BackgroundImageFix" result="shape"/>
<feTurbulence type="fractalNoise" baseFrequency="1.25 1.25" numOctaves="3" seed="2267" result="displacementX" />
<feTurbulence type="fractalNoise" baseFrequency="1.25 1.25" numOctaves="3" seed="2268" result="displacementY" />
<feColorMatrix in="displacementX" type="matrix" values="0 0 0 1 0  0 0 0 0 0  0 0 0 0 0  0 0 0 0 1" result="displacementXRed" />
<feColorMatrix in="displacementY" type="matrix" values="0 0 0 0 0  0 0 0 1 0  0 0 0 0 0  0 0 0 0 1" />
<feComposite in="displacementXRed" operator="arithmetic" k1="0" k2="1" k3="1" k4="0"/>
<feDisplacementMap in="shape" scale="30" xChannelSelector="R" yChannelSelector="G" width="100%" height="100%" />
<feColorMatrix type="matrix" values="0 0 0 0 0  0 0 0 0 0  0 0 0 0 0  0 0 0 1 0" />
<feComponentTransfer result="sourceDisplacedAlpha">
<feFuncA type="gamma" exponent="0.2" />
</feComponentTransfer>
<feColorMatrix in="shape" type="matrix" values="0 0 0 0 0  0 0 0 0 0  0 0 0 0 0  0 0 0 1 0" />
<feComponentTransfer result="inputSourceAlpha">
<feFuncA type="gamma" exponent="0.2" />
</feComponentTransfer>
<feComposite in="sourceDisplacedAlpha" operator="arithmetic" k1="1" k2="0" k3="0" k4="0" result="displacementAlphasMultiplied"/>
<feComposite in="displacementAlphasMultiplied"  operator="arithmetic" k1="0" k2="0" k3="-0.5" k4="0.5" result="centeringAdjustment"/>
<feComposite in="displacementX" in2="displacementAlphasMultiplied" operator="arithmetic" k1="1" k2="0" k3="0" k4="0" />
<feComposite in="centeringAdjustment" operator="arithmetic" k1="0" k2="1" k3="1" k4="0" />
<feColorMatrix  type="matrix" values="0 0 0 1 0  0 0 0 0 0  0 0 0 0 0  0 0 0 0 1" result="displacementXFinal" />
<feComposite in="displacementY" in2="displacementAlphasMultiplied" operator="arithmetic" k1="1" k2="0" k3="0" k4="0" />
<feComposite in="centeringAdjustment" operator="arithmetic" k1="0" k2="1" k3="1" k4="0" />
<feColorMatrix  type="matrix" values="0 0 0 0 0  0 0 0 1 0  0 0 0 0 0  0 0 0 0 1" result="displacementYFinal" />
<feComposite in="displacementXFinal" in2="displacementYFinal" operator="arithmetic" k1="0" k2="1" k3="1" k4="0" />
<feComposite in2="displacementAlphasMultiplied" operator="in" result="displacementMap" />
<feFlood flood-color="rgb(127, 127, 127)" flood-opacity="1"/>
<feComposite in2="displacementAlphasMultiplied" operator="out" />
<feComposite in2="displacementMap" operator="over" result="displacementMapWithBg"/>
<feDisplacementMap in="shape" scale="30" xChannelSelector="R" yChannelSelector="G" width="100%" height="100%" result="displacedImage" />
<feColorMatrix in="shape" type="matrix" values="1 0 0 0 0  0 1 0 0 0  0 0 1 0 0  0 0 0 127 0" result="imageOpaque" />
<feDisplacementMap in="imageOpaque" in2="displacementMapWithBg" scale="30" xChannelSelector="R" yChannelSelector="G" width="100%" height="100%" result="displacedImageOpaque" />
<feColorMatrix in="displacedImage" type="matrix" values="0 0 0 1 0  0 0 0 0 0  0 0 0 0 0  0 0 0 127 0" result="displacedImageRed" />
<feColorMatrix in="shape" type="matrix" values="0 0 0 1 0  0 0 0 0 0  0 0 0 0 0  0 0 0 127 0" />
<feComposite in="displacedImageRed"  operator="atop" result="transparencyRedMap"/>
<feColorMatrix in="transparencyRedMap" type="matrix" values="0 0 0 0 0  0 0 0 0 0  0 0 0 0 0  1 0 0 0 0" result="transparencyAlphaMap" />
<feComposite in="displacedImageOpaque" in2="imageOpaque" operator="over" />
<feComposite in2="transparencyAlphaMap" operator="in" result="effect1_texture_124_1011"/>
</filter>
<filter id="filter1_g_124_1011" x="413.328" y="24" width="373.911" height="58.585" filterUnits="userSpaceOnUse" color-interpolation-filters="sRGB">
<feFlood flood-opacity="0" result="BackgroundImageFix"/>
<feBlend mode="normal" in="SourceGraphic" in2="BackgroundImageFix" result="shape"/>
<feTurbulence type="fractalNoise" baseFrequency="1.25 1.25" numOctaves="3" seed="2267" result="displacementX" />
<feTurbulence type="fractalNoise" baseFrequency="1.25 1.25" numOctaves="3" seed="2268" result="displacementY" />
<feColorMatrix in="displacementX" type="matrix" values="0 0 0 1 0  0 0 0 0 0  0 0 0 0 0  0 0 0 0 1" result="displacementXRed" />
<feColorMatrix in="displacementY" type="matrix" values="0 0 0 0 0  0 0 0 1 0  0 0 0 0 0  0 0 0 0 1" />
<feComposite in="displacementXRed" operator="arithmetic" k1="0" k2="1" k3="1" k4="0"/>
<feDisplacementMap in="shape" scale="30" xChannelSelector="R" yChannelSelector="G" width="100%" height="100%" />
<feColorMatrix type="matrix" values="0 0 0 0 0  0 0 0 0 0  0 0 0 0 0  0 0 0 1 0" />
<feComponentTransfer result="sourceDisplacedAlpha">
<feFuncA type="gamma" exponent="0.2" />
</feComponentTransfer>
<feColorMatrix in="shape" type="matrix" values="0 0 0 0 0  0 0 0 0 0  0 0 0 0 0  0 0 0 1 0" />
<feComponentTransfer result="inputSourceAlpha">
<feFuncA type="gamma" exponent="0.2" />
</feComponentTransfer>
<feComposite in="sourceDisplacedAlpha" operator="arithmetic" k1="1" k2="0" k3="0" k4="0" result="displacementAlphasMultiplied"/>
<feComposite in="displacementAlphasMultiplied"  operator="arithmetic" k1="0" k2="0" k3="-0.5" k4="0.5" result="centeringAdjustment"/>
<feComposite in="displacementX" in2="displacementAlphasMultiplied" operator="arithmetic" k1="1" k2="0" k3="0" k4="0" />
<feComposite in="centeringAdjustment" operator="arithmetic" k1="0" k2="1" k3="1" k4="0" />
<feColorMatrix  type="matrix" values="0 0 0 1 0  0 0 0 0 0  0 0 0 0 0  0 0 0 0 1" result="displacementXFinal" />
<feComposite in="displacementY" in2="displacementAlphasMultiplied" operator="arithmetic" k1="1" k2="0" k3="0" k4="0" />
<feComposite in="centeringAdjustment" operator="arithmetic" k1="0" k2="1" k3="1" k4="0" />
<feColorMatrix  type="matrix" values="0 0 0 0 0  0 0 0 1 0  0 0 0 0 0  0 0 0 0 1" result="displacementYFinal" />
<feComposite in="displacementXFinal" in2="displacementYFinal" operator="arithmetic" k1="0" k2="1" k3="1" k4="0" />
<feComposite in2="displacementAlphasMultiplied" operator="in" result="displacementMap" />
<feFlood flood-color="rgb(127, 127, 127)" flood-opacity="1"/>
<feComposite in2="displacementAlphasMultiplied" operator="out" />
<feComposite in2="displacementMap" operator="over" result="displacementMapWithBg"/>
<feDisplacementMap in="shape" scale="30" xChannelSelector="R" yChannelSelector="G" width="100%" height="100%" result="displacedImage" />
<feColorMatrix in="shape" type="matrix" values="1 0 0 0 0  0 1 0 0 0  0 0 1 0 0  0 0 0 127 0" result="imageOpaque" />
<feDisplacementMap in="imageOpaque" in2="displacementMapWithBg" scale="30" xChannelSelector="R" yChannelSelector="G" width="100%" height="100%" result="displacedImageOpaque" />
<feColorMatrix in="displacedImage" type="matrix" values="0 0 0 1 0  0 0 0 0 0  0 0 0 0 0  0 0 0 127 0" result="displacedImageRed" />
<feColorMatrix in="shape" type="matrix" values="0 0 0 1 0  0 0 0 0 0  0 0 0 0 0  0 0 0 127 0" />
<feComposite in="displacedImageRed"  operator="atop" result="transparencyRedMap"/>
<feColorMatrix in="transparencyRedMap" type="matrix" values="0 0 0 0 0  0 0 0 0 0  0 0 0 0 0  1 0 0 0 0" result="transparencyAlphaMap" />
<feComposite in="displacedImageOpaque" in2="imageOpaque" operator="over" />
<feComposite in2="transparencyAlphaMap" operator="in" result="effect1_texture_124_1011"/>
</filter>
<filter id="filter2_g_124_1011" x="3.9" y="35.1051" width="784.439" height="65.8807" filterUnits="userSpaceOnUse" color-interpolation-filters="sRGB">
<feFlood flood-opacity="0" result="BackgroundImageFix"/>
<feBlend mode="normal" in="SourceGraphic" in2="BackgroundImageFix" result="shape"/>
<feTurbulence type="fractalNoise" baseFrequency="1.1111111640930176 1.1111111640930176" numOctaves="3" seed="2461" result="displacementX" />
<feTurbulence type="fractalNoise" baseFrequency="1.1111111640930176 1.1111111640930176" numOctaves="3" seed="2462" result="displacementY" />
<feColorMatrix in="displacementX" type="matrix" values="0 0 0 1 0  0 0 0 0 0  0 0 0 0 0  0 0 0 0 1" result="displacementXRed" />
<feColorMatrix in="displacementY" type="matrix" values="0 0 0 0 0  0 0 0 1 0  0 0 0 0 0  0 0 0 0 1" />
<feComposite in="displacementXRed" operator="arithmetic" k1="0" k2="1" k3="1" k4="0"/>
<feDisplacementMap in="shape" scale="32.200000762939453" xChannelSelector="R" yChannelSelector="G" width="100%" height="100%" />
<feColorMatrix type="matrix" values="0 0 0 0 0  0 0 0 0 0  0 0 0 0 0  0 0 0 1 0" />
<feComponentTransfer result="sourceDisplacedAlpha">
<feFuncA type="gamma" exponent="0.2" />
</feComponentTransfer>
<feColorMatrix in="shape" type="matrix" values="0 0 0 0 0  0 0 0 0 0  0 0 0 0 0  0 0 0 1 0" />
<feComponentTransfer result="inputSourceAlpha">
<feFuncA type="gamma" exponent="0.2" />
</feComponentTransfer>
<feComposite in="sourceDisplacedAlpha" operator="arithmetic" k1="1" k2="0" k3="0" k4="0" result="displacementAlphasMultiplied"/>
<feComposite in="displacementAlphasMultiplied"  operator="arithmetic" k1="0" k2="0" k3="-0.5" k4="0.5" result="centeringAdjustment"/>
<feComposite in="displacementX" in2="displacementAlphasMultiplied" operator="arithmetic" k1="1" k2="0" k3="0" k4="0" />
<feComposite in="centeringAdjustment" operator="arithmetic" k1="0" k2="1" k3="1" k4="0" />
<feColorMatrix  type="matrix" values="0 0 0 1 0  0 0 0 0 0  0 0 0 0 0  0 0 0 0 1" result="displacementXFinal" />
<feComposite in="displacementY" in2="displacementAlphasMultiplied" operator="arithmetic" k1="1" k2="0" k3="0" k4="0" />
<feComposite in="centeringAdjustment" operator="arithmetic" k1="0" k2="1" k3="1" k4="0" />
<feColorMatrix  type="matrix" values="0 0 0 0 0  0 0 0 1 0  0 0 0 0 0  0 0 0 0 1" result="displacementYFinal" />
<feComposite in="displacementXFinal" in2="displacementYFinal" operator="arithmetic" k1="0" k2="1" k3="1" k4="0" />
<feComposite in2="displacementAlphasMultiplied" operator="in" result="displacementMap" />
<feFlood flood-color="rgb(127, 127, 127)" flood-opacity="1"/>
<feComposite in2="displacementAlphasMultiplied" operator="out" />
<feComposite in2="displacementMap" operator="over" result="displacementMapWithBg"/>
<feDisplacementMap in="shape" scale="32.200000762939453" xChannelSelector="R" yChannelSelector="G" width="100%" height="100%" result="displacedImage" />
<feColorMatrix in="shape" type="matrix" values="1 0 0 0 0  0 1 0 0 0  0 0 1 0 0  0 0 0 127 0" result="imageOpaque" />
<feDisplacementMap in="imageOpaque" in2="displacementMapWithBg" scale="32.200000762939453" xChannelSelector="R" yChannelSelector="G" width="100%" height="100%" result="displacedImageOpaque" />
<feColorMatrix in="displacedImage" type="matrix" values="0 0 0 1 0  0 0 0 0 0  0 0 0 0 0  0 0 0 127 0" result="displacedImageRed" />
<feColorMatrix in="shape" type="matrix" values="0 0 0 1 0  0 0 0 0 0  0 0 0 0 0  0 0 0 127 0" />
<feComposite in="displacedImageRed"  operator="atop" result="transparencyRedMap"/>
<feColorMatrix in="transparencyRedMap" type="matrix" values="0 0 0 0 0  0 0 0 0 0  0 0 0 0 0  1 0 0 0 0" result="transparencyAlphaMap" />
<feComposite in="displacedImageOpaque" in2="imageOpaque" operator="over" />
<feComposite in2="transparencyAlphaMap" operator="in" result="effect1_texture_124_1011"/>
</filter>
<filter id="filter3_g_124_1011" x="-8.5" y="66.5" width="809" height="40" filterUnits="userSpaceOnUse" color-interpolation-filters="sRGB">
<feFlood flood-opacity="0" result="BackgroundImageFix"/>
<feBlend mode="normal" in="SourceGraphic" in2="BackgroundImageFix" result="shape"/>
<feTurbulence type="fractalNoise" baseFrequency="1.25 1.25" numOctaves="3" seed="5733" result="displacementX" />
<feTurbulence type="fractalNoise" baseFrequency="1.25 1.25" numOctaves="3" seed="5734" result="displacementY" />
<feColorMatrix in="displacementX" type="matrix" values="0 0 0 1 0  0 0 0 0 0  0 0 0 0 0  0 0 0 0 1" result="displacementXRed" />
<feColorMatrix in="displacementY" type="matrix" values="0 0 0 0 0  0 0 0 1 0  0 0 0 0 0  0 0 0 0 1" />
<feComposite in="displacementXRed" operator="arithmetic" k1="0" k2="1" k3="1" k4="0"/>
<feDisplacementMap in="shape" scale="17" xChannelSelector="R" yChannelSelector="G" width="100%" height="100%" />
<feColorMatrix type="matrix" values="0 0 0 0 0  0 0 0 0 0  0 0 0 0 0  0 0 0 1 0" />
<feComponentTransfer result="sourceDisplacedAlpha">
<feFuncA type="gamma" exponent="0.2" />
</feComponentTransfer>
<feColorMatrix in="shape" type="matrix" values="0 0 0 0 0  0 0 0 0 0  0 0 0 0 0  0 0 0 1 0" />
<feComponentTransfer result="inputSourceAlpha">
<feFuncA type="gamma" exponent="0.2" />
</feComponentTransfer>
<feComposite in="sourceDisplacedAlpha" operator="arithmetic" k1="1" k2="0" k3="0" k4="0" result="displacementAlphasMultiplied"/>
<feComposite in="displacementAlphasMultiplied"  operator="arithmetic" k1="0" k2="0" k3="-0.5" k4="0.5" result="centeringAdjustment"/>
<feComposite in="displacementX" in2="displacementAlphasMultiplied" operator="arithmetic" k1="1" k2="0" k3="0" k4="0" />
<feComposite in="centeringAdjustment" operator="arithmetic" k1="0" k2="1" k3="1" k4="0" />
<feColorMatrix  type="matrix" values="0 0 0 1 0  0 0 0 0 0  0 0 0 0 0  0 0 0 0 1" result="displacementXFinal" />
<feComposite in="displacementY" in2="displacementAlphasMultiplied" operator="arithmetic" k1="1" k2="0" k3="0" k4="0" />
<feComposite in="centeringAdjustment" operator="arithmetic" k1="0" k2="1" k3="1" k4="0" />
<feColorMatrix  type="matrix" values="0 0 0 0 0  0 0 0 1 0  0 0 0 0 0  0 0 0 0 1" result="displacementYFinal" />
<feComposite in="displacementXFinal" in2="displacementYFinal" operator="arithmetic" k1="0" k2="1" k3="1" k4="0" />
<feComposite in2="displacementAlphasMultiplied" operator="in" result="displacementMap" />
<feFlood flood-color="rgb(127, 127, 127)" flood-opacity="1"/>
<feComposite in2="displacementAlphasMultiplied" operator="out" />
<feComposite in2="displacementMap" operator="over" result="displacementMapWithBg"/>
<feDisplacementMap in="shape" scale="17" xChannelSelector="R" yChannelSelector="G" width="100%" height="100%" result="displacedImage" />
<feColorMatrix in="shape" type="matrix" values="1 0 0 0 0  0 1 0 0 0  0 0 1 0 0  0 0 0 127 0" result="imageOpaque" />
<feDisplacementMap in="imageOpaque" in2="displacementMapWithBg" scale="17" xChannelSelector="R" yChannelSelector="G" width="100%" height="100%" result="displacedImageOpaque" />
<feColorMatrix in="displacedImage" type="matrix" values="0 0 0 1 0  0 0 0 0 0  0 0 0 0 0  0 0 0 127 0" result="displacedImageRed" />
<feColorMatrix in="shape" type="matrix" values="0 0 0 1 0  0 0 0 0 0  0 0 0 0 0  0 0 0 127 0" />
<feComposite in="displacedImageRed"  operator="atop" result="transparencyRedMap"/>
<feColorMatrix in="transparencyRedMap" type="matrix" values="0 0 0 0 0  0 0 0 0 0  0 0 0 0 0  1 0 0 0 0" result="transparencyAlphaMap" />
<feComposite in="displacedImageOpaque" in2="imageOpaque" operator="over" />
<feComposite in2="transparencyAlphaMap" operator="in" result="effect1_texture_124_1011"/>
</filter>
<filter id="filter4_g_124_1011" x="7.6" y="85.6" width="776.8" height="74.8" filterUnits="userSpaceOnUse" color-interpolation-filters="sRGB">
<feFlood flood-opacity="0" result="BackgroundImageFix"/>
<feBlend mode="normal" in="SourceGraphic" in2="BackgroundImageFix" result="shape"/>
<feTurbulence type="fractalNoise" baseFrequency="0.90909087657928467 0.90909087657928467" numOctaves="3" seed="3752" result="displacementX" />
<feTurbulence type="fractalNoise" baseFrequency="0.90909087657928467 0.90909087657928467" numOctaves="3" seed="3753" result="displacementY" />
<feColorMatrix in="displacementX" type="matrix" values="0 0 0 1 0  0 0 0 0 0  0 0 0 0 0  0 0 0 0 1" result="displacementXRed" />
<feColorMatrix in="displacementY" type="matrix" values="0 0 0 0 0  0 0 0 1 0  0 0 0 0 0  0 0 0 0 1" />
<feComposite in="displacementXRed" operator="arithmetic" k1="0" k2="1" k3="1" k4="0"/>
<feDisplacementMap in="shape" scale="24.799999237060547" xChannelSelector="R" yChannelSelector="G" width="100%" height="100%" />
<feColorMatrix type="matrix" values="0 0 0 0 0  0 0 0 0 0  0 0 0 0 0  0 0 0 1 0" />
<feComponentTransfer result="sourceDisplacedAlpha">
<feFuncA type="gamma" exponent="0.2" />
</feComponentTransfer>
<feColorMatrix in="shape" type="matrix" values="0 0 0 0 0  0 0 0 0 0  0 0 0 0 0  0 0 0 1 0" />
<feComponentTransfer result="inputSourceAlpha">
<feFuncA type="gamma" exponent="0.2" />
</feComponentTransfer>
<feComposite in="sourceDisplacedAlpha" operator="arithmetic" k1="1" k2="0" k3="0" k4="0" result="displacementAlphasMultiplied"/>
<feComposite in="displacementAlphasMultiplied"  operator="arithmetic" k1="0" k2="0" k3="-0.5" k4="0.5" result="centeringAdjustment"/>
<feComposite in="displacementX" in2="displacementAlphasMultiplied" operator="arithmetic" k1="1" k2="0" k3="0" k4="0" />
<feComposite in="centeringAdjustment" operator="arithmetic" k1="0" k2="1" k3="1" k4="0" />
<feColorMatrix  type="matrix" values="0 0 0 1 0  0 0 0 0 0  0 0 0 0 0  0 0 0 0 1" result="displacementXFinal" />
<feComposite in="displacementY" in2="displacementAlphasMultiplied" operator="arithmetic" k1="1" k2="0" k3="0" k4="0" />
<feComposite in="centeringAdjustment" operator="arithmetic" k1="0" k2="1" k3="1" k4="0" />
<feColorMatrix  type="matrix" values="0 0 0 0 0  0 0 0 1 0  0 0 0 0 0  0 0 0 0 1" result="displacementYFinal" />
<feComposite in="displacementXFinal" in2="displacementYFinal" operator="arithmetic" k1="0" k2="1" k3="1" k4="0" />
<feComposite in2="displacementAlphasMultiplied" operator="in" result="displacementMap" />
<feFlood flood-color="rgb(127, 127, 127)" flood-opacity="1"/>
<feComposite in2="displacementAlphasMultiplied" operator="out" />
<feComposite in2="displacementMap" operator="over" result="displacementMapWithBg"/>
<feDisplacementMap in="shape" scale="24.799999237060547" xChannelSelector="R" yChannelSelector="G" width="100%" height="100%" result="displacedImage" />
<feColorMatrix in="shape" type="matrix" values="1 0 0 0 0  0 1 0 0 0  0 0 1 0 0  0 0 0 127 0" result="imageOpaque" />
<feDisplacementMap in="imageOpaque" in2="displacementMapWithBg" scale="24.799999237060547" xChannelSelector="R" yChannelSelector="G" width="100%" height="100%" result="displacedImageOpaque" />
<feColorMatrix in="displacedImage" type="matrix" values="0 0 0 1 0  0 0 0 0 0  0 0 0 0 0  0 0 0 127 0" result="displacedImageRed" />
<feColorMatrix in="shape" type="matrix" values="0 0 0 1 0  0 0 0 0 0  0 0 0 0 0  0 0 0 127 0" />
<feComposite in="displacedImageRed"  operator="atop" result="transparencyRedMap"/>
<feColorMatrix in="transparencyRedMap" type="matrix" values="0 0 0 0 0  0 0 0 0 0  0 0 0 0 0  1 0 0 0 0" result="transparencyAlphaMap" />
<feComposite in="displacedImageOpaque" in2="imageOpaque" operator="over" />
<feComposite in2="transparencyAlphaMap" operator="in" result="effect1_texture_124_1011"/>
</filter>
<filter id="filter5_d_124_1011" x="4.7" y="130.7" width="782.6" height="69.9101" filterUnits="userSpaceOnUse" color-interpolation-filters="sRGB">
<feFlood flood-opacity="0" result="BackgroundImageFix"/>
<feColorMatrix in="SourceAlpha" type="matrix" values="0 0 0 0 0 0 0 0 0 0 0 0 0 0 0 0 0 0 127 0" result="hardAlpha"/>
<feOffset dy="-2"/>
<feGaussianBlur stdDeviation="7.65"/>
<feComposite in2="hardAlpha" operator="out"/>
<feColorMatrix type="matrix" values="0 0 0 0 0 0 0 0 0 0 0 0 0 0 0 0 0 0 0.08 0"/>
<feBlend mode="normal" in2="BackgroundImageFix" result="effect1_dropShadow_124_1011"/>
<feBlend mode="normal" in="SourceGraphic" in2="effect1_dropShadow_124_1011" result="shape"/>
</filter>
<filter id="filter6_d_124_1011" x="16.7" y="0" width="756.363" height="44.6101" filterUnits="userSpaceOnUse" color-interpolation-filters="sRGB">
<feFlood flood-opacity="0" result="BackgroundImageFix"/>
<feColorMatrix in="SourceAlpha" type="matrix" values="0 0 0 0 0 0 0 0 0 0 0 0 0 0 0 0 0 0 127 0" result="hardAlpha"/>
<feOffset dy="3"/>
<feGaussianBlur stdDeviation="1.15"/>
<feComposite in2="hardAlpha" operator="out"/>
<feColorMatrix type="matrix" values="0 0 0 0 0 0 0 0 0 0 0 0 0 0 0 0 0 0 0.27 0"/>
<feBlend mode="normal" in2="BackgroundImageFix" result="effect1_dropShadow_124_1011"/>
<feBlend mode="normal" in="SourceGraphic" in2="effect1_dropShadow_124_1011" result="shape"/>
</filter>
<linearGradient id="paint0_linear_124_1011" x1="189.717" y1="41.8709" x2="189.717" y2="63.4125" gradientUnits="userSpaceOnUse">
<stop stop-color="#F42B00"/>
<stop offset="1" stop-color="#BA0000"/>
</linearGradient>
<linearGradient id="paint1_linear_124_1011" x1="189.717" y1="40.2582" x2="189.717" y2="46.8351" gradientUnits="userSpaceOnUse">
<stop stop-color="#F46400"/>
<stop offset="1" stop-color="#BA0000"/>
</linearGradient>
<linearGradient id="paint2_linear_124_1011" x1="600.284" y1="41.8709" x2="600.284" y2="63.4125" gradientUnits="userSpaceOnUse">
<stop stop-color="#F42B00"/>
<stop offset="1" stop-color="#BA0000"/>
</linearGradient>
<linearGradient id="paint3_linear_124_1011" x1="600.283" y1="40.2582" x2="600.283" y2="46.8351" gradientUnits="userSpaceOnUse">
<stop stop-color="#F46400"/>
<stop offset="1" stop-color="#BA0000"/>
</linearGradient>
<linearGradient id="paint4_linear_124_1011" x1="395.999" y1="97.9995" x2="395.999" y2="75.1109" gradientUnits="userSpaceOnUse">
<stop stop-color="#FFD600"/>
<stop offset="1" stop-color="#E7962F"/>
</linearGradient>
<linearGradient id="paint5_linear_124_1011" x1="396" y1="148" x2="396" y2="98" gradientUnits="userSpaceOnUse">
<stop stop-color="#FCA378"/>
<stop offset="0.3912" stop-color="#FBA176"/>
<stop offset="0.5501" stop-color="#FB9E6E"/>
<stop offset="0.6669" stop-color="#FA9762"/>
<stop offset="0.763" stop-color="#F98E51"/>
<stop offset="0.8464" stop-color="#F7823A"/>
<stop offset="0.9197" stop-color="#F6741E"/>
<stop offset="0.9835" stop-color="#F46400"/>
</linearGradient>
<linearGradient id="paint6_linear_124_1011" x1="396" y1="187.31" x2="396" y2="148" gradientUnits="userSpaceOnUse">
<stop offset="0.413462" stop-color="#FFE9B0"/>
<stop offset="0.846154" stop-color="#F3C38F"/>
<stop offset="0.9986" stop-color="#E8A171"/>
</linearGradient>
<linearGradient id="paint7_linear_124_1011" x1="394.881" y1="6.57212e-05" x2="394.881" y2="39.3101" gradientUnits="userSpaceOnUse">
<stop offset="0.413462" stop-color="#FFE9B0"/>
<stop offset="0.846154" stop-color="#F3C38F"/>
<stop offset="0.9986" stop-color="#E8A171"/>
</linearGradient>
<clipPath id="clip0_124_1011">
<rect width="752" height="50" fill="white" transform="translate(20 98)"/>
</clipPath>
</defs>
</svg>
