<svg width="800" height="193" viewBox="0 0 800 193" fill="none" xmlns="http://www.w3.org/2000/svg">
<g filter="url(#filter0_d_124_562)">
<path d="M193.663 39C99.9606 39 24 41.0207 24 43.5134V63.0715C24 65.5642 99.9606 67.5849 193.663 67.5849C287.365 67.5849 363.326 65.5642 363.326 63.0715V43.5134C363.326 41.0207 287.365 39 193.663 39Z" fill="url(#paint0_linear_124_562)"/>
<path d="M193.663 47.8152C286.048 47.8152 360.941 45.8615 360.941 43.4515C360.941 41.0416 286.048 39.0879 193.663 39.0879C101.277 39.0879 26.3838 41.0416 26.3838 43.4515C26.3838 45.8615 101.277 47.8152 193.663 47.8152Z" fill="url(#paint1_linear_124_562)"/>
<path d="M604.099 39C509.161 39 432.198 41.0207 432.198 43.5134V63.0715C432.198 65.5642 509.161 67.5849 604.099 67.5849C699.037 67.5849 776 65.5642 776 63.0715V43.5134C776 41.0207 699.037 39 604.099 39Z" fill="url(#paint2_linear_124_562)"/>
<path d="M604.099 47.8152C697.703 47.8152 773.585 45.8615 773.585 43.4515C773.585 41.0416 697.703 39.0879 604.099 39.0879C510.495 39.0879 434.614 41.0416 434.614 43.4515C434.614 45.8615 510.495 47.8152 604.099 47.8152Z" fill="url(#paint3_linear_124_562)"/>
</g>
<g filter="url(#filter1_d_124_562)">
<mask id="mask0_124_562" style="mask-type:luminance" maskUnits="userSpaceOnUse" x="24" y="43" width="752" height="55">
<path d="M776 43.0024H24V97.904H776V43.0024Z" fill="white"/>
</mask>
<g mask="url(#mask0_124_562)">
<mask id="mask1_124_562" style="mask-type:luminance" maskUnits="userSpaceOnUse" x="24" y="45" width="762" height="37">
<path d="M785.758 45.25H24V81.851H785.758V45.25Z" fill="white"/>
</mask>
<g mask="url(#mask1_124_562)">
<path d="M795.818 74.8237C759.475 75.7105 758.476 70.8888 721.949 70.8888C685.421 70.8888 685.421 74.8336 648.893 74.8336C612.364 74.8336 612.364 70.8888 575.835 70.8888C539.307 70.8888 539.307 74.8336 502.779 74.8336C466.25 74.8336 466.25 70.8888 429.721 70.8888C393.193 70.8888 393.193 74.8336 356.666 74.8336C320.138 74.8336 320.138 70.8888 283.611 70.8888C247.081 70.8888 247.081 74.8336 210.552 74.8336C174.023 74.8336 174.023 70.8888 137.495 70.8888C100.962 70.8888 100.962 74.8336 64.4284 74.8336C27.8951 74.8336 28.5262 71.784 -7.82397 70.8987C-11.4783 70.8097 -16.7798 71.9714 -16.7798 71.0816C-16.7798 70.1924 -0.497016 70.1924 -0.497016 69.3031C-0.497016 68.4134 -16.7798 68.4134 -16.7798 67.5237C-16.7798 66.634 -0.497016 66.6336 -0.497016 65.7435C-0.497016 64.8534 -16.7798 64.8534 -16.7798 63.9633C-16.7798 63.0732 -0.497016 63.0732 -0.497016 62.1831C-0.497016 61.2929 -16.7798 61.2927 -16.7798 60.4024C-16.7798 59.5125 -0.497016 59.5125 -0.497016 58.6227C-0.497016 57.7321 -16.7798 57.7321 -16.7798 56.8414C-16.7798 55.9502 -0.497016 55.9502 -0.497016 55.0589C-0.497016 54.1677 -13.1144 51.4033 -9.4542 51.3139C26.8883 50.4272 27.8879 55.2489 64.4144 55.2489C100.941 55.2489 100.943 51.304 137.471 51.304C173.999 51.304 174 55.2489 210.529 55.2489C247.058 55.2489 247.057 51.304 283.584 51.304C320.112 51.304 320.114 55.2489 356.643 55.2489C393.172 55.2489 393.17 51.304 429.697 51.304C466.225 51.304 466.225 55.2489 502.753 55.2489C539.281 55.2489 539.282 51.304 575.812 51.304C612.341 51.304 612.34 55.2489 648.869 55.2489C685.397 55.2489 685.402 51.304 721.935 51.304C758.469 51.304 757.837 54.3536 794.188 55.239C797.842 55.328 803.143 54.1662 803.143 55.056C803.143 55.9453 786.861 55.9453 786.861 56.8346C786.861 57.7238 803.143 57.7243 803.143 58.614C803.143 59.5037 786.861 59.5041 786.861 60.3942C786.861 61.2843 803.143 61.2843 803.143 62.1744C803.143 63.0645 786.861 63.0645 786.861 63.9546C786.861 64.8447 803.143 64.8449 803.143 65.7353C803.143 66.6251 786.861 66.6251 786.861 67.515C786.861 68.4056 803.143 68.4056 803.143 69.2962C803.143 70.1875 786.298 70.5904 787.018 71.4644C788.614 73.4035 799.478 74.7344 795.818 74.8237Z" fill="#00A651"/>
</g>
<path d="M795.882 75.167C759.54 76.0537 758.54 71.2321 722.014 71.2321C685.485 71.2321 685.485 75.1769 648.957 75.1769C612.428 75.1769 612.428 71.2321 575.899 71.2321C539.371 71.2321 539.371 75.1769 502.844 75.1769C466.314 75.1769 466.314 71.2321 429.785 71.2321C393.258 71.2321 393.258 75.1769 356.731 75.1769C320.203 75.1769 320.203 71.2321 283.675 71.2321C247.146 71.2321 247.146 75.1769 210.616 75.1769C174.088 75.1769 174.088 71.2321 137.56 71.2321C101.026 71.2321 101.026 75.1769 64.4928 75.1769C27.9595 75.1769 28.5907 72.1273 -7.75952 71.242C-11.4139 71.153 -16.7153 72.3147 -16.7153 71.4249C-16.7153 70.5356 -0.432563 70.5356 -0.432563 69.6464C-0.432563 68.7567 -16.7153 68.7567 -16.7153 67.867C-16.7153 66.9773 -0.432563 66.9769 -0.432563 66.0868C-0.432563 65.1967 -16.7153 65.1967 -16.7153 64.3066C-16.7153 63.4165 -0.432563 63.4165 -0.432563 62.5263C-0.432563 61.6362 -16.7153 61.636 -16.7153 60.7457C-16.7153 59.8558 -0.432563 59.8558 -0.432563 58.966C-0.432563 58.0753 -16.7153 58.0753 -16.7153 57.1847C-16.7153 56.2935 -0.432563 56.2935 -0.432563 55.4022C-0.432563 54.5109 -13.05 51.7465 -9.38975 51.6572C26.9528 50.7704 27.9524 55.5921 64.4788 55.5921C101.005 55.5921 101.007 51.6473 137.535 51.6473C174.064 51.6473 174.064 55.5921 210.593 55.5921C247.122 55.5921 247.121 51.6473 283.649 51.6473C320.177 51.6473 320.178 55.5921 356.707 55.5921C393.237 55.5921 393.235 51.6473 429.762 51.6473C466.289 51.6473 466.29 55.5921 502.817 55.5921C539.345 55.5921 539.347 51.6473 575.876 51.6473C612.406 51.6473 612.405 55.5921 648.933 55.5921C685.461 55.5921 685.466 51.6473 722 51.6473C758.533 51.6473 757.902 54.6969 794.252 55.5822C797.906 55.6712 803.208 54.5095 803.208 55.3993C803.208 56.2886 786.925 56.2886 786.925 57.1778C786.925 58.0671 803.208 58.0675 803.208 58.9572C803.208 59.8469 786.925 59.8473 786.925 60.7374C786.925 61.6275 803.208 61.6275 803.208 62.5176C803.208 63.4077 786.925 63.4077 786.925 64.2979C786.925 65.188 803.208 65.1882 803.208 66.0785C803.208 66.9684 786.925 66.9684 786.925 67.8582C786.925 68.7489 803.208 68.7489 803.208 69.6395C803.208 70.5307 786.363 70.9337 787.082 71.8077C788.678 73.7468 799.542 75.0776 795.882 75.167Z" fill="#00A550"/>
<path d="M795.946 75.5102C759.604 76.397 758.604 71.5753 722.078 71.5753C685.549 71.5753 685.549 75.5202 649.021 75.5202C612.492 75.5202 612.492 71.5753 575.963 71.5753C539.435 71.5753 539.435 75.5202 502.908 75.5202C466.378 75.5202 466.378 71.5753 429.849 71.5753C393.322 71.5753 393.322 75.5202 356.795 75.5202C320.267 75.5202 320.267 71.5753 283.739 71.5753C247.21 71.5753 247.21 75.5202 210.68 75.5202C174.152 75.5202 174.152 71.5753 137.623 71.5753C101.09 71.5753 101.09 75.5202 64.5568 75.5202C28.0235 75.5202 28.6547 72.4706 -7.69555 71.5852C-11.3499 71.4962 -16.6514 72.6579 -16.6514 71.7681C-16.6514 70.8789 -0.368595 70.8789 -0.368595 69.9896C-0.368595 69.0999 -16.6514 69.0999 -16.6514 68.2102C-16.6514 67.3205 -0.368595 67.3201 -0.368595 66.43C-0.368595 65.5399 -16.6514 65.5399 -16.6514 64.6498C-16.6514 63.7597 -0.368595 63.7597 -0.368595 62.8696C-0.368595 61.9795 -16.6514 61.9793 -16.6514 61.0889C-16.6514 60.1991 -0.368595 60.1991 -0.368595 59.3092C-0.368595 58.4186 -16.6514 58.4186 -16.6514 57.528C-16.6514 56.6367 -0.368595 56.6367 -0.368595 55.7455C-0.368595 54.8542 -12.986 52.0898 -9.32578 52.0005C27.0167 51.1137 28.0163 55.9354 64.5428 55.9354C101.069 55.9354 101.071 51.9905 137.599 51.9905C174.128 51.9905 174.128 55.9354 210.657 55.9354C247.186 55.9354 247.185 51.9905 283.713 51.9905C320.24 51.9905 320.242 55.9354 356.771 55.9354C393.301 55.9354 393.299 51.9905 429.826 51.9905C466.353 51.9905 466.354 55.9354 502.881 55.9354C539.409 55.9354 539.411 51.9905 575.94 51.9905C612.47 51.9905 612.469 55.9354 648.997 55.9354C685.525 55.9354 685.53 51.9905 722.064 51.9905C758.597 51.9905 757.966 55.0401 794.316 55.9255C797.97 56.0145 803.272 54.8528 803.272 55.7426C803.272 56.6318 786.989 56.6318 786.989 57.5211C786.989 58.4108 803.272 58.4108 803.272 59.3005C803.272 60.1902 786.989 60.1906 786.989 61.0807C786.989 61.9708 803.272 61.9708 803.272 62.8609C803.272 63.751 786.989 63.751 786.989 64.6411C786.989 65.5313 803.272 65.5315 803.272 66.4218C803.272 67.3117 786.989 67.3117 786.989 68.2015C786.989 69.0921 803.272 69.0921 803.272 69.9828C803.272 70.874 786.427 71.2769 787.146 72.1509C788.742 74.0901 799.606 75.4209 795.946 75.5102Z" fill="#00A350"/>
<path d="M796.01 75.8535C759.667 76.7403 758.667 71.9186 722.141 71.9186C685.613 71.9186 685.613 75.8634 649.085 75.8634C612.556 75.8634 612.556 71.9186 576.027 71.9186C539.499 71.9186 539.499 75.8634 502.971 75.8634C466.442 75.8634 466.442 71.9186 429.913 71.9186C393.385 71.9186 393.385 75.8634 356.858 75.8634C320.33 75.8634 320.33 71.9186 283.803 71.9186C247.273 71.9186 247.273 75.8634 210.744 75.8634C174.215 75.8634 174.215 71.9186 137.687 71.9186C101.154 71.9186 101.154 75.8634 64.6203 75.8634C28.087 75.8634 28.7181 72.8138 -7.63208 71.9285C-11.2864 71.8395 -16.5879 73.0012 -16.5879 72.1114C-16.5879 71.2221 -0.305119 71.2221 -0.305119 70.3329C-0.305119 69.4432 -16.5879 69.4432 -16.5879 68.5535C-16.5879 67.6638 -0.305119 67.6634 -0.305119 66.7733C-0.305119 65.8832 -16.5879 65.8832 -16.5879 64.9931C-16.5879 64.103 -0.305119 64.103 -0.305119 63.2128C-0.305119 62.3227 -16.5879 62.3225 -16.5879 61.4322C-16.5879 60.5423 -0.305119 60.5423 -0.305119 59.6525C-0.305119 58.7618 -16.5879 58.7618 -16.5879 57.8712C-16.5879 56.98 -0.305119 56.98 -0.305119 56.0887C-0.305119 55.1975 -12.9226 52.4331 -9.26231 52.3437C27.0802 51.457 28.0798 56.2786 64.6063 56.2786C101.133 56.2786 101.135 52.3338 137.663 52.3338C174.191 52.3338 174.192 56.2786 210.721 56.2786C247.25 56.2786 247.249 52.3338 283.776 52.3338C320.304 52.3338 320.306 56.2786 356.835 56.2786C393.364 56.2786 393.362 52.3338 429.889 52.3338C466.416 52.3338 466.417 56.2786 502.945 56.2786C539.473 56.2786 539.474 52.3338 576.004 52.3338C612.533 52.3338 612.532 56.2786 649.06 56.2786C685.589 56.2786 685.594 52.3338 722.127 52.3338C758.66 52.3338 758.029 55.3834 794.38 56.2687C798.034 56.3577 803.335 55.196 803.335 56.0858C803.335 56.9751 787.053 56.9751 787.053 57.8644C787.053 58.7541 803.335 58.7541 803.335 59.6438C803.335 60.5335 787.053 60.5339 787.053 61.424C787.053 62.3141 803.335 62.3141 803.335 63.2042C803.335 64.0943 787.053 64.0943 787.053 64.9844C787.053 65.8745 803.335 65.8747 803.335 66.765C803.335 67.6549 787.053 67.6549 787.053 68.5447C787.053 69.4354 803.335 69.4354 803.335 70.326C803.335 71.2172 786.49 71.6202 787.21 72.4942C788.806 74.4333 799.67 75.7642 796.01 75.8535Z" fill="#00A24F"/>
<path d="M796.074 76.1963C759.732 77.083 758.732 72.2614 722.206 72.2614C685.677 72.2614 685.677 76.2062 649.149 76.2062C612.62 76.2062 612.62 72.2614 576.091 72.2614C539.563 72.2614 539.563 76.2062 503.036 76.2062C466.506 76.2062 466.506 72.2614 429.977 72.2614C393.45 72.2614 393.45 76.2062 356.923 76.2062C320.395 76.2062 320.395 72.2614 283.867 72.2614C247.337 72.2614 247.338 76.2062 210.808 76.2062C174.28 76.2062 174.28 72.2614 137.751 72.2614C101.218 72.2614 101.218 76.2062 64.6847 76.2062C28.1514 76.2062 28.7826 73.1566 -7.56762 72.2713C-11.222 72.1823 -16.5234 73.344 -16.5234 72.4542C-16.5234 71.5649 -0.240666 71.5649 -0.240666 70.6756C-0.240666 69.7859 -16.5234 69.7859 -16.5234 68.8962C-16.5234 68.0065 -0.240666 68.0061 -0.240666 67.116C-0.240666 66.2259 -16.5234 66.2259 -16.5234 65.3358C-16.5234 64.4458 -0.240666 64.4458 -0.240666 63.5556C-0.240666 62.6655 -16.5234 62.6653 -16.5234 61.775C-16.5234 60.8851 -0.240666 60.8851 -0.240666 59.9953C-0.240666 59.1046 -16.5234 59.1046 -16.5234 58.214C-16.5234 57.3228 -0.240666 57.3228 -0.240666 56.4315C-0.240666 55.5402 -12.8581 52.7758 -9.19785 52.6865C27.1447 51.7997 28.1443 56.6214 64.6707 56.6214C101.197 56.6214 101.199 52.6766 137.727 52.6766C174.256 52.6766 174.256 56.6214 210.785 56.6214C247.314 56.6214 247.313 52.6766 283.841 52.6766C320.368 52.6766 320.37 56.6214 356.899 56.6214C393.428 56.6214 393.427 52.6766 429.954 52.6766C466.481 52.6766 466.481 56.6214 503.009 56.6214C539.537 56.6214 539.539 52.6766 576.068 52.6766C612.598 52.6766 612.597 56.6214 649.125 56.6214C685.653 56.6214 685.658 52.6766 722.192 52.6766C758.725 52.6766 758.094 55.7262 794.444 56.6115C798.098 56.7005 803.4 55.5388 803.4 56.4286C803.4 57.3179 787.117 57.3179 787.117 58.2071C787.117 59.0968 803.4 59.0968 803.4 59.9865C803.4 60.8762 787.117 60.8766 787.117 61.7667C787.117 62.6568 803.4 62.6568 803.4 63.5469C803.4 64.437 787.117 64.437 787.117 65.3272C787.117 66.2173 803.4 66.2175 803.4 67.1078C803.4 67.9977 787.117 67.9977 787.117 68.8875C787.117 69.7782 803.4 69.7782 803.4 70.6688C803.4 71.56 786.555 71.963 787.274 72.837C788.87 74.7761 799.734 76.1069 796.074 76.1963Z" fill="#00A04E"/>
<path d="M796.137 76.5395C759.795 77.4263 758.795 72.6046 722.269 72.6046C685.74 72.6046 685.74 76.5495 649.212 76.5495C612.683 76.5495 612.683 72.6046 576.154 72.6046C539.626 72.6046 539.626 76.5495 503.099 76.5495C466.569 76.5495 466.569 72.6046 430.04 72.6046C393.513 72.6046 393.513 76.5495 356.986 76.5495C320.458 76.5495 320.458 72.6046 283.93 72.6046C247.4 72.6046 247.4 76.5495 210.871 76.5495C174.343 76.5495 174.343 72.6046 137.814 72.6046C101.281 72.6046 101.281 76.5495 64.7477 76.5495C28.2144 76.5495 28.8456 73.4999 -7.50464 72.6145C-11.159 72.5255 -16.4604 73.6872 -16.4604 72.7974C-16.4604 71.9082 -0.177677 71.9082 -0.177677 71.0189C-0.177677 70.1292 -16.4604 70.1292 -16.4604 69.2395C-16.4604 68.3498 -0.177677 68.3494 -0.177677 67.4593C-0.177677 66.5692 -16.4604 66.5692 -16.4604 65.6791C-16.4604 64.789 -0.177677 64.789 -0.177677 63.8989C-0.177677 63.0087 -16.4604 63.0085 -16.4604 62.1182C-16.4604 61.2283 -0.177677 61.2283 -0.177677 60.3385C-0.177677 59.4479 -16.4604 59.4479 -16.4604 58.5573C-16.4604 57.666 -0.177677 57.666 -0.177677 56.7748C-0.177677 55.8835 -12.7951 53.1191 -9.13487 53.0298C27.2076 52.143 28.2073 56.9647 64.7337 56.9647C101.26 56.9647 101.262 53.0198 137.79 53.0198C174.319 53.0198 174.319 56.9647 210.848 56.9647C247.377 56.9647 247.376 53.0198 283.904 53.0198C320.431 53.0198 320.433 56.9647 356.962 56.9647C393.491 56.9647 393.49 53.0198 430.017 53.0198C466.544 53.0198 466.545 56.9647 503.072 56.9647C539.6 56.9647 539.602 53.0198 576.131 53.0198C612.661 53.0198 612.66 56.9647 649.188 56.9647C685.716 56.9647 685.721 53.0198 722.255 53.0198C758.788 53.0198 758.157 56.0694 794.507 56.9548C798.161 57.0438 803.463 55.8821 803.463 56.7719C803.463 57.6611 787.18 57.6611 787.18 58.5504C787.18 59.4401 803.463 59.4401 803.463 60.3298C803.463 61.2195 787.18 61.2199 787.18 62.11C787.18 63.0001 803.463 63.0001 803.463 63.8902C803.463 64.7803 787.18 64.7803 787.18 65.6704C787.18 66.5606 803.463 66.5608 803.463 67.4511C803.463 68.341 787.18 68.341 787.18 69.2308C787.18 70.1214 803.463 70.1214 803.463 71.012C803.463 71.9033 786.618 72.3062 787.337 73.1802C788.933 75.1194 799.797 76.4502 796.137 76.5395Z" fill="#009F4E"/>
<path d="M796.202 76.8833C759.859 77.77 758.859 72.9484 722.333 72.9484C685.805 72.9484 685.805 76.8932 649.276 76.8932C612.748 76.8932 612.748 72.9484 576.219 72.9484C539.691 72.9484 539.691 76.8932 503.163 76.8932C466.634 76.8932 466.634 72.9484 430.105 72.9484C393.577 72.9484 393.577 76.8932 357.05 76.8932C320.522 76.8932 320.522 72.9484 283.994 72.9484C247.465 72.9484 247.465 76.8932 210.935 76.8932C174.407 76.8932 174.407 72.9484 137.879 72.9484C101.346 72.9484 101.346 76.8932 64.8122 76.8932C28.2789 76.8932 28.91 73.8436 -7.44018 72.9583C-11.0945 72.8693 -16.396 74.031 -16.396 73.1412C-16.396 72.2519 -0.113227 72.2519 -0.113227 71.3627C-0.113227 70.473 -16.396 70.473 -16.396 69.5833C-16.396 68.6936 -0.113227 68.6932 -0.113227 67.8031C-0.113227 66.913 -16.396 66.913 -16.396 66.0229C-16.396 65.1328 -0.113227 65.1328 -0.113227 64.2426C-0.113227 63.3525 -16.396 63.3523 -16.396 62.462C-16.396 61.5721 -0.113227 61.5721 -0.113227 60.6823C-0.113227 59.7916 -16.396 59.7916 -16.396 58.901C-16.396 58.0098 -0.113227 58.0098 -0.113227 57.1185C-0.113227 56.2272 -12.7307 53.4628 -9.07041 53.3735C27.2721 52.4868 28.2717 57.3084 64.7982 57.3084C101.325 57.3084 101.326 53.3636 137.855 53.3636C174.383 53.3636 174.384 57.3084 210.913 57.3084C247.442 57.3084 247.44 53.3636 283.968 53.3636C320.496 53.3636 320.497 57.3084 357.027 57.3084C393.556 57.3084 393.554 53.3636 430.081 53.3636C466.608 53.3636 466.609 57.3084 503.137 57.3084C539.665 57.3084 539.666 53.3636 576.196 53.3636C612.725 53.3636 612.724 57.3084 649.252 57.3084C685.781 57.3084 685.786 53.3636 722.319 53.3636C758.852 53.3636 758.221 56.4132 794.571 57.2985C798.226 57.3875 803.527 56.2258 803.527 57.1156C803.527 58.0049 787.244 58.0049 787.244 58.8941C787.244 59.7834 803.527 59.7838 803.527 60.6735C803.527 61.5632 787.244 61.5636 787.244 62.4537C787.244 63.3438 803.527 63.3438 803.527 64.2339C803.527 65.124 787.244 65.124 787.244 66.0142C787.244 66.9043 803.527 66.9045 803.527 67.7948C803.527 68.6847 787.244 68.6847 787.244 69.5745C787.244 70.4652 803.527 70.4652 803.527 71.3558C803.527 72.247 786.682 72.65 787.402 73.524C788.998 75.4631 799.862 76.7939 796.202 76.8833Z" fill="#009E4D"/>
<path d="M796.264 77.2261C759.922 78.1128 758.922 73.2911 722.396 73.2911C685.867 73.2911 685.867 77.236 649.339 77.236C612.81 77.236 612.81 73.2911 576.281 73.2911C539.753 73.2911 539.753 77.236 503.226 77.236C466.696 77.236 466.696 73.2911 430.167 73.2911C393.64 73.2911 393.64 77.236 357.113 77.236C320.585 77.236 320.585 73.2911 284.057 73.2911C247.529 73.2911 247.527 77.236 210.998 77.236C174.47 77.236 174.47 73.2911 137.941 73.2911C101.408 73.2911 101.408 77.236 64.8747 77.236C28.3414 77.236 28.9725 74.1864 -7.37768 73.301C-11.032 73.212 -16.3335 74.3738 -16.3335 73.484C-16.3335 72.5947 -0.0507269 72.5947 -0.0507269 71.7054C-0.0507269 70.8157 -16.3335 70.8157 -16.3335 69.926C-16.3335 69.0363 -0.0507269 69.0359 -0.0507269 68.1458C-0.0507269 67.2557 -16.3335 67.2557 -16.3335 66.3656C-16.3335 65.4755 -0.0507269 65.4755 -0.0507269 64.5854C-0.0507269 63.6953 -16.3335 63.6951 -16.3335 62.8047C-16.3335 61.9149 -0.0507269 61.9149 -0.0507269 61.025C-0.0507269 60.1344 -16.3335 60.1344 -16.3335 59.2438C-16.3335 58.3525 -0.0507269 58.3525 -0.0507269 57.4613C-0.0507269 56.57 -12.6682 53.8056 -9.00791 53.7163C27.3346 52.8295 28.3342 57.6512 64.8607 57.6512C101.387 57.6512 101.389 53.7064 137.917 53.7064C174.446 53.7064 174.446 57.6512 210.975 57.6512C247.504 57.6512 247.503 53.7064 284.031 53.7064C320.558 53.7064 320.56 57.6512 357.089 57.6512C393.618 57.6512 393.616 53.7064 430.144 53.7064C466.671 53.7064 466.671 57.6512 503.199 57.6512C539.727 57.6512 539.729 53.7064 576.258 53.7064C612.788 53.7064 612.787 57.6512 649.315 57.6512C685.843 57.6512 685.848 53.7064 722.382 53.7064C758.915 53.7064 758.284 56.756 794.634 57.6413C798.288 57.7303 803.59 56.5686 803.59 57.4584C803.59 58.3476 787.307 58.3476 787.307 59.2369C787.307 60.1262 803.59 60.1266 803.59 61.0163C803.59 61.906 787.307 61.9064 787.307 62.7965C787.307 63.6866 803.59 63.6866 803.59 64.5767C803.59 65.4668 787.307 65.4668 787.307 66.3569C787.307 67.2471 803.59 67.2473 803.59 68.1376C803.59 69.0275 787.307 69.0275 787.307 69.9173C787.307 70.8079 803.59 70.8079 803.59 71.6986C803.59 72.5898 786.745 72.9928 787.464 73.8668C789.06 75.8059 799.924 77.1367 796.264 77.2261Z" fill="#009C4C"/>
<path d="M796.329 77.5693C759.986 78.4561 758.986 73.6344 722.46 73.6344C685.932 73.6344 685.932 77.5792 649.403 77.5792C612.874 77.5792 612.874 73.6344 576.346 73.6344C539.818 73.6344 539.818 77.5792 503.29 77.5792C466.761 77.5792 466.761 73.6344 430.231 73.6344C393.704 73.6344 393.704 77.5792 357.177 77.5792C320.649 77.5792 320.649 73.6344 284.121 73.6344C247.592 73.6344 247.592 77.5792 211.062 77.5792C174.534 77.5792 174.534 73.6344 138.006 73.6344C101.472 73.6344 101.472 77.5792 64.9391 77.5792C28.4058 77.5792 29.037 74.5296 -7.31323 73.6443C-10.9676 73.5553 -16.269 74.717 -16.269 73.8272C-16.269 72.938 0.0137262 72.938 0.0137262 72.0487C0.0137262 71.159 -16.269 71.159 -16.269 70.2693C-16.269 69.3796 0.0137262 69.3792 0.0137262 68.4891C0.0137262 67.599 -16.269 67.599 -16.269 66.7089C-16.269 65.8188 0.0137262 65.8188 0.0137262 64.9287C0.0137262 64.0385 -16.269 64.0383 -16.269 63.148C-16.269 62.2581 0.0137262 62.2581 0.0137262 61.3683C0.0137262 60.4777 -16.269 60.4777 -16.269 59.587C-16.269 58.6958 0.0137262 58.6958 0.0137262 57.8045C0.0137262 56.9133 -12.6037 54.1489 -8.94346 54.0596C27.399 53.1728 28.3987 57.9945 64.9251 57.9945C101.452 57.9945 101.453 54.0496 137.982 54.0496C174.51 54.0496 174.511 57.9945 211.04 57.9945C247.569 57.9945 247.567 54.0496 284.095 54.0496C320.623 54.0496 320.624 57.9945 357.154 57.9945C393.683 57.9945 393.681 54.0496 430.208 54.0496C466.735 54.0496 466.736 57.9945 503.264 57.9945C539.792 57.9945 539.793 54.0496 576.323 54.0496C612.852 54.0496 612.851 57.9945 649.379 57.9945C685.908 57.9945 685.913 54.0496 722.446 54.0496C758.979 54.0496 758.348 57.0992 794.698 57.9846C798.353 58.0736 803.654 56.9118 803.654 57.8016C803.654 58.6909 787.371 58.6909 787.371 59.5802C787.371 60.4694 803.654 60.4699 803.654 61.3596C803.654 62.2493 787.371 62.2497 787.371 63.1398C787.371 64.0299 803.654 64.0299 803.654 64.92C803.654 65.8101 787.371 65.8101 787.371 66.7002C787.371 67.5903 803.654 67.5905 803.654 68.4809C803.654 69.3707 787.371 69.3707 787.371 70.2606C787.371 71.1512 803.654 71.1512 803.654 72.0418C803.654 72.9331 786.809 73.336 787.528 74.21C789.124 76.1491 799.989 77.48 796.329 77.5693Z" fill="#009B4B"/>
<path d="M796.393 77.9126C760.05 78.7993 759.05 73.9777 722.524 73.9777C685.996 73.9777 685.996 77.9225 649.467 77.9225C612.938 77.9225 612.938 73.9777 576.409 73.9777C539.882 73.9777 539.882 77.9225 503.354 77.9225C466.825 77.9225 466.825 73.9777 430.295 73.9777C393.768 73.9777 393.768 77.9225 357.241 77.9225C320.713 77.9225 320.713 73.9777 284.185 73.9777C247.656 73.9777 247.656 77.9225 211.126 77.9225C174.598 77.9225 174.598 73.9777 138.07 73.9777C101.536 73.9777 101.536 77.9225 65.0031 77.9225C28.4698 77.9225 29.1009 74.8729 -7.24927 73.9876C-10.9036 73.8986 -16.2051 75.0603 -16.2051 74.1705C-16.2051 73.2812 0.077691 73.2812 0.077691 72.392C0.077691 71.5023 -16.2051 71.5023 -16.2051 70.6126C-16.2051 69.7229 0.077691 69.7225 0.077691 68.8324C0.077691 67.9423 -16.2051 67.9423 -16.2051 67.0522C-16.2051 66.1621 0.077691 66.1621 0.077691 65.2719C0.077691 64.3818 -16.2051 64.3816 -16.2051 63.4913C-16.2051 62.6014 0.077691 62.6014 0.077691 61.7116C0.077691 60.8209 -16.2051 60.8209 -16.2051 59.9303C-16.2051 59.0391 0.077691 59.0391 0.077691 58.1478C0.077691 57.2565 -12.5397 54.4921 -8.8795 54.4028C27.463 53.516 28.4626 58.3377 64.9891 58.3377C101.516 58.3377 101.517 54.3929 138.046 54.3929C174.574 54.3929 174.575 58.3377 211.104 58.3377C247.632 58.3377 247.631 54.3929 284.159 54.3929C320.687 54.3929 320.688 58.3377 357.218 58.3377C393.747 58.3377 393.745 54.3929 430.272 54.3929C466.799 54.3929 466.8 58.3377 503.328 58.3377C539.856 58.3377 539.857 54.3929 576.387 54.3929C612.916 54.3929 612.915 58.3377 649.443 58.3377C685.971 58.3377 685.977 54.3929 722.51 54.3929C759.043 54.3929 758.412 57.4425 794.762 58.3278C798.417 58.4168 803.718 57.2551 803.718 58.1449C803.718 59.0342 787.435 59.0342 787.435 59.9234C787.435 60.8131 803.718 60.8131 803.718 61.7028C803.718 62.5925 787.435 62.5929 787.435 63.483C787.435 64.3731 803.718 64.3731 803.718 65.2632C803.718 66.1533 787.435 66.1533 787.435 67.0435C787.435 67.9336 803.718 67.9338 803.718 68.8241C803.718 69.714 787.435 69.714 787.435 70.6038C787.435 71.4945 803.718 71.4945 803.718 72.3851C803.718 73.2763 786.873 73.6793 787.593 74.5533C789.189 76.4924 800.053 77.8232 796.393 77.9126Z" fill="#00994B"/>
<path d="M796.457 78.2558C760.114 79.1426 759.114 74.3209 722.588 74.3209C686.06 74.3209 686.06 78.2658 649.531 78.2658C613.002 78.2658 613.002 74.3209 576.473 74.3209C539.946 74.3209 539.946 78.2658 503.418 78.2658C466.889 78.2658 466.889 74.3209 430.359 74.3209C393.832 74.3209 393.832 78.2658 357.305 78.2658C320.777 78.2658 320.777 74.3209 284.249 74.3209C247.72 74.3209 247.72 78.2658 211.19 78.2658C174.662 78.2658 174.662 74.3209 138.134 74.3209C101.6 74.3209 101.6 78.2658 65.0671 78.2658C28.5337 78.2658 29.1649 75.2162 -7.1853 74.3308C-10.8396 74.2418 -16.1411 75.4036 -16.1411 74.5138C-16.1411 73.6245 0.141656 73.6245 0.141656 72.7352C0.141656 71.8455 -16.1411 71.8455 -16.1411 70.9558C-16.1411 70.0661 0.141656 70.0657 0.141656 69.1756C0.141656 68.2855 -16.1411 68.2855 -16.1411 67.3954C-16.1411 66.5053 0.141656 66.5053 0.141656 65.6152C0.141656 64.7251 -16.1411 64.7249 -16.1411 63.8345C-16.1411 62.9447 0.141656 62.9447 0.141656 62.0548C0.141656 61.1642 -16.1411 61.1642 -16.1411 60.2736C-16.1411 59.3823 0.141656 59.3823 0.141656 58.4911C0.141656 57.5998 -12.4758 54.8354 -8.81553 54.7461C27.527 53.8593 28.5266 58.681 65.053 58.681C101.579 58.681 101.581 54.7362 138.11 54.7362C174.638 54.7362 174.639 58.681 211.168 58.681C247.696 58.681 247.695 54.7362 284.223 54.7362C320.751 54.7362 320.752 58.681 357.282 58.681C393.811 58.681 393.809 54.7362 430.336 54.7362C466.863 54.7362 466.864 58.681 503.392 58.681C539.919 58.681 539.921 54.7362 576.451 54.7362C612.98 54.7362 612.979 58.681 649.507 58.681C686.036 58.681 686.041 54.7362 722.574 54.7362C759.107 54.7362 758.476 57.7858 794.826 58.6711C798.481 58.7601 803.782 57.5984 803.782 58.4882C803.782 59.3774 787.499 59.3774 787.499 60.2667C787.499 61.156 803.782 61.1564 803.782 62.0461C803.782 62.9358 787.499 62.9362 787.499 63.8263C787.499 64.7164 803.782 64.7164 803.782 65.6065C803.782 66.4966 787.499 66.4966 787.499 67.3867C787.499 68.2769 803.782 68.2771 803.782 69.1674C803.782 70.0573 787.499 70.0573 787.499 70.9471C787.499 71.8377 803.782 71.8377 803.782 72.7284C803.782 73.6196 786.937 74.0225 787.656 74.8965C789.252 76.8357 800.117 78.1665 796.457 78.2558Z" fill="#00984A"/>
<path d="M796.52 78.5986C760.177 79.4854 759.178 74.6637 722.651 74.6637C686.123 74.6637 686.123 78.6085 649.595 78.6085C613.066 78.6085 613.066 74.6637 576.537 74.6637C540.009 74.6637 540.009 78.6085 503.481 78.6085C466.952 78.6085 466.952 74.6637 430.423 74.6637C393.896 74.6637 393.896 78.6085 357.368 78.6085C320.841 78.6085 320.841 74.6637 284.313 74.6637C247.783 74.6637 247.783 78.6085 211.254 78.6085C174.725 78.6085 174.725 74.6637 138.197 74.6637C101.664 74.6637 101.664 78.6085 65.1305 78.6085C28.5972 78.6085 29.2284 75.5589 -7.12182 74.6736C-10.7762 74.5846 -16.0776 75.7463 -16.0776 74.8565C-16.0776 73.9673 0.205132 73.9673 0.205132 73.078C0.205132 72.1883 -16.0776 72.1883 -16.0776 71.2986C-16.0776 70.4089 0.205132 70.4085 0.205132 69.5184C0.205132 68.6283 -16.0776 68.6283 -16.0776 67.7382C-16.0776 66.8481 0.205132 66.8481 0.205132 65.958C0.205132 65.0678 -16.0776 65.0676 -16.0776 64.1773C-16.0776 63.2874 0.205132 63.2874 0.205132 62.3976C0.205132 61.507 -16.0776 61.507 -16.0776 60.6163C-16.0776 59.7251 0.205132 59.7251 0.205132 58.8338C0.205132 57.9426 -12.4123 55.1782 -8.75205 55.0889C27.5905 54.2021 28.5901 59.0238 65.1165 59.0238C101.643 59.0238 101.645 55.0789 138.173 55.0789C174.702 55.0789 174.702 59.0238 211.231 59.0238C247.76 59.0238 247.759 55.0789 284.287 55.0789C320.814 55.0789 320.816 59.0238 357.345 59.0238C393.874 59.0238 393.872 55.0789 430.4 55.0789C466.927 55.0789 466.927 59.0238 503.455 59.0238C539.983 59.0238 539.985 55.0789 576.514 55.0789C613.044 55.0789 613.042 59.0238 649.571 59.0238C686.099 59.0238 686.104 55.0789 722.637 55.0789C759.171 55.0789 758.539 58.1285 794.89 59.0139C798.544 59.1029 803.846 57.9411 803.846 58.8309C803.846 59.7202 787.563 59.7202 787.563 60.6095C787.563 61.4992 803.846 61.4992 803.846 62.3889C803.846 63.2786 787.563 63.279 787.563 64.1691C787.563 65.0592 803.846 65.0592 803.846 65.9493C803.846 66.8394 787.563 66.8394 787.563 67.7295C787.563 68.6196 803.846 68.6198 803.846 69.5102C803.846 70.4 787.563 70.4 787.563 71.2899C787.563 72.1805 803.846 72.1805 803.846 73.0711C803.846 73.9624 787 74.3653 787.72 75.2393C789.316 77.1784 800.18 78.5093 796.52 78.5986Z" fill="#009649"/>
<path d="M796.584 78.9424C760.241 79.8291 759.242 75.0075 722.715 75.0075C686.187 75.0075 686.187 78.9523 649.659 78.9523C613.13 78.9523 613.13 75.0075 576.601 75.0075C540.073 75.0075 540.073 78.9523 503.545 78.9523C467.016 78.9523 467.016 75.0075 430.487 75.0075C393.958 75.0075 393.96 78.9523 357.432 78.9523C320.905 78.9523 320.905 75.0075 284.377 75.0075C247.847 75.0075 247.847 78.9523 211.318 78.9523C174.789 78.9523 174.789 75.0075 138.261 75.0075C101.728 75.0075 101.728 78.9523 65.1945 78.9523C28.6612 78.9523 29.2923 75.9027 -7.05786 75.0174C-10.7122 74.9284 -16.0137 76.0901 -16.0137 75.2003C-16.0137 74.311 0.269097 74.311 0.269097 73.4217C0.269097 72.532 -16.0137 72.532 -16.0137 71.6423C-16.0137 70.7526 0.269097 70.7522 0.269097 69.8621C0.269097 68.972 -16.0137 68.972 -16.0137 68.0819C-16.0137 67.1918 0.269097 67.1918 0.269097 66.3017C0.269097 65.4116 -16.0137 65.4114 -16.0137 64.521C-16.0137 63.6312 0.269097 63.6312 0.269097 62.7413C0.269097 61.8507 -16.0137 61.8507 -16.0137 60.9601C-16.0137 60.0689 0.269097 60.0689 0.269097 59.1776C0.269097 58.2863 -12.3483 55.5219 -8.68809 55.4326C27.6544 54.5458 28.654 59.3675 65.1805 59.3675C101.707 59.3675 101.709 55.4227 138.237 55.4227C174.765 55.4227 174.766 59.3675 211.295 59.3675C247.824 59.3675 247.823 55.4227 284.35 55.4227C320.878 55.4227 320.88 59.3675 357.409 59.3675C393.938 59.3675 393.936 55.4227 430.463 55.4227C466.991 55.4227 466.991 59.3675 503.519 59.3675C540.047 59.3675 540.049 55.4227 576.578 55.4227C613.108 55.4227 613.106 59.3675 649.635 59.3675C686.163 59.3675 686.168 55.4227 722.701 55.4227C759.235 55.4227 758.603 58.4723 794.954 59.3576C798.608 59.4466 803.91 58.2849 803.91 59.1747C803.91 60.064 787.627 60.064 787.627 60.9532C787.627 61.8429 803.91 61.8429 803.91 62.7326C803.91 63.6223 787.627 63.6227 787.627 64.5128C787.627 65.4029 803.91 65.4029 803.91 66.293C803.91 67.1831 787.627 67.1831 787.627 68.0732C787.627 68.9634 803.91 68.9636 803.91 69.8539C803.91 70.7438 787.627 70.7438 787.627 71.6336C787.627 72.5242 803.91 72.5242 803.91 73.4149C803.91 74.3061 787.064 74.7091 787.784 75.5831C789.38 77.5222 800.244 78.853 796.584 78.9424Z" fill="#009549"/>
<path d="M796.648 79.2856C760.306 80.1724 759.306 75.3507 722.78 75.3507C686.252 75.3507 686.252 79.2956 649.723 79.2956C613.194 79.2956 613.194 75.3507 576.665 75.3507C540.138 75.3507 540.138 79.2956 503.61 79.2956C467.08 79.2956 467.08 75.3507 430.551 75.3507C394.024 75.3507 394.024 79.2956 357.497 79.2956C320.969 79.2956 320.969 75.3507 284.441 75.3507C247.912 75.3507 247.912 79.2956 211.382 79.2956C174.854 79.2956 174.854 75.3507 138.326 75.3507C101.792 75.3507 101.792 79.2956 65.259 79.2956C28.7256 79.2956 29.3568 76.246 -6.99341 75.3606C-10.6477 75.2716 -15.9492 76.4333 -15.9492 75.5435C-15.9492 74.6543 0.33355 74.6543 0.33355 73.765C0.33355 72.8753 -15.9492 72.8753 -15.9492 71.9856C-15.9492 71.0959 0.33355 71.0955 0.33355 70.2054C0.33355 69.3153 -15.9492 69.3153 -15.9492 68.4252C-15.9492 67.5351 0.33355 67.5351 0.33355 66.645C0.33355 65.7548 -15.9492 65.7546 -15.9492 64.8643C-15.9492 63.9744 0.33355 63.9744 0.33355 63.0846C0.33355 62.194 -15.9492 62.194 -15.9492 61.3033C-15.9492 60.4121 0.33355 60.4121 0.33355 59.5208C0.33355 58.6296 -12.2839 55.8652 -8.62363 55.7759C27.7189 54.8891 28.7185 59.7108 65.2449 59.7108C101.771 59.7108 101.773 55.7659 138.302 55.7659C174.83 55.7659 174.83 59.7108 211.359 59.7108C247.888 59.7108 247.887 55.7659 284.415 55.7659C320.943 55.7659 320.944 59.7108 357.473 59.7108C394.003 59.7108 394.001 55.7659 430.528 55.7659C467.055 55.7659 467.056 59.7108 503.584 59.7108C540.111 59.7108 540.113 55.7659 576.643 55.7659C613.172 55.7659 613.171 59.7108 649.699 59.7108C686.227 59.7108 686.232 55.7659 722.766 55.7659C759.299 55.7659 758.668 58.8155 795.018 59.7009C798.673 59.7899 803.974 58.6282 803.974 59.518C803.974 60.4072 787.691 60.4072 787.691 61.2965C787.691 62.1858 803.974 62.1862 803.974 63.0759C803.974 63.9656 787.691 63.966 787.691 64.8561C787.691 65.7462 803.974 65.7462 803.974 66.6363C803.974 67.5264 787.691 67.5264 787.691 68.4165C787.691 69.3066 803.974 69.3068 803.974 70.1972C803.974 71.087 787.691 71.087 787.691 71.9769C787.691 72.8675 803.974 72.8675 803.974 73.7581C803.974 74.6494 787.129 75.0523 787.848 75.9263C789.444 77.8654 800.309 79.1963 796.648 79.2856Z" fill="#009448"/>
<path d="M796.712 79.6284C760.369 80.5152 759.37 75.6935 722.843 75.6935C686.315 75.6935 686.315 79.6383 649.787 79.6383C613.258 79.6383 613.258 75.6935 576.729 75.6935C540.201 75.6935 540.201 79.6383 503.673 79.6383C467.144 79.6383 467.144 75.6935 430.615 75.6935C394.087 75.6935 394.087 79.6383 357.56 79.6383C321.032 79.6383 321.032 75.6935 284.505 75.6935C247.975 75.6935 247.975 79.6383 211.446 79.6383C174.917 79.6383 174.917 75.6935 138.389 75.6935C101.856 75.6935 101.856 79.6383 65.3224 79.6383C28.7891 79.6383 29.4203 76.5887 -6.92993 75.7034C-10.5843 75.6144 -15.8857 76.7761 -15.8857 75.8863C-15.8857 74.997 0.397027 74.997 0.397027 74.1078C0.397027 73.2181 -15.8857 73.2181 -15.8857 72.3284C-15.8857 71.4387 0.397027 71.4383 0.397027 70.5482C0.397027 69.6581 -15.8857 69.6581 -15.8857 68.768C-15.8857 67.8779 0.397027 67.8779 0.397027 66.9877C0.397027 66.0976 -15.8857 66.0974 -15.8857 65.2071C-15.8857 64.3172 0.397027 64.3172 0.397027 63.4274C0.397027 62.5368 -15.8857 62.5368 -15.8857 61.6461C-15.8857 60.7549 0.397027 60.7549 0.397027 59.8636C0.397027 58.9724 -12.2204 56.208 -8.56016 56.1186C27.7823 55.2319 28.782 60.0535 65.3084 60.0535C101.835 60.0535 101.837 56.1087 138.365 56.1087C174.893 56.1087 174.894 60.0535 211.423 60.0535C247.952 60.0535 247.951 56.1087 284.478 56.1087C321.006 56.1087 321.008 60.0535 357.537 60.0535C394.066 60.0535 394.064 56.1087 430.591 56.1087C467.119 56.1087 467.119 60.0535 503.647 60.0535C540.175 60.0535 540.177 56.1087 576.706 56.1087C613.235 56.1087 613.234 60.0535 649.763 60.0535C686.291 60.0535 686.296 56.1087 722.829 56.1087C759.363 56.1087 758.731 59.1583 795.082 60.0436C798.736 60.1326 804.037 58.9709 804.037 59.8607C804.037 60.75 787.755 60.75 787.755 61.6393C787.755 62.5285 804.037 62.529 804.037 63.4187C804.037 64.3084 787.755 64.3088 787.755 65.1989C787.755 66.089 804.037 66.089 804.037 66.9791C804.037 67.8692 787.755 67.8692 787.755 68.7593C787.755 69.6494 804.037 69.6496 804.037 70.54C804.037 71.4298 787.755 71.4298 787.755 72.3197C787.755 73.2103 804.037 73.2103 804.037 74.1009C804.037 74.9921 787.192 75.3951 787.912 76.2691C789.508 78.2082 800.372 79.5391 796.712 79.6284Z" fill="#009247"/>
<path d="M796.775 79.9717C760.432 80.8584 759.433 76.0368 722.906 76.0368C686.378 76.0368 686.378 79.9816 649.85 79.9816C613.321 79.9816 613.321 76.0368 576.792 76.0368C540.264 76.0368 540.264 79.9816 503.736 79.9816C467.207 79.9816 467.207 76.0368 430.678 76.0368C394.15 76.0368 394.15 79.9816 357.623 79.9816C321.095 79.9816 321.095 76.0368 284.568 76.0368C248.038 76.0368 248.038 79.9816 211.509 79.9816C174.98 79.9816 174.98 76.0368 138.452 76.0368C101.919 76.0368 101.919 79.9816 65.3854 79.9816C28.8521 79.9816 29.4833 76.932 -6.86694 76.0466C-10.5213 75.9577 -15.8228 77.1194 -15.8228 76.2296C-15.8228 75.3403 0.460015 75.3403 0.460015 74.451C0.460015 73.5613 -15.8228 73.5613 -15.8228 72.6716C-15.8228 71.7819 0.460015 71.7815 0.460015 70.8914C0.460015 70.0013 -15.8228 70.0013 -15.8228 69.1112C-15.8228 68.2211 0.460015 68.2211 0.460015 67.331C0.460015 66.4409 -15.8228 66.4407 -15.8228 65.5503C-15.8228 64.6605 0.460015 64.6605 0.460015 63.7706C0.460015 62.88 -15.8228 62.88 -15.8228 61.9894C-15.8228 61.0981 0.460015 61.0981 0.460015 60.2069C0.460015 59.3156 -12.1574 56.5512 -8.49717 56.4619C27.8453 55.5751 28.8449 60.3968 65.3714 60.3968C101.898 60.3968 101.9 56.452 138.428 56.452C174.956 56.452 174.957 60.3968 211.486 60.3968C248.015 60.3968 248.014 56.452 284.541 56.452C321.069 56.452 321.071 60.3968 357.6 60.3968C394.129 60.3968 394.127 56.452 430.654 56.452C467.181 56.452 467.182 60.3968 503.71 60.3968C540.238 60.3968 540.24 56.452 576.769 56.452C613.298 56.452 613.297 60.3968 649.826 60.3968C686.354 60.3968 686.359 56.452 722.892 56.452C759.426 56.452 758.794 59.5016 795.145 60.3869C798.799 60.4759 804.1 59.3142 804.1 60.204C804.1 61.0933 787.818 61.0933 787.818 61.9825C787.818 62.8718 804.1 62.8722 804.1 63.7619C804.1 64.6516 787.818 64.652 787.818 65.5421C787.818 66.4322 804.1 66.4322 804.1 67.3223C804.1 68.2124 787.818 68.2124 787.818 69.1025C787.818 69.9927 804.1 69.9929 804.1 70.8832C804.1 71.7731 787.818 71.7731 787.818 72.6629C787.818 73.5535 804.1 73.5535 804.1 74.4442C804.1 75.3354 787.255 75.7384 787.975 76.6124C789.571 78.5515 800.435 79.8823 796.775 79.9717Z" fill="#009147"/>
<path d="M796.839 80.3154C760.496 81.2022 759.497 76.3805 722.97 76.3805C686.442 76.3805 686.442 80.3253 649.914 80.3253C613.385 80.3253 613.385 76.3805 576.856 76.3805C540.328 76.3805 540.328 80.3253 503.8 80.3253C467.271 80.3253 467.271 76.3805 430.742 76.3805C394.214 76.3805 394.214 80.3253 357.687 80.3253C321.159 80.3253 321.159 76.3805 284.632 76.3805C248.102 76.3805 248.102 80.3253 211.573 80.3253C175.044 80.3253 175.044 76.3805 138.516 76.3805C101.983 76.3805 101.983 80.3253 65.4494 80.3253C28.9161 80.3253 29.5472 77.2757 -6.80298 76.3904C-10.4573 76.3014 -15.7588 77.4631 -15.7588 76.5733C-15.7588 75.6841 0.52398 75.6841 0.52398 74.7948C0.52398 73.9051 -15.7588 73.9051 -15.7588 73.0154C-15.7588 72.1257 0.52398 72.1253 0.52398 71.2352C0.52398 70.3451 -15.7588 70.3451 -15.7588 69.455C-15.7588 68.5649 0.52398 68.5649 0.52398 67.6748C0.52398 66.7846 -15.7588 66.7844 -15.7588 65.8941C-15.7588 65.0042 0.52398 65.0042 0.52398 64.1144C0.52398 63.2238 -15.7588 63.2238 -15.7588 62.3331C-15.7588 61.4419 0.52398 61.4419 0.52398 60.5506C0.52398 59.6594 -12.0935 56.895 -8.43321 56.8056C27.9093 55.9189 28.9089 60.7406 65.4354 60.7406C101.962 60.7406 101.964 56.7957 138.492 56.7957C175.02 56.7957 175.021 60.7406 211.55 60.7406C248.079 60.7406 248.078 56.7957 284.605 56.7957C321.133 56.7957 321.135 60.7406 357.664 60.7406C394.193 60.7406 394.191 56.7957 430.718 56.7957C467.245 56.7957 467.246 60.7406 503.774 60.7406C540.302 60.7406 540.303 56.7957 576.833 56.7957C613.362 56.7957 613.361 60.7406 649.89 60.7406C686.418 60.7406 686.423 56.7957 722.956 56.7957C759.49 56.7957 758.858 59.8453 795.209 60.7307C798.863 60.8197 804.164 59.6579 804.164 60.5477C804.164 61.437 787.882 61.437 787.882 62.3263C787.882 63.2155 804.164 63.216 804.164 64.1057C804.164 64.9954 787.882 64.9958 787.882 65.8859C787.882 66.776 804.164 66.776 804.164 67.6661C804.164 68.5562 787.882 68.5562 787.882 69.4463C787.882 70.3364 804.164 70.3366 804.164 71.227C804.164 72.1168 787.882 72.1168 787.882 73.0067C787.882 73.8973 804.164 73.8973 804.164 74.7879C804.164 75.6792 787.319 76.0821 788.039 76.9561C789.635 78.8952 800.499 80.2261 796.839 80.3154Z" fill="#008F46"/>
<path d="M796.903 80.6582C760.56 81.545 759.561 76.7233 723.034 76.7233C686.506 76.7233 686.506 80.6681 649.978 80.6681C613.449 80.6681 613.449 76.7233 576.92 76.7233C540.392 76.7233 540.392 80.6681 503.864 80.6681C467.335 80.6681 467.335 76.7233 430.806 76.7233C394.278 76.7233 394.278 80.6681 357.751 80.6681C321.223 80.6681 321.223 76.7233 284.696 76.7233C248.166 76.7233 248.166 80.6681 211.637 80.6681C175.108 80.6681 175.108 76.7233 138.58 76.7233C102.047 76.7233 102.047 80.6681 65.5134 80.6681C28.98 80.6681 29.6112 77.6185 -6.73901 76.7332C-10.3933 76.6442 -15.6948 77.8059 -15.6948 76.9161C-15.6948 76.0268 0.587945 76.0268 0.587945 75.1376C0.587945 74.2479 -15.6948 74.2479 -15.6948 73.3582C-15.6948 72.4685 0.587945 72.4681 0.587945 71.578C0.587945 70.6879 -15.6948 70.6879 -15.6948 69.7978C-15.6948 68.9077 0.587945 68.9077 0.587945 68.0175C0.587945 67.1274 -15.6948 67.1272 -15.6948 66.2369C-15.6948 65.347 0.587945 65.347 0.587945 64.4572C0.587945 63.5665 -15.6948 63.5665 -15.6948 62.6759C-15.6948 61.7847 0.587945 61.7847 0.587945 60.8934C0.587945 60.0021 -12.0295 57.2378 -8.36924 57.1484C27.9733 56.2617 28.9729 61.0833 65.4993 61.0833C102.026 61.0833 102.028 57.1385 138.556 57.1385C175.084 57.1385 175.085 61.0833 211.614 61.0833C248.143 61.0833 248.142 57.1385 284.669 57.1385C321.197 57.1385 321.199 61.0833 357.728 61.0833C394.257 61.0833 394.255 57.1385 430.782 57.1385C467.309 57.1385 467.31 61.0833 503.838 61.0833C540.366 61.0833 540.367 57.1385 576.897 57.1385C613.426 57.1385 613.425 61.0833 649.954 61.0833C686.482 61.0833 686.487 57.1385 723.02 57.1385C759.554 57.1385 758.922 60.1881 795.273 61.0734C798.927 61.1624 804.228 60.0007 804.228 60.8905C804.228 61.7798 787.946 61.7798 787.946 62.669C787.946 63.5583 804.228 63.5587 804.228 64.4484C804.228 65.3381 787.946 65.3385 787.946 66.2286C787.946 67.1187 804.228 67.1187 804.228 68.0088C804.228 68.8989 787.946 68.8989 787.946 69.7891C787.946 70.6792 804.228 70.6794 804.228 71.5697C804.228 72.4596 787.946 72.4596 787.946 73.3494C787.946 74.2401 804.228 74.2401 804.228 75.1307C804.228 76.0219 787.383 76.4249 788.103 77.2989C789.699 79.238 800.563 80.5689 796.903 80.6582Z" fill="#008E45"/>
<path d="M796.966 81.0014C760.624 81.8882 759.624 77.0665 723.098 77.0665C686.569 77.0665 686.569 81.0114 650.041 81.0114C613.512 81.0114 613.512 77.0665 576.983 77.0665C540.455 77.0665 540.455 81.0114 503.928 81.0114C467.398 81.0114 467.398 77.0665 430.869 77.0665C394.342 77.0665 394.342 81.0114 357.815 81.0114C321.287 81.0114 321.287 77.0665 284.759 77.0665C248.23 77.0665 248.23 81.0114 211.7 81.0114C175.172 81.0114 175.172 77.0665 138.643 77.0665C102.11 77.0665 102.11 81.0114 65.5768 81.0114C29.0435 81.0114 29.6747 77.9618 -6.67554 77.0764C-10.3299 76.9874 -15.6313 78.1492 -15.6313 77.2594C-15.6313 76.3701 0.651422 76.3701 0.651422 75.4808C0.651422 74.5911 -15.6313 74.5911 -15.6313 73.7014C-15.6313 72.8117 0.651422 72.8113 0.651422 71.9212C0.651422 71.0311 -15.6313 71.0311 -15.6313 70.141C-15.6313 69.2509 0.651422 69.2509 0.651422 68.3608C0.651422 67.4707 -15.6313 67.4705 -15.6313 66.5801C-15.6313 65.6903 0.651422 65.6903 0.651422 64.8004C0.651422 63.9098 -15.6313 63.9098 -15.6313 63.0192C-15.6313 62.1279 0.651422 62.1279 0.651422 61.2367C0.651422 60.3454 -11.966 57.581 -8.30576 57.4917C28.0367 56.6049 29.0364 61.4266 65.5628 61.4266C102.089 61.4266 102.091 57.4818 138.619 57.4818C175.148 57.4818 175.148 61.4266 211.677 61.4266C248.206 61.4266 248.205 57.4818 284.733 57.4818C321.261 57.4818 321.262 61.4266 357.791 61.4266C394.321 61.4266 394.319 57.4818 430.846 57.4818C467.373 57.4818 467.374 61.4266 503.901 61.4266C540.429 61.4266 540.431 57.4818 576.96 57.4818C613.49 57.4818 613.489 61.4266 650.017 61.4266C686.545 61.4266 686.55 57.4818 723.084 57.4818C759.617 57.4818 758.986 60.5314 795.336 61.4167C798.99 61.5057 804.292 60.344 804.292 61.2338C804.292 62.123 788.009 62.123 788.009 63.0123C788.009 63.902 804.292 63.902 804.292 64.7917C804.292 65.6814 788.009 65.6818 788.009 66.5719C788.009 67.462 804.292 67.462 804.292 68.3521C804.292 69.2422 788.009 69.2422 788.009 70.1323C788.009 71.0225 804.292 71.0227 804.292 71.913C804.292 72.8029 788.009 72.8029 788.009 73.6927C788.009 74.5833 804.292 74.5833 804.292 75.474C804.292 76.3652 787.447 76.7681 788.166 77.6422C789.762 79.5813 800.626 80.9121 796.966 81.0014Z" fill="#008D45"/>
<path d="M797.029 81.3447C760.686 82.2315 759.687 77.4098 723.16 77.4098C686.632 77.4098 686.632 81.3546 650.104 81.3546C613.575 81.3546 613.575 77.4098 577.046 77.4098C540.518 77.4098 540.518 81.3546 503.99 81.3546C467.461 81.3546 467.461 77.4098 430.932 77.4098C394.404 77.4098 394.404 81.3546 357.877 81.3546C321.349 81.3546 321.349 77.4098 284.822 77.4098C248.292 77.4098 248.292 81.3546 211.763 81.3546C175.234 81.3546 175.234 77.4098 138.706 77.4098C102.173 77.4098 102.173 81.3546 65.6393 81.3546C29.106 81.3546 29.7372 78.305 -6.61304 77.4197C-10.2674 77.3307 -15.5688 78.4924 -15.5688 77.6026C-15.5688 76.7133 0.713922 76.7134 0.713922 75.8241C0.713922 74.9344 -15.5688 74.9344 -15.5688 74.0447C-15.5688 73.155 0.713922 73.1546 0.713922 72.2645C0.713922 71.3744 -15.5688 71.3744 -15.5688 70.4843C-15.5688 69.5942 0.713922 69.5942 0.713922 68.7041C0.713922 67.8139 -15.5688 67.8137 -15.5688 66.9234C-15.5688 66.0335 0.713922 66.0335 0.713922 65.1437C0.713922 64.2531 -15.5688 64.2531 -15.5688 63.3624C-15.5688 62.4712 0.713922 62.4712 0.713922 61.5799C0.713922 60.6887 -11.9035 57.9243 -8.24326 57.8349C28.0992 56.9482 29.0989 61.7698 65.6253 61.7698C102.152 61.7698 102.154 57.825 138.682 57.825C175.21 57.825 175.211 61.7698 211.74 61.7698C248.269 61.7698 248.268 57.825 284.795 57.825C321.323 57.825 321.325 61.7698 357.854 61.7698C394.383 61.7698 394.381 57.825 430.908 57.825C467.435 57.825 467.436 61.7698 503.964 61.7698C540.492 61.7698 540.493 57.825 577.023 57.825C613.552 57.825 613.551 61.7698 650.08 61.7698C686.608 61.7698 686.613 57.825 723.146 57.825C759.68 57.825 759.048 60.8746 795.399 61.76C799.053 61.849 804.354 60.6872 804.354 61.577C804.354 62.4663 788.072 62.4663 788.072 63.3556C788.072 64.2448 804.354 64.2453 804.354 65.135C804.354 66.0247 788.072 66.0251 788.072 66.9152C788.072 67.8053 804.354 67.8053 804.354 68.6954C804.354 69.5855 788.072 69.5855 788.072 70.4756C788.072 71.3657 804.354 71.3659 804.354 72.2563C804.354 73.1461 788.072 73.1461 788.072 74.036C788.072 74.9266 804.354 74.9266 804.354 75.8172C804.354 76.7085 787.509 77.1114 788.229 77.9854C789.825 79.9245 800.689 81.2554 797.029 81.3447Z" fill="#008B44"/>
<path d="M797.094 81.688C760.752 82.5747 759.752 77.7531 723.226 77.7531C686.697 77.7531 686.697 81.6979 650.169 81.6979C613.64 81.6979 613.64 77.7531 577.111 77.7531C540.583 77.7531 540.583 81.6979 504.056 81.6979C467.526 81.6979 467.526 77.7531 430.997 77.7531C394.47 77.7531 394.47 81.6979 357.943 81.6979C321.415 81.6979 321.415 77.7531 284.887 77.7531C248.358 77.7531 248.358 81.6979 211.828 81.6979C175.3 81.6979 175.3 77.7531 138.771 77.7531C102.238 77.7531 102.238 81.6979 65.7048 81.6979C29.1714 81.6979 29.8026 78.6483 -6.54761 77.763C-10.2019 77.674 -15.5034 78.8357 -15.5034 77.9459C-15.5034 77.0566 0.779351 77.0566 0.779351 76.1673C0.779351 75.2776 -15.5034 75.2776 -15.5034 74.3879C-15.5034 73.4982 0.779351 73.4978 0.779351 72.6077C0.779351 71.7176 -15.5034 71.7176 -15.5034 70.8275C-15.5034 69.9374 0.779351 69.9374 0.779351 69.0473C0.779351 68.1572 -15.5034 68.157 -15.5034 67.2667C-15.5034 66.3768 0.779351 66.3768 0.779351 65.487C0.779351 64.5963 -15.5034 64.5963 -15.5034 63.7057C-15.5034 62.8145 0.779351 62.8145 0.779351 61.9232C0.779351 61.0319 -11.8381 58.2675 -8.17783 58.1782C28.1647 57.2914 29.1643 62.1131 65.6907 62.1131C102.217 62.1131 102.219 58.1683 138.747 58.1683C175.276 58.1683 175.276 62.1131 211.805 62.1131C248.334 62.1131 248.333 58.1683 284.861 58.1683C321.388 58.1683 321.39 62.1131 357.919 62.1131C394.448 62.1131 394.447 58.1683 430.974 58.1683C467.501 58.1683 467.502 62.1131 504.029 62.1131C540.557 62.1131 540.559 58.1683 577.088 58.1683C613.618 58.1683 613.617 62.1131 650.145 62.1131C686.673 62.1131 686.678 58.1683 723.212 58.1683C759.745 58.1683 759.114 61.2179 795.464 62.1032C799.118 62.1922 804.42 61.0305 804.42 61.9203C804.42 62.8096 788.137 62.8096 788.137 63.6988C788.137 64.5885 804.42 64.5885 804.42 65.4782C804.42 66.3679 788.137 66.3683 788.137 67.2584C788.137 68.1485 804.42 68.1485 804.42 69.0386C804.42 69.9287 788.137 69.9287 788.137 70.8189C788.137 71.709 804.42 71.7092 804.42 72.5995C804.42 73.4894 788.137 73.4894 788.137 74.3792C788.137 75.2699 804.42 75.2699 804.42 76.1605C804.42 77.0517 787.575 77.4547 788.294 78.3287C789.89 80.2678 800.754 81.5986 797.094 81.688Z" fill="#008A43"/>
<path d="M797.158 82.0307C760.816 82.9175 759.816 78.0958 723.29 78.0958C686.761 78.0958 686.761 82.0407 650.233 82.0407C613.704 82.0407 613.704 78.0958 577.175 78.0958C540.647 78.0958 540.647 82.0407 504.12 82.0407C467.59 82.0407 467.59 78.0958 431.061 78.0958C394.532 78.0958 394.534 82.0407 358.007 82.0407C321.479 82.0407 321.479 78.0958 284.951 78.0958C248.421 78.0958 248.421 82.0407 211.892 82.0407C175.364 82.0407 175.364 78.0958 138.835 78.0958C102.302 78.0958 102.302 82.0407 65.7687 82.0407C29.2354 82.0407 29.8666 78.9911 -6.48364 78.1057C-10.138 78.0167 -15.4395 79.1785 -15.4395 78.2887C-15.4395 77.3994 0.843316 77.3994 0.843316 76.5101C0.843316 75.6204 -15.4395 75.6204 -15.4395 74.7307C-15.4395 73.841 0.843316 73.8406 0.843316 72.9505C0.843316 72.0604 -15.4395 72.0604 -15.4395 71.1703C-15.4395 70.2802 0.843316 70.2802 0.843316 69.3901C0.843316 68.5 -15.4395 68.4998 -15.4395 67.6094C-15.4395 66.7196 0.843316 66.7196 0.843316 65.8297C0.843316 64.9391 -15.4395 64.9391 -15.4395 64.0485C-15.4395 63.1572 0.843316 63.1572 0.843316 62.266C0.843316 61.3747 -11.7741 58.6103 -8.11387 58.521C28.2286 57.6342 29.2282 62.4559 65.7547 62.4559C102.281 62.4559 102.283 58.5111 138.811 58.5111C175.34 58.5111 175.34 62.4559 211.869 62.4559C248.398 62.4559 248.397 58.5111 284.925 58.5111C321.452 58.5111 321.454 62.4559 357.983 62.4559C394.512 62.4559 394.511 58.5111 431.038 58.5111C467.565 58.5111 467.565 62.4559 504.093 62.4559C540.621 62.4559 540.623 58.5111 577.152 58.5111C613.682 58.5111 613.681 62.4559 650.209 62.4559C686.737 62.4559 686.742 58.5111 723.276 58.5111C759.809 58.5111 759.178 61.5607 795.528 62.446C799.182 62.535 804.484 61.3733 804.484 62.2631C804.484 63.1523 788.201 63.1523 788.201 64.0416C788.201 64.9313 804.484 64.9313 804.484 65.821C804.484 66.7107 788.201 66.7111 788.201 67.6012C788.201 68.4913 804.484 68.4913 804.484 69.3814C804.484 70.2715 788.201 70.2715 788.201 71.1616C788.201 72.0518 804.484 72.052 804.484 72.9423C804.484 73.8322 788.201 73.8322 788.201 74.722C788.201 75.6126 804.484 75.6126 804.484 76.5033C804.484 77.3945 787.639 77.7974 788.358 78.6715C789.954 80.6106 800.818 81.9414 797.158 82.0307Z" fill="#008843"/>
<path d="M797.221 82.3745C760.879 83.2613 759.879 78.4396 723.353 78.4396C686.824 78.4396 686.824 82.3844 650.296 82.3844C613.767 82.3844 613.767 78.4396 577.238 78.4396C540.71 78.4396 540.71 82.3844 504.183 82.3844C467.653 82.3844 467.653 78.4396 431.124 78.4396C394.597 78.4396 394.597 82.3844 358.07 82.3844C321.542 82.3844 321.542 78.4396 285.014 78.4396C248.484 78.4396 248.484 82.3844 211.955 82.3844C175.427 82.3844 175.427 78.4396 138.898 78.4396C102.365 78.4396 102.365 82.3844 65.8317 82.3844C29.2984 82.3844 29.9296 79.3348 -6.42065 78.4495C-10.075 78.3605 -15.3765 79.5222 -15.3765 78.6324C-15.3765 77.7431 0.906304 77.7431 0.906304 76.8539C0.906304 75.9642 -15.3765 75.9642 -15.3765 75.0745C-15.3765 74.1848 0.906304 74.1844 0.906304 73.2943C0.906304 72.4042 -15.3765 72.4042 -15.3765 71.5141C-15.3765 70.624 0.906304 70.624 0.906304 69.7338C0.906304 68.8437 -15.3765 68.8435 -15.3765 67.9532C-15.3765 67.0633 0.906304 67.0633 0.906304 66.1735C0.906304 65.2828 -15.3765 65.2828 -15.3765 64.3922C-15.3765 63.501 0.906304 63.501 0.906304 62.6097C0.906304 61.7185 -11.7111 58.9541 -8.05088 58.8647C28.2916 57.978 29.2912 62.7996 65.8177 62.7996C102.344 62.7996 102.346 58.8548 138.874 58.8548C175.403 58.8548 175.403 62.7996 211.932 62.7996C248.461 62.7996 248.46 58.8548 284.988 58.8548C321.515 58.8548 321.517 62.7996 358.046 62.7996C394.575 62.7996 394.574 58.8548 431.101 58.8548C467.628 58.8548 467.629 62.7996 504.156 62.7996C540.684 62.7996 540.686 58.8548 577.215 58.8548C613.745 58.8548 613.744 62.7996 650.272 62.7996C686.8 62.7996 686.805 58.8548 723.339 58.8548C759.872 58.8548 759.241 61.9044 795.591 62.7897C799.245 62.8787 804.547 61.717 804.547 62.6068C804.547 63.4961 788.264 63.4961 788.264 64.3854C788.264 65.2746 804.547 65.2751 804.547 66.1648C804.547 67.0545 788.264 67.0549 788.264 67.9449C788.264 68.835 804.547 68.835 804.547 69.7251C804.547 70.6152 788.264 70.6152 788.264 71.5054C788.264 72.3955 804.547 72.3957 804.547 73.286C804.547 74.1759 788.264 74.1759 788.264 75.0657C788.264 75.9564 804.547 75.9564 804.547 76.847C804.547 77.7382 787.702 78.1412 788.421 79.0152C790.017 80.9543 800.881 82.2852 797.221 82.3745Z" fill="#008742"/>
<path d="M797.285 82.7178C760.942 83.6045 759.942 78.7828 723.416 78.7828C686.888 78.7828 686.888 82.7277 650.359 82.7277C613.83 82.7277 613.831 78.7828 577.302 78.7828C540.774 78.7828 540.774 82.7277 504.246 82.7277C467.717 82.7277 467.717 78.7828 431.187 78.7828C394.66 78.7828 394.66 82.7277 358.133 82.7277C321.605 82.7277 321.605 78.7828 285.077 78.7828C248.548 78.7828 248.548 82.7277 212.018 82.7277C175.49 82.7277 175.49 78.7828 138.962 78.7828C102.429 78.7828 102.429 82.7277 65.8952 82.7277C29.3619 82.7277 29.993 79.6781 -6.35717 78.7927C-10.0115 78.7037 -15.313 79.8655 -15.313 78.9757C-15.313 78.0864 0.969784 78.0864 0.969784 77.1971C0.969784 76.3074 -15.313 76.3074 -15.313 75.4177C-15.313 74.528 0.969784 74.5276 0.969784 73.6375C0.969784 72.7474 -15.313 72.7474 -15.313 71.8573C-15.313 70.9672 0.969784 70.9672 0.969784 70.0771C0.969784 69.187 -15.313 69.1868 -15.313 68.2964C-15.313 67.4066 0.969784 67.4066 0.969784 66.5167C0.969784 65.6261 -15.313 65.6261 -15.313 64.7355C-15.313 63.8442 0.969784 63.8442 0.969784 62.953C0.969784 62.0617 -11.6477 59.2973 -7.9874 59.208C28.3551 58.3212 29.3547 63.1429 65.8812 63.1429C102.408 63.1429 102.409 59.1981 138.938 59.1981C175.466 59.1981 175.467 63.1429 211.996 63.1429C248.525 63.1429 248.523 59.1981 285.051 59.1981C321.579 59.1981 321.581 63.1429 358.11 63.1429C394.639 63.1429 394.637 59.1981 431.164 59.1981C467.691 59.1981 467.692 63.1429 504.22 63.1429C540.748 63.1429 540.749 59.1981 577.279 59.1981C613.808 59.1981 613.807 63.1429 650.335 63.1429C686.864 63.1429 686.869 59.1981 723.402 59.1981C759.935 59.1981 759.304 62.2477 795.654 63.133C799.309 63.222 804.61 62.0603 804.61 62.9501C804.61 63.8393 788.327 63.8393 788.327 64.7286C788.327 65.6179 804.61 65.6183 804.61 66.508C804.61 67.3977 788.327 67.3981 788.327 68.2882C788.327 69.1783 804.61 69.1783 804.61 70.0684C804.61 70.9585 788.327 70.9585 788.327 71.8486C788.327 72.7388 804.61 72.739 804.61 73.6293C804.61 74.5192 788.327 74.5192 788.327 75.409C788.327 76.2996 804.61 76.2996 804.61 77.1903C804.61 78.0815 787.765 78.4845 788.485 79.3585C790.081 81.2976 800.945 82.6284 797.285 82.7178Z" fill="#008541"/>
<path d="M797.349 83.0605C761.007 83.9473 760.007 79.1256 723.481 79.1256C686.952 79.1256 686.952 83.0705 650.424 83.0705C613.895 83.0705 613.895 79.1256 577.366 79.1256C540.838 79.1256 540.838 83.0705 504.31 83.0705C467.781 83.0705 467.781 79.1256 431.252 79.1256C394.725 79.1256 394.725 83.0705 358.198 83.0705C321.67 83.0705 321.67 79.1256 285.142 79.1256C248.612 79.1256 248.612 83.0705 212.083 83.0705C175.555 83.0705 175.555 79.1256 139.026 79.1256C102.493 79.1256 102.493 83.0705 65.9596 83.0705C29.4263 83.0705 30.0575 80.0208 -6.29272 79.1355C-9.94706 79.0465 -15.2485 80.2082 -15.2485 79.3184C-15.2485 78.4292 1.03424 78.4292 1.03424 77.5399C1.03424 76.6502 -15.2485 76.6502 -15.2485 75.7605C-15.2485 74.8708 1.03424 74.8704 1.03424 73.9803C1.03424 73.0902 -15.2485 73.0902 -15.2485 72.2001C-15.2485 71.31 1.03424 71.31 1.03424 70.4199C1.03424 69.5297 -15.2485 69.5295 -15.2485 68.6392C-15.2485 67.7493 1.03424 67.7493 1.03424 66.8595C1.03424 65.9689 -15.2485 65.9689 -15.2485 65.0782C-15.2485 64.187 1.03424 64.187 1.03424 63.2958C1.03424 62.4045 -11.5832 59.6401 -7.92295 59.5508C28.4196 58.664 29.4192 63.4857 65.9456 63.4857C102.472 63.4857 102.474 59.5408 139.002 59.5408C175.531 59.5408 175.531 63.4857 212.06 63.4857C248.589 63.4857 248.588 59.5408 285.116 59.5408C321.643 59.5408 321.645 63.4857 358.174 63.4857C394.703 63.4857 394.701 59.5408 431.229 59.5408C467.756 59.5408 467.756 63.4857 504.284 63.4857C540.812 63.4857 540.814 59.5408 577.343 59.5408C613.873 59.5408 613.872 63.4857 650.4 63.4857C686.928 63.4857 686.933 59.5408 723.466 59.5408C760 59.5408 759.369 62.5904 795.719 63.4758C799.373 63.5648 804.675 62.4031 804.675 63.2929C804.675 64.1821 788.392 64.1821 788.392 65.0714C788.392 65.9607 804.675 65.9611 804.675 66.8508C804.675 67.7405 788.392 67.7409 788.392 68.631C788.392 69.5211 804.675 69.5211 804.675 70.4112C804.675 71.3013 788.392 71.3013 788.392 72.1914C788.392 73.0815 804.675 73.0817 804.675 73.9721C804.675 74.8619 788.392 74.8619 788.392 75.7518C788.392 76.6424 804.675 76.6424 804.675 77.533C804.675 78.4243 787.83 78.8272 788.549 79.7012C790.145 81.6403 801.009 82.9712 797.349 83.0605Z" fill="#008440"/>
<path d="M797.413 83.4038C761.07 84.2906 760.07 79.4689 723.544 79.4689C687.016 79.4689 687.016 83.4137 650.487 83.4137C613.958 83.4137 613.958 79.4689 577.429 79.4689C540.902 79.4689 540.902 83.4137 504.374 83.4137C467.845 83.4137 467.845 79.4689 431.315 79.4689C394.788 79.4689 394.788 83.4137 358.261 83.4137C321.733 83.4137 321.733 79.4689 285.205 79.4689C248.676 79.4689 248.676 83.4137 212.146 83.4137C175.618 83.4137 175.618 79.4689 139.09 79.4689C102.556 79.4689 102.556 83.4137 66.0231 83.4137C29.4898 83.4137 30.121 80.3641 -6.22924 79.4788C-9.88358 79.3898 -15.1851 80.5515 -15.1851 79.6617C-15.1851 78.7724 1.09771 78.7724 1.09771 77.8832C1.09771 76.9935 -15.1851 76.9935 -15.1851 76.1038C-15.1851 75.2141 1.09771 75.2137 1.09771 74.3236C1.09771 73.4335 -15.1851 73.4335 -15.1851 72.5434C-15.1851 71.6533 1.09771 71.6533 1.09771 70.7631C1.09771 69.873 -15.1851 69.8728 -15.1851 68.9825C-15.1851 68.0926 1.09771 68.0926 1.09771 67.2028C1.09771 66.3121 -15.1851 66.3121 -15.1851 65.4215C-15.1851 64.5303 1.09771 64.5303 1.09771 63.639C1.09771 62.7477 -11.5197 59.9834 -7.85947 59.894C28.483 59.0073 29.4826 63.8289 66.0091 63.8289C102.536 63.8289 102.537 59.8841 139.066 59.8841C175.594 59.8841 175.595 63.8289 212.124 63.8289C248.653 63.8289 248.651 59.8841 285.179 59.8841C321.707 59.8841 321.708 63.8289 358.238 63.8289C394.767 63.8289 394.765 59.8841 431.292 59.8841C467.819 59.8841 467.82 63.8289 504.348 63.8289C540.876 63.8289 540.877 59.8841 577.407 59.8841C613.936 59.8841 613.935 63.8289 650.463 63.8289C686.992 63.8289 686.997 59.8841 723.53 59.8841C760.063 59.8841 759.432 62.9337 795.782 63.819C799.437 63.908 804.738 62.7463 804.738 63.6361C804.738 64.5254 788.455 64.5254 788.455 65.4146C788.455 66.3039 804.738 66.3043 804.738 67.194C804.738 68.0837 788.455 68.0841 788.455 68.9742C788.455 69.8643 804.738 69.8643 804.738 70.7544C804.738 71.6445 788.455 71.6445 788.455 72.5347C788.455 73.4248 804.738 73.425 804.738 74.3153C804.738 75.2052 788.455 75.2052 788.455 76.095C788.455 76.9857 804.738 76.9857 804.738 77.8763C804.738 78.7675 787.893 79.1705 788.613 80.0445C790.209 81.9836 801.073 83.3145 797.413 83.4038Z" fill="#008340"/>
<path d="M797.476 83.7471C761.133 84.6338 760.133 79.8121 723.607 79.8121C687.079 79.8121 687.079 83.757 650.55 83.757C614.021 83.757 614.021 79.8121 577.492 79.8121C540.965 79.8121 540.965 83.757 504.437 83.757C467.908 83.757 467.908 79.8121 431.378 79.8121C394.851 79.8121 394.851 83.757 358.324 83.757C321.796 83.757 321.796 79.8121 285.268 79.8121C248.739 79.8121 248.739 83.757 212.209 83.757C175.681 83.757 175.681 79.8121 139.153 79.8121C102.619 79.8121 102.619 83.757 66.0861 83.757C29.5528 83.757 30.1839 80.7074 -6.16626 79.822C-9.8206 79.733 -15.1221 80.8948 -15.1221 80.005C-15.1221 79.1157 1.1607 79.1157 1.1607 78.2264C1.1607 77.3367 -15.1221 77.3367 -15.1221 76.447C-15.1221 75.5573 1.1607 75.5569 1.1607 74.6668C1.1607 73.7767 -15.1221 73.7767 -15.1221 72.8866C-15.1221 71.9965 1.1607 71.9965 1.1607 71.1064C1.1607 70.2163 -15.1221 70.2161 -15.1221 69.3257C-15.1221 68.4359 1.1607 68.4359 1.1607 67.546C1.1607 66.6554 -15.1221 66.6554 -15.1221 65.7648C-15.1221 64.8735 1.1607 64.8735 1.1607 63.9823C1.1607 63.091 -11.4567 60.3266 -7.79649 60.2373C28.546 59.3505 29.5456 64.1722 66.0721 64.1722C102.599 64.1722 102.6 60.2274 139.129 60.2274C175.657 60.2274 175.658 64.1722 212.187 64.1722C248.715 64.1722 248.714 60.2274 285.242 60.2274C321.77 60.2274 321.771 64.1722 358.301 64.1722C394.83 64.1722 394.828 60.2274 431.355 60.2274C467.882 60.2274 467.883 64.1722 504.411 64.1722C540.939 64.1722 540.94 60.2274 577.47 60.2274C613.999 60.2274 613.998 64.1722 650.526 64.1722C687.055 64.1722 687.06 60.2274 723.593 60.2274C760.126 60.2274 759.495 63.277 795.845 64.1623C799.5 64.2513 804.801 63.0896 804.801 63.9794C804.801 64.8686 788.518 64.8686 788.518 65.7579C788.518 66.6472 804.801 66.6476 804.801 67.5373C804.801 68.427 788.518 68.4274 788.518 69.3175C788.518 70.2076 804.801 70.2076 804.801 71.0977C804.801 71.9878 788.518 71.9878 788.518 72.8779C788.518 73.7681 804.801 73.7683 804.801 74.6586C804.801 75.5485 788.518 75.5485 788.518 76.4383C788.518 77.3289 804.801 77.3289 804.801 78.2196C804.801 79.1108 787.956 79.5138 788.676 80.3878C790.272 82.3269 801.136 83.6577 797.476 83.7471Z" fill="#00813F"/>
<path d="M797.54 84.0908C761.197 84.9776 760.198 80.1559 723.671 80.1559C687.143 80.1559 687.143 84.1007 650.615 84.1007C614.086 84.1007 614.086 80.1559 577.557 80.1559C541.029 80.1559 541.029 84.1007 504.501 84.1007C467.972 84.1007 467.972 80.1559 431.443 80.1559C394.914 80.1559 394.916 84.1007 358.388 84.1007C321.861 84.1007 321.861 80.1559 285.333 80.1559C248.805 80.1559 248.803 84.1007 212.274 84.1007C175.745 84.1007 175.745 80.1559 139.217 80.1559C102.684 80.1559 102.684 84.1007 66.1506 84.1007C29.6172 84.1007 30.2484 81.0511 -6.10181 80.1658C-9.75614 80.0768 -15.0576 81.2385 -15.0576 80.3487C-15.0576 79.4594 1.22515 79.4594 1.22515 78.5702C1.22515 77.6805 -15.0576 77.6805 -15.0576 76.7908C-15.0576 75.9011 1.22515 75.9007 1.22515 75.0106C1.22515 74.1205 -15.0576 74.1205 -15.0576 73.2304C-15.0576 72.3403 1.22515 72.3403 1.22515 71.4502C1.22515 70.56 -15.0576 70.5598 -15.0576 69.6695C-15.0576 68.7796 1.22515 68.7796 1.22515 67.8898C1.22515 66.9992 -15.0576 66.9992 -15.0576 66.1085C-15.0576 65.2173 1.22515 65.2173 1.22515 64.326C1.22515 63.4348 -11.3923 60.6704 -7.73203 60.581C28.6105 59.6943 29.6101 64.5159 66.1365 64.5159C102.663 64.5159 102.665 60.5711 139.193 60.5711C175.722 60.5711 175.722 64.5159 212.251 64.5159C248.78 64.5159 248.779 60.5711 285.307 60.5711C321.834 60.5711 321.836 64.5159 358.365 64.5159C394.894 64.5159 394.892 60.5711 431.42 60.5711C467.947 60.5711 467.947 64.5159 504.475 64.5159C541.003 64.5159 541.005 60.5711 577.534 60.5711C614.064 60.5711 614.063 64.5159 650.591 64.5159C687.119 64.5159 687.124 60.5711 723.657 60.5711C760.191 60.5711 759.56 63.6207 795.91 64.5061C799.564 64.595 804.866 63.4333 804.866 64.3231C804.866 65.2124 788.583 65.2124 788.583 66.1017C788.583 66.9914 804.866 66.9914 804.866 67.8811C804.866 68.7708 788.583 68.7712 788.583 69.6613C788.583 70.5514 804.866 70.5514 804.866 71.4415C804.866 72.3316 788.583 72.3316 788.583 73.2217C788.583 74.1118 804.866 74.112 804.866 75.0024C804.866 75.8922 788.583 75.8922 788.583 76.7821C788.583 77.6727 804.866 77.6727 804.866 78.5633C804.866 79.4545 788.02 79.8575 788.74 80.7315C790.336 82.6706 801.2 84.0015 797.54 84.0908Z" fill="#00803E"/>
<path d="M797.603 84.4336C761.261 85.3203 760.261 80.4987 723.734 80.4987C687.206 80.4987 687.206 84.4435 650.678 84.4435C614.149 84.4435 614.149 80.4987 577.62 80.4987C541.092 80.4987 541.092 84.4435 504.564 84.4435C468.035 84.4435 468.035 80.4987 431.506 80.4987C394.979 80.4987 394.979 84.4435 358.451 84.4435C321.924 84.4435 321.924 80.4987 285.396 80.4987C248.866 80.4987 248.866 84.4435 212.337 84.4435C175.808 84.4435 175.808 80.4987 139.28 80.4987C102.747 80.4987 102.747 84.4435 66.2135 84.4435C29.6802 84.4435 30.3114 81.3939 -6.03882 80.5086C-9.69315 80.4196 -14.9946 81.5813 -14.9946 80.6915C-14.9946 79.8022 1.28814 79.8022 1.28814 78.9129C1.28814 78.0233 -14.9946 78.0233 -14.9946 77.1336C-14.9946 76.2439 1.28814 76.2435 1.28814 75.3534C1.28814 74.4633 -14.9946 74.4633 -14.9946 73.5732C-14.9946 72.6831 1.28814 72.6831 1.28814 71.7929C1.28814 70.9028 -14.9946 70.9026 -14.9946 70.0123C-14.9946 69.1224 1.28814 69.1224 1.28814 68.2326C1.28814 67.3419 -14.9946 67.3419 -14.9946 66.4513C-14.9946 65.5601 1.28814 65.5601 1.28814 64.6688C1.28814 63.7775 -11.3293 61.0131 -7.66905 60.9238C28.6735 60.037 29.6731 64.8587 66.1995 64.8587C102.726 64.8587 102.728 60.9139 139.256 60.9139C175.785 60.9139 175.785 64.8587 212.314 64.8587C248.843 64.8587 248.842 60.9139 285.37 60.9139C321.897 60.9139 321.899 64.8587 358.428 64.8587C394.957 64.8587 394.955 60.9139 431.482 60.9139C468.01 60.9139 468.01 64.8587 504.538 64.8587C541.066 64.8587 541.068 60.9139 577.597 60.9139C614.127 60.9139 614.125 64.8587 650.654 64.8587C687.182 64.8587 687.187 60.9139 723.72 60.9139C760.254 60.9139 759.623 63.9635 795.973 64.8488C799.627 64.9378 804.929 63.7761 804.929 64.6659C804.929 65.5552 788.646 65.5552 788.646 66.4444C788.646 67.3341 804.929 67.3341 804.929 68.2238C804.929 69.1135 788.646 69.1139 788.646 70.004C788.646 70.8941 804.929 70.8941 804.929 71.7842C804.929 72.6743 788.646 72.6743 788.646 73.5645C788.646 74.4546 804.929 74.4548 804.929 75.3451C804.929 76.235 788.646 76.235 788.646 77.1248C788.646 78.0155 804.929 78.0155 804.929 78.9061C804.929 79.7973 788.084 80.2003 788.803 81.0743C790.399 83.0134 801.263 84.3442 797.603 84.4336Z" fill="#007E3E"/>
<mask id="mask2_124_562" style="mask-type:luminance" maskUnits="userSpaceOnUse" x="25" y="55" width="763" height="37">
<path d="M787.607 55.2031H25.8496V91.8041H787.607V55.2031Z" fill="white"/>
</mask>
<g mask="url(#mask2_124_562)">
<path d="M797.667 84.7768C761.324 85.6636 760.325 80.8419 723.798 80.8419C687.27 80.8419 687.27 84.7868 650.742 84.7868C614.213 84.7868 614.213 80.8419 577.684 80.8419C541.156 80.8419 541.156 84.7868 504.628 84.7868C468.099 84.7868 468.099 80.8419 431.57 80.8419C395.043 80.8419 395.043 84.7868 358.515 84.7868C321.988 84.7868 321.988 80.8419 285.46 80.8419C248.93 80.8419 248.93 84.7868 212.401 84.7868C175.872 84.7868 175.872 80.8419 139.344 80.8419C102.811 80.8419 102.811 84.7868 66.2775 84.7868C29.7442 84.7868 30.3754 81.7372 -5.97485 80.8518C-9.62919 80.7628 -14.9307 81.9245 -14.9307 81.0347C-14.9307 80.1455 1.35211 80.1455 1.35211 79.2562C1.35211 78.3665 -14.9307 78.3665 -14.9307 77.4768C-14.9307 76.5871 1.35211 76.5867 1.35211 75.6966C1.35211 74.8065 -14.9307 74.8065 -14.9307 73.9164C-14.9307 73.0263 1.35211 73.0263 1.35211 72.1362C1.35211 71.2461 -14.9307 71.2459 -14.9307 70.3555C-14.9307 69.4657 1.35211 69.4657 1.35211 68.5758C1.35211 67.6852 -14.9307 67.6852 -14.9307 66.7946C-14.9307 65.9033 1.35211 65.9033 1.35211 65.0121C1.35211 64.1208 -11.2653 61.3564 -7.60508 61.2671C28.7374 60.3803 29.737 65.202 66.2635 65.202C102.79 65.202 102.792 61.2571 139.32 61.2571C175.848 61.2571 175.849 65.202 212.378 65.202C248.907 65.202 248.906 61.2571 285.433 61.2571C321.961 61.2571 321.963 65.202 358.492 65.202C395.021 65.202 395.019 61.2571 431.546 61.2571C468.074 61.2571 468.074 65.202 504.602 65.202C541.13 65.202 541.132 61.2571 577.661 61.2571C614.191 61.2571 614.189 65.202 650.718 65.202C687.246 65.202 687.251 61.2571 723.784 61.2571C760.318 61.2571 759.687 64.3067 796.037 65.1921C799.691 65.2811 804.993 64.1194 804.993 65.0092C804.993 65.8984 788.71 65.8984 788.71 66.7877C788.71 67.6774 804.993 67.6774 804.993 68.5671C804.993 69.4568 788.71 69.4572 788.71 70.3473C788.71 71.2374 804.993 71.2374 804.993 72.1275C804.993 73.0176 788.71 73.0176 788.71 73.9077C788.71 74.7979 804.993 74.7981 804.993 75.6884C804.993 76.5783 788.71 76.5783 788.71 77.4681C788.71 78.3587 804.993 78.3587 804.993 79.2494C804.993 80.1406 788.147 80.5435 788.867 81.4175C790.463 83.3567 801.327 84.6875 797.667 84.7768Z" fill="#007D3D"/>
</g>
</g>
</g>
<g filter="url(#filter2_d_124_562)">
<path d="M796 97.887L4 98C15.0086 97.9984 23.9316 87.749 23.9303 75.1072L776.065 75C776.066 87.6418 784.992 97.8886 796 97.887Z" fill="url(#paint4_linear_124_562)"/>
</g>
<g clip-path="url(#clip0_124_562)" filter="url(#filter3_d_124_562)">
<path d="M776.239 97.9038H24V148H776.239V97.9038Z" fill="url(#paint5_linear_124_562)"/>
</g>
<g filter="url(#filter4_d_124_562)">
<path d="M743.548 184.31L48.4779 184.31C34.9681 184.31 24 173.834 24 160.93L24 145L776 145L776 153.313C776 170.421 761.459 184.31 743.548 184.31Z" fill="url(#paint6_linear_124_562)"/>
<path d="M453.26 169.2C455.825 170.065 454.964 171.841 451.337 173.167C447.71 174.492 440.127 174.001 440.127 174.001C440.127 174.001 438.423 171.359 442.05 170.034C445.677 168.708 450.696 168.335 453.26 169.2Z" fill="#FFF3CC"/>
<path d="M296.661 156.163C299.226 157.028 298.365 158.804 294.738 160.13C291.111 161.455 283.527 160.964 283.527 160.964C283.527 160.964 281.824 158.322 285.451 156.997C289.077 155.671 294.096 155.297 296.661 156.163Z" fill="#FFF3CC"/>
<path d="M105.097 174.122C107.662 174.987 106.801 176.763 103.174 178.089C99.5472 179.415 91.9635 178.923 91.9635 178.923C91.9635 178.923 90.2599 176.282 93.8866 174.956C97.5134 173.63 102.532 173.257 105.097 174.122Z" fill="#FFF3CC"/>
<path d="M628.643 163.532C631.207 164.397 630.346 166.173 626.719 167.499C623.093 168.825 615.509 168.333 615.509 168.333C615.509 168.333 613.805 165.692 617.432 164.366C621.059 163.04 626.078 162.667 628.643 163.532Z" fill="#FFF3CC"/>
</g>
<g filter="url(#filter5_d_124_562)">
<path d="M56.4524 5.67416e-06L751.522 0.000127204C765.032 0.000129566 776 10.4766 776 23.3806L776 39.3102L24 39.31L24 30.9975C24 13.8895 38.5415 2.54251e-06 56.4524 5.67416e-06Z" fill="url(#paint7_linear_124_562)"/>
<path d="M346.74 15.1104C344.175 14.2452 345.036 12.4692 348.663 11.1434C352.29 9.81766 359.873 10.3094 359.873 10.3094C359.873 10.3094 361.577 12.9506 357.95 14.2764C354.323 15.6021 349.304 15.9755 346.74 15.1104Z" fill="#FFF3CC"/>
<path d="M503.339 28.1475C500.774 27.2823 501.635 25.5063 505.262 24.1805C508.889 22.8548 516.473 23.3465 516.473 23.3465C516.473 23.3465 518.176 25.9877 514.549 27.3135C510.923 28.6392 505.904 29.0126 503.339 28.1475Z" fill="#FFF3CC"/>
<path d="M694.903 10.188C692.338 9.32286 693.199 7.54684 696.826 6.22106C700.453 4.89529 708.036 5.38705 708.036 5.38705C708.036 5.38705 709.74 8.02822 706.113 9.35399C702.487 10.6798 697.468 11.0531 694.903 10.188Z" fill="#FFF3CC"/>
<path d="M171.358 20.7778C168.793 19.9127 169.654 18.1367 173.281 16.8109C176.908 15.4851 184.492 15.9769 184.492 15.9769C184.492 15.9769 186.195 18.6181 182.568 19.9438C178.942 21.2696 173.923 21.643 171.358 20.7778Z" fill="#FFF3CC"/>
</g>
<defs>
<filter id="filter0_d_124_562" x="20" y="39" width="760" height="36.585" filterUnits="userSpaceOnUse" color-interpolation-filters="sRGB">
<feFlood flood-opacity="0" result="BackgroundImageFix"/>
<feColorMatrix in="SourceAlpha" type="matrix" values="0 0 0 0 0 0 0 0 0 0 0 0 0 0 0 0 0 0 127 0" result="hardAlpha"/>
<feOffset dy="4"/>
<feGaussianBlur stdDeviation="2"/>
<feComposite in2="hardAlpha" operator="out"/>
<feColorMatrix type="matrix" values="0 0 0 0 0 0 0 0 0 0 0 0 0 0 0 0 0 0 0.25 0"/>
<feBlend mode="normal" in2="BackgroundImageFix" result="effect1_dropShadow_124_562"/>
<feBlend mode="normal" in="SourceGraphic" in2="effect1_dropShadow_124_562" result="shape"/>
</filter>
<filter id="filter1_d_124_562" x="20" y="51.2051" width="760" height="41.6807" filterUnits="userSpaceOnUse" color-interpolation-filters="sRGB">
<feFlood flood-opacity="0" result="BackgroundImageFix"/>
<feColorMatrix in="SourceAlpha" type="matrix" values="0 0 0 0 0 0 0 0 0 0 0 0 0 0 0 0 0 0 127 0" result="hardAlpha"/>
<feOffset dy="4"/>
<feGaussianBlur stdDeviation="2"/>
<feComposite in2="hardAlpha" operator="out"/>
<feColorMatrix type="matrix" values="0 0 0 0 0 0 0 0 0 0 0 0 0 0 0 0 0 0 0.25 0"/>
<feBlend mode="normal" in2="BackgroundImageFix" result="effect1_dropShadow_124_562"/>
<feBlend mode="normal" in="SourceGraphic" in2="effect1_dropShadow_124_562" result="shape"/>
</filter>
<filter id="filter2_d_124_562" x="0" y="75" width="800" height="31" filterUnits="userSpaceOnUse" color-interpolation-filters="sRGB">
<feFlood flood-opacity="0" result="BackgroundImageFix"/>
<feColorMatrix in="SourceAlpha" type="matrix" values="0 0 0 0 0 0 0 0 0 0 0 0 0 0 0 0 0 0 127 0" result="hardAlpha"/>
<feOffset dy="4"/>
<feGaussianBlur stdDeviation="2"/>
<feComposite in2="hardAlpha" operator="out"/>
<feColorMatrix type="matrix" values="0 0 0 0 0 0 0 0 0 0 0 0 0 0 0 0 0 0 0.25 0"/>
<feBlend mode="normal" in2="BackgroundImageFix" result="effect1_dropShadow_124_562"/>
<feBlend mode="normal" in="SourceGraphic" in2="effect1_dropShadow_124_562" result="shape"/>
</filter>
<filter id="filter3_d_124_562" x="20" y="97.9038" width="760.239" height="58.0962" filterUnits="userSpaceOnUse" color-interpolation-filters="sRGB">
<feFlood flood-opacity="0" result="BackgroundImageFix"/>
<feColorMatrix in="SourceAlpha" type="matrix" values="0 0 0 0 0 0 0 0 0 0 0 0 0 0 0 0 0 0 127 0" result="hardAlpha"/>
<feOffset dy="4"/>
<feGaussianBlur stdDeviation="2"/>
<feComposite in2="hardAlpha" operator="out"/>
<feColorMatrix type="matrix" values="0 0 0 0 0 0 0 0 0 0 0 0 0 0 0 0 0 0 0.25 0"/>
<feBlend mode="normal" in2="BackgroundImageFix" result="effect1_dropShadow_124_562"/>
<feBlend mode="normal" in="SourceGraphic" in2="effect1_dropShadow_124_562" result="shape"/>
</filter>
<filter id="filter4_d_124_562" x="20" y="145" width="760" height="47.3101" filterUnits="userSpaceOnUse" color-interpolation-filters="sRGB">
<feFlood flood-opacity="0" result="BackgroundImageFix"/>
<feColorMatrix in="SourceAlpha" type="matrix" values="0 0 0 0 0 0 0 0 0 0 0 0 0 0 0 0 0 0 127 0" result="hardAlpha"/>
<feOffset dy="4"/>
<feGaussianBlur stdDeviation="2"/>
<feComposite in2="hardAlpha" operator="out"/>
<feColorMatrix type="matrix" values="0 0 0 0 0 0 0 0 0 0 0 0 0 0 0 0 0 0 0.25 0"/>
<feBlend mode="normal" in2="BackgroundImageFix" result="effect1_dropShadow_124_562"/>
<feBlend mode="normal" in="SourceGraphic" in2="effect1_dropShadow_124_562" result="shape"/>
</filter>
<filter id="filter5_d_124_562" x="20" y="0" width="760" height="47.3101" filterUnits="userSpaceOnUse" color-interpolation-filters="sRGB">
<feFlood flood-opacity="0" result="BackgroundImageFix"/>
<feColorMatrix in="SourceAlpha" type="matrix" values="0 0 0 0 0 0 0 0 0 0 0 0 0 0 0 0 0 0 127 0" result="hardAlpha"/>
<feOffset dy="4"/>
<feGaussianBlur stdDeviation="2"/>
<feComposite in2="hardAlpha" operator="out"/>
<feColorMatrix type="matrix" values="0 0 0 0 0 0 0 0 0 0 0 0 0 0 0 0 0 0 0.25 0"/>
<feBlend mode="normal" in2="BackgroundImageFix" result="effect1_dropShadow_124_562"/>
<feBlend mode="normal" in="SourceGraphic" in2="effect1_dropShadow_124_562" result="shape"/>
</filter>
<linearGradient id="paint0_linear_124_562" x1="193.663" y1="41.8709" x2="193.663" y2="63.4125" gradientUnits="userSpaceOnUse">
<stop stop-color="#F42B00"/>
<stop offset="1" stop-color="#BA0000"/>
</linearGradient>
<linearGradient id="paint1_linear_124_562" x1="193.663" y1="40.2582" x2="193.663" y2="46.8351" gradientUnits="userSpaceOnUse">
<stop stop-color="#F46400"/>
<stop offset="1" stop-color="#BA0000"/>
</linearGradient>
<linearGradient id="paint2_linear_124_562" x1="604.099" y1="41.8709" x2="604.099" y2="63.4125" gradientUnits="userSpaceOnUse">
<stop stop-color="#F42B00"/>
<stop offset="1" stop-color="#BA0000"/>
</linearGradient>
<linearGradient id="paint3_linear_124_562" x1="604.099" y1="40.2582" x2="604.099" y2="46.8351" gradientUnits="userSpaceOnUse">
<stop stop-color="#F46400"/>
<stop offset="1" stop-color="#BA0000"/>
</linearGradient>
<linearGradient id="paint4_linear_124_562" x1="399.999" y1="97.9995" x2="399.999" y2="75.1109" gradientUnits="userSpaceOnUse">
<stop stop-color="#FFD600"/>
<stop offset="1" stop-color="#E7962F"/>
</linearGradient>
<linearGradient id="paint5_linear_124_562" x1="400.119" y1="148" x2="400.119" y2="97.9038" gradientUnits="userSpaceOnUse">
<stop stop-color="#FCA378"/>
<stop offset="0.3912" stop-color="#FBA176"/>
<stop offset="0.5501" stop-color="#FB9E6E"/>
<stop offset="0.6669" stop-color="#FA9762"/>
<stop offset="0.763" stop-color="#F98E51"/>
<stop offset="0.8464" stop-color="#F7823A"/>
<stop offset="0.9197" stop-color="#F6741E"/>
<stop offset="0.9835" stop-color="#F46400"/>
</linearGradient>
<linearGradient id="paint6_linear_124_562" x1="400" y1="184.31" x2="400" y2="145" gradientUnits="userSpaceOnUse">
<stop offset="0.413462" stop-color="#FFE9B0"/>
<stop offset="0.846154" stop-color="#F3C38F"/>
<stop offset="0.9986" stop-color="#E8A171"/>
</linearGradient>
<linearGradient id="paint7_linear_124_562" x1="400" y1="6.57419e-05" x2="400" y2="39.3101" gradientUnits="userSpaceOnUse">
<stop offset="0.413462" stop-color="#FFE9B0"/>
<stop offset="0.846154" stop-color="#F3C38F"/>
<stop offset="0.9986" stop-color="#E8A171"/>
</linearGradient>
<clipPath id="clip0_124_562">
<rect width="752.239" height="50.096" fill="white" transform="translate(24 97.9038)"/>
</clipPath>
</defs>
</svg>
