<svg width="760" height="37" viewBox="0 0 760 37" fill="none" xmlns="http://www.w3.org/2000/svg">
<g filter="url(#filter0_d_124_563)">
<path d="M173.663 0C79.9606 0 4 2.02074 4 4.51342V24.0715C4 26.5642 79.9606 28.5849 173.663 28.5849C267.365 28.5849 343.326 26.5642 343.326 24.0715V4.51342C343.326 2.02074 267.365 0 173.663 0Z" fill="url(#paint0_linear_124_563)"/>
<path d="M173.663 8.81519C266.048 8.81519 340.941 6.86152 340.941 4.45154C340.941 2.04156 266.048 0.0878906 173.663 0.0878906C81.2771 0.0878906 6.38379 2.04156 6.38379 4.45154C6.38379 6.86152 81.2771 8.81519 173.663 8.81519Z" fill="url(#paint1_linear_124_563)"/>
<path d="M584.099 0C489.161 0 412.198 2.02074 412.198 4.51342V24.0715C412.198 26.5642 489.161 28.5849 584.099 28.5849C679.037 28.5849 756 26.5642 756 24.0715V4.51342C756 2.02074 679.037 0 584.099 0Z" fill="url(#paint2_linear_124_563)"/>
<path d="M584.099 8.81519C677.703 8.81519 753.585 6.86152 753.585 4.45154C753.585 2.04156 677.703 0.0878906 584.099 0.0878906C490.495 0.0878906 414.614 2.04156 414.614 4.45154C414.614 6.86152 490.495 8.81519 584.099 8.81519Z" fill="url(#paint3_linear_124_563)"/>
</g>
<defs>
<filter id="filter0_d_124_563" x="0" y="0" width="760" height="36.585" filterUnits="userSpaceOnUse" color-interpolation-filters="sRGB">
<feFlood flood-opacity="0" result="BackgroundImageFix"/>
<feColorMatrix in="SourceAlpha" type="matrix" values="0 0 0 0 0 0 0 0 0 0 0 0 0 0 0 0 0 0 127 0" result="hardAlpha"/>
<feOffset dy="4"/>
<feGaussianBlur stdDeviation="2"/>
<feComposite in2="hardAlpha" operator="out"/>
<feColorMatrix type="matrix" values="0 0 0 0 0 0 0 0 0 0 0 0 0 0 0 0 0 0 0.25 0"/>
<feBlend mode="normal" in2="BackgroundImageFix" result="effect1_dropShadow_124_563"/>
<feBlend mode="normal" in="SourceGraphic" in2="effect1_dropShadow_124_563" result="shape"/>
</filter>
<linearGradient id="paint0_linear_124_563" x1="173.663" y1="2.87093" x2="173.663" y2="24.4125" gradientUnits="userSpaceOnUse">
<stop stop-color="#F42B00"/>
<stop offset="1" stop-color="#BA0000"/>
</linearGradient>
<linearGradient id="paint1_linear_124_563" x1="173.663" y1="1.25818" x2="173.663" y2="7.83508" gradientUnits="userSpaceOnUse">
<stop stop-color="#F46400"/>
<stop offset="1" stop-color="#BA0000"/>
</linearGradient>
<linearGradient id="paint2_linear_124_563" x1="584.099" y1="2.87093" x2="584.099" y2="24.4125" gradientUnits="userSpaceOnUse">
<stop stop-color="#F42B00"/>
<stop offset="1" stop-color="#BA0000"/>
</linearGradient>
<linearGradient id="paint3_linear_124_563" x1="584.099" y1="1.25818" x2="584.099" y2="7.83508" gradientUnits="userSpaceOnUse">
<stop stop-color="#F46400"/>
<stop offset="1" stop-color="#BA0000"/>
</linearGradient>
</defs>
</svg>
