<svg width="769" height="45" viewBox="0 0 769 45" fill="none" xmlns="http://www.w3.org/2000/svg">
<g filter="url(#filter0_g_124_433)">
<path d="M177.717 8C83.9848 8 8 10.0207 8 12.5134V32.0715C8 34.5642 83.9848 36.5849 177.717 36.5849C271.449 36.5849 347.434 34.5642 347.434 32.0715V12.5134C347.434 10.0207 271.449 8 177.717 8Z" fill="url(#paint0_linear_124_433)"/>
<path d="M177.717 16.8152C270.132 16.8152 345.049 14.8615 345.049 12.4515C345.049 10.0416 270.132 8.08789 177.717 8.08789C85.3019 8.08789 10.3848 10.0416 10.3848 12.4515C10.3848 14.8615 85.3019 16.8152 177.717 16.8152Z" fill="url(#paint1_linear_124_433)"/>
</g>
<g filter="url(#filter1_g_124_433)">
<path d="M588.284 8C493.315 8 416.328 10.0207 416.328 12.5134V32.0715C416.328 34.5642 493.315 36.5849 588.284 36.5849C683.252 36.5849 760.239 34.5642 760.239 32.0715V12.5134C760.239 10.0207 683.252 8 588.284 8Z" fill="url(#paint2_linear_124_433)"/>
<path d="M588.283 16.8152C681.917 16.8152 757.823 14.8615 757.823 12.4515C757.823 10.0416 681.917 8.08789 588.283 8.08789C494.649 8.08789 418.744 10.0416 418.744 12.4515C418.744 14.8615 494.649 16.8152 588.283 16.8152Z" fill="url(#paint3_linear_124_433)"/>
</g>
<defs>
<filter id="filter0_g_124_433" x="0" y="0" width="355.434" height="44.585" filterUnits="userSpaceOnUse" color-interpolation-filters="sRGB">
<feFlood flood-opacity="0" result="BackgroundImageFix"/>
<feBlend mode="normal" in="SourceGraphic" in2="BackgroundImageFix" result="shape"/>
<feTurbulence type="fractalNoise" baseFrequency="0.76923078298568726 0.76923078298568726" numOctaves="3" seed="2267" />
<feDisplacementMap in="shape" scale="16" xChannelSelector="R" yChannelSelector="G" result="displacedImage" width="100%" height="100%" />
<feMerge result="effect1_texture_124_433">
<feMergeNode in="displacedImage"/>
</feMerge>
</filter>
<filter id="filter1_g_124_433" x="408.328" y="0" width="359.911" height="44.585" filterUnits="userSpaceOnUse" color-interpolation-filters="sRGB">
<feFlood flood-opacity="0" result="BackgroundImageFix"/>
<feBlend mode="normal" in="SourceGraphic" in2="BackgroundImageFix" result="shape"/>
<feTurbulence type="fractalNoise" baseFrequency="0.76923078298568726 0.76923078298568726" numOctaves="3" seed="2267" />
<feDisplacementMap in="shape" scale="16" xChannelSelector="R" yChannelSelector="G" result="displacedImage" width="100%" height="100%" />
<feMerge result="effect1_texture_124_433">
<feMergeNode in="displacedImage"/>
</feMerge>
</filter>
<linearGradient id="paint0_linear_124_433" x1="177.717" y1="10.8709" x2="177.717" y2="32.4125" gradientUnits="userSpaceOnUse">
<stop stop-color="#F42B00"/>
<stop offset="1" stop-color="#BA0000"/>
</linearGradient>
<linearGradient id="paint1_linear_124_433" x1="177.717" y1="9.25818" x2="177.717" y2="15.8351" gradientUnits="userSpaceOnUse">
<stop stop-color="#F46400"/>
<stop offset="1" stop-color="#BA0000"/>
</linearGradient>
<linearGradient id="paint2_linear_124_433" x1="588.284" y1="10.8709" x2="588.284" y2="32.4125" gradientUnits="userSpaceOnUse">
<stop stop-color="#F42B00"/>
<stop offset="1" stop-color="#BA0000"/>
</linearGradient>
<linearGradient id="paint3_linear_124_433" x1="588.283" y1="9.25818" x2="588.283" y2="15.8351" gradientUnits="userSpaceOnUse">
<stop stop-color="#F46400"/>
<stop offset="1" stop-color="#BA0000"/>
</linearGradient>
</defs>
</svg>
