<svg width="757" height="45" viewBox="0 0 757 45" fill="none" xmlns="http://www.w3.org/2000/svg">
<g filter="url(#filter0_d_124_413)">
<path d="M34.742 5.67237e-06L729.592 0.000127164C743.098 0.000129525 754.062 10.4766 754.062 23.3806L754.062 39.3102L2.2998 39.31L2.2998 30.9975C2.2998 13.8895 16.8367 2.54171e-06 34.742 5.67237e-06Z" fill="url(#paint0_linear_124_413)"/>
<path d="M324.938 15.1104C322.374 14.2452 323.235 12.4692 326.86 11.1434C330.486 9.81766 338.067 10.3094 338.067 10.3094C338.067 10.3094 339.77 12.9506 336.144 14.2764C332.519 15.6021 327.501 15.9755 324.938 15.1104Z" fill="#FFF3CC"/>
<path d="M481.487 28.1475C478.924 27.2823 479.784 25.5063 483.41 24.1805C487.036 22.8548 494.617 23.3465 494.617 23.3465C494.617 23.3465 496.32 25.9877 492.694 27.3135C489.069 28.6392 484.051 29.0126 481.487 28.1475Z" fill="#FFF3CC"/>
<path d="M672.991 10.188C670.427 9.32286 671.288 7.54684 674.913 6.22106C678.539 4.89529 686.12 5.38705 686.12 5.38705C686.12 5.38705 687.823 8.02822 684.198 9.35399C680.572 10.6798 675.555 11.0531 672.991 10.188Z" fill="#FFF3CC"/>
<path d="M149.611 20.7778C147.047 19.9127 147.908 18.1367 151.533 16.8109C155.159 15.4851 162.74 15.9769 162.74 15.9769C162.74 15.9769 164.443 18.6181 160.818 19.9438C157.192 21.2696 152.175 21.643 149.611 20.7778Z" fill="#FFF3CC"/>
</g>
<defs>
<filter id="filter0_d_124_413" x="-0.000195265" y="0" width="756.363" height="44.6101" filterUnits="userSpaceOnUse" color-interpolation-filters="sRGB">
<feFlood flood-opacity="0" result="BackgroundImageFix"/>
<feColorMatrix in="SourceAlpha" type="matrix" values="0 0 0 0 0 0 0 0 0 0 0 0 0 0 0 0 0 0 127 0" result="hardAlpha"/>
<feOffset dy="3"/>
<feGaussianBlur stdDeviation="1.15"/>
<feComposite in2="hardAlpha" operator="out"/>
<feColorMatrix type="matrix" values="0 0 0 0 0 0 0 0 0 0 0 0 0 0 0 0 0 0 0.27 0"/>
<feBlend mode="normal" in2="BackgroundImageFix" result="effect1_dropShadow_124_413"/>
<feBlend mode="normal" in="SourceGraphic" in2="effect1_dropShadow_124_413" result="shape"/>
</filter>
<linearGradient id="paint0_linear_124_413" x1="378.181" y1="6.57212e-05" x2="378.181" y2="39.3101" gradientUnits="userSpaceOnUse">
<stop offset="0.413462" stop-color="#FFE9B0"/>
<stop offset="0.846154" stop-color="#F3C38F"/>
<stop offset="0.9986" stop-color="#E8A171"/>
</linearGradient>
</defs>
</svg>
