<svg width="781" height="63" viewBox="0 0 781 63" fill="none" xmlns="http://www.w3.org/2000/svg">
<g filter="url(#filter0_g_122_205)">
<mask id="mask0_122_205" style="mask-type:luminance" maskUnits="userSpaceOnUse" x="14" y="5" width="753" height="56">
<path d="M766.439 5.99756H14.2002V60.8991H766.439V5.99756Z" fill="white"/>
</mask>
<g mask="url(#mask0_122_205)">
<mask id="mask1_122_205" style="mask-type:luminance" maskUnits="userSpaceOnUse" x="14" y="8" width="763" height="37">
<path d="M776.2 8.24512H14.2002V44.8461H776.2V8.24512Z" fill="white"/>
</mask>
<g mask="url(#mask1_122_205)">
<path d="M786.263 37.8188C749.909 38.7056 748.909 33.8839 712.371 33.8839C675.831 33.8839 675.831 37.8288 639.291 37.8288C602.75 37.8288 602.75 33.8839 566.21 33.8839C529.671 33.8839 529.671 37.8288 493.131 37.8288C456.59 37.8288 456.59 33.8839 420.05 33.8839C383.511 33.8839 383.511 37.8288 346.972 37.8288C310.432 37.8288 310.432 33.8839 273.893 33.8839C237.352 33.8839 237.352 37.8288 200.811 37.8288C164.271 37.8288 164.271 33.8839 127.731 33.8839C91.1861 33.8839 91.1861 37.8288 54.6412 37.8288C18.0963 37.8288 18.7276 34.7792 -17.6341 33.8938C-21.2896 33.8048 -26.5928 34.9665 -26.5928 34.0767C-26.5928 33.1875 -10.3048 33.1875 -10.3048 32.2982C-10.3048 31.4085 -26.5928 31.4085 -26.5928 30.5188C-26.5928 29.6291 -10.3048 29.6287 -10.3048 28.7386C-10.3048 27.8485 -26.5928 27.8485 -26.5928 26.9584C-26.5928 26.0683 -10.3048 26.0683 -10.3048 25.1782C-10.3048 24.288 -26.5928 24.2878 -26.5928 23.3975C-26.5928 22.5076 -10.3048 22.5076 -10.3048 21.6178C-10.3048 20.7272 -26.5928 20.7272 -26.5928 19.8365C-26.5928 18.9453 -10.3048 18.9453 -10.3048 18.0541C-10.3048 17.1628 -22.9263 14.3984 -19.2649 14.3091C17.0892 13.4223 18.0891 18.244 54.6272 18.244C91.1652 18.244 91.167 14.2991 127.707 14.2991C164.247 14.2991 164.248 18.244 200.788 18.244C237.329 18.244 237.327 14.2991 273.867 14.2991C310.406 14.2991 310.408 18.244 346.948 18.244C383.489 18.244 383.487 14.2991 420.026 14.2991C456.565 14.2991 456.566 18.244 493.105 18.244C529.644 18.244 529.646 14.2991 566.187 14.2991C602.728 14.2991 602.727 18.244 639.267 18.244C675.807 18.244 675.812 14.2991 712.357 14.2991C748.902 14.2991 748.27 17.3487 784.632 18.2341C788.288 18.3231 793.591 17.1614 793.591 18.0512C793.591 18.9404 777.303 18.9404 777.303 19.8297C777.303 20.719 793.591 20.7194 793.591 21.6091C793.591 22.4988 777.303 22.4992 777.303 23.3893C777.303 24.2794 793.591 24.2794 793.591 25.1695C793.591 26.0596 777.303 26.0596 777.303 26.9497C777.303 27.8398 793.591 27.84 793.591 28.7304C793.591 29.6202 777.303 29.6202 777.303 30.5101C777.303 31.4007 793.591 31.4007 793.591 32.2913C793.591 33.1826 776.74 33.5855 777.46 34.4595C779.057 36.3986 789.924 37.7295 786.263 37.8188Z" fill="#00A651"/>
</g>
<path d="M786.328 38.1621C749.974 39.0489 748.974 34.2272 712.436 34.2272C675.896 34.2272 675.896 38.172 639.356 38.172C602.815 38.172 602.815 34.2272 566.275 34.2272C529.735 34.2272 529.735 38.172 493.196 38.172C456.655 38.172 456.655 34.2272 420.114 34.2272C383.576 34.2272 383.576 38.172 347.037 38.172C310.497 38.172 310.497 34.2272 273.958 34.2272C237.417 34.2272 237.417 38.172 200.876 38.172C164.336 38.172 164.336 34.2272 127.796 34.2272C91.2511 34.2272 91.2511 38.172 54.7061 38.172C18.1612 38.172 18.7926 35.1224 -17.5692 34.2371C-21.2247 34.1481 -26.5278 35.3098 -26.5278 34.42C-26.5278 33.5307 -10.2399 33.5307 -10.2399 32.6415C-10.2399 31.7518 -26.5278 31.7518 -26.5278 30.8621C-26.5278 29.9724 -10.2399 29.972 -10.2399 29.0819C-10.2399 28.1918 -26.5278 28.1918 -26.5278 27.3017C-26.5278 26.4116 -10.2399 26.4116 -10.2399 25.5214C-10.2399 24.6313 -26.5278 24.6311 -26.5278 23.7408C-26.5278 22.8509 -10.2399 22.8509 -10.2399 21.9611C-10.2399 21.0704 -26.5278 21.0704 -26.5278 20.1798C-26.5278 19.2886 -10.2399 19.2886 -10.2399 18.3973C-10.2399 17.506 -22.8613 14.7417 -19.1999 14.6523C17.1541 13.7656 18.1541 18.5872 54.6921 18.5872C91.2302 18.5872 91.232 14.6424 127.772 14.6424C164.312 14.6424 164.312 18.5872 200.853 18.5872C237.394 18.5872 237.392 14.6424 273.932 14.6424C310.471 14.6424 310.473 18.5872 347.013 18.5872C383.554 18.5872 383.552 14.6424 420.091 14.6424C456.63 14.6424 456.63 18.5872 493.17 18.5872C529.709 18.5872 529.711 14.6424 566.252 14.6424C602.793 14.6424 602.792 18.5872 639.332 18.5872C675.872 18.5872 675.877 14.6424 712.422 14.6424C748.967 14.6424 748.335 17.692 784.697 18.5773C788.353 18.6663 793.656 17.5046 793.656 18.3944C793.656 19.2837 777.368 19.2837 777.368 20.1729C777.368 21.0622 793.656 21.0626 793.656 21.9523C793.656 22.842 777.368 22.8424 777.368 23.7325C777.368 24.6226 793.656 24.6226 793.656 25.5127C793.656 26.4028 777.368 26.4028 777.368 27.293C777.368 28.1831 793.656 28.1833 793.656 29.0736C793.656 29.9635 777.368 29.9635 777.368 30.8533C777.368 31.744 793.656 31.744 793.656 32.6346C793.656 33.5258 776.805 33.9288 777.525 34.8028C779.121 36.7419 789.989 38.0728 786.328 38.1621Z" fill="#00A550"/>
<path d="M786.392 38.5054C750.038 39.3921 749.038 34.5704 712.5 34.5704C675.96 34.5704 675.96 38.5153 639.42 38.5153C602.879 38.5153 602.879 34.5704 566.339 34.5704C529.799 34.5704 529.799 38.5153 493.26 38.5153C456.719 38.5153 456.719 34.5704 420.178 34.5704C383.64 34.5704 383.64 38.5153 347.101 38.5153C310.561 38.5153 310.561 34.5704 274.022 34.5704C237.481 34.5704 237.481 38.5153 200.94 38.5153C164.4 38.5153 164.4 34.5704 127.86 34.5704C91.315 34.5704 91.315 38.5153 54.7701 38.5153C18.2252 38.5153 18.8565 35.4657 -17.5052 34.5803C-21.1607 34.4913 -26.4639 35.6531 -26.4639 34.7633C-26.4639 33.874 -10.1759 33.874 -10.1759 32.9847C-10.1759 32.095 -26.4639 32.095 -26.4639 31.2053C-26.4639 30.3156 -10.1759 30.3152 -10.1759 29.4251C-10.1759 28.535 -26.4639 28.535 -26.4639 27.6449C-26.4639 26.7548 -10.1759 26.7548 -10.1759 25.8647C-10.1759 24.9746 -26.4639 24.9744 -26.4639 24.084C-26.4639 23.1942 -10.1759 23.1942 -10.1759 22.3043C-10.1759 21.4137 -26.4639 21.4137 -26.4639 20.5231C-26.4639 19.6318 -10.1759 19.6318 -10.1759 18.7406C-10.1759 17.8493 -22.7974 15.0849 -19.136 14.9956C17.2181 14.1088 18.218 18.9305 54.7561 18.9305C91.2941 18.9305 91.2959 14.9857 127.836 14.9857C164.376 14.9857 164.376 18.9305 200.917 18.9305C237.457 18.9305 237.456 14.9857 273.996 14.9857C310.535 14.9857 310.537 18.9305 347.077 18.9305C383.618 18.9305 383.616 14.9857 420.155 14.9857C456.694 14.9857 456.694 18.9305 493.234 18.9305C529.773 18.9305 529.775 14.9857 566.316 14.9857C602.857 14.9857 602.856 18.9305 639.396 18.9305C675.936 18.9305 675.941 14.9857 712.486 14.9857C749.031 14.9857 748.399 18.0353 784.761 18.9206C788.417 19.0096 793.72 17.8479 793.72 18.7377C793.72 19.6269 777.432 19.6269 777.432 20.5162C777.432 21.4059 793.72 21.4059 793.72 22.2956C793.72 23.1853 777.432 23.1857 777.432 24.0758C777.432 24.9659 793.72 24.9659 793.72 25.856C793.72 26.7461 777.432 26.7461 777.432 27.6362C777.432 28.5264 793.72 28.5266 793.72 29.4169C793.72 30.3068 777.432 30.3068 777.432 31.1966C777.432 32.0872 793.72 32.0872 793.72 32.9779C793.72 33.8691 776.869 34.272 777.589 35.1461C779.185 37.0852 790.053 38.416 786.392 38.5054Z" fill="#00A350"/>
<path d="M786.455 38.8486C750.101 39.7354 749.101 34.9137 712.563 34.9137C676.023 34.9137 676.023 38.8585 639.483 38.8585C602.943 38.8585 602.943 34.9137 566.402 34.9137C529.863 34.9137 529.863 38.8585 493.324 38.8585C456.783 38.8585 456.783 34.9137 420.242 34.9137C383.703 34.9137 383.703 38.8585 347.164 38.8585C310.625 38.8585 310.625 34.9137 274.085 34.9137C237.544 34.9137 237.544 38.8585 201.003 38.8585C164.463 38.8585 164.463 34.9137 127.923 34.9137C91.3785 34.9137 91.3785 38.8585 54.8336 38.8585C18.2886 38.8585 18.92 35.8089 -17.4417 34.9236C-21.0972 34.8346 -26.4004 35.9963 -26.4004 35.1065C-26.4004 34.2173 -10.1124 34.2173 -10.1124 33.328C-10.1124 32.4383 -26.4004 32.4383 -26.4004 31.5486C-26.4004 30.6589 -10.1124 30.6585 -10.1124 29.7684C-10.1124 28.8783 -26.4004 28.8783 -26.4004 27.9882C-26.4004 27.0981 -10.1124 27.0981 -10.1124 26.208C-10.1124 25.3178 -26.4004 25.3176 -26.4004 24.4273C-26.4004 23.5374 -10.1124 23.5374 -10.1124 22.6476C-10.1124 21.757 -26.4004 21.757 -26.4004 20.8663C-26.4004 19.9751 -10.1124 19.9751 -10.1124 19.0838C-10.1124 18.1926 -22.7339 15.4282 -19.0725 15.3389C17.2816 14.4521 18.2815 19.2738 54.8195 19.2738C91.3576 19.2738 91.3594 15.3289 127.899 15.3289C164.439 15.3289 164.44 19.2738 200.98 19.2738C237.521 19.2738 237.52 15.3289 274.059 15.3289C310.598 15.3289 310.6 19.2738 347.141 19.2738C383.682 19.2738 383.68 15.3289 420.219 15.3289C456.757 15.3289 456.758 19.2738 493.297 19.2738C529.837 19.2738 529.838 15.3289 566.38 15.3289C602.921 15.3289 602.92 19.2738 639.459 19.2738C675.999 19.2738 676.004 15.3289 712.549 15.3289C749.094 15.3289 748.463 18.3785 784.825 19.2639C788.48 19.3529 793.783 18.1911 793.783 19.0809C793.783 19.9702 777.495 19.9702 777.495 20.8595C777.495 21.7492 793.783 21.7492 793.783 22.6389C793.783 23.5286 777.495 23.529 777.495 24.4191C777.495 25.3092 793.783 25.3092 793.783 26.1993C793.783 27.0894 777.495 27.0894 777.495 27.9795C777.495 28.8696 793.783 28.8698 793.783 29.7602C793.783 30.65 777.495 30.65 777.495 31.5399C777.495 32.4305 793.783 32.4305 793.783 33.3211C793.783 34.2124 776.933 34.6153 777.652 35.4893C779.249 37.4284 790.117 38.7593 786.455 38.8486Z" fill="#00A24F"/>
<path d="M786.52 39.1914C750.166 40.0782 749.166 35.2565 712.628 35.2565C676.088 35.2565 676.088 39.2013 639.548 39.2013C603.007 39.2013 603.007 35.2565 566.467 35.2565C529.927 35.2565 529.927 39.2013 493.388 39.2013C456.847 39.2013 456.847 35.2565 420.306 35.2565C383.767 35.2565 383.767 39.2013 347.229 39.2013C310.689 39.2013 310.689 35.2565 274.15 35.2565C237.609 35.2565 237.609 39.2013 201.068 39.2013C164.528 39.2013 164.528 35.2565 127.988 35.2565C91.443 35.2565 91.443 39.2013 54.898 39.2013C18.3531 39.2013 18.9845 36.1517 -17.3773 35.2664C-21.0328 35.1774 -26.3359 36.3391 -26.3359 35.4493C-26.3359 34.56 -10.048 34.56 -10.048 33.6708C-10.048 32.7811 -26.3359 32.7811 -26.3359 31.8914C-26.3359 31.0017 -10.048 31.0013 -10.048 30.1112C-10.048 29.2211 -26.3359 29.2211 -26.3359 28.331C-26.3359 27.4409 -10.048 27.4409 -10.048 26.5507C-10.048 25.6606 -26.3359 25.6604 -26.3359 24.7701C-26.3359 23.8802 -10.048 23.8802 -10.048 22.9904C-10.048 22.0997 -26.3359 22.0997 -26.3359 21.2091C-26.3359 20.3179 -10.048 20.3179 -10.048 19.4266C-10.048 18.5353 -22.6694 15.771 -19.008 15.6816C17.346 14.7949 18.3459 19.6165 54.884 19.6165C91.4221 19.6165 91.4238 15.6717 127.964 15.6717C164.504 15.6717 164.504 19.6165 201.045 19.6165C237.585 19.6165 237.584 15.6717 274.124 15.6717C310.663 15.6717 310.665 19.6165 347.205 19.6165C383.746 19.6165 383.744 15.6717 420.283 15.6717C456.822 15.6717 456.822 19.6165 493.362 19.6165C529.901 19.6165 529.903 15.6717 566.444 15.6717C602.985 15.6717 602.984 19.6165 639.524 19.6165C676.064 19.6165 676.069 15.6717 712.614 15.6717C749.159 15.6717 748.527 18.7213 784.889 19.6066C788.544 19.6956 793.848 18.5339 793.848 19.4237C793.848 20.313 777.56 20.313 777.56 21.2022C777.56 22.0919 793.848 22.0919 793.848 22.9816C793.848 23.8713 777.56 23.8717 777.56 24.7618C777.56 25.6519 793.848 25.6519 793.848 26.542C793.848 27.4321 777.56 27.4321 777.56 28.3223C777.56 29.2124 793.848 29.2126 793.848 30.1029C793.848 30.9928 777.56 30.9928 777.56 31.8826C777.56 32.7733 793.848 32.7733 793.848 33.6639C793.848 34.5551 776.997 34.9581 777.717 35.8321C779.313 37.7712 790.181 39.1021 786.52 39.1914Z" fill="#00A04E"/>
<path d="M786.583 39.5347C750.229 40.4214 749.229 35.5997 712.691 35.5997C676.151 35.5997 676.151 39.5446 639.611 39.5446C603.07 39.5446 603.07 35.5997 566.53 35.5997C529.99 35.5997 529.99 39.5446 493.451 39.5446C456.91 39.5446 456.91 35.5997 420.369 35.5997C383.83 35.5997 383.83 39.5446 347.292 39.5446C310.752 39.5446 310.752 35.5997 274.213 35.5997C237.672 35.5997 237.672 39.5446 201.131 39.5446C164.591 39.5446 164.591 35.5997 128.051 35.5997C91.5059 35.5997 91.5059 39.5446 54.961 39.5446C18.4161 39.5446 19.0475 36.495 -17.3143 35.6096C-20.9698 35.5206 -26.2729 36.6824 -26.2729 35.7926C-26.2729 34.9033 -9.98501 34.9033 -9.98501 34.014C-9.98501 33.1243 -26.2729 33.1243 -26.2729 32.2346C-26.2729 31.3449 -9.98501 31.3445 -9.98501 30.4544C-9.98501 29.5643 -26.2729 29.5643 -26.2729 28.6742C-26.2729 27.7841 -9.98501 27.7841 -9.98501 26.894C-9.98501 26.0039 -26.2729 26.0037 -26.2729 25.1133C-26.2729 24.2235 -9.98501 24.2235 -9.98501 23.3336C-9.98501 22.443 -26.2729 22.443 -26.2729 21.5524C-26.2729 20.6611 -9.98501 20.6611 -9.98501 19.7699C-9.98501 18.8786 -22.6064 16.1142 -18.945 16.0249C17.409 15.1381 18.4089 19.9598 54.947 19.9598C91.485 19.9598 91.4868 16.015 128.027 16.015C164.567 16.015 164.567 19.9598 201.108 19.9598C237.648 19.9598 237.647 16.015 274.187 16.015C310.726 16.015 310.728 19.9598 347.268 19.9598C383.809 19.9598 383.807 16.015 420.346 16.015C456.885 16.015 456.885 19.9598 493.425 19.9598C529.964 19.9598 529.966 16.015 566.507 16.015C603.048 16.015 603.047 19.9598 639.587 19.9598C676.127 19.9598 676.132 16.015 712.677 16.015C749.222 16.015 748.59 19.0646 784.952 19.9499C788.607 20.0389 793.911 18.8772 793.911 19.767C793.911 20.6562 777.623 20.6562 777.623 21.5455C777.623 22.4352 793.911 22.4352 793.911 23.3249C793.911 24.2146 777.623 24.215 777.623 25.1051C777.623 25.9952 793.911 25.9952 793.911 26.8853C793.911 27.7754 777.623 27.7754 777.623 28.6655C777.623 29.5557 793.911 29.5559 793.911 30.4462C793.911 31.3361 777.623 31.3361 777.623 32.2259C777.623 33.1165 793.911 33.1165 793.911 34.0072C793.911 34.8984 777.06 35.3013 777.78 36.1754C779.376 38.1145 790.244 39.4453 786.583 39.5347Z" fill="#009F4E"/>
<path d="M786.647 39.8784C750.293 40.7652 749.293 35.9435 712.755 35.9435C676.215 35.9435 676.215 39.8883 639.675 39.8883C603.135 39.8883 603.135 35.9435 566.594 35.9435C530.055 35.9435 530.055 39.8883 493.516 39.8883C456.975 39.8883 456.975 35.9435 420.434 35.9435C383.895 35.9435 383.895 39.8883 347.356 39.8883C310.817 39.8883 310.817 35.9435 274.277 35.9435C237.736 35.9435 237.736 39.8883 201.195 39.8883C164.655 39.8883 164.655 35.9435 128.115 35.9435C91.5704 35.9435 91.5704 39.8883 55.0255 39.8883C18.4805 39.8883 19.1119 36.8387 -17.2498 35.9534C-20.9053 35.8644 -26.2085 37.0261 -26.2085 36.1363C-26.2085 35.247 -9.92056 35.247 -9.92056 34.3578C-9.92056 33.4681 -26.2085 33.4681 -26.2085 32.5784C-26.2085 31.6887 -9.92056 31.6883 -9.92056 30.7982C-9.92056 29.9081 -26.2085 29.9081 -26.2085 29.018C-26.2085 28.1279 -9.92056 28.1279 -9.92056 27.2377C-9.92056 26.3476 -26.2085 26.3474 -26.2085 25.4571C-26.2085 24.5672 -9.92056 24.5672 -9.92056 23.6774C-9.92056 22.7868 -26.2085 22.7868 -26.2085 21.8961C-26.2085 21.0049 -9.92056 21.0049 -9.92056 20.1136C-9.92056 19.2224 -22.542 16.458 -18.8806 16.3686C17.4735 15.4819 18.4734 20.3035 55.0114 20.3035C91.5495 20.3035 91.5513 16.3587 128.091 16.3587C164.631 16.3587 164.632 20.3035 201.172 20.3035C237.713 20.3035 237.712 16.3587 274.251 16.3587C310.79 16.3587 310.792 20.3035 347.333 20.3035C383.874 20.3035 383.872 16.3587 420.41 16.3587C456.949 16.3587 456.95 20.3035 493.489 20.3035C530.029 20.3035 530.03 16.3587 566.571 16.3587C603.112 16.3587 603.111 20.3035 639.651 20.3035C676.191 20.3035 676.196 16.3587 712.741 16.3587C749.286 16.3587 748.655 19.4083 785.016 20.2936C788.672 20.3826 793.975 19.2209 793.975 20.1107C793.975 21 777.687 21 777.687 21.8893C777.687 22.7785 793.975 22.779 793.975 23.6687C793.975 24.5584 777.687 24.5588 777.687 25.4489C777.687 26.339 793.975 26.339 793.975 27.2291C793.975 28.1192 777.687 28.1192 777.687 29.0093C777.687 29.8994 793.975 29.8996 793.975 30.79C793.975 31.6798 777.687 31.6798 777.687 32.5697C777.687 33.4603 793.975 33.4603 793.975 34.3509C793.975 35.2421 777.125 35.6451 777.844 36.5191C779.441 38.4582 790.308 39.7891 786.647 39.8784Z" fill="#009E4D"/>
<path d="M786.71 40.2212C750.356 41.1079 749.356 36.2863 712.818 36.2863C676.278 36.2863 676.278 40.2311 639.738 40.2311C603.197 40.2311 603.197 36.2863 566.657 36.2863C530.117 36.2863 530.117 40.2311 493.578 40.2311C457.037 40.2311 457.037 36.2863 420.496 36.2863C383.957 36.2863 383.957 40.2311 347.419 40.2311C310.879 40.2311 310.879 36.2863 274.34 36.2863C237.8 36.2863 237.799 40.2311 201.258 40.2311C164.718 40.2311 164.718 36.2863 128.178 36.2863C91.6329 36.2863 91.6329 40.2311 55.088 40.2311C18.543 40.2311 19.1744 37.1815 -17.1873 36.2962C-20.8428 36.2072 -26.146 37.3689 -26.146 36.4791C-26.146 35.5898 -9.85806 35.5898 -9.85806 34.7006C-9.85806 33.8109 -26.146 33.8109 -26.146 32.9212C-26.146 32.0315 -9.85806 32.0311 -9.85806 31.141C-9.85806 30.2509 -26.146 30.2509 -26.146 29.3608C-26.146 28.4707 -9.85806 28.4707 -9.85806 27.5805C-9.85806 26.6904 -26.146 26.6902 -26.146 25.7999C-26.146 24.91 -9.85806 24.91 -9.85806 24.0202C-9.85806 23.1295 -26.146 23.1295 -26.146 22.2389C-26.146 21.3477 -9.85806 21.3477 -9.85806 20.4564C-9.85806 19.5651 -22.4795 16.8007 -18.8181 16.7114C17.536 15.8246 18.5359 20.6463 55.0739 20.6463C91.612 20.6463 91.6138 16.7015 128.154 16.7015C164.694 16.7015 164.694 20.6463 201.235 20.6463C237.775 20.6463 237.774 16.7015 274.314 16.7015C310.853 16.7015 310.854 20.6463 347.395 20.6463C383.936 20.6463 383.934 16.7015 420.473 16.7015C457.012 16.7015 457.012 20.6463 493.552 20.6463C530.091 20.6463 530.093 16.7015 566.634 16.7015C603.175 16.7015 603.174 20.6463 639.714 20.6463C676.254 20.6463 676.259 16.7015 712.804 16.7015C749.349 16.7015 748.717 19.7511 785.079 20.6364C788.734 20.7254 794.038 19.5637 794.038 20.4535C794.038 21.3428 777.75 21.3428 777.75 22.232C777.75 23.1213 794.038 23.1217 794.038 24.0114C794.038 24.9011 777.75 24.9015 777.75 25.7916C777.75 26.6817 794.038 26.6817 794.038 27.5718C794.038 28.4619 777.75 28.4619 777.75 29.3521C777.75 30.2422 794.038 30.2424 794.038 31.1327C794.038 32.0226 777.75 32.0226 777.75 32.9124C777.75 33.8031 794.038 33.8031 794.038 34.6937C794.038 35.5849 777.187 35.9879 777.907 36.8619C779.503 38.801 790.371 40.1318 786.71 40.2212Z" fill="#009C4C"/>
<path d="M786.774 40.5644C750.42 41.4512 749.42 36.6295 712.882 36.6295C676.342 36.6295 676.342 40.5744 639.802 40.5744C603.262 40.5744 603.262 36.6295 566.721 36.6295C530.182 36.6295 530.182 40.5744 493.643 40.5744C457.102 40.5744 457.102 36.6295 420.561 36.6295C384.022 36.6295 384.022 40.5744 347.483 40.5744C310.944 40.5744 310.944 36.6295 274.404 36.6295C237.863 36.6295 237.863 40.5744 201.322 40.5744C164.782 40.5744 164.782 36.6295 128.242 36.6295C91.6973 36.6295 91.6973 40.5744 55.1524 40.5744C18.6075 40.5744 19.2389 37.5248 -17.1229 36.6394C-20.7784 36.5504 -26.0815 37.7121 -26.0815 36.8223C-26.0815 35.9331 -9.7936 35.9331 -9.7936 35.0438C-9.7936 34.1541 -26.0815 34.1541 -26.0815 33.2644C-26.0815 32.3747 -9.7936 32.3743 -9.7936 31.4842C-9.7936 30.5941 -26.0815 30.5941 -26.0815 29.704C-26.0815 28.8139 -9.7936 28.8139 -9.7936 27.9238C-9.7936 27.0337 -26.0815 27.0335 -26.0815 26.1431C-26.0815 25.2533 -9.7936 25.2533 -9.7936 24.3634C-9.7936 23.4728 -26.0815 23.4728 -26.0815 22.5822C-26.0815 21.6909 -9.7936 21.6909 -9.7936 20.7997C-9.7936 19.9084 -22.415 17.144 -18.7536 17.0547C17.6004 16.1679 18.6003 20.9896 55.1384 20.9896C91.6765 20.9896 91.6782 17.0447 128.218 17.0447C164.758 17.0447 164.759 20.9896 201.299 20.9896C237.84 20.9896 237.839 17.0447 274.378 17.0447C310.917 17.0447 310.919 20.9896 347.46 20.9896C384.001 20.9896 383.999 17.0447 420.537 17.0447C457.076 17.0447 457.077 20.9896 493.616 20.9896C530.156 20.9896 530.157 17.0447 566.698 17.0447C603.239 17.0447 603.238 20.9896 639.778 20.9896C676.318 20.9896 676.323 17.0447 712.868 17.0447C749.413 17.0447 748.782 20.0943 785.143 20.9797C788.799 21.0687 794.102 19.907 794.102 20.7968C794.102 21.686 777.814 21.686 777.814 22.5753C777.814 23.4646 794.102 23.465 794.102 24.3547C794.102 25.2444 777.814 25.2448 777.814 26.1349C777.814 27.025 794.102 27.025 794.102 27.9151C794.102 28.8052 777.814 28.8052 777.814 29.6953C777.814 30.5855 794.102 30.5857 794.102 31.476C794.102 32.3659 777.814 32.3659 777.814 33.2557C777.814 34.1463 794.102 34.1463 794.102 35.037C794.102 35.9282 777.252 36.3311 777.971 37.2051C779.568 39.1443 790.435 40.4751 786.774 40.5644Z" fill="#009B4B"/>
<path d="M786.838 40.9077C750.484 41.7945 749.484 36.9728 712.946 36.9728C676.406 36.9728 676.406 40.9176 639.866 40.9176C603.326 40.9176 603.326 36.9728 566.785 36.9728C530.246 36.9728 530.246 40.9176 493.706 40.9176C457.165 40.9176 457.165 36.9728 420.625 36.9728C384.086 36.9728 384.086 40.9176 347.547 40.9176C311.008 40.9176 311.008 36.9728 274.468 36.9728C237.927 36.9728 237.927 40.9176 201.386 40.9176C164.846 40.9176 164.846 36.9728 128.306 36.9728C91.7613 36.9728 91.7613 40.9176 55.2164 40.9176C18.6715 40.9176 19.3028 37.868 -17.0589 36.9827C-20.7144 36.8937 -26.0176 38.0554 -26.0176 37.1656C-26.0176 36.2763 -9.72964 36.2763 -9.72964 35.3871C-9.72964 34.4974 -26.0176 34.4974 -26.0176 33.6077C-26.0176 32.718 -9.72964 32.7176 -9.72964 31.8275C-9.72964 30.9374 -26.0176 30.9374 -26.0176 30.0473C-26.0176 29.1572 -9.72964 29.1572 -9.72964 28.267C-9.72964 27.3769 -26.0176 27.3767 -26.0176 26.4864C-26.0176 25.5965 -9.72964 25.5965 -9.72964 24.7067C-9.72964 23.816 -26.0176 23.816 -26.0176 22.9254C-26.0176 22.0342 -9.72964 22.0342 -9.72964 21.1429C-9.72964 20.2517 -22.3511 17.4873 -18.6897 17.3979C17.6644 16.5112 18.6643 21.3328 55.2024 21.3328C91.7404 21.3328 91.7422 17.388 128.282 17.388C164.822 17.388 164.823 21.3328 201.363 21.3328C237.904 21.3328 237.903 17.388 274.442 17.388C310.981 17.388 310.983 21.3328 347.524 21.3328C384.064 21.3328 384.063 17.388 420.601 17.388C457.14 17.388 457.141 21.3328 493.68 21.3328C530.22 21.3328 530.221 17.388 566.762 17.388C603.303 17.388 603.302 21.3328 639.842 21.3328C676.382 21.3328 676.387 17.388 712.932 17.388C749.477 17.388 748.846 20.4376 785.207 21.3229C788.863 21.4119 794.166 20.2502 794.166 21.14C794.166 22.0293 777.878 22.0293 777.878 22.9186C777.878 23.8083 794.166 23.8083 794.166 24.698C794.166 25.5877 777.878 25.5881 777.878 26.4782C777.878 27.3683 794.166 27.3683 794.166 28.2584C794.166 29.1485 777.878 29.1485 777.878 30.0386C777.878 30.9287 794.166 30.9289 794.166 31.8192C794.166 32.7091 777.878 32.7091 777.878 33.5989C777.878 34.4896 794.166 34.4896 794.166 35.3802C794.166 36.2714 777.316 36.6744 778.035 37.5484C779.632 39.4875 790.499 40.8184 786.838 40.9077Z" fill="#00994B"/>
<path d="M786.902 41.251C750.548 42.1377 749.548 37.3161 713.01 37.3161C676.47 37.3161 676.47 41.2609 639.93 41.2609C603.39 41.2609 603.39 37.3161 566.849 37.3161C530.31 37.3161 530.31 41.2609 493.77 41.2609C457.229 41.2609 457.229 37.3161 420.689 37.3161C384.15 37.3161 384.15 41.2609 347.611 41.2609C311.072 41.2609 311.072 37.3161 274.532 37.3161C237.991 37.3161 237.991 41.2609 201.45 41.2609C164.91 41.2609 164.91 37.3161 128.37 37.3161C91.8253 37.3161 91.8253 41.2609 55.2804 41.2609C18.7354 41.2609 19.3668 38.2113 -16.995 37.3259C-20.6505 37.2369 -25.9536 38.3987 -25.9536 37.5089C-25.9536 36.6196 -9.66567 36.6196 -9.66567 35.7303C-9.66567 34.8406 -25.9536 34.8406 -25.9536 33.9509C-25.9536 33.0612 -9.66567 33.0608 -9.66567 32.1707C-9.66567 31.2806 -25.9536 31.2806 -25.9536 30.3905C-25.9536 29.5004 -9.66567 29.5004 -9.66567 28.6103C-9.66567 27.7202 -25.9536 27.72 -25.9536 26.8296C-25.9536 25.9398 -9.66567 25.9398 -9.66567 25.0499C-9.66567 24.1593 -25.9536 24.1593 -25.9536 23.2687C-25.9536 22.3774 -9.66567 22.3774 -9.66567 21.4862C-9.66567 20.5949 -22.2871 17.8305 -18.6257 17.7412C17.7283 16.8544 18.7283 21.6761 55.2663 21.6761C91.8044 21.6761 91.8062 17.7313 128.346 17.7313C164.886 17.7313 164.887 21.6761 201.427 21.6761C237.968 21.6761 237.967 17.7313 274.506 17.7313C311.045 17.7313 311.047 21.6761 347.588 21.6761C384.128 21.6761 384.127 17.7313 420.665 17.7313C457.204 17.7313 457.205 21.6761 493.744 21.6761C530.284 21.6761 530.285 17.7313 566.826 17.7313C603.367 17.7313 603.366 21.6761 639.906 21.6761C676.446 21.6761 676.451 17.7313 712.996 17.7313C749.541 17.7313 748.91 20.7809 785.271 21.6662C788.927 21.7552 794.23 20.5935 794.23 21.4833C794.23 22.3725 777.942 22.3725 777.942 23.2618C777.942 24.1511 794.23 24.1515 794.23 25.0412C794.23 25.9309 777.942 25.9313 777.942 26.8214C777.942 27.7115 794.23 27.7115 794.23 28.6016C794.23 29.4917 777.942 29.4917 777.942 30.3818C777.942 31.272 794.23 31.2722 794.23 32.1625C794.23 33.0524 777.942 33.0524 777.942 33.9422C777.942 34.8328 794.23 34.8328 794.23 35.7235C794.23 36.6147 777.38 37.0177 778.099 37.8917C779.696 39.8308 790.563 41.1616 786.902 41.251Z" fill="#00984A"/>
<path d="M786.965 41.5937C750.611 42.4805 749.611 37.6588 713.073 37.6588C676.534 37.6588 676.534 41.6037 639.994 41.6037C603.453 41.6037 603.453 37.6588 566.913 37.6588C530.373 37.6588 530.373 41.6037 493.834 41.6037C457.293 41.6037 457.293 37.6588 420.752 37.6588C384.213 37.6588 384.213 41.6037 347.675 41.6037C311.135 41.6037 311.135 37.6588 274.596 37.6588C238.055 37.6588 238.055 41.6037 201.514 41.6037C164.974 41.6037 164.974 37.6588 128.434 37.6588C91.8888 37.6588 91.8888 41.6037 55.3438 41.6037C18.7989 41.6037 19.4303 38.5541 -16.9315 37.6687C-20.587 37.5797 -25.8901 38.7414 -25.8901 37.8516C-25.8901 36.9624 -9.6022 36.9624 -9.6022 36.0731C-9.6022 35.1834 -25.8901 35.1834 -25.8901 34.2937C-25.8901 33.404 -9.6022 33.4036 -9.6022 32.5135C-9.6022 31.6234 -25.8901 31.6234 -25.8901 30.7333C-25.8901 29.8432 -9.6022 29.8432 -9.6022 28.9531C-9.6022 28.0629 -25.8901 28.0627 -25.8901 27.1724C-25.8901 26.2825 -9.6022 26.2825 -9.6022 25.3927C-9.6022 24.5021 -25.8901 24.5021 -25.8901 23.6115C-25.8901 22.7202 -9.6022 22.7202 -9.6022 21.829C-9.6022 20.9377 -22.2236 18.1733 -18.5622 18.084C17.7918 17.1972 18.7917 22.0189 55.3298 22.0189C91.8679 22.0189 91.8696 18.074 128.41 18.074C164.95 18.074 164.95 22.0189 201.491 22.0189C238.031 22.0189 238.03 18.074 274.569 18.074C311.109 18.074 311.11 22.0189 347.651 22.0189C384.192 22.0189 384.19 18.074 420.729 18.074C457.268 18.074 457.268 22.0189 493.808 22.0189C530.347 22.0189 530.349 18.074 566.89 18.074C603.431 18.074 603.43 22.0189 639.97 22.0189C676.509 22.0189 676.515 18.074 713.059 18.074C749.604 18.074 748.973 21.1236 785.335 22.009C788.99 22.098 794.293 20.9363 794.293 21.8261C794.293 22.7153 778.005 22.7153 778.005 23.6046C778.005 24.4943 794.293 24.4943 794.293 25.384C794.293 26.2737 778.005 26.2741 778.005 27.1642C778.005 28.0543 794.293 28.0543 794.293 28.9444C794.293 29.8345 778.005 29.8345 778.005 30.7246C778.005 31.6148 794.293 31.615 794.293 32.5053C794.293 33.3951 778.005 33.3951 778.005 34.285C778.005 35.1756 794.293 35.1756 794.293 36.0662C794.293 36.9575 777.443 37.3604 778.163 38.2344C779.759 40.1735 790.627 41.5044 786.965 41.5937Z" fill="#009649"/>
<path d="M787.029 41.9375C750.675 42.8242 749.675 38.0026 713.137 38.0026C676.598 38.0026 676.598 41.9474 640.058 41.9474C603.517 41.9474 603.517 38.0026 566.977 38.0026C530.437 38.0026 530.437 41.9474 493.898 41.9474C457.357 41.9474 457.357 38.0026 420.816 38.0026C384.275 38.0026 384.277 41.9474 347.738 41.9474C311.199 41.9474 311.199 38.0026 274.66 38.0026C238.119 38.0026 238.119 41.9474 201.577 41.9474C165.037 41.9474 165.037 38.0026 128.498 38.0026C91.9527 38.0026 91.9527 41.9474 55.4078 41.9474C18.8629 41.9474 19.4942 38.8978 -16.8675 38.0125C-20.523 37.9235 -25.8262 39.0852 -25.8262 38.1954C-25.8262 37.3061 -9.53823 37.3061 -9.53823 36.4169C-9.53823 35.5272 -25.8262 35.5272 -25.8262 34.6375C-25.8262 33.7478 -9.53823 33.7474 -9.53823 32.8573C-9.53823 31.9672 -25.8262 31.9672 -25.8262 31.0771C-25.8262 30.187 -9.53823 30.187 -9.53823 29.2968C-9.53823 28.4067 -25.8262 28.4065 -25.8262 27.5162C-25.8262 26.6263 -9.53823 26.6263 -9.53823 25.7365C-9.53823 24.8458 -25.8262 24.8458 -25.8262 23.9552C-25.8262 23.064 -9.53823 23.064 -9.53823 22.1727C-9.53823 21.2814 -22.1597 18.517 -18.4983 18.4277C17.8558 17.541 18.8557 22.3626 55.3938 22.3626C91.9318 22.3626 91.9336 18.4178 128.474 18.4178C165.014 18.4178 165.014 22.3626 201.555 22.3626C238.095 22.3626 238.094 18.4178 274.633 18.4178C311.173 18.4178 311.174 22.3626 347.715 22.3626C384.256 22.3626 384.254 18.4178 420.793 18.4178C457.331 18.4178 457.332 22.3626 493.872 22.3626C530.411 22.3626 530.413 18.4178 566.954 18.4178C603.495 18.4178 603.494 22.3626 640.034 22.3626C676.573 22.3626 676.578 18.4178 713.123 18.4178C749.668 18.4178 749.037 21.4674 785.399 22.3527C789.054 22.4417 794.357 21.28 794.357 22.1698C794.357 23.0591 778.069 23.0591 778.069 23.9483C778.069 24.838 794.357 24.838 794.357 25.7277C794.357 26.6174 778.069 26.6178 778.069 27.5079C778.069 28.398 794.357 28.398 794.357 29.2881C794.357 30.1782 778.069 30.1782 778.069 31.0684C778.069 31.9585 794.357 31.9587 794.357 32.849C794.357 33.7389 778.069 33.7389 778.069 34.6287C778.069 35.5194 794.357 35.5194 794.357 36.41C794.357 37.3012 777.507 37.7042 778.227 38.5782C779.823 40.5173 790.691 41.8482 787.029 41.9375Z" fill="#009549"/>
<path d="M787.094 42.2807C750.74 43.1675 749.74 38.3458 713.202 38.3458C676.662 38.3458 676.662 42.2907 640.122 42.2907C603.582 42.2907 603.582 38.3458 567.041 38.3458C530.502 38.3458 530.502 42.2907 493.962 42.2907C457.421 42.2907 457.421 38.3458 420.881 38.3458C384.342 38.3458 384.342 42.2907 347.803 42.2907C311.263 42.2907 311.264 38.3458 274.724 38.3458C238.183 38.3458 238.183 42.2907 201.642 42.2907C165.102 42.2907 165.102 38.3458 128.562 38.3458C92.0172 38.3458 92.0172 42.2907 55.4722 42.2907C18.9273 42.2907 19.5587 39.2411 -16.8031 38.3557C-20.4586 38.2667 -25.7617 39.4285 -25.7617 38.5387C-25.7617 37.6494 -9.47378 37.6494 -9.47378 36.7601C-9.47378 35.8704 -25.7617 35.8704 -25.7617 34.9807C-25.7617 34.091 -9.47378 34.0906 -9.47378 33.2005C-9.47378 32.3104 -25.7617 32.3104 -25.7617 31.4203C-25.7617 30.5302 -9.47378 30.5302 -9.47378 29.6401C-9.47378 28.75 -25.7617 28.7498 -25.7617 27.8594C-25.7617 26.9696 -9.47378 26.9696 -9.47378 26.0797C-9.47378 25.1891 -25.7617 25.1891 -25.7617 24.2985C-25.7617 23.4072 -9.47378 23.4072 -9.47378 22.516C-9.47378 21.6247 -22.0952 18.8603 -18.4338 18.771C17.9202 17.8842 18.9202 22.7059 55.4582 22.7059C91.9963 22.7059 91.9981 18.7611 128.538 18.7611C165.078 18.7611 165.079 22.7059 201.619 22.7059C238.16 22.7059 238.159 18.7611 274.698 18.7611C311.237 18.7611 311.239 22.7059 347.78 22.7059C384.32 22.7059 384.318 18.7611 420.857 18.7611C457.396 18.7611 457.397 22.7059 493.936 22.7059C530.475 22.7059 530.477 18.7611 567.018 18.7611C603.559 18.7611 603.558 22.7059 640.098 22.7059C676.638 22.7059 676.643 18.7611 713.188 18.7611C749.733 18.7611 749.101 21.8107 785.463 22.696C789.119 22.785 794.422 21.6233 794.422 22.5131C794.422 23.4023 778.134 23.4023 778.134 24.2916C778.134 25.1809 794.422 25.1813 794.422 26.071C794.422 26.9607 778.134 26.9611 778.134 27.8512C778.134 28.7413 794.422 28.7413 794.422 29.6314C794.422 30.5215 778.134 30.5215 778.134 31.4116C778.134 32.3018 794.422 32.302 794.422 33.1923C794.422 34.0822 778.134 34.0822 778.134 34.972C778.134 35.8626 794.422 35.8626 794.422 36.7533C794.422 37.6445 777.571 38.0474 778.291 38.9215C779.888 40.8606 790.755 42.1914 787.094 42.2807Z" fill="#009448"/>
<path d="M787.157 42.6235C750.803 43.5103 749.803 38.6886 713.265 38.6886C676.726 38.6886 676.726 42.6334 640.186 42.6334C603.645 42.6334 603.645 38.6886 567.105 38.6886C530.565 38.6886 530.565 42.6334 494.026 42.6334C457.485 42.6334 457.485 38.6886 420.944 38.6886C384.405 38.6886 384.405 42.6334 347.866 42.6334C311.327 42.6334 311.327 38.6886 274.788 38.6886C238.246 38.6886 238.246 42.6334 201.705 42.6334C165.165 42.6334 165.165 38.6886 128.626 38.6886C92.0807 38.6886 92.0806 42.6334 55.5357 42.6334C18.9908 42.6334 19.6222 39.5838 -16.7396 38.6985C-20.3951 38.6095 -25.6982 39.7712 -25.6982 38.8814C-25.6982 37.9922 -9.4103 37.9922 -9.4103 37.1029C-9.4103 36.2132 -25.6982 36.2132 -25.6982 35.3235C-25.6982 34.4338 -9.4103 34.4334 -9.4103 33.5433C-9.4103 32.6532 -25.6982 32.6532 -25.6982 31.7631C-25.6982 30.873 -9.4103 30.873 -9.4103 29.9829C-9.4103 29.0927 -25.6982 29.0925 -25.6982 28.2022C-25.6982 27.3123 -9.4103 27.3123 -9.4103 26.4225C-9.4103 25.5319 -25.6982 25.5319 -25.6982 24.6412C-25.6982 23.75 -9.4103 23.75 -9.4103 22.8587C-9.4103 21.9675 -22.0317 19.2031 -18.3703 19.1138C17.9837 18.227 18.9836 23.0487 55.5217 23.0487C92.0598 23.0487 92.0615 19.1038 128.602 19.1038C165.141 19.1038 165.142 23.0487 201.683 23.0487C238.223 23.0487 238.222 19.1038 274.761 19.1038C311.301 19.1038 311.302 23.0487 347.843 23.0487C384.384 23.0487 384.382 19.1038 420.921 19.1038C457.459 19.1038 457.46 23.0487 494 23.0487C530.539 23.0487 530.541 19.1038 567.082 19.1038C603.623 19.1038 603.622 23.0487 640.161 23.0487C676.701 23.0487 676.706 19.1038 713.251 19.1038C749.796 19.1038 749.165 22.1534 785.527 23.0388C789.182 23.1278 794.485 21.966 794.485 22.8558C794.485 23.7451 778.197 23.7451 778.197 24.6344C778.197 25.5236 794.485 25.5241 794.485 26.4138C794.485 27.3035 778.197 27.3039 778.197 28.194C778.197 29.0841 794.485 29.0841 794.485 29.9742C794.485 30.8643 778.197 30.8643 778.197 31.7544C778.197 32.6445 794.485 32.6447 794.485 33.5351C794.485 34.4249 778.197 34.4249 778.197 35.3148C778.197 36.2054 794.485 36.2054 794.485 37.096C794.485 37.9873 777.635 38.3902 778.354 39.2642C779.951 41.2033 790.819 42.5342 787.157 42.6235Z" fill="#009247"/>
<path d="M787.22 42.9668C750.866 43.8535 749.866 39.0319 713.328 39.0319C676.789 39.0319 676.789 42.9767 640.249 42.9767C603.708 42.9767 603.708 39.0319 567.167 39.0319C530.628 39.0319 530.628 42.9767 494.089 42.9767C457.548 42.9767 457.548 39.0319 421.007 39.0319C384.468 39.0319 384.468 42.9767 347.929 42.9767C311.39 42.9767 311.39 39.0319 274.851 39.0319C238.309 39.0319 238.309 42.9767 201.768 42.9767C165.228 42.9767 165.228 39.0319 128.689 39.0319C92.1436 39.0319 92.1436 42.9767 55.5987 42.9767C19.0538 42.9767 19.6852 39.9271 -16.6766 39.0418C-20.3321 38.9528 -25.6353 40.1145 -25.6353 39.2247C-25.6353 38.3354 -9.34731 38.3354 -9.34731 37.4462C-9.34731 36.5565 -25.6353 36.5565 -25.6353 35.6668C-25.6353 34.7771 -9.34731 34.7767 -9.34731 33.8866C-9.34731 32.9965 -25.6353 32.9965 -25.6353 32.1064C-25.6353 31.2163 -9.34731 31.2163 -9.34731 30.3261C-9.34731 29.436 -25.6353 29.4358 -25.6353 28.5455C-25.6353 27.6556 -9.34731 27.6556 -9.34731 26.7658C-9.34731 25.8751 -25.6353 25.8751 -25.6353 24.9845C-25.6353 24.0933 -9.34731 24.0933 -9.34731 23.202C-9.34731 22.3107 -21.9688 19.5463 -18.3073 19.457C18.0467 18.5702 19.0466 23.3919 55.5847 23.3919C92.1227 23.3919 92.1245 19.4471 128.665 19.4471C165.204 19.4471 165.205 23.3919 201.746 23.3919C238.286 23.3919 238.285 19.4471 274.824 19.4471C311.364 19.4471 311.365 23.3919 347.906 23.3919C384.447 23.3919 384.445 19.4471 420.984 19.4471C457.522 19.4471 457.523 23.3919 494.062 23.3919C530.602 23.3919 530.604 19.4471 567.145 19.4471C603.686 19.4471 603.685 23.3919 640.224 23.3919C676.764 23.3919 676.769 19.4471 713.314 19.4471C749.859 19.4471 749.228 22.4967 785.59 23.382C789.245 23.471 794.548 22.3093 794.548 23.1991C794.548 24.0884 778.26 24.0884 778.26 24.9776C778.26 25.8669 794.548 25.8673 794.548 26.757C794.548 27.6467 778.26 27.6471 778.26 28.5372C778.26 29.4273 794.548 29.4273 794.548 30.3174C794.548 31.2075 778.26 31.2075 778.26 32.0977C778.26 32.9878 794.548 32.988 794.548 33.8783C794.548 34.7682 778.26 34.7682 778.26 35.658C778.26 36.5487 794.548 36.5487 794.548 37.4393C794.548 38.3305 777.698 38.7335 778.418 39.6075C780.014 41.5466 790.882 42.8774 787.22 42.9668Z" fill="#009147"/>
<path d="M787.284 43.3105C750.93 44.1973 749.93 39.3756 713.392 39.3756C676.852 39.3756 676.852 43.3205 640.313 43.3205C603.772 43.3205 603.772 39.3756 567.231 39.3756C530.692 39.3756 530.692 43.3205 494.153 43.3205C457.612 43.3205 457.612 39.3756 421.071 39.3756C384.532 39.3756 384.532 43.3205 347.993 43.3205C311.454 43.3205 311.454 39.3756 274.915 39.3756C238.373 39.3756 238.373 43.3205 201.832 43.3205C165.292 43.3205 165.292 39.3756 128.753 39.3756C92.2076 39.3756 92.2076 43.3205 55.6627 43.3205C19.1177 43.3205 19.7491 40.2709 -16.6126 39.3855C-20.2681 39.2965 -25.5713 40.4582 -25.5713 39.5684C-25.5713 38.6792 -9.28335 38.6792 -9.28335 37.7899C-9.28335 36.9002 -25.5713 36.9002 -25.5713 36.0105C-25.5713 35.1208 -9.28335 35.1204 -9.28335 34.2303C-9.28335 33.3402 -25.5713 33.3402 -25.5713 32.4501C-25.5713 31.56 -9.28335 31.56 -9.28335 30.6699C-9.28335 29.7797 -25.5713 29.7795 -25.5713 28.8892C-25.5713 27.9993 -9.28335 27.9993 -9.28335 27.1095C-9.28335 26.2189 -25.5713 26.2189 -25.5713 25.3282C-25.5713 24.437 -9.28335 24.437 -9.28335 23.5458C-9.28335 22.6545 -21.9048 19.8901 -18.2434 19.8008C18.1107 18.914 19.1106 23.7357 55.6486 23.7357C92.1867 23.7357 92.1885 19.7908 128.728 19.7908C165.268 19.7908 165.269 23.7357 201.81 23.7357C238.35 23.7357 238.349 19.7908 274.888 19.7908C311.428 19.7908 311.429 23.7357 347.97 23.7357C384.511 23.7357 384.509 19.7908 421.048 19.7908C457.586 19.7908 457.587 23.7357 494.126 23.7357C530.666 23.7357 530.668 19.7908 567.209 19.7908C603.75 19.7908 603.749 23.7357 640.288 23.7357C676.828 23.7357 676.833 19.7908 713.378 19.7908C749.923 19.7908 749.292 22.8404 785.654 23.7258C789.309 23.8148 794.612 22.6531 794.612 23.5429C794.612 24.4321 778.324 24.4321 778.324 25.3214C778.324 26.2107 794.612 26.2111 794.612 27.1008C794.612 27.9905 778.324 27.9909 778.324 28.881C778.324 29.7711 794.612 29.7711 794.612 30.6612C794.612 31.5513 778.324 31.5513 778.324 32.4414C778.324 33.3315 794.612 33.3317 794.612 34.2221C794.612 35.1119 778.324 35.1119 778.324 36.0018C778.324 36.8924 794.612 36.8924 794.612 37.783C794.612 38.6743 777.762 39.0772 778.482 39.9512C780.078 41.8903 790.946 43.2212 787.284 43.3105Z" fill="#008F46"/>
<path d="M787.348 43.6533C750.994 44.5401 749.994 39.7184 713.456 39.7184C676.916 39.7184 676.916 43.6632 640.376 43.6632C603.836 43.6632 603.836 39.7184 567.295 39.7184C530.756 39.7184 530.756 43.6632 494.217 43.6632C457.676 43.6632 457.676 39.7184 421.135 39.7184C384.596 39.7184 384.596 43.6632 348.057 43.6632C311.518 43.6632 311.518 39.7184 274.978 39.7184C238.437 39.7184 238.437 43.6632 201.896 43.6632C165.356 43.6632 165.356 39.7184 128.816 39.7184C92.2716 39.7184 92.2716 43.6632 55.7266 43.6632C19.1817 43.6632 19.8131 40.6136 -16.5487 39.7283C-20.2042 39.6393 -25.5073 40.801 -25.5073 39.9112C-25.5073 39.0219 -9.21938 39.0219 -9.21938 38.1327C-9.21938 37.243 -25.5073 37.243 -25.5073 36.3533C-25.5073 35.4636 -9.21938 35.4632 -9.21938 34.5731C-9.21938 33.683 -25.5073 33.683 -25.5073 32.7929C-25.5073 31.9028 -9.21938 31.9028 -9.21938 31.0127C-9.21938 30.1225 -25.5073 30.1223 -25.5073 29.232C-25.5073 28.3421 -9.21938 28.3421 -9.21938 27.4523C-9.21938 26.5617 -25.5073 26.5617 -25.5073 25.671C-25.5073 24.7798 -9.21938 24.7798 -9.21938 23.8885C-9.21938 22.9973 -21.8408 20.2329 -18.1794 20.1435C18.1746 19.2568 19.1746 24.0784 55.7126 24.0784C92.2507 24.0784 92.2524 20.1336 128.792 20.1336C165.332 20.1336 165.333 24.0784 201.873 24.0784C238.414 24.0784 238.413 20.1336 274.952 20.1336C311.491 20.1336 311.493 24.0784 348.034 24.0784C384.575 24.0784 384.573 20.1336 421.112 20.1336C457.65 20.1336 457.651 24.0784 494.19 24.0784C530.73 24.0784 530.732 20.1336 567.273 20.1336C603.814 20.1336 603.813 24.0784 640.352 24.0784C676.892 24.0784 676.897 20.1336 713.442 20.1336C749.987 20.1336 749.356 23.1832 785.718 24.0686C789.373 24.1575 794.676 22.9958 794.676 23.8856C794.676 24.7749 778.388 24.7749 778.388 25.6642C778.388 26.5534 794.676 26.5539 794.676 27.4436C794.676 28.3333 778.388 28.3337 778.388 29.2238C778.388 30.1139 794.676 30.1139 794.676 31.004C794.676 31.8941 778.388 31.8941 778.388 32.7842C778.388 33.6743 794.676 33.6745 794.676 34.5649C794.676 35.4547 778.388 35.4547 778.388 36.3446C778.388 37.2352 794.676 37.2352 794.676 38.1258C794.676 39.017 777.826 39.42 778.545 40.294C780.142 42.2331 791.01 43.564 787.348 43.6533Z" fill="#008E45"/>
<path d="M787.412 43.9966C751.058 44.8833 750.058 40.0617 713.52 40.0617C676.98 40.0617 676.98 44.0065 640.44 44.0065C603.899 44.0065 603.899 40.0617 567.359 40.0617C530.819 40.0617 530.819 44.0065 494.28 44.0065C457.739 44.0065 457.739 40.0617 421.198 40.0617C384.66 40.0617 384.66 44.0065 348.121 44.0065C311.581 44.0065 311.581 40.0617 275.042 40.0617C238.501 40.0617 238.501 44.0065 201.96 44.0065C165.42 44.0065 165.42 40.0617 128.88 40.0617C92.335 40.0617 92.335 44.0065 55.7901 44.0065C19.2452 44.0065 19.8766 40.9569 -16.4852 40.0716C-20.1407 39.9826 -25.4438 41.1443 -25.4438 40.2545C-25.4438 39.3652 -9.15591 39.3652 -9.15591 38.4759C-9.15591 37.5862 -25.4438 37.5862 -25.4438 36.6965C-25.4438 35.8068 -9.15591 35.8064 -9.15591 34.9163C-9.15591 34.0262 -25.4438 34.0262 -25.4438 33.1361C-25.4438 32.246 -9.15591 32.246 -9.15591 31.3559C-9.15591 30.4658 -25.4438 30.4656 -25.4438 29.5752C-25.4438 28.6854 -9.15591 28.6854 -9.15591 27.7955C-9.15591 26.9049 -25.4438 26.9049 -25.4438 26.0143C-25.4438 25.1231 -9.15591 25.1231 -9.15591 24.2318C-9.15591 23.3405 -21.7773 20.5761 -18.1159 20.4868C18.2381 19.6 19.238 24.4217 55.7761 24.4217C92.3141 24.4217 92.3159 20.4769 128.856 20.4769C165.396 20.4769 165.396 24.4217 201.937 24.4217C238.477 24.4217 238.476 20.4769 275.016 20.4769C311.555 20.4769 311.557 24.4217 348.097 24.4217C384.638 24.4217 384.636 20.4769 421.175 20.4769C457.714 20.4769 457.714 24.4217 494.254 24.4217C530.793 24.4217 530.795 20.4769 567.336 20.4769C603.877 20.4769 603.876 24.4217 640.416 24.4217C676.956 24.4217 676.961 20.4769 713.506 20.4769C750.051 20.4769 749.419 23.5265 785.781 24.4118C789.437 24.5008 794.74 23.3391 794.74 24.2289C794.74 25.1182 778.452 25.1182 778.452 26.0074C778.452 26.8971 794.74 26.8971 794.74 27.7868C794.74 28.6765 778.452 28.6769 778.452 29.567C778.452 30.4571 794.74 30.4571 794.74 31.3472C794.74 32.2373 778.452 32.2373 778.452 33.1275C778.452 34.0176 794.74 34.0178 794.74 34.9081C794.74 35.798 778.452 35.798 778.452 36.6878C778.452 37.5784 794.74 37.5784 794.74 38.4691C794.74 39.3603 777.889 39.7633 778.609 40.6373C780.205 42.5764 791.073 43.9072 787.412 43.9966Z" fill="#008D45"/>
<path d="M787.474 44.3398C751.12 45.2266 750.12 40.4049 713.582 40.4049C677.042 40.4049 677.042 44.3497 640.502 44.3497C603.962 44.3497 603.962 40.4049 567.421 40.4049C530.882 40.4049 530.882 44.3497 494.343 44.3497C457.802 44.3497 457.802 40.4049 421.261 40.4049C384.722 40.4049 384.722 44.3497 348.183 44.3497C311.644 44.3497 311.644 40.4049 275.104 40.4049C238.563 40.4049 238.563 44.3497 202.022 44.3497C165.482 44.3497 165.482 40.4049 128.942 40.4049C92.3975 40.4049 92.3975 44.3497 55.8526 44.3497C19.3077 44.3497 19.9391 41.3001 -16.4227 40.4148C-20.0782 40.3258 -25.3813 41.4875 -25.3813 40.5977C-25.3813 39.7085 -9.09341 39.7085 -9.09341 38.8192C-9.09341 37.9295 -25.3813 37.9295 -25.3813 37.0398C-25.3813 36.1501 -9.09341 36.1497 -9.09341 35.2596C-9.09341 34.3695 -25.3813 34.3695 -25.3813 33.4794C-25.3813 32.5893 -9.09341 32.5893 -9.09341 31.6992C-9.09341 30.809 -25.3813 30.8088 -25.3813 29.9185C-25.3813 29.0286 -9.09341 29.0286 -9.09341 28.1388C-9.09341 27.2482 -25.3813 27.2482 -25.3813 26.3575C-25.3813 25.4663 -9.09341 25.4663 -9.09341 24.575C-9.09341 23.6838 -21.7148 20.9194 -18.0534 20.8301C18.3006 19.9433 19.3005 24.765 55.8386 24.765C92.3766 24.765 92.3784 20.8201 128.918 20.8201C165.458 20.8201 165.459 24.765 201.999 24.765C238.54 24.765 238.539 20.8201 275.078 20.8201C311.617 20.8201 311.619 24.765 348.16 24.765C384.701 24.765 384.699 20.8201 421.238 20.8201C457.776 20.8201 457.777 24.765 494.316 24.765C530.856 24.765 530.857 20.8201 567.399 20.8201C603.94 20.8201 603.939 24.765 640.478 24.765C677.018 24.765 677.023 20.8201 713.568 20.8201C750.113 20.8201 749.482 23.8697 785.844 24.7551C789.499 24.8441 794.802 23.6824 794.802 24.5722C794.802 25.4614 778.514 25.4614 778.514 26.3507C778.514 27.2399 794.802 27.2404 794.802 28.1301C794.802 29.0198 778.514 29.0202 778.514 29.9103C778.514 30.8004 794.802 30.8004 794.802 31.6905C794.802 32.5806 778.514 32.5806 778.514 33.4707C778.514 34.3608 794.802 34.361 794.802 35.2514C794.802 36.1412 778.514 36.1412 778.514 37.0311C778.514 37.9217 794.802 37.9217 794.802 38.8123C794.802 39.7036 777.952 40.1065 778.671 40.9805C780.268 42.9196 791.136 44.2505 787.474 44.3398Z" fill="#008B44"/>
<path d="M787.54 44.6831C751.186 45.5699 750.186 40.7482 713.648 40.7482C677.108 40.7482 677.108 44.693 640.568 44.693C604.027 44.693 604.027 40.7482 567.487 40.7482C530.947 40.7482 530.947 44.693 494.408 44.693C457.867 44.693 457.867 40.7482 421.326 40.7482C384.787 40.7482 384.787 44.693 348.249 44.693C311.709 44.693 311.709 40.7482 275.17 40.7482C238.629 40.7482 238.629 44.693 202.088 44.693C165.548 44.693 165.548 40.7482 129.008 40.7482C92.463 40.7482 92.463 44.693 55.918 44.693C19.3731 44.693 20.0045 41.6434 -16.3573 40.7581C-20.0128 40.6691 -25.3159 41.8308 -25.3159 40.941C-25.3159 40.0517 -9.02798 40.0517 -9.02798 39.1625C-9.02798 38.2728 -25.3159 38.2728 -25.3159 37.3831C-25.3159 36.4934 -9.02798 36.493 -9.02798 35.6029C-9.02798 34.7128 -25.3159 34.7128 -25.3159 33.8227C-25.3159 32.9326 -9.02798 32.9326 -9.02798 32.0424C-9.02798 31.1523 -25.3159 31.1521 -25.3159 30.2618C-25.3159 29.3719 -9.02798 29.3719 -9.02798 28.4821C-9.02798 27.5914 -25.3159 27.5914 -25.3159 26.7008C-25.3159 25.8096 -9.02798 25.8096 -9.02798 24.9183C-9.02798 24.027 -21.6494 21.2627 -17.988 21.1733C18.366 20.2866 19.366 25.1082 55.904 25.1082C92.4421 25.1082 92.4439 21.1634 128.984 21.1634C165.524 21.1634 165.524 25.1082 202.065 25.1082C238.605 25.1082 238.604 21.1634 275.144 21.1634C311.683 21.1634 311.685 25.1082 348.225 25.1082C384.766 25.1082 384.764 21.1634 421.303 21.1634C457.842 21.1634 457.842 25.1082 494.382 25.1082C530.921 25.1082 530.923 21.1634 567.464 21.1634C604.005 21.1634 604.004 25.1082 640.544 25.1082C677.084 25.1082 677.089 21.1634 713.634 21.1634C750.179 21.1634 749.547 24.213 785.909 25.0983C789.565 25.1873 794.868 24.0256 794.868 24.9154C794.868 25.8047 778.58 25.8047 778.58 26.6939C778.58 27.5836 794.868 27.5836 794.868 28.4733C794.868 29.363 778.58 29.3634 778.58 30.2535C778.58 31.1436 794.868 31.1436 794.868 32.0337C794.868 32.9238 778.58 32.9238 778.58 33.814C778.58 34.7041 794.868 34.7043 794.868 35.5946C794.868 36.4845 778.58 36.4845 778.58 37.3743C778.58 38.265 794.868 38.265 794.868 39.1556C794.868 40.0468 778.017 40.4498 778.737 41.3238C780.333 43.2629 791.201 44.5938 787.54 44.6831Z" fill="#008A43"/>
<path d="M787.604 45.0259C751.25 45.9126 750.25 41.091 713.712 41.091C677.172 41.091 677.172 45.0358 640.632 45.0358C604.091 45.0358 604.091 41.091 567.551 41.091C531.011 41.091 531.011 45.0358 494.472 45.0358C457.931 45.0358 457.931 41.091 421.39 41.091C384.85 41.091 384.851 45.0358 348.313 45.0358C311.773 45.0358 311.773 41.091 275.234 41.091C238.693 41.091 238.693 45.0358 202.152 45.0358C165.612 45.0358 165.612 41.091 129.072 41.091C92.5269 41.091 92.5269 45.0358 55.982 45.0358C19.4371 45.0358 20.0685 41.9862 -16.2933 41.1008C-19.9488 41.0119 -25.252 42.1736 -25.252 41.2838C-25.252 40.3945 -8.96401 40.3945 -8.96401 39.5052C-8.96401 38.6155 -25.252 38.6155 -25.252 37.7258C-25.252 36.8361 -8.96401 36.8357 -8.96401 35.9456C-8.96401 35.0555 -25.252 35.0555 -25.252 34.1654C-25.252 33.2753 -8.96401 33.2753 -8.96401 32.3852C-8.96401 31.4951 -25.252 31.4949 -25.252 30.6045C-25.252 29.7147 -8.96401 29.7147 -8.96401 28.8248C-8.96401 27.9342 -25.252 27.9342 -25.252 27.0436C-25.252 26.1523 -8.96401 26.1523 -8.96401 25.2611C-8.96401 24.3698 -21.5855 21.6054 -17.924 21.5161C18.43 20.6293 19.4299 25.451 55.968 25.451C92.506 25.451 92.5078 21.5062 129.048 21.5062C165.588 21.5062 165.588 25.451 202.129 25.451C238.669 25.451 238.668 21.5062 275.208 21.5062C311.747 21.5062 311.749 25.451 348.289 25.451C384.83 25.451 384.828 21.5062 421.367 21.5062C457.906 21.5062 457.906 25.451 494.446 25.451C530.985 25.451 530.987 21.5062 567.528 21.5062C604.069 21.5062 604.068 25.451 640.608 25.451C677.148 25.451 677.153 21.5062 713.698 21.5062C750.243 21.5062 749.611 24.5558 785.973 25.4411C789.628 25.5301 794.932 24.3684 794.932 25.2582C794.932 26.1475 778.644 26.1475 778.644 27.0367C778.644 27.9264 794.932 27.9264 794.932 28.8161C794.932 29.7058 778.644 29.7062 778.644 30.5963C778.644 31.4864 794.932 31.4864 794.932 32.3765C794.932 33.2666 778.644 33.2666 778.644 34.1567C778.644 35.0469 794.932 35.0471 794.932 35.9374C794.932 36.8273 778.644 36.8273 778.644 37.7171C778.644 38.6077 794.932 38.6077 794.932 39.4984C794.932 40.3896 778.081 40.7926 778.801 41.6666C780.397 43.6057 791.265 44.9365 787.604 45.0259Z" fill="#008843"/>
<path d="M787.667 45.3696C751.313 46.2564 750.313 41.4347 713.775 41.4347C677.235 41.4347 677.235 45.3795 640.695 45.3795C604.154 45.3795 604.154 41.4347 567.614 41.4347C531.074 41.4347 531.074 45.3795 494.535 45.3795C457.994 45.3795 457.994 41.4347 421.453 41.4347C384.914 41.4347 384.914 45.3795 348.376 45.3795C311.836 45.3795 311.836 41.4347 275.297 41.4347C238.756 41.4347 238.756 45.3795 202.215 45.3795C165.675 45.3795 165.675 41.4347 129.135 41.4347C92.5899 41.4347 92.5899 45.3795 56.045 45.3795C19.5001 45.3795 20.1314 42.3299 -16.2303 41.4446C-19.8858 41.3556 -25.189 42.5173 -25.189 41.6275C-25.189 40.7383 -8.90103 40.7383 -8.90103 39.849C-8.90103 38.9593 -25.189 38.9593 -25.189 38.0696C-25.189 37.1799 -8.90103 37.1795 -8.90103 36.2894C-8.90103 35.3993 -25.189 35.3993 -25.189 34.5092C-25.189 33.6191 -8.90103 33.6191 -8.90103 32.729C-8.90103 31.8388 -25.189 31.8386 -25.189 30.9483C-25.189 30.0584 -8.90103 30.0584 -8.90103 29.1686C-8.90103 28.278 -25.189 28.278 -25.189 27.3873C-25.189 26.4961 -8.90103 26.4961 -8.90103 25.6048C-8.90103 24.7136 -21.5225 21.9492 -17.8611 21.8598C18.493 20.9731 19.4929 25.7948 56.031 25.7948C92.569 25.7948 92.5708 21.8499 129.111 21.8499C165.651 21.8499 165.651 25.7948 202.192 25.7948C238.732 25.7948 238.731 21.8499 275.271 21.8499C311.81 21.8499 311.812 25.7948 348.352 25.7948C384.893 25.7948 384.891 21.8499 421.43 21.8499C457.969 21.8499 457.969 25.7948 494.509 25.7948C531.048 25.7948 531.05 21.8499 567.591 21.8499C604.132 21.8499 604.131 25.7948 640.671 25.7948C677.211 25.7948 677.216 21.8499 713.761 21.8499C750.306 21.8499 749.674 24.8995 786.036 25.7849C789.691 25.8739 794.995 24.7121 794.995 25.6019C794.995 26.4912 778.707 26.4912 778.707 27.3805C778.707 28.2697 794.995 28.2702 794.995 29.1599C794.995 30.0496 778.707 30.05 778.707 30.9401C778.707 31.8302 794.995 31.8302 794.995 32.7203C794.995 33.6104 778.707 33.6104 778.707 34.5005C778.707 35.3906 794.995 35.3908 794.995 36.2812C794.995 37.171 778.707 37.171 778.707 38.0609C778.707 38.9515 794.995 38.9515 794.995 39.8421C794.995 40.7334 778.144 41.1363 778.864 42.0103C780.46 43.9494 791.328 45.2803 787.667 45.3696Z" fill="#008742"/>
<path d="M787.73 45.7129C751.376 46.5996 750.376 41.778 713.838 41.778C677.298 41.778 677.298 45.7228 640.758 45.7228C604.218 45.7228 604.218 41.778 567.677 41.778C531.138 41.778 531.138 45.7228 494.599 45.7228C458.058 45.7228 458.058 41.778 421.517 41.778C384.978 41.778 384.978 45.7228 348.439 45.7228C311.9 45.7228 311.9 41.778 275.36 41.778C238.819 41.778 238.819 45.7228 202.278 45.7228C165.738 45.7228 165.738 41.778 129.198 41.778C92.6534 41.778 92.6534 45.7228 56.1085 45.7228C19.5635 45.7228 20.1949 42.6732 -16.1668 41.7879C-19.8223 41.6989 -25.1255 42.8606 -25.1255 41.9708C-25.1255 41.0815 -8.83755 41.0815 -8.83755 40.1922C-8.83755 39.3025 -25.1255 39.3025 -25.1255 38.4128C-25.1255 37.5231 -8.83755 37.5227 -8.83755 36.6327C-8.83755 35.7426 -25.1255 35.7426 -25.1255 34.8525C-25.1255 33.9624 -8.83755 33.9624 -8.83755 33.0722C-8.83755 32.1821 -25.1255 32.1819 -25.1255 31.2916C-25.1255 30.4017 -8.83755 30.4017 -8.83755 29.5119C-8.83755 28.6212 -25.1255 28.6212 -25.1255 27.7306C-25.1255 26.8394 -8.83755 26.8394 -8.83755 25.9481C-8.83755 25.0568 -21.459 22.2924 -17.7976 22.2031C18.5565 21.3163 19.5564 26.138 56.0945 26.138C92.6325 26.138 92.6343 22.1932 129.174 22.1932C165.714 22.1932 165.715 26.138 202.255 26.138C238.796 26.138 238.795 22.1932 275.334 22.1932C311.873 22.1932 311.875 26.138 348.416 26.138C384.957 26.138 384.955 22.1932 421.493 22.1932C458.032 22.1932 458.033 26.138 494.572 26.138C531.112 26.138 531.113 22.1932 567.654 22.1932C604.196 22.1932 604.194 26.138 640.734 26.138C677.274 26.138 677.279 22.1932 713.824 22.1932C750.369 22.1932 749.738 25.2428 786.099 26.1281C789.755 26.2171 795.058 25.0554 795.058 25.9452C795.058 26.8345 778.77 26.8345 778.77 27.7237C778.77 28.613 795.058 28.6134 795.058 29.5031C795.058 30.3928 778.77 30.3932 778.77 31.2833C778.77 32.1734 795.058 32.1734 795.058 33.0635C795.058 33.9536 778.77 33.9536 778.77 34.8438C778.77 35.7339 795.058 35.7341 795.058 36.6244C795.058 37.5143 778.77 37.5143 778.77 38.4041C778.77 39.2948 795.058 39.2948 795.058 40.1854C795.058 41.0766 778.208 41.4796 778.927 42.3536C780.524 44.2927 791.391 45.6235 787.73 45.7129Z" fill="#008541"/>
<path d="M787.795 46.0556C751.44 46.9424 750.44 42.1207 713.903 42.1207C677.363 42.1207 677.363 46.0656 640.823 46.0656C604.282 46.0656 604.282 42.1207 567.742 42.1207C531.202 42.1207 531.202 46.0656 494.663 46.0656C458.122 46.0656 458.122 42.1207 421.581 42.1207C385.042 42.1207 385.042 46.0656 348.504 46.0656C311.964 46.0656 311.964 42.1207 275.425 42.1207C238.884 42.1207 238.884 46.0656 202.343 46.0656C165.803 46.0656 165.803 42.1207 129.263 42.1207C92.7179 42.1207 92.7179 46.0656 56.1729 46.0656C19.628 46.0656 20.2594 43.016 -16.1024 42.1306C-19.7579 42.0416 -25.061 43.2034 -25.061 42.3136C-25.061 41.4243 -8.77309 41.4243 -8.77309 40.535C-8.77309 39.6453 -25.061 39.6453 -25.061 38.7556C-25.061 37.8659 -8.77309 37.8655 -8.77309 36.9754C-8.77309 36.0853 -25.061 36.0853 -25.061 35.1952C-25.061 34.3051 -8.77309 34.3051 -8.77309 33.415C-8.77309 32.5249 -25.061 32.5247 -25.061 31.6343C-25.061 30.7445 -8.77309 30.7445 -8.77309 29.8546C-8.77309 28.964 -25.061 28.964 -25.061 28.0734C-25.061 27.1821 -8.77309 27.1821 -8.77309 26.2909C-8.77309 25.3996 -21.3945 22.6352 -17.7331 22.5459C18.6209 21.6591 19.6208 26.4808 56.1589 26.4808C92.697 26.4808 92.6987 22.536 129.239 22.536C165.779 22.536 165.779 26.4808 202.32 26.4808C238.86 26.4808 238.859 22.536 275.398 22.536C311.938 22.536 311.939 26.4808 348.48 26.4808C385.021 26.4808 385.019 22.536 421.558 22.536C458.097 22.536 458.097 26.4808 494.637 26.4808C531.176 26.4808 531.178 22.536 567.719 22.536C604.26 22.536 604.259 26.4808 640.799 26.4808C677.339 26.4808 677.344 22.536 713.889 22.536C750.433 22.536 749.802 25.5856 786.164 26.4709C789.819 26.5599 795.122 25.3982 795.122 26.288C795.122 27.1772 778.835 27.1772 778.835 28.0665C778.835 28.9558 795.122 28.9562 795.122 29.8459C795.122 30.7356 778.835 30.736 778.835 31.6261C778.835 32.5162 795.122 32.5162 795.122 33.4063C795.122 34.2964 778.835 34.2964 778.835 35.1865C778.835 36.0767 795.122 36.0769 795.122 36.9672C795.122 37.8571 778.835 37.8571 778.835 38.7469C778.835 39.6375 795.122 39.6375 795.122 40.5282C795.122 41.4194 778.272 41.8223 778.992 42.6964C780.588 44.6355 791.456 45.9663 787.795 46.0556Z" fill="#008440"/>
<path d="M787.859 46.3989C751.505 47.2857 750.504 42.464 713.967 42.464C677.427 42.464 677.427 46.4088 640.887 46.4088C604.346 46.4088 604.346 42.464 567.806 42.464C531.266 42.464 531.266 46.4088 494.727 46.4088C458.186 46.4088 458.186 42.464 421.645 42.464C385.106 42.464 385.106 46.4088 348.568 46.4088C312.028 46.4088 312.028 42.464 275.489 42.464C238.948 42.464 238.948 46.4088 202.407 46.4088C165.867 46.4088 165.867 42.464 129.327 42.464C92.7818 42.464 92.7818 46.4088 56.2369 46.4088C19.692 46.4088 20.3233 43.3592 -16.0384 42.4739C-19.6939 42.3849 -24.9971 43.5466 -24.9971 42.6568C-24.9971 41.7676 -8.70913 41.7676 -8.70913 40.8783C-8.70913 39.9886 -24.9971 39.9886 -24.9971 39.0989C-24.9971 38.2092 -8.70913 38.2088 -8.70913 37.3187C-8.70913 36.4286 -24.9971 36.4286 -24.9971 35.5385C-24.9971 34.6484 -8.70913 34.6484 -8.70913 33.7583C-8.70913 32.8681 -24.9971 32.8679 -24.9971 31.9776C-24.9971 31.0877 -8.70913 31.0877 -8.70913 30.1979C-8.70913 29.3073 -24.9971 29.3073 -24.9971 28.4166C-24.9971 27.5254 -8.70913 27.5254 -8.70913 26.6341C-8.70913 25.7429 -21.3306 22.9785 -17.6692 22.8891C18.6849 22.0024 19.6848 26.824 56.2229 26.824C92.7609 26.824 92.7627 22.8792 129.303 22.8792C165.843 22.8792 165.843 26.824 202.384 26.824C238.924 26.824 238.923 22.8792 275.462 22.8792C312.002 22.8792 312.003 26.824 348.544 26.824C385.085 26.824 385.083 22.8792 421.622 22.8792C458.161 22.8792 458.161 26.824 494.701 26.824C531.24 26.824 531.242 22.8792 567.783 22.8792C604.324 22.8792 604.323 26.824 640.863 26.824C677.403 26.824 677.408 22.8792 713.953 22.8792C750.497 22.8792 749.866 25.9288 786.228 26.8142C789.883 26.9032 795.186 25.7414 795.186 26.6312C795.186 27.5205 778.899 27.5205 778.899 28.4098C778.899 29.299 795.186 29.2995 795.186 30.1892C795.186 31.0789 778.899 31.0793 778.899 31.9694C778.899 32.8595 795.186 32.8595 795.186 33.7496C795.186 34.6397 778.899 34.6397 778.899 35.5298C778.899 36.4199 795.186 36.4201 795.186 37.3105C795.186 38.2003 778.899 38.2003 778.899 39.0902C778.899 39.9808 795.186 39.9808 795.186 40.8714C795.186 41.7627 778.336 42.1656 779.056 43.0396C780.652 44.9787 791.52 46.3096 787.859 46.3989Z" fill="#008340"/>
<path d="M787.922 46.7422C751.568 47.6289 750.567 42.8073 714.03 42.8073C677.49 42.8073 677.49 46.7521 640.95 46.7521C604.409 46.7521 604.409 42.8073 567.869 42.8073C531.329 42.8073 531.329 46.7521 494.79 46.7521C458.249 46.7521 458.249 42.8073 421.708 42.8073C385.169 42.8073 385.169 46.7521 348.631 46.7521C312.091 46.7521 312.091 42.8073 275.552 42.8073C239.011 42.8073 239.011 46.7521 202.47 46.7521C165.93 46.7521 165.93 42.8073 129.39 42.8073C92.8448 42.8073 92.8448 46.7521 56.2999 46.7521C19.755 46.7521 20.3863 43.7025 -15.9754 42.8172C-19.6309 42.7282 -24.9341 43.8899 -24.9341 43.0001C-24.9341 42.1108 -8.64614 42.1108 -8.64614 41.2215C-8.64614 40.3318 -24.9341 40.3318 -24.9341 39.4421C-24.9341 38.5524 -8.64614 38.552 -8.64614 37.662C-8.64614 36.7719 -24.9341 36.7718 -24.9341 35.8818C-24.9341 34.9917 -8.64614 34.9917 -8.64614 34.1015C-8.64614 33.2114 -24.9341 33.2112 -24.9341 32.3209C-24.9341 31.431 -8.64614 31.431 -8.64614 30.5412C-8.64614 29.6505 -24.9341 29.6505 -24.9341 28.7599C-24.9341 27.8687 -8.64614 27.8687 -8.64614 26.9774C-8.64614 26.0861 -21.2676 23.3217 -17.6062 23.2324C18.7479 22.3456 19.7478 27.1673 56.2859 27.1673C92.8239 27.1673 92.8257 23.2225 129.366 23.2225C165.906 23.2225 165.906 27.1673 202.447 27.1673C238.987 27.1673 238.986 23.2225 275.525 23.2225C312.065 23.2225 312.066 27.1673 348.607 27.1673C385.148 27.1673 385.146 23.2225 421.685 23.2225C458.224 23.2225 458.224 27.1673 494.764 27.1673C531.303 27.1673 531.305 23.2225 567.846 23.2225C604.387 23.2225 604.386 27.1673 640.926 27.1673C677.465 27.1673 677.471 23.2225 714.016 23.2225C750.56 23.2225 749.929 26.2721 786.291 27.1574C789.946 27.2464 795.249 26.0847 795.249 26.9745C795.249 27.8638 778.962 27.8638 778.962 28.753C778.962 29.6423 795.249 29.6427 795.249 30.5324C795.249 31.4221 778.962 31.4225 778.962 32.3126C778.962 33.2027 795.249 33.2027 795.249 34.0928C795.249 34.9829 778.962 34.9829 778.962 35.8731C778.962 36.7632 795.249 36.7634 795.249 37.6537C795.249 38.5436 778.962 38.5436 778.962 39.4334C778.962 40.3241 795.249 40.3241 795.249 41.2147C795.249 42.1059 778.399 42.5089 779.119 43.3829C780.715 45.322 791.583 46.6528 787.922 46.7422Z" fill="#00813F"/>
<path d="M787.986 47.0859C751.632 47.9727 750.632 43.151 714.094 43.151C677.554 43.151 677.554 47.0958 641.014 47.0958C604.474 47.0958 604.474 43.151 567.933 43.151C531.394 43.151 531.394 47.0958 494.854 47.0958C458.313 47.0958 458.313 43.151 421.773 43.151C385.232 43.151 385.234 47.0958 348.695 47.0958C312.156 47.0958 312.156 43.151 275.616 43.151C239.077 43.151 239.075 47.0958 202.534 47.0958C165.994 47.0958 165.994 43.151 129.454 43.151C92.9093 43.151 92.9093 47.0958 56.3643 47.0958C19.8194 47.0958 20.4508 44.0462 -15.911 43.1609C-19.5665 43.0719 -24.8696 44.2336 -24.8696 43.3438C-24.8696 42.4546 -8.58169 42.4546 -8.58169 41.5653C-8.58169 40.6756 -24.8696 40.6756 -24.8696 39.7859C-24.8696 38.8962 -8.58169 38.8958 -8.58169 38.0057C-8.58169 37.1156 -24.8696 37.1156 -24.8696 36.2255C-24.8696 35.3354 -8.58169 35.3354 -8.58169 34.4453C-8.58169 33.5551 -24.8696 33.5549 -24.8696 32.6646C-24.8696 31.7747 -8.58169 31.7747 -8.58169 30.8849C-8.58169 29.9943 -24.8696 29.9943 -24.8696 29.1036C-24.8696 28.2124 -8.58169 28.2124 -8.58169 27.3211C-8.58169 26.4299 -21.2031 23.6655 -17.5417 23.5762C18.8123 22.6894 19.8123 27.5111 56.3503 27.5111C92.8884 27.5111 92.8901 23.5662 129.43 23.5662C165.97 23.5662 165.971 27.5111 202.511 27.5111C239.052 27.5111 239.051 23.5662 275.59 23.5662C312.129 23.5662 312.131 27.5111 348.672 27.5111C385.212 27.5111 385.211 23.5662 421.749 23.5662C458.288 23.5662 458.289 27.5111 494.828 27.5111C531.368 27.5111 531.369 23.5662 567.91 23.5662C604.451 23.5662 604.45 27.5111 640.99 27.5111C677.53 27.5111 677.535 23.5662 714.08 23.5662C750.625 23.5662 749.993 26.6158 786.355 27.5012C790.011 27.5902 795.314 26.4284 795.314 27.3182C795.314 28.2075 779.026 28.2075 779.026 29.0968C779.026 29.9865 795.314 29.9865 795.314 30.8762C795.314 31.7659 779.026 31.7663 779.026 32.6564C779.026 33.5465 795.314 33.5465 795.314 34.4366C795.314 35.3267 779.026 35.3267 779.026 36.2168C779.026 37.1069 795.314 37.1071 795.314 37.9975C795.314 38.8873 779.026 38.8873 779.026 39.7772C779.026 40.6678 795.314 40.6678 795.314 41.5584C795.314 42.4497 778.463 42.8526 779.183 43.7266C780.78 45.6657 791.647 46.9966 787.986 47.0859Z" fill="#00803E"/>
<path d="M788.049 47.4287C751.695 48.3155 750.695 43.4938 714.157 43.4938C677.617 43.4938 677.617 47.4386 641.077 47.4386C604.537 47.4386 604.537 43.4938 567.996 43.4938C531.457 43.4938 531.457 47.4386 494.917 47.4386C458.376 47.4386 458.376 43.4938 421.836 43.4938C385.297 43.4938 385.297 47.4386 348.758 47.4386C312.219 47.4386 312.219 43.4938 275.679 43.4938C239.138 43.4938 239.138 47.4386 202.597 47.4386C166.057 47.4386 166.057 43.4938 129.517 43.4938C92.9723 43.4938 92.9723 47.4386 56.4273 47.4386C19.8824 47.4386 20.5138 44.389 -15.848 43.5037C-19.5035 43.4147 -24.8066 44.5764 -24.8066 43.6866C-24.8066 42.7973 -8.5187 42.7973 -8.5187 41.9081C-8.5187 41.0184 -24.8066 41.0184 -24.8066 40.1287C-24.8066 39.239 -8.5187 39.2386 -8.5187 38.3485C-8.5187 37.4584 -24.8066 37.4584 -24.8066 36.5683C-24.8066 35.6782 -8.5187 35.6782 -8.5187 34.788C-8.5187 33.8979 -24.8066 33.8977 -24.8066 33.0074C-24.8066 32.1175 -8.5187 32.1175 -8.5187 31.2277C-8.5187 30.337 -24.8066 30.337 -24.8066 29.4464C-24.8066 28.5552 -8.5187 28.5552 -8.5187 27.6639C-8.5187 26.7726 -21.1401 24.0083 -17.4787 23.9189C18.8753 23.0322 19.8752 27.8538 56.4133 27.8538C92.9514 27.8538 92.9531 23.909 129.493 23.909C166.033 23.909 166.034 27.8538 202.574 27.8538C239.115 27.8538 239.114 23.909 275.653 23.909C312.192 23.909 312.194 27.8538 348.735 27.8538C385.275 27.8538 385.273 23.909 421.812 23.909C458.351 23.909 458.352 27.8538 494.891 27.8538C531.431 27.8538 531.432 23.909 567.973 23.909C604.514 23.909 604.513 27.8538 641.053 27.8538C677.593 27.8538 677.598 23.909 714.143 23.909C750.688 23.909 750.056 26.9586 786.418 27.8439C790.074 27.9329 795.377 26.7712 795.377 27.661C795.377 28.5503 779.089 28.5503 779.089 29.4396C779.089 30.3292 795.377 30.3292 795.377 31.2189C795.377 32.1086 779.089 32.109 779.089 32.9991C779.089 33.8892 795.377 33.8892 795.377 34.7793C795.377 35.6694 779.089 35.6694 779.089 36.5596C779.089 37.4497 795.377 37.4499 795.377 38.3402C795.377 39.2301 779.089 39.2301 779.089 40.1199C779.089 41.0106 795.377 41.0106 795.377 41.9012C795.377 42.7924 778.527 43.1954 779.246 44.0694C780.843 46.0085 791.71 47.3394 788.049 47.4287Z" fill="#007E3E"/>
<mask id="mask2_122_205" style="mask-type:luminance" maskUnits="userSpaceOnUse" x="16" y="18" width="763" height="37">
<path d="M778.05 18.1982H16.0503V54.7993H778.05V18.1982Z" fill="white"/>
</mask>
<g mask="url(#mask2_122_205)">
<path d="M788.113 47.772C751.759 48.6587 750.759 43.837 714.221 43.837C677.681 43.837 677.681 47.7819 641.141 47.7819C604.601 47.7819 604.601 43.837 568.06 43.837C531.521 43.837 531.521 47.7819 494.981 47.7819C458.44 47.7819 458.44 43.837 421.9 43.837C385.361 43.837 385.361 47.7819 348.822 47.7819C312.283 47.7819 312.283 43.837 275.743 43.837C239.202 43.837 239.202 47.7819 202.661 47.7819C166.121 47.7819 166.121 43.837 129.581 43.837C93.0362 43.837 93.0362 47.7819 56.4913 47.7819C19.9464 47.7819 20.5777 44.7323 -15.784 43.8469C-19.4395 43.7579 -24.7427 44.9197 -24.7427 44.0299C-24.7427 43.1406 -8.45474 43.1406 -8.45474 42.2513C-8.45474 41.3616 -24.7427 41.3616 -24.7427 40.4719C-24.7427 39.5822 -8.45474 39.5818 -8.45474 38.6917C-8.45474 37.8016 -24.7427 37.8016 -24.7427 36.9115C-24.7427 36.0214 -8.45474 36.0214 -8.45474 35.1313C-8.45474 34.2412 -24.7427 34.241 -24.7427 33.3506C-24.7427 32.4608 -8.45474 32.4608 -8.45474 31.5709C-8.45474 30.6803 -24.7427 30.6803 -24.7427 29.7897C-24.7427 28.8984 -8.45474 28.8984 -8.45474 28.0072C-8.45474 27.1159 -21.0762 24.3515 -17.4148 24.2622C18.9393 23.3754 19.9392 28.1971 56.4773 28.1971C93.0153 28.1971 93.0171 24.2523 129.557 24.2523C166.097 24.2523 166.098 28.1971 202.638 28.1971C239.179 28.1971 239.178 24.2523 275.717 24.2523C312.256 24.2523 312.258 28.1971 348.799 28.1971C385.339 28.1971 385.337 24.2523 421.876 24.2523C458.415 24.2523 458.416 28.1971 494.955 28.1971C531.494 28.1971 531.496 24.2523 568.037 24.2523C604.578 24.2523 604.577 28.1971 641.117 28.1971C677.657 28.1971 677.662 24.2523 714.207 24.2523C750.752 24.2523 750.121 27.3019 786.482 28.1872C790.138 28.2762 795.441 27.1145 795.441 28.0043C795.441 28.8935 779.153 28.8935 779.153 29.7828C779.153 30.6725 795.441 30.6725 795.441 31.5622C795.441 32.4519 779.153 32.4523 779.153 33.3424C779.153 34.2325 795.441 34.2325 795.441 35.1226C795.441 36.0127 779.153 36.0127 779.153 36.9028C779.153 37.793 795.441 37.7932 795.441 38.6835C795.441 39.5734 779.153 39.5734 779.153 40.4632C779.153 41.3538 795.441 41.3538 795.441 42.2445C795.441 43.1357 778.59 43.5386 779.31 44.4127C780.907 46.3518 791.774 47.6826 788.113 47.772Z" fill="#007D3D"/>
</g>
</g>
</g>
<defs>
<filter id="filter0_g_122_205" x="0.000195503" y="0.000195503" width="780.639" height="62.0807" filterUnits="userSpaceOnUse" color-interpolation-filters="sRGB">
<feFlood flood-opacity="0" result="BackgroundImageFix"/>
<feBlend mode="normal" in="SourceGraphic" in2="BackgroundImageFix" result="shape"/>
<feTurbulence type="fractalNoise" baseFrequency="0.71428573131561279 0.71428573131561279" numOctaves="3" seed="2461" />
<feDisplacementMap in="shape" scale="28.399999618530273" xChannelSelector="R" yChannelSelector="G" result="displacedImage" width="100%" height="100%" />
<feMerge result="effect1_texture_122_205">
<feMergeNode in="displacedImage"/>
</feMerge>
</filter>
</defs>
</svg>
