<svg width="760" height="48" viewBox="0 0 760 48" fill="none" xmlns="http://www.w3.org/2000/svg">
<g filter="url(#filter0_d_124_809)">
<path d="M36.4422 5.67237e-06L731.292 0.000127164C744.798 0.000129525 755.763 10.4766 755.763 23.3806L755.763 39.3102L3.99999 39.31L3.99999 30.9975C4 13.8895 18.5369 2.54171e-06 36.4422 5.67237e-06Z" fill="url(#paint0_linear_124_809)"/>
<path d="M326.638 15.1104C324.074 14.2452 324.935 12.4692 328.56 11.1434C332.186 9.81766 339.767 10.3094 339.767 10.3094C339.767 10.3094 341.47 12.9506 337.845 14.2764C334.219 15.6021 329.202 15.9755 326.638 15.1104Z" fill="#FFF3CC"/>
<path d="M483.188 28.1475C480.624 27.2823 481.485 25.5063 485.11 24.1805C488.736 22.8548 496.317 23.3465 496.317 23.3465C496.317 23.3465 498.02 25.9877 494.395 27.3135C490.769 28.6392 485.751 29.0126 483.188 28.1475Z" fill="#FFF3CC"/>
<path d="M674.691 10.188C672.127 9.32286 672.988 7.54684 676.614 6.22106C680.239 4.89529 687.82 5.38705 687.82 5.38705C687.82 5.38705 689.524 8.02822 685.898 9.35399C682.272 10.6798 677.255 11.0531 674.691 10.188Z" fill="#FFF3CC"/>
<path d="M151.311 20.7778C148.747 19.9127 149.608 18.1367 153.234 16.8109C156.859 15.4851 164.441 15.9769 164.441 15.9769C164.441 15.9769 166.144 18.6181 162.518 19.9438C158.892 21.2696 153.875 21.643 151.311 20.7778Z" fill="#FFF3CC"/>
</g>
<defs>
<filter id="filter0_d_124_809" x="0" y="0" width="759.763" height="47.3101" filterUnits="userSpaceOnUse" color-interpolation-filters="sRGB">
<feFlood flood-opacity="0" result="BackgroundImageFix"/>
<feColorMatrix in="SourceAlpha" type="matrix" values="0 0 0 0 0 0 0 0 0 0 0 0 0 0 0 0 0 0 127 0" result="hardAlpha"/>
<feOffset dy="4"/>
<feGaussianBlur stdDeviation="2"/>
<feComposite in2="hardAlpha" operator="out"/>
<feColorMatrix type="matrix" values="0 0 0 0 0 0 0 0 0 0 0 0 0 0 0 0 0 0 0.25 0"/>
<feBlend mode="normal" in2="BackgroundImageFix" result="effect1_dropShadow_124_809"/>
<feBlend mode="normal" in="SourceGraphic" in2="effect1_dropShadow_124_809" result="shape"/>
</filter>
<linearGradient id="paint0_linear_124_809" x1="379.881" y1="6.57212e-05" x2="379.881" y2="39.3101" gradientUnits="userSpaceOnUse">
<stop offset="0.413462" stop-color="#FFE9B0"/>
<stop offset="0.846154" stop-color="#F3C38F"/>
<stop offset="0.9986" stop-color="#E8A171"/>
</linearGradient>
</defs>
</svg>
