<svg width="761" height="55" viewBox="0 0 761 55" fill="none" xmlns="http://www.w3.org/2000/svg">
<g filter="url(#filter0_d_124_697)">
<mask id="mask0_124_697" style="mask-type:luminance" maskUnits="userSpaceOnUse" x="4" y="0" width="753" height="55">
<path d="M756.239 0H4V54.9015H756.239V0Z" fill="white"/>
</mask>
<g mask="url(#mask0_124_697)">
<mask id="mask1_124_697" style="mask-type:luminance" maskUnits="userSpaceOnUse" x="4" y="2" width="762" height="37">
<path d="M766 2.24756H4V38.8486H766V2.24756Z" fill="white"/>
</mask>
<g mask="url(#mask1_124_697)">
<path d="M776.063 31.8213C739.709 32.708 738.709 27.8864 702.171 27.8864C665.631 27.8864 665.631 31.8312 629.091 31.8312C592.55 31.8312 592.55 27.8864 556.01 27.8864C519.47 27.8864 519.47 31.8312 482.931 31.8312C446.39 31.8312 446.39 27.8864 409.849 27.8864C373.31 27.8864 373.31 31.8312 336.772 31.8312C300.232 31.8312 300.232 27.8864 263.693 27.8864C227.152 27.8864 227.152 31.8312 190.611 31.8312C154.071 31.8312 154.071 27.8864 117.531 27.8864C80.9859 27.8864 80.9859 31.8312 44.441 31.8312C7.89607 31.8312 8.52744 28.7816 -27.8343 27.8963C-31.4898 27.8073 -36.793 28.969 -36.793 28.0792C-36.793 27.1899 -20.505 27.1899 -20.505 26.3006C-20.505 25.4109 -36.793 25.4109 -36.793 24.5212C-36.793 23.6315 -20.505 23.6312 -20.505 22.7411C-20.505 21.851 -36.793 21.851 -36.793 20.9609C-36.793 20.0708 -20.505 20.0708 -20.505 19.1806C-20.505 18.2905 -36.793 18.2903 -36.793 17.4C-36.793 16.5101 -20.505 16.5101 -20.505 15.6203C-20.505 14.7296 -36.793 14.7296 -36.793 13.839C-36.793 12.9478 -20.505 12.9478 -20.505 12.0565C-20.505 11.1652 -33.1265 8.40084 -29.4651 8.31151C6.88899 7.42474 7.88892 12.2464 44.427 12.2464C80.965 12.2464 80.9668 8.30158 117.507 8.30158C154.047 8.30158 154.047 12.2464 190.588 12.2464C227.128 12.2464 227.127 8.30158 263.667 8.30158C300.206 8.30158 300.207 12.2464 336.748 12.2464C373.289 12.2464 373.287 8.30158 409.826 8.30158C446.365 8.30158 446.365 12.2464 482.905 12.2464C519.444 12.2464 519.446 8.30158 555.987 8.30158C592.528 8.30158 592.527 12.2464 629.067 12.2464C665.607 12.2464 665.612 8.30158 702.157 8.30158C738.702 8.30158 738.07 11.3512 774.432 12.2365C778.087 12.3255 783.391 11.1638 783.391 12.0536C783.391 12.9429 767.103 12.9429 767.103 13.8321C767.103 14.7214 783.391 14.7218 783.391 15.6115C783.391 16.5012 767.103 16.5016 767.103 17.3917C767.103 18.2818 783.391 18.2818 783.391 19.1719C783.391 20.062 767.103 20.062 767.103 20.9522C767.103 21.8423 783.391 21.8425 783.391 22.7328C783.391 23.6227 767.103 23.6227 767.103 24.5125C767.103 25.4032 783.391 25.4032 783.391 26.2938C783.391 27.185 766.54 27.588 767.26 28.462C768.856 30.4011 779.724 31.7319 776.063 31.8213Z" fill="#00A651"/>
</g>
<path d="M776.128 32.1645C739.774 33.0513 738.774 28.2296 702.236 28.2296C665.696 28.2296 665.696 32.1745 629.156 32.1745C592.615 32.1745 592.615 28.2296 556.075 28.2296C519.535 28.2296 519.535 32.1745 482.996 32.1745C446.455 32.1745 446.455 28.2296 409.914 28.2296C373.375 28.2296 373.375 32.1745 336.837 32.1745C300.297 32.1745 300.297 28.2296 263.758 28.2296C227.217 28.2296 227.217 32.1745 190.676 32.1745C154.136 32.1745 154.136 28.2296 117.596 28.2296C81.0509 28.2296 81.0509 32.1745 44.5059 32.1745C7.96101 32.1745 8.59238 29.1249 -27.7694 28.2395C-31.4249 28.1505 -36.728 29.3122 -36.728 28.4224C-36.728 27.5332 -20.4401 27.5332 -20.4401 26.6439C-20.4401 25.7542 -36.728 25.7542 -36.728 24.8645C-36.728 23.9748 -20.4401 23.9744 -20.4401 23.0843C-20.4401 22.1942 -36.728 22.1942 -36.728 21.3041C-36.728 20.414 -20.4401 20.414 -20.4401 19.5239C-20.4401 18.6337 -36.728 18.6335 -36.728 17.7432C-36.728 16.8533 -20.4401 16.8533 -20.4401 15.9635C-20.4401 15.0729 -36.728 15.0729 -36.728 14.1823C-36.728 13.291 -20.4401 13.291 -20.4401 12.3998C-20.4401 11.5085 -33.0615 8.7441 -29.4001 8.65477C6.95393 7.768 7.95386 12.5897 44.4919 12.5897C81.03 12.5897 81.0318 8.64484 117.572 8.64484C154.112 8.64484 154.112 12.5897 190.653 12.5897C227.193 12.5897 227.192 8.64484 263.732 8.64484C300.271 8.64484 300.272 12.5897 336.813 12.5897C373.354 12.5897 373.352 8.64484 409.891 8.64484C446.43 8.64484 446.43 12.5897 482.97 12.5897C519.509 12.5897 519.511 8.64484 556.052 8.64484C592.593 8.64484 592.592 12.5897 629.132 12.5897C665.672 12.5897 665.677 8.64484 702.222 8.64484C738.767 8.64484 738.135 11.6944 774.497 12.5798C778.152 12.6688 783.456 11.5071 783.456 12.3969C783.456 13.2861 767.168 13.2861 767.168 14.1754C767.168 15.0647 783.456 15.0651 783.456 15.9548C783.456 16.8445 767.168 16.8449 767.168 17.735C767.168 18.6251 783.456 18.6251 783.456 19.5152C783.456 20.4053 767.168 20.4053 767.168 21.2954C767.168 22.1856 783.456 22.1858 783.456 23.0761C783.456 23.966 767.168 23.966 767.168 24.8558C767.168 25.7464 783.456 25.7464 783.456 26.637C783.456 27.5283 766.605 27.9312 767.325 28.8052C768.921 30.7443 779.789 32.0752 776.128 32.1645Z" fill="#00A550"/>
<path d="M776.192 32.5078C739.838 33.3946 738.837 28.5729 702.3 28.5729C665.76 28.5729 665.76 32.5177 629.22 32.5177C592.679 32.5177 592.679 28.5729 556.139 28.5729C519.599 28.5729 519.599 32.5177 483.06 32.5177C446.519 32.5177 446.519 28.5729 409.978 28.5729C373.439 28.5729 373.439 32.5177 336.901 32.5177C300.361 32.5177 300.361 28.5729 263.822 28.5729C227.281 28.5729 227.281 32.5177 190.74 32.5177C154.2 32.5177 154.2 28.5729 117.66 28.5729C81.1148 28.5729 81.1148 32.5177 44.5699 32.5177C8.02498 32.5177 8.65634 29.4681 -27.7054 28.5828C-31.3609 28.4938 -36.6641 29.6555 -36.6641 28.7657C-36.6641 27.8764 -20.3761 27.8764 -20.3761 26.9872C-20.3761 26.0975 -36.6641 26.0975 -36.6641 25.2078C-36.6641 24.3181 -20.3761 24.3177 -20.3761 23.4276C-20.3761 22.5375 -36.6641 22.5375 -36.6641 21.6474C-36.6641 20.7573 -20.3761 20.7573 -20.3761 19.8671C-20.3761 18.977 -36.6641 18.9768 -36.6641 18.0865C-36.6641 17.1966 -20.3761 17.1966 -20.3761 16.3068C-20.3761 15.4161 -36.6641 15.4161 -36.6641 14.5255C-36.6641 13.6343 -20.3761 13.6343 -20.3761 12.743C-20.3761 11.8518 -32.9976 9.08736 -29.3362 8.99803C7.0179 8.11126 8.01782 12.9329 44.5559 12.9329C81.0939 12.9329 81.0957 8.98811 117.636 8.98811C154.176 8.98811 154.176 12.9329 190.717 12.9329C227.257 12.9329 227.256 8.98811 263.795 8.98811C300.335 8.98811 300.336 12.9329 336.877 12.9329C373.418 12.9329 373.416 8.98811 409.955 8.98811C446.494 8.98811 446.494 12.9329 483.034 12.9329C519.573 12.9329 519.575 8.98811 556.116 8.98811C592.657 8.98811 592.656 12.9329 629.196 12.9329C665.736 12.9329 665.741 8.98811 702.286 8.98811C738.83 8.98811 738.199 12.0377 774.561 12.923C778.216 13.012 783.519 11.8503 783.519 12.7401C783.519 13.6294 767.232 13.6294 767.232 14.5187C767.232 15.4084 783.519 15.4084 783.519 16.2981C783.519 17.1878 767.232 17.1882 767.232 18.0783C767.232 18.9683 783.519 18.9683 783.519 19.8584C783.519 20.7485 767.232 20.7485 767.232 21.6387C767.232 22.5288 783.519 22.529 783.519 23.4193C783.519 24.3092 767.232 24.3092 767.232 25.199C767.232 26.0897 783.519 26.0897 783.519 26.9803C783.519 27.8715 766.669 28.2745 767.389 29.1485C768.985 31.0876 779.853 32.4185 776.192 32.5078Z" fill="#00A350"/>
<path d="M776.255 32.8511C739.901 33.7378 738.901 28.9162 702.363 28.9162C665.823 28.9162 665.823 32.861 629.283 32.861C592.743 32.861 592.743 28.9162 556.202 28.9162C519.663 28.9162 519.663 32.861 483.123 32.861C446.583 32.861 446.583 28.9162 410.042 28.9162C373.503 28.9162 373.503 32.861 336.964 32.861C300.425 32.861 300.425 28.9162 263.885 28.9162C227.344 28.9162 227.344 32.861 190.803 32.861C154.263 32.861 154.263 28.9162 117.723 28.9162C81.1783 28.9162 81.1783 32.861 44.6334 32.861C8.08845 32.861 8.71982 29.8114 -27.6419 28.926C-31.2974 28.837 -36.6006 29.9988 -36.6006 29.109C-36.6006 28.2197 -20.3126 28.2197 -20.3126 27.3304C-20.3126 26.4407 -36.6006 26.4407 -36.6006 25.551C-36.6006 24.6613 -20.3126 24.6609 -20.3126 23.7708C-20.3126 22.8807 -36.6006 22.8807 -36.6006 21.9906C-36.6006 21.1005 -20.3126 21.1005 -20.3126 20.2104C-20.3126 19.3203 -36.6006 19.3201 -36.6006 18.4297C-36.6006 17.5399 -20.3126 17.5399 -20.3126 16.65C-20.3126 15.7594 -36.6006 15.7594 -36.6006 14.8688C-36.6006 13.9775 -20.3126 13.9775 -20.3126 13.0863C-20.3126 12.195 -32.9341 9.43062 -29.2727 9.34129C7.08137 8.45452 8.0813 13.2762 44.6194 13.2762C81.1574 13.2762 81.1592 9.33137 117.699 9.33137C154.239 9.33137 154.24 13.2762 190.78 13.2762C227.321 13.2762 227.32 9.33137 263.859 9.33137C300.398 9.33137 300.4 13.2762 336.941 13.2762C373.481 13.2762 373.48 9.33137 410.018 9.33137C446.557 9.33137 446.558 13.2762 483.097 13.2762C519.637 13.2762 519.638 9.33137 556.179 9.33137C592.72 9.33137 592.719 13.2762 629.259 13.2762C665.799 13.2762 665.804 9.33137 702.349 9.33137C738.894 9.33137 738.263 12.381 774.624 13.2663C778.28 13.3553 783.583 12.1936 783.583 13.0834C783.583 13.9726 767.295 13.9726 767.295 14.8619C767.295 15.7516 783.583 15.7516 783.583 16.6413C783.583 17.531 767.295 17.5314 767.295 18.4215C767.295 19.3116 783.583 19.3116 783.583 20.2017C783.583 21.0918 767.295 21.0918 767.295 21.9819C767.295 22.8721 783.583 22.8723 783.583 23.7626C783.583 24.6525 767.295 24.6525 767.295 25.5423C767.295 26.4329 783.583 26.4329 783.583 27.3236C783.583 28.2148 766.733 28.6178 767.452 29.4918C769.049 31.4309 779.916 32.7617 776.255 32.8511Z" fill="#00A24F"/>
<path d="M776.32 33.1938C739.965 34.0806 738.965 29.2589 702.427 29.2589C665.888 29.2589 665.888 33.2038 629.348 33.2038C592.807 33.2038 592.807 29.2589 556.267 29.2589C519.727 29.2589 519.727 33.2038 483.188 33.2038C446.647 33.2038 446.647 29.2589 410.106 29.2589C373.567 29.2589 373.567 33.2038 337.029 33.2038C300.489 33.2038 300.489 29.2589 263.95 29.2589C227.409 29.2589 227.409 33.2038 190.868 33.2038C154.328 33.2038 154.328 29.2589 117.788 29.2589C81.2428 29.2589 81.2428 33.2038 44.6978 33.2038C8.15291 33.2038 8.78427 30.1542 -27.5775 29.2688C-31.233 29.1798 -36.5361 30.3415 -36.5361 29.4517C-36.5361 28.5625 -20.2482 28.5625 -20.2482 27.6732C-20.2482 26.7835 -36.5361 26.7835 -36.5361 25.8938C-36.5361 25.0041 -20.2482 25.0037 -20.2482 24.1136C-20.2482 23.2235 -36.5361 23.2235 -36.5361 22.3334C-36.5361 21.4433 -20.2482 21.4433 -20.2482 20.5532C-20.2482 19.663 -36.5361 19.6628 -36.5361 18.7725C-36.5361 17.8826 -20.2482 17.8826 -20.2482 16.9928C-20.2482 16.1022 -36.5361 16.1022 -36.5361 15.2115C-36.5361 14.3203 -20.2482 14.3203 -20.2482 13.4291C-20.2482 12.5378 -32.8696 9.7734 -29.2082 9.68407C7.14583 8.7973 8.14575 13.619 44.6838 13.619C81.2219 13.619 81.2236 9.67414 117.764 9.67414C154.304 9.67414 154.304 13.619 190.845 13.619C227.385 13.619 227.384 9.67414 263.923 9.67414C300.463 9.67414 300.464 13.619 337.005 13.619C373.546 13.619 373.544 9.67414 410.083 9.67414C446.621 9.67414 446.622 13.619 483.162 13.619C519.701 13.619 519.703 9.67414 556.244 9.67414C592.785 9.67414 592.784 13.619 629.324 13.619C665.863 13.619 665.869 9.67414 702.413 9.67414C738.958 9.67414 738.327 12.7237 774.689 13.6091C778.344 13.6981 783.647 12.5364 783.647 13.4262C783.647 14.3154 767.359 14.3154 767.359 15.2047C767.359 16.0944 783.647 16.0944 783.647 16.9841C783.647 17.8738 767.359 17.8742 767.359 18.7643C767.359 19.6544 783.647 19.6544 783.647 20.5445C783.647 21.4346 767.359 21.4346 767.359 22.3247C767.359 23.2148 783.647 23.215 783.647 24.1054C783.647 24.9952 767.359 24.9952 767.359 25.8851C767.359 26.7757 783.647 26.7757 783.647 27.6663C783.647 28.5576 766.797 28.9605 767.517 29.8345C769.113 31.7736 779.981 33.1045 776.32 33.1938Z" fill="#00A04E"/>
<path d="M776.382 33.5371C740.028 34.4239 739.028 29.6022 702.49 29.6022C665.951 29.6022 665.951 33.547 629.411 33.547C592.87 33.547 592.87 29.6022 556.33 29.6022C519.79 29.6022 519.79 33.547 483.251 33.547C446.71 33.547 446.71 29.6022 410.169 29.6022C373.63 29.6022 373.63 33.547 337.092 33.547C300.552 33.547 300.552 29.6022 264.013 29.6022C227.472 29.6022 227.472 33.547 190.931 33.547C154.391 33.547 154.391 29.6022 117.851 29.6022C81.3057 29.6022 81.3058 33.547 44.7608 33.547C8.21589 33.547 8.84726 30.4974 -27.5145 29.6121C-31.17 29.5231 -36.4731 30.6848 -36.4731 29.795C-36.4731 28.9057 -20.1852 28.9057 -20.1852 28.0165C-20.1852 27.1268 -36.4731 27.1268 -36.4731 26.2371C-36.4731 25.3474 -20.1852 25.347 -20.1852 24.4569C-20.1852 23.5668 -36.4731 23.5668 -36.4731 22.6767C-36.4731 21.7866 -20.1852 21.7866 -20.1852 20.8964C-20.1852 20.0063 -36.4731 20.0061 -36.4731 19.1158C-36.4731 18.2259 -20.1852 18.2259 -20.1852 17.3361C-20.1852 16.4454 -36.4731 16.4454 -36.4731 15.5548C-36.4731 14.6636 -20.1852 14.6636 -20.1852 13.7723C-20.1852 12.881 -32.8066 10.1167 -29.1452 10.0273C7.20881 9.14056 8.20874 13.9622 44.7468 13.9622C81.2848 13.9622 81.2866 10.0174 117.827 10.0174C154.367 10.0174 154.367 13.9622 190.908 13.9622C227.448 13.9622 227.447 10.0174 263.986 10.0174C300.526 10.0174 300.527 13.9622 337.068 13.9622C373.609 13.9622 373.607 10.0174 410.146 10.0174C446.685 10.0174 446.685 13.9622 483.225 13.9622C519.764 13.9622 519.766 10.0174 556.307 10.0174C592.848 10.0174 592.847 13.9622 629.387 13.9622C665.926 13.9622 665.932 10.0174 702.476 10.0174C739.021 10.0174 738.39 13.067 774.752 13.9523C778.407 14.0413 783.71 12.8796 783.71 13.7694C783.71 14.6587 767.422 14.6587 767.422 15.5479C767.422 16.4376 783.71 16.4376 783.71 17.3273C783.71 18.217 767.422 18.2174 767.422 19.1075C767.422 19.9976 783.71 19.9976 783.71 20.8877C783.71 21.7778 767.422 21.7778 767.422 22.668C767.422 23.5581 783.71 23.5583 783.71 24.4486C783.71 25.3385 767.422 25.3385 767.422 26.2283C767.422 27.119 783.71 27.119 783.71 28.0096C783.71 28.9008 766.86 29.3038 767.58 30.1778C769.176 32.1169 780.044 33.4478 776.382 33.5371Z" fill="#009F4E"/>
<path d="M776.447 33.8808C740.093 34.7676 739.093 29.9459 702.555 29.9459C666.015 29.9459 666.015 33.8908 629.475 33.8908C592.935 33.8908 592.935 29.9459 556.394 29.9459C519.855 29.9459 519.855 33.8908 483.315 33.8908C446.774 33.8908 446.774 29.9459 410.234 29.9459C373.695 29.9459 373.695 33.8908 337.156 33.8908C300.617 33.8908 300.617 29.9459 264.077 29.9459C227.536 29.9459 227.536 33.8908 190.995 33.8908C154.455 33.8908 154.455 29.9459 117.915 29.9459C81.3702 29.9459 81.3702 33.8908 44.8253 33.8908C8.28034 33.8908 8.91171 30.8412 -27.45 29.9558C-31.1055 29.8668 -36.4087 31.0286 -36.4087 30.1388C-36.4087 29.2495 -20.1208 29.2495 -20.1208 28.3602C-20.1208 27.4705 -36.4087 27.4705 -36.4087 26.5808C-36.4087 25.6911 -20.1208 25.6907 -20.1208 24.8006C-20.1208 23.9105 -36.4087 23.9105 -36.4087 23.0204C-36.4087 22.1303 -20.1208 22.1303 -20.1208 21.2402C-20.1208 20.3501 -36.4087 20.3499 -36.4087 19.4595C-36.4087 18.5697 -20.1208 18.5697 -20.1208 17.6798C-20.1208 16.7892 -36.4087 16.7892 -36.4087 15.8986C-36.4087 15.0073 -20.1208 15.0073 -20.1208 14.1161C-20.1208 13.2248 -32.7422 10.4604 -29.0808 10.3711C7.27326 9.48431 8.27319 14.306 44.8112 14.306C81.3493 14.306 81.3511 10.3612 117.891 10.3612C154.431 10.3612 154.432 14.306 190.972 14.306C227.513 14.306 227.512 10.3612 264.051 10.3612C300.59 10.3612 300.592 14.306 337.133 14.306C373.673 14.306 373.671 10.3612 410.21 10.3612C446.749 10.3612 446.75 14.306 483.289 14.306C519.829 14.306 519.83 10.3612 556.371 10.3612C592.912 10.3612 592.911 14.306 629.451 14.306C665.991 14.306 665.996 10.3612 702.541 10.3612C739.086 10.3612 738.454 13.4108 774.816 14.2961C778.472 14.3851 783.775 13.2234 783.775 14.1132C783.775 15.0024 767.487 15.0024 767.487 15.8917C767.487 16.781 783.775 16.7814 783.775 17.6711C783.775 18.5608 767.487 18.5612 767.487 19.4513C767.487 20.3414 783.775 20.3414 783.775 21.2315C783.775 22.1216 767.487 22.1216 767.487 23.0117C767.487 23.9019 783.775 23.9021 783.775 24.7924C783.775 25.6823 767.487 25.6823 767.487 26.5721C767.487 27.4627 783.775 27.4627 783.775 28.3534C783.775 29.2446 766.924 29.6475 767.644 30.5215C769.241 32.4607 780.108 33.7915 776.447 33.8808Z" fill="#009E4D"/>
<path d="M776.509 34.2236C740.155 35.1104 739.155 30.2887 702.617 30.2887C666.078 30.2887 666.078 34.2335 629.538 34.2335C592.997 34.2335 592.997 30.2887 556.457 30.2887C519.917 30.2887 519.917 34.2335 483.378 34.2335C446.837 34.2335 446.837 30.2887 410.296 30.2887C373.757 30.2887 373.757 34.2335 337.218 34.2335C300.679 34.2335 300.679 30.2887 264.14 30.2887C227.6 30.2887 227.599 34.2335 191.057 34.2335C154.517 34.2335 154.517 30.2887 117.978 30.2887C81.4327 30.2887 81.4327 34.2335 44.8878 34.2335C8.34284 34.2335 8.97421 31.1839 -27.3875 30.2986C-31.043 30.2096 -36.3462 31.3713 -36.3462 30.4815C-36.3462 29.5923 -20.0583 29.5923 -20.0583 28.703C-20.0583 27.8133 -36.3462 27.8133 -36.3462 26.9236C-36.3462 26.0339 -20.0583 26.0335 -20.0583 25.1434C-20.0583 24.2533 -36.3462 24.2533 -36.3462 23.3632C-36.3462 22.4731 -20.0583 22.4731 -20.0583 21.583C-20.0583 20.6928 -36.3462 20.6926 -36.3462 19.8023C-36.3462 18.9124 -20.0583 18.9124 -20.0583 18.0226C-20.0583 17.132 -36.3462 17.132 -36.3462 16.2413C-36.3462 15.3501 -20.0583 15.3501 -20.0583 14.4588C-20.0583 13.5676 -32.6797 10.8032 -29.0183 10.7139C7.33576 9.82708 8.33569 14.6488 44.8737 14.6488C81.4118 14.6488 81.4136 10.7039 117.954 10.7039C154.494 10.7039 154.494 14.6488 191.035 14.6488C227.575 14.6488 227.574 10.7039 264.113 10.7039C300.653 10.7039 300.654 14.6488 337.195 14.6488C373.736 14.6488 373.734 10.7039 410.273 10.7039C446.811 10.7039 446.812 14.6488 483.352 14.6488C519.891 14.6488 519.893 10.7039 556.434 10.7039C592.975 10.7039 592.974 14.6488 629.514 14.6488C666.053 14.6488 666.058 10.7039 702.603 10.7039C739.148 10.7039 738.517 13.7535 774.879 14.6389C778.534 14.7279 783.837 13.5661 783.837 14.4559C783.837 15.3452 767.549 15.3452 767.549 16.2345C767.549 17.1237 783.837 17.1242 783.837 18.0139C783.837 18.9036 767.549 18.904 767.549 19.7941C767.549 20.6842 783.837 20.6842 783.837 21.5743C783.837 22.4644 767.549 22.4644 767.549 23.3545C767.549 24.2446 783.837 24.2448 783.837 25.1352C783.837 26.025 767.549 26.025 767.549 26.9149C767.549 27.8055 783.837 27.8055 783.837 28.6961C783.837 29.5874 766.987 29.9903 767.707 30.8643C769.303 32.8034 780.171 34.1343 776.509 34.2236Z" fill="#009C4C"/>
<path d="M776.574 34.5669C740.22 35.4536 739.22 30.632 702.682 30.632C666.142 30.632 666.142 34.5768 629.602 34.5768C593.062 34.5768 593.062 30.632 556.521 30.632C519.982 30.632 519.982 34.5768 483.442 34.5768C446.901 34.5768 446.901 30.632 410.361 30.632C373.822 30.632 373.822 34.5768 337.283 34.5768C300.743 34.5768 300.743 30.632 264.204 30.632C227.663 30.632 227.663 34.5768 191.122 34.5768C154.582 34.5768 154.582 30.632 118.042 30.632C81.4972 30.632 81.4972 34.5768 44.9522 34.5768C8.40729 34.5768 9.03867 31.5272 -27.3231 30.6419C-30.9786 30.5529 -36.2817 31.7146 -36.2817 30.8248C-36.2817 29.9355 -19.9938 29.9355 -19.9938 29.0463C-19.9938 28.1566 -36.2817 28.1566 -36.2817 27.2669C-36.2817 26.3772 -19.9938 26.3768 -19.9938 25.4867C-19.9938 24.5966 -36.2817 24.5966 -36.2817 23.7065C-36.2817 22.8164 -19.9938 22.8164 -19.9938 21.9262C-19.9938 21.0361 -36.2817 21.0359 -36.2817 20.1456C-36.2817 19.2557 -19.9938 19.2557 -19.9938 18.3659C-19.9938 17.4752 -36.2817 17.4752 -36.2817 16.5846C-36.2817 15.6934 -19.9938 15.6934 -19.9938 14.8021C-19.9938 13.9108 -32.6152 11.1464 -28.9538 11.0571C7.40022 10.1703 8.40015 14.992 44.9382 14.992C81.4763 14.992 81.478 11.0472 118.018 11.0472C154.558 11.0472 154.559 14.992 191.099 14.992C227.64 14.992 227.639 11.0472 264.178 11.0472C300.717 11.0472 300.719 14.992 337.26 14.992C373.8 14.992 373.798 11.0472 410.337 11.0472C446.876 11.0472 446.877 14.992 483.416 14.992C519.955 14.992 519.957 11.0472 556.498 11.0472C593.039 11.0472 593.038 14.992 629.578 14.992C666.118 14.992 666.123 11.0472 702.668 11.0472C739.213 11.0472 738.581 14.0968 774.943 14.9821C778.599 15.0711 783.902 13.9094 783.902 14.7992C783.902 15.6885 767.614 15.6885 767.614 16.5777C767.614 17.467 783.902 17.4674 783.902 18.3571C783.902 19.2468 767.614 19.2472 767.614 20.1373C767.614 21.0274 783.902 21.0274 783.902 21.9175C783.902 22.8076 767.614 22.8076 767.614 23.6978C767.614 24.5879 783.902 24.5881 783.902 25.4784C783.902 26.3683 767.614 26.3683 767.614 27.2581C767.614 28.1488 783.902 28.1488 783.902 29.0394C783.902 29.9306 767.051 30.3336 767.771 31.2076C769.368 33.1467 780.235 34.4775 776.574 34.5669Z" fill="#009B4B"/>
<path d="M776.638 34.9101C740.284 35.7969 739.284 30.9752 702.746 30.9752C666.206 30.9752 666.206 34.9201 629.666 34.9201C593.125 34.9201 593.125 30.9752 556.585 30.9752C520.046 30.9752 520.046 34.9201 483.506 34.9201C446.965 34.9201 446.965 30.9752 410.424 30.9752C373.886 30.9752 373.886 34.9201 337.347 34.9201C300.807 34.9201 300.807 30.9752 264.268 30.9752C227.727 30.9752 227.727 34.9201 191.186 34.9201C154.646 34.9201 154.646 30.9752 118.106 30.9752C81.5611 30.9752 81.5611 34.9201 45.0162 34.9201C8.47126 34.9201 9.10263 31.8705 -27.2591 30.9851C-30.9146 30.8961 -36.2178 32.0578 -36.2178 31.168C-36.2178 30.2788 -19.9298 30.2788 -19.9298 29.3895C-19.9298 28.4998 -36.2178 28.4998 -36.2178 27.6101C-36.2178 26.7204 -19.9298 26.72 -19.9298 25.8299C-19.9298 24.9398 -36.2178 24.9398 -36.2178 24.0497C-36.2178 23.1596 -19.9298 23.1596 -19.9298 22.2695C-19.9298 21.3794 -36.2178 21.3792 -36.2178 20.4888C-36.2178 19.599 -19.9298 19.599 -19.9298 18.7091C-19.9298 17.8185 -36.2178 17.8185 -36.2178 16.9279C-36.2178 16.0366 -19.9298 16.0366 -19.9298 15.1454C-19.9298 14.2541 -32.5513 11.4897 -28.8899 11.4004C7.46418 10.5136 8.46411 15.3353 45.0022 15.3353C81.5402 15.3353 81.542 11.3905 118.082 11.3905C154.622 11.3905 154.623 15.3353 191.163 15.3353C227.704 15.3353 227.702 11.3905 264.242 11.3905C300.781 11.3905 300.783 15.3353 337.323 15.3353C373.864 15.3353 373.862 11.3905 410.401 11.3905C446.94 11.3905 446.941 15.3353 483.48 15.3353C520.019 15.3353 520.021 11.3905 556.562 11.3905C593.103 11.3905 593.102 15.3353 629.642 15.3353C666.182 15.3353 666.187 11.3905 702.732 11.3905C739.277 11.3905 738.645 14.44 775.007 15.3254C778.663 15.4144 783.966 14.2527 783.966 15.1425C783.966 16.0317 767.678 16.0317 767.678 16.921C767.678 17.8107 783.966 17.8107 783.966 18.7004C783.966 19.5901 767.678 19.5905 767.678 20.4806C767.678 21.3707 783.966 21.3707 783.966 22.2608C783.966 23.1509 767.678 23.1509 767.678 24.041C767.678 24.9312 783.966 24.9314 783.966 25.8217C783.966 26.7116 767.678 26.7116 767.678 27.6014C767.678 28.492 783.966 28.492 783.966 29.3827C783.966 30.2739 767.115 30.6768 767.835 31.5508C769.432 33.49 780.299 34.8208 776.638 34.9101Z" fill="#00994B"/>
<path d="M776.702 35.2534C740.348 36.1402 739.348 31.3185 702.81 31.3185C666.27 31.3185 666.27 35.2633 629.73 35.2633C593.189 35.2633 593.189 31.3185 556.649 31.3185C520.11 31.3185 520.109 35.2633 483.57 35.2633C447.029 35.2633 447.029 31.3185 410.488 31.3185C373.95 31.3185 373.95 35.2633 337.411 35.2633C300.871 35.2633 300.871 31.3185 264.332 31.3185C227.791 31.3185 227.791 35.2633 191.25 35.2633C154.71 35.2633 154.71 31.3185 118.17 31.3185C81.6251 31.3185 81.6251 35.2633 45.0802 35.2633C8.53523 35.2633 9.1666 32.2137 -27.1952 31.3284C-30.8506 31.2394 -36.1538 32.4011 -36.1538 31.5113C-36.1538 30.622 -19.8659 30.622 -19.8659 29.7328C-19.8659 28.8431 -36.1538 28.8431 -36.1538 27.9534C-36.1538 27.0637 -19.8659 27.0633 -19.8659 26.1732C-19.8659 25.2831 -36.1538 25.2831 -36.1538 24.393C-36.1538 23.5029 -19.8659 23.5029 -19.8659 22.6127C-19.8659 21.7226 -36.1538 21.7224 -36.1538 20.8321C-36.1538 19.9422 -19.8659 19.9422 -19.8659 19.0524C-19.8659 18.1618 -36.1538 18.1618 -36.1538 17.2711C-36.1538 16.3799 -19.8659 16.3799 -19.8659 15.4886C-19.8659 14.5974 -32.4873 11.833 -28.8259 11.7436C7.52815 10.8569 8.52808 15.6785 45.0661 15.6785C81.6042 15.6785 81.606 11.7337 118.146 11.7337C154.686 11.7337 154.686 15.6785 191.227 15.6785C227.768 15.6785 227.766 11.7337 264.306 11.7337C300.845 11.7337 300.847 15.6785 337.387 15.6785C373.928 15.6785 373.926 11.7337 410.465 11.7337C447.004 11.7337 447.004 15.6785 483.544 15.6785C520.083 15.6785 520.085 11.7337 556.626 11.7337C593.167 11.7337 593.166 15.6785 629.706 15.6785C666.246 15.6785 666.251 11.7337 702.796 11.7337C739.341 11.7337 738.709 14.7833 775.071 15.6686C778.727 15.7576 784.03 14.5959 784.03 15.4857C784.03 16.375 767.742 16.375 767.742 17.2643C767.742 18.1535 784.03 18.154 784.03 19.0437C784.03 19.9334 767.742 19.9338 767.742 20.8239C767.742 21.714 784.03 21.714 784.03 22.6041C784.03 23.4942 767.742 23.4942 767.742 24.3843C767.742 25.2744 784.03 25.2746 784.03 26.1649C784.03 27.0548 767.742 27.0548 767.742 27.9446C767.742 28.8353 784.03 28.8353 784.03 29.7259C784.03 30.6171 767.179 31.0201 767.899 31.8941C769.496 33.8332 780.363 35.1641 776.702 35.2534Z" fill="#00984A"/>
<path d="M776.765 35.5962C740.411 36.4829 739.411 31.6613 702.873 31.6613C666.333 31.6613 666.333 35.6061 629.793 35.6061C593.253 35.6061 593.253 31.6613 556.712 31.6613C520.173 31.6613 520.173 35.6061 483.634 35.6061C447.093 35.6061 447.093 31.6613 410.552 31.6613C374.013 31.6613 374.013 35.6061 337.474 35.6061C300.935 35.6061 300.935 31.6613 264.395 31.6613C227.854 31.6613 227.854 35.6061 191.313 35.6061C154.773 35.6061 154.773 31.6613 118.233 31.6613C81.6886 31.6613 81.6886 35.6061 45.1436 35.6061C8.59871 35.6061 9.23007 32.5565 -27.1317 31.6712C-30.7872 31.5822 -36.0903 32.7439 -36.0903 31.8541C-36.0903 30.9648 -19.8024 30.9648 -19.8024 30.0755C-19.8024 29.1858 -36.0903 29.1858 -36.0903 28.2961C-36.0903 27.4065 -19.8024 27.406 -19.8024 26.516C-19.8024 25.6259 -36.0903 25.6259 -36.0903 24.7358C-36.0903 23.8457 -19.8024 23.8457 -19.8024 22.9555C-19.8024 22.0654 -36.0903 22.0652 -36.0903 21.1749C-36.0903 20.285 -19.8024 20.285 -19.8024 19.3952C-19.8024 18.5045 -36.0903 18.5045 -36.0903 17.6139C-36.0903 16.7227 -19.8024 16.7227 -19.8024 15.8314C-19.8024 14.9401 -32.4238 12.1757 -28.7624 12.0864C7.59163 11.1996 8.59155 16.0213 45.1296 16.0213C81.6677 16.0213 81.6695 12.0765 118.209 12.0765C154.749 12.0765 154.75 16.0213 191.29 16.0213C227.831 16.0213 227.83 12.0765 264.369 12.0765C300.909 12.0765 300.91 16.0213 337.451 16.0213C373.992 16.0213 373.99 12.0765 410.529 12.0765C447.067 12.0765 447.068 16.0213 483.607 16.0213C520.147 16.0213 520.149 12.0765 556.69 12.0765C593.231 12.0765 593.23 16.0213 629.769 16.0213C666.309 16.0213 666.314 12.0765 702.859 12.0765C739.404 12.0765 738.773 15.1261 775.135 16.0114C778.79 16.1004 784.093 14.9387 784.093 15.8285C784.093 16.7178 767.805 16.7178 767.805 17.607C767.805 18.4967 784.093 18.4967 784.093 19.3864C784.093 20.2761 767.805 20.2765 767.805 21.1666C767.805 22.0567 784.093 22.0567 784.093 22.9468C784.093 23.8369 767.805 23.8369 767.805 24.7271C767.805 25.6172 784.093 25.6174 784.093 26.5077C784.093 27.3976 767.805 27.3976 767.805 28.2874C767.805 29.1781 784.093 29.1781 784.093 30.0687C784.093 30.9599 767.243 31.3629 767.962 32.2369C769.559 34.176 780.427 35.5068 776.765 35.5962Z" fill="#009649"/>
<path d="M776.829 35.9399C740.475 36.8267 739.475 32.005 702.937 32.005C666.397 32.005 666.397 35.9498 629.857 35.9498C593.317 35.9498 593.317 32.005 556.776 32.005C520.237 32.005 520.237 35.9498 483.698 35.9498C447.157 35.9498 447.157 32.005 410.616 32.005C374.075 32.005 374.077 35.9498 337.538 35.9498C300.999 35.9498 300.999 32.005 264.459 32.005C227.918 32.005 227.918 35.9498 191.377 35.9498C154.837 35.9498 154.837 32.005 118.297 32.005C81.7525 32.005 81.7525 35.9498 45.2076 35.9498C8.66267 35.9498 9.29404 32.9002 -27.0677 32.0149C-30.7232 31.9259 -36.0264 33.0876 -36.0264 32.1978C-36.0264 31.3086 -19.7384 31.3086 -19.7384 30.4193C-19.7384 29.5296 -36.0264 29.5296 -36.0264 28.6399C-36.0264 27.7502 -19.7384 27.7498 -19.7384 26.8597C-19.7384 25.9696 -36.0264 25.9696 -36.0264 25.0795C-36.0264 24.1894 -19.7384 24.1894 -19.7384 23.2993C-19.7384 22.4091 -36.0264 22.4089 -36.0264 21.5186C-36.0264 20.6287 -19.7384 20.6287 -19.7384 19.7389C-19.7384 18.8483 -36.0264 18.8483 -36.0264 17.9576C-36.0264 17.0664 -19.7384 17.0664 -19.7384 16.1751C-19.7384 15.2839 -32.3599 12.5195 -28.6985 12.4302C7.65559 11.5434 8.65552 16.3651 45.1936 16.3651C81.7316 16.3651 81.7334 12.4202 118.273 12.4202C154.813 12.4202 154.814 16.3651 191.354 16.3651C227.895 16.3651 227.894 12.4202 264.433 12.4202C300.972 12.4202 300.974 16.3651 337.515 16.3651C374.056 16.3651 374.054 12.4202 410.593 12.4202C447.131 12.4202 447.132 16.3651 483.671 16.3651C520.211 16.3651 520.212 12.4202 556.754 12.4202C593.295 12.4202 593.293 16.3651 629.833 16.3651C666.373 16.3651 666.378 12.4202 702.923 12.4202C739.468 12.4202 738.837 15.4698 775.198 16.3552C778.854 16.4442 784.157 15.2824 784.157 16.1722C784.157 17.0615 767.869 17.0615 767.869 17.9508C767.869 18.8405 784.157 18.8405 784.157 19.7302C784.157 20.6199 767.869 20.6203 767.869 21.5104C767.869 22.4005 784.157 22.4005 784.157 23.2906C784.157 24.1807 767.869 24.1807 767.869 25.0708C767.869 25.9609 784.157 25.9611 784.157 26.8515C784.157 27.7413 767.869 27.7413 767.869 28.6312C767.869 29.5218 784.157 29.5218 784.157 30.4124C784.157 31.3037 767.307 31.7066 768.026 32.5806C769.623 34.5197 780.491 35.8506 776.829 35.9399Z" fill="#009549"/>
<path d="M776.894 36.2832C740.54 37.17 739.54 32.3483 703.002 32.3483C666.462 32.3483 666.462 36.2931 629.922 36.2931C593.381 36.2931 593.381 32.3483 556.841 32.3483C520.301 32.3483 520.301 36.2931 483.762 36.2931C447.221 36.2931 447.221 32.3483 410.68 32.3483C374.142 32.3483 374.141 36.2931 337.603 36.2931C301.063 36.2931 301.063 32.3483 264.524 32.3483C227.983 32.3483 227.983 36.2931 191.442 36.2931C154.902 36.2931 154.902 32.3483 118.362 32.3483C81.817 32.3483 81.817 36.2931 45.2721 36.2931C8.72712 36.2931 9.35849 33.2435 -27.0033 32.3582C-30.6588 32.2692 -35.9619 33.4309 -35.9619 32.5411C-35.9619 31.6518 -19.674 31.6518 -19.674 30.7626C-19.674 29.8729 -35.9619 29.8729 -35.9619 28.9832C-35.9619 28.0935 -19.674 28.0931 -19.674 27.203C-19.674 26.3129 -35.9619 26.3129 -35.9619 25.4228C-35.9619 24.5327 -19.674 24.5327 -19.674 23.6425C-19.674 22.7524 -35.9619 22.7522 -35.9619 21.8619C-35.9619 20.972 -19.674 20.972 -19.674 20.0822C-19.674 19.1915 -35.9619 19.1915 -35.9619 18.3009C-35.9619 17.4097 -19.674 17.4097 -19.674 16.5184C-19.674 15.6271 -32.2954 12.8628 -28.634 12.7734C7.72004 11.8867 8.71997 16.7083 45.258 16.7083C81.7961 16.7083 81.7979 12.7635 118.338 12.7635C154.878 12.7635 154.878 16.7083 191.419 16.7083C227.959 16.7083 227.958 12.7635 264.498 12.7635C301.037 12.7635 301.039 16.7083 337.579 16.7083C374.12 16.7083 374.118 12.7635 410.657 12.7635C447.196 12.7635 447.196 16.7083 483.736 16.7083C520.275 16.7083 520.277 12.7635 556.818 12.7635C593.359 12.7635 593.358 16.7083 629.898 16.7083C666.438 16.7083 666.443 12.7635 702.988 12.7635C739.533 12.7635 738.901 15.8131 775.263 16.6984C778.919 16.7874 784.222 15.6257 784.222 16.5155C784.222 17.4048 767.934 17.4048 767.934 18.294C767.934 19.1833 784.222 19.1837 784.222 20.0734C784.222 20.9631 767.934 20.9635 767.934 21.8536C767.934 22.7437 784.222 22.7437 784.222 23.6338C784.222 24.5239 767.934 24.5239 767.934 25.4141C767.934 26.3042 784.222 26.3044 784.222 27.1947C784.222 28.0846 767.934 28.0846 767.934 28.9744C767.934 29.8651 784.222 29.8651 784.222 30.7557C784.222 31.6469 767.371 32.0499 768.091 32.9239C769.687 34.863 780.555 36.1939 776.894 36.2832Z" fill="#009448"/>
<path d="M776.957 36.626C740.603 37.5127 739.603 32.6911 703.065 32.6911C666.525 32.6911 666.525 36.6359 629.985 36.6359C593.445 36.6359 593.445 32.6911 556.904 32.6911C520.365 32.6911 520.365 36.6359 483.826 36.6359C447.285 36.6359 447.285 32.6911 410.744 32.6911C374.205 32.6911 374.205 36.6359 337.666 36.6359C301.127 36.6359 301.127 32.6911 264.587 32.6911C228.046 32.6911 228.046 36.6359 191.505 36.6359C154.965 36.6359 154.965 32.6911 118.425 32.6911C81.8805 32.6911 81.8805 36.6359 45.3355 36.6359C8.7906 36.6359 9.42197 33.5863 -26.9398 32.7009C-30.5953 32.6119 -35.8984 33.7737 -35.8984 32.8839C-35.8984 31.9946 -19.6105 31.9946 -19.6105 31.1053C-19.6105 30.2156 -35.8984 30.2156 -35.8984 29.3259C-35.8984 28.4362 -19.6105 28.4358 -19.6105 27.5457C-19.6105 26.6556 -35.8984 26.6556 -35.8984 25.7655C-35.8984 24.8754 -19.6105 24.8754 -19.6105 23.9853C-19.6105 23.0952 -35.8984 23.095 -35.8984 22.2046C-35.8984 21.3148 -19.6105 21.3148 -19.6105 20.4249C-19.6105 19.5343 -35.8984 19.5343 -35.8984 18.6437C-35.8984 17.7524 -19.6105 17.7524 -19.6105 16.8612C-19.6105 15.9699 -32.2319 13.2055 -28.5705 13.1162C7.78352 12.2294 8.78345 17.0511 45.3215 17.0511C81.8596 17.0511 81.8613 13.1063 118.401 13.1063C154.941 13.1063 154.942 17.0511 191.482 17.0511C228.023 17.0511 228.022 13.1063 264.561 13.1063C301.1 13.1063 301.102 17.0511 337.643 17.0511C374.184 17.0511 374.182 13.1063 410.72 13.1063C447.259 13.1063 447.26 17.0511 483.799 17.0511C520.339 17.0511 520.34 13.1063 556.881 13.1063C593.423 13.1063 593.421 17.0511 629.961 17.0511C666.501 17.0511 666.506 13.1063 703.051 13.1063C739.596 13.1063 738.965 16.1559 775.326 17.0412C778.982 17.1302 784.285 15.9685 784.285 16.8583C784.285 17.7475 767.997 17.7475 767.997 18.6368C767.997 19.5261 784.285 19.5265 784.285 20.4162C784.285 21.3059 767.997 21.3063 767.997 22.1964C767.997 23.0865 784.285 23.0865 784.285 23.9766C784.285 24.8667 767.997 24.8667 767.997 25.7568C767.997 26.647 784.285 26.6472 784.285 27.5375C784.285 28.4274 767.997 28.4274 767.997 29.3172C767.997 30.2078 784.285 30.2078 784.285 31.0985C784.285 31.9897 767.435 32.3927 768.154 33.2667C769.751 35.2058 780.618 36.5366 776.957 36.626Z" fill="#009247"/>
<path d="M777.02 36.9692C740.666 37.856 739.666 33.0343 703.128 33.0343C666.588 33.0343 666.588 36.9791 630.048 36.9791C593.508 36.9791 593.508 33.0343 556.967 33.0343C520.428 33.0343 520.428 36.9791 483.889 36.9791C447.348 36.9791 447.348 33.0343 410.807 33.0343C374.268 33.0343 374.268 36.9791 337.729 36.9791C301.19 36.9791 301.19 33.0343 264.65 33.0343C228.109 33.0343 228.109 36.9791 191.568 36.9791C155.028 36.9791 155.028 33.0343 118.488 33.0343C81.9434 33.0343 81.9434 36.9791 45.3985 36.9791C8.85358 36.9791 9.48495 33.9295 -26.8768 33.0442C-30.5323 32.9552 -35.8354 34.1169 -35.8354 33.2271C-35.8354 32.3379 -19.5475 32.3379 -19.5475 31.4486C-19.5475 30.5589 -35.8354 30.5589 -35.8354 29.6692C-35.8354 28.7795 -19.5475 28.7791 -19.5475 27.889C-19.5475 26.9989 -35.8354 26.9989 -35.8354 26.1088C-35.8354 25.2187 -19.5475 25.2187 -19.5475 24.3286C-19.5475 23.4384 -35.8354 23.4382 -35.8354 22.5479C-35.8354 21.658 -19.5475 21.658 -19.5475 20.7682C-19.5475 19.8776 -35.8354 19.8776 -35.8354 18.9869C-35.8354 18.0957 -19.5475 18.0957 -19.5475 17.2044C-19.5475 16.3132 -32.169 13.5488 -28.5075 13.4595C7.84651 12.5727 8.84643 17.3944 45.3845 17.3944C81.9225 17.3944 81.9243 13.4495 118.464 13.4495C155.004 13.4495 155.005 17.3944 191.545 17.3944C228.086 17.3944 228.085 13.4495 264.624 13.4495C301.163 13.4495 301.165 17.3944 337.706 17.3944C374.247 17.3944 374.245 13.4495 410.783 13.4495C447.322 13.4495 447.323 17.3944 483.862 17.3944C520.402 17.3944 520.403 13.4495 556.944 13.4495C593.486 13.4495 593.484 17.3944 630.024 17.3944C666.564 17.3944 666.569 13.4495 703.114 13.4495C739.659 13.4495 739.028 16.4991 775.389 17.3845C779.045 17.4735 784.348 16.3117 784.348 17.2015C784.348 18.0908 768.06 18.0908 768.06 18.9801C768.06 19.8693 784.348 19.8698 784.348 20.7595C784.348 21.6492 768.06 21.6496 768.06 22.5397C768.06 23.4298 784.348 23.4298 784.348 24.3199C784.348 25.21 768.06 25.21 768.06 26.1001C768.06 26.9902 784.348 26.9904 784.348 27.8808C784.348 28.7706 768.06 28.7706 768.06 29.6605C768.06 30.5511 784.348 30.5511 784.348 31.4417C784.348 32.333 767.498 32.7359 768.217 33.6099C769.814 35.549 780.681 36.8799 777.02 36.9692Z" fill="#009147"/>
<path d="M777.084 37.313C740.73 38.1997 739.73 33.3781 703.192 33.3781C666.652 33.3781 666.652 37.3229 630.112 37.3229C593.572 37.3229 593.572 33.3781 557.031 33.3781C520.492 33.3781 520.492 37.3229 483.953 37.3229C447.412 37.3229 447.412 33.3781 410.871 33.3781C374.332 33.3781 374.332 37.3229 337.793 37.3229C301.254 37.3229 301.254 33.3781 264.714 33.3781C228.173 33.3781 228.173 37.3229 191.632 37.3229C155.092 37.3229 155.092 33.3781 118.552 33.3781C82.0074 33.3781 82.0074 37.3229 45.4625 37.3229C8.91755 37.3229 9.54892 34.2733 -26.8128 33.388C-30.4683 33.299 -35.7715 34.4607 -35.7715 33.5709C-35.7715 32.6816 -19.4835 32.6816 -19.4835 31.7923C-19.4835 30.9026 -35.7715 30.9026 -35.7715 30.0129C-35.7715 29.1232 -19.4835 29.1228 -19.4835 28.2327C-19.4835 27.3426 -35.7715 27.3426 -35.7715 26.4525C-35.7715 25.5625 -19.4835 25.5624 -19.4835 24.6723C-19.4835 23.7822 -35.7715 23.782 -35.7715 22.8917C-35.7715 22.0018 -19.4835 22.0018 -19.4835 21.112C-19.4835 20.2213 -35.7715 20.2213 -35.7715 19.3307C-35.7715 18.4395 -19.4835 18.4395 -19.4835 17.5482C-19.4835 16.6569 -32.105 13.8925 -28.4436 13.8032C7.91047 12.9164 8.9104 17.7381 45.4484 17.7381C81.9865 17.7381 81.9883 13.7933 118.528 13.7933C155.068 13.7933 155.069 17.7381 191.609 17.7381C228.15 17.7381 228.149 13.7933 264.688 13.7933C301.227 13.7933 301.229 17.7381 337.77 17.7381C374.311 17.7381 374.309 13.7933 410.847 13.7933C447.386 13.7933 447.387 17.7381 483.926 17.7381C520.466 17.7381 520.467 13.7933 557.008 13.7933C593.55 13.7933 593.548 17.7381 630.088 17.7381C666.628 17.7381 666.633 13.7933 703.178 13.7933C739.723 13.7933 739.092 16.8429 775.453 17.7282C779.109 17.8172 784.412 16.6555 784.412 17.5453C784.412 18.4346 768.124 18.4346 768.124 19.3238C768.124 20.2131 784.412 20.2135 784.412 21.1032C784.412 21.9929 768.124 21.9933 768.124 22.8834C768.124 23.7735 784.412 23.7735 784.412 24.6636C784.412 25.5537 768.124 25.5537 768.124 26.4439C768.124 27.334 784.412 27.3342 784.412 28.2245C784.412 29.1144 768.124 29.1144 768.124 30.0042C768.124 30.8949 784.412 30.8949 784.412 31.7855C784.412 32.6767 767.562 33.0797 768.281 33.9537C769.878 35.8928 780.745 37.2236 777.084 37.313Z" fill="#008F46"/>
<path d="M777.148 37.6557C740.794 38.5425 739.794 33.7208 703.256 33.7208C666.716 33.7208 666.716 37.6657 630.176 37.6657C593.636 37.6657 593.636 33.7208 557.095 33.7208C520.556 33.7208 520.556 37.6657 484.016 37.6657C447.476 37.6657 447.476 33.7208 410.935 33.7208C374.396 33.7208 374.396 37.6657 337.857 37.6657C301.318 37.6657 301.318 33.7208 264.778 33.7208C228.237 33.7208 228.237 37.6657 191.696 37.6657C155.156 37.6657 155.156 33.7208 118.616 33.7208C82.0714 33.7208 82.0714 37.6657 45.5264 37.6657C8.98151 37.6657 9.61288 34.6161 -26.7489 33.7307C-30.4044 33.6417 -35.7075 34.8035 -35.7075 33.9137C-35.7075 33.0244 -19.4196 33.0244 -19.4196 32.1351C-19.4196 31.2454 -35.7075 31.2454 -35.7075 30.3557C-35.7075 29.466 -19.4196 29.4656 -19.4196 28.5755C-19.4196 27.6854 -35.7075 27.6854 -35.7075 26.7953C-35.7075 25.9052 -19.4196 25.9052 -19.4196 25.0151C-19.4196 24.125 -35.7075 24.1248 -35.7075 23.2344C-35.7075 22.3446 -19.4196 22.3446 -19.4196 21.4547C-19.4196 20.5641 -35.7075 20.5641 -35.7075 19.6735C-35.7075 18.7822 -19.4196 18.7822 -19.4196 17.891C-19.4196 16.9997 -32.041 14.2353 -28.3796 14.146C7.97444 13.2592 8.97436 18.0809 45.5124 18.0809C82.0505 18.0809 82.0523 14.1361 118.592 14.1361C155.132 14.1361 155.133 18.0809 191.673 18.0809C228.214 18.0809 228.213 14.1361 264.752 14.1361C301.291 14.1361 301.293 18.0809 337.834 18.0809C374.375 18.0809 374.373 14.1361 410.911 14.1361C447.45 14.1361 447.451 18.0809 483.99 18.0809C520.53 18.0809 520.531 14.1361 557.072 14.1361C593.613 14.1361 593.612 18.0809 630.152 18.0809C666.692 18.0809 666.697 14.1361 703.242 14.1361C739.787 14.1361 739.156 17.1857 775.517 18.071C779.173 18.16 784.476 16.9983 784.476 17.8881C784.476 18.7773 768.188 18.7773 768.188 19.6666C768.188 20.5559 784.476 20.5563 784.476 21.446C784.476 22.3357 768.188 22.3361 768.188 23.2262C768.188 24.1163 784.476 24.1163 784.476 25.0064C784.476 25.8965 768.188 25.8965 768.188 26.7866C768.188 27.6768 784.476 27.677 784.476 28.5673C784.476 29.4572 768.188 29.4572 768.188 30.347C768.188 31.2376 784.476 31.2376 784.476 32.1283C784.476 33.0195 767.626 33.4224 768.345 34.2965C769.942 36.2356 780.809 37.5664 777.148 37.6557Z" fill="#008E45"/>
<path d="M777.212 37.999C740.858 38.8858 739.857 34.0641 703.32 34.0641C666.78 34.0641 666.78 38.0089 630.24 38.0089C593.699 38.0089 593.699 34.0641 557.159 34.0641C520.619 34.0641 520.619 38.0089 484.08 38.0089C447.539 38.0089 447.539 34.0641 410.998 34.0641C374.459 34.0641 374.459 38.0089 337.921 38.0089C301.381 38.0089 301.381 34.0641 264.842 34.0641C228.301 34.0641 228.301 38.0089 191.76 38.0089C155.22 38.0089 155.22 34.0641 118.68 34.0641C82.1348 34.0641 82.1349 38.0089 45.5899 38.0089C9.04499 38.0089 9.67636 34.9593 -26.6854 34.074C-30.3409 33.985 -35.644 35.1467 -35.644 34.2569C-35.644 33.3677 -19.3561 33.3676 -19.3561 32.4784C-19.3561 31.5887 -35.644 31.5887 -35.644 30.699C-35.644 29.8093 -19.3561 29.8089 -19.3561 28.9188C-19.3561 28.0287 -35.644 28.0287 -35.644 27.1386C-35.644 26.2485 -19.3561 26.2485 -19.3561 25.3584C-19.3561 24.4682 -35.644 24.468 -35.644 23.5777C-35.644 22.6878 -19.3561 22.6878 -19.3561 21.798C-19.3561 20.9074 -35.644 20.9074 -35.644 20.0167C-35.644 19.1255 -19.3561 19.1255 -19.3561 18.2342C-19.3561 17.343 -31.9775 14.5786 -28.3161 14.4892C8.03791 13.6025 9.03784 18.4241 45.5759 18.4241C82.114 18.4241 82.1157 14.4793 118.656 14.4793C155.196 14.4793 155.196 18.4241 191.737 18.4241C228.277 18.4241 228.276 14.4793 264.816 14.4793C301.355 14.4793 301.356 18.4241 337.897 18.4241C374.438 18.4241 374.436 14.4793 410.975 14.4793C447.514 14.4793 447.514 18.4241 484.054 18.4241C520.593 18.4241 520.595 14.4793 557.136 14.4793C593.677 14.4793 593.676 18.4241 630.216 18.4241C666.755 18.4241 666.761 14.4793 703.306 14.4793C739.85 14.4793 739.219 17.5289 775.581 18.4143C779.236 18.5033 784.54 17.3415 784.54 18.2313C784.54 19.1206 768.252 19.1206 768.252 20.0099C768.252 20.8996 784.54 20.8996 784.54 21.7893C784.54 22.679 768.252 22.6794 768.252 23.5695C768.252 24.4596 784.54 24.4596 784.54 25.3497C784.54 26.2398 768.252 26.2398 768.252 27.1299C768.252 28.02 784.54 28.0202 784.54 28.9106C784.54 29.8004 768.252 29.8004 768.252 30.6903C768.252 31.5809 784.54 31.5809 784.54 32.4715C784.54 33.3628 767.689 33.7657 768.409 34.6397C770.005 36.5788 780.873 37.9097 777.212 37.999Z" fill="#008D45"/>
<path d="M777.274 38.3423C740.92 39.229 739.92 34.4074 703.382 34.4074C666.842 34.4074 666.842 38.3522 630.302 38.3522C593.762 38.3522 593.762 34.4074 557.221 34.4074C520.682 34.4074 520.682 38.3522 484.142 38.3522C447.602 38.3522 447.602 34.4074 411.061 34.4074C374.522 34.4074 374.522 38.3522 337.983 38.3522C301.444 38.3522 301.444 34.4074 264.904 34.4074C228.363 34.4074 228.363 38.3522 191.822 38.3522C155.282 38.3522 155.282 34.4074 118.742 34.4074C82.1973 34.4074 82.1974 38.3522 45.6524 38.3522C9.10749 38.3522 9.73886 35.3026 -26.6229 34.4173C-30.2784 34.3283 -35.5815 35.49 -35.5815 34.6002C-35.5815 33.7109 -19.2936 33.7109 -19.2936 32.8216C-19.2936 31.9319 -35.5815 31.9319 -35.5815 31.0422C-35.5815 30.1525 -19.2936 30.1521 -19.2936 29.262C-19.2936 28.3719 -35.5815 28.3719 -35.5815 27.4818C-35.5815 26.5917 -19.2936 26.5917 -19.2936 25.7016C-19.2936 24.8115 -35.5815 24.8113 -35.5815 23.921C-35.5815 23.0311 -19.2936 23.0311 -19.2936 22.1413C-19.2936 21.2506 -35.5815 21.2506 -35.5815 20.36C-35.5815 19.4688 -19.2936 19.4688 -19.2936 18.5775C-19.2936 17.6862 -31.915 14.9218 -28.2536 14.8325C8.10041 13.9457 9.10034 18.7674 45.6384 18.7674C82.1765 18.7674 82.1782 14.8226 118.718 14.8226C155.258 14.8226 155.259 18.7674 191.799 18.7674C228.34 18.7674 228.339 14.8226 264.878 14.8226C301.417 14.8226 301.419 18.7674 337.96 18.7674C374.501 18.7674 374.499 14.8226 411.037 14.8226C447.576 14.8226 447.577 18.7674 484.116 18.7674C520.656 18.7674 520.657 14.8226 557.198 14.8226C593.739 14.8226 593.738 18.7674 630.278 18.7674C666.818 18.7674 666.823 14.8226 703.368 14.8226C739.913 14.8226 739.282 17.8722 775.643 18.7575C779.299 18.8465 784.602 17.6848 784.602 18.5746C784.602 19.4639 768.314 19.4639 768.314 20.3531C768.314 21.2424 784.602 21.2428 784.602 22.1325C784.602 23.0222 768.314 23.0226 768.314 23.9127C768.314 24.8028 784.602 24.8028 784.602 25.6929C784.602 26.583 768.314 26.583 768.314 27.4732C768.314 28.3633 784.602 28.3635 784.602 29.2538C784.602 30.1437 768.314 30.1437 768.314 31.0335C768.314 31.9241 784.602 31.9241 784.602 32.8148C784.602 33.706 767.752 34.109 768.471 34.983C770.068 36.9221 780.935 38.2529 777.274 38.3423Z" fill="#008B44"/>
<path d="M777.34 38.6855C740.986 39.5723 739.985 34.7506 703.448 34.7506C666.908 34.7506 666.908 38.6955 630.368 38.6955C593.827 38.6955 593.827 34.7506 557.287 34.7506C520.747 34.7506 520.747 38.6955 484.208 38.6955C447.667 38.6955 447.667 34.7506 411.126 34.7506C374.587 34.7506 374.587 38.6955 338.049 38.6955C301.509 38.6955 301.509 34.7506 264.97 34.7506C228.429 34.7506 228.429 38.6955 191.888 38.6955C155.348 38.6955 155.348 34.7506 118.808 34.7506C82.2628 34.7506 82.2628 38.6955 45.7179 38.6955C9.17292 38.6955 9.80429 35.6459 -26.5575 34.7605C-30.213 34.6715 -35.5161 35.8332 -35.5161 34.9434C-35.5161 34.0542 -19.2282 34.0542 -19.2282 33.1649C-19.2282 32.2752 -35.5161 32.2752 -35.5161 31.3855C-35.5161 30.4958 -19.2282 30.4954 -19.2282 29.6053C-19.2282 28.7152 -35.5161 28.7152 -35.5161 27.8251C-35.5161 26.935 -19.2282 26.935 -19.2282 26.0449C-19.2282 25.1547 -35.5161 25.1545 -35.5161 24.2642C-35.5161 23.3743 -19.2282 23.3743 -19.2282 22.4845C-19.2282 21.5939 -35.5161 21.5939 -35.5161 20.7032C-35.5161 19.812 -19.2282 19.812 -19.2282 18.9208C-19.2282 18.0295 -31.8496 15.2651 -28.1882 15.1758C8.16584 14.289 9.16577 19.1107 45.7038 19.1107C82.2419 19.1107 82.2437 15.1658 118.784 15.1658C155.324 15.1658 155.324 19.1107 191.865 19.1107C228.405 19.1107 228.404 15.1658 264.943 15.1658C301.483 15.1658 301.484 19.1107 338.025 19.1107C374.566 19.1107 374.564 15.1658 411.103 15.1658C447.642 15.1658 447.642 19.1107 484.182 19.1107C520.721 19.1107 520.723 15.1658 557.264 15.1658C593.805 15.1658 593.804 19.1107 630.344 19.1107C666.883 19.1107 666.889 15.1658 703.433 15.1658C739.978 15.1658 739.347 18.2154 775.709 19.1008C779.364 19.1898 784.667 18.0281 784.667 18.9179C784.667 19.8071 768.379 19.8071 768.379 20.6964C768.379 21.5861 784.667 21.5861 784.667 22.4758C784.667 23.3655 768.379 23.3659 768.379 24.256C768.379 25.1461 784.667 25.1461 784.667 26.0362C784.667 26.9263 768.379 26.9263 768.379 27.8164C768.379 28.7065 784.667 28.7067 784.667 29.5971C784.667 30.4869 768.379 30.4869 768.379 31.3768C768.379 32.2674 784.667 32.2674 784.667 33.158C784.667 34.0493 767.817 34.4522 768.537 35.3262C770.133 37.2653 781.001 38.5962 777.34 38.6855Z" fill="#008A43"/>
<path d="M777.403 39.0283C741.049 39.9151 740.049 35.0934 703.511 35.0934C666.972 35.0934 666.972 39.0382 630.432 39.0382C593.891 39.0382 593.891 35.0934 557.351 35.0934C520.811 35.0934 520.811 39.0382 484.272 39.0382C447.731 39.0382 447.731 35.0934 411.19 35.0934C374.649 35.0934 374.651 39.0382 338.112 39.0382C301.573 39.0382 301.573 35.0934 265.034 35.0934C228.493 35.0934 228.493 39.0382 191.951 39.0382C155.412 39.0382 155.412 35.0934 118.872 35.0934C82.3268 35.0934 82.3267 39.0382 45.7818 39.0382C9.23689 39.0382 9.86826 35.9886 -26.4935 35.1033C-30.149 35.0143 -35.4521 36.176 -35.4521 35.2862C-35.4521 34.3969 -19.1642 34.3969 -19.1642 33.5077C-19.1642 32.618 -35.4521 32.618 -35.4521 31.7283C-35.4521 30.8386 -19.1642 30.8382 -19.1642 29.9481C-19.1642 29.058 -35.4521 29.058 -35.4521 28.1679C-35.4521 27.2778 -19.1642 27.2778 -19.1642 26.3876C-19.1642 25.4975 -35.4521 25.4973 -35.4521 24.607C-35.4521 23.7171 -19.1642 23.7171 -19.1642 22.8273C-19.1642 21.9367 -35.4521 21.9367 -35.4521 21.046C-35.4521 20.1548 -19.1642 20.1548 -19.1642 19.2635C-19.1642 18.3723 -31.7856 15.6079 -28.1242 15.5185C8.22981 14.6318 9.22974 19.4534 45.7678 19.4534C82.3058 19.4534 82.3076 15.5086 118.848 15.5086C155.388 15.5086 155.388 19.4534 191.929 19.4534C228.469 19.4534 228.468 15.5086 265.007 15.5086C301.547 15.5086 301.548 19.4534 338.089 19.4534C374.63 19.4534 374.628 15.5086 411.167 15.5086C447.706 15.5086 447.706 19.4534 484.246 19.4534C520.785 19.4534 520.787 15.5086 557.328 15.5086C593.869 15.5086 593.868 19.4534 630.408 19.4534C666.947 19.4534 666.953 15.5086 703.497 15.5086C740.042 15.5086 739.411 18.5582 775.773 19.4436C779.428 19.5325 784.731 18.3708 784.731 19.2606C784.731 20.1499 768.443 20.1499 768.443 21.0392C768.443 21.9289 784.731 21.9289 784.731 22.8186C784.731 23.7083 768.443 23.7087 768.443 24.5988C768.443 25.4889 784.731 25.4889 784.731 26.379C784.731 27.2691 768.443 27.2691 768.443 28.1592C768.443 29.0493 784.731 29.0495 784.731 29.9399C784.731 30.8297 768.443 30.8297 768.443 31.7196C768.443 32.6102 784.731 32.6102 784.731 33.5008C784.731 34.392 767.881 34.795 768.601 35.669C770.197 37.6081 781.065 38.939 777.403 39.0283Z" fill="#008843"/>
<path d="M777.467 39.3721C741.112 40.2588 740.112 35.4371 703.574 35.4371C667.035 35.4371 667.035 39.382 630.495 39.382C593.954 39.382 593.954 35.4371 557.414 35.4371C520.874 35.4371 520.874 39.382 484.335 39.382C447.794 39.382 447.794 35.4371 411.253 35.4371C374.714 35.4371 374.714 39.382 338.175 39.382C301.636 39.382 301.636 35.4371 265.097 35.4371C228.556 35.4371 228.556 39.382 192.014 39.382C155.475 39.382 155.475 35.4371 118.935 35.4371C82.3897 35.4371 82.3897 39.382 45.8448 39.382C9.29987 39.382 9.93124 36.3324 -26.4305 35.447C-30.086 35.358 -35.3892 36.5198 -35.3892 35.63C-35.3892 34.7407 -19.1012 34.7407 -19.1012 33.8514C-19.1012 32.9617 -35.3892 32.9617 -35.3892 32.072C-35.3892 31.1823 -19.1012 31.1819 -19.1012 30.2918C-19.1012 29.4017 -35.3892 29.4017 -35.3892 28.5116C-35.3892 27.6215 -19.1012 27.6215 -19.1012 26.7314C-19.1012 25.8413 -35.3892 25.8411 -35.3892 24.9507C-35.3892 24.0609 -19.1012 24.0609 -19.1012 23.171C-19.1012 22.2804 -35.3892 22.2804 -35.3892 21.3898C-35.3892 20.4985 -19.1012 20.4985 -19.1012 19.6073C-19.1012 18.716 -31.7227 15.9516 -28.0613 15.8623C8.2928 14.9755 9.29272 19.7972 45.8308 19.7972C82.3688 19.7972 82.3706 15.8524 118.911 15.8524C155.451 15.8524 155.451 19.7972 191.992 19.7972C228.532 19.7972 228.531 15.8524 265.07 15.8524C301.61 15.8524 301.611 19.7972 338.152 19.7972C374.693 19.7972 374.691 15.8524 411.23 15.8524C447.768 15.8524 447.769 19.7972 484.309 19.7972C520.848 19.7972 520.85 15.8524 557.391 15.8524C593.932 15.8524 593.931 19.7972 630.471 19.7972C667.01 19.7972 667.016 15.8524 703.56 15.8524C740.105 15.8524 739.474 18.902 775.836 19.7873C779.491 19.8763 784.794 18.7146 784.794 19.6044C784.794 20.4936 768.506 20.4936 768.506 21.3829C768.506 22.2722 784.794 22.2726 784.794 23.1623C784.794 24.052 768.506 24.0524 768.506 24.9425C768.506 25.8326 784.794 25.8326 784.794 26.7227C784.794 27.6128 768.506 27.6128 768.506 28.5029C768.506 29.3931 784.794 29.3933 784.794 30.2836C784.794 31.1735 768.506 31.1735 768.506 32.0633C768.506 32.9539 784.794 32.9539 784.794 33.8446C784.794 34.7358 767.944 35.1387 768.664 36.0128C770.26 37.9519 781.128 39.2827 777.467 39.3721Z" fill="#008742"/>
<path d="M777.53 39.7153C741.176 40.6021 740.176 35.7804 703.638 35.7804C667.098 35.7804 667.098 39.7252 630.558 39.7252C594.018 39.7252 594.018 35.7804 557.477 35.7804C520.938 35.7804 520.938 39.7252 484.398 39.7252C447.857 39.7252 447.857 35.7804 411.317 35.7804C374.778 35.7804 374.778 39.7252 338.239 39.7252C301.7 39.7252 301.7 35.7804 265.16 35.7804C228.619 35.7804 228.619 39.7252 192.078 39.7252C155.538 39.7252 155.538 35.7804 118.998 35.7804C82.4532 35.7804 82.4532 39.7252 45.9083 39.7252C9.36335 39.7252 9.99472 36.6756 -26.367 35.7903C-30.0225 35.7013 -35.3257 36.863 -35.3257 35.9732C-35.3257 35.084 -19.0377 35.084 -19.0377 34.1947C-19.0377 33.305 -35.3257 33.305 -35.3257 32.4153C-35.3257 31.5256 -19.0377 31.5252 -19.0377 30.6351C-19.0377 29.745 -35.3257 29.745 -35.3257 28.8549C-35.3257 27.9648 -19.0377 27.9648 -19.0377 27.0747C-19.0377 26.1845 -35.3257 26.1843 -35.3257 25.294C-35.3257 24.4041 -19.0377 24.4041 -19.0377 23.5143C-19.0377 22.6237 -35.3257 22.6237 -35.3257 21.733C-35.3257 20.8418 -19.0377 20.8418 -19.0377 19.9505C-19.0377 19.0593 -31.6592 16.2949 -27.9978 16.2056C8.35627 15.3188 9.3562 20.1405 45.8943 20.1405C82.4323 20.1405 82.4341 16.1956 118.974 16.1956C155.514 16.1956 155.515 20.1405 192.055 20.1405C228.596 20.1405 228.595 16.1956 265.134 16.1956C301.673 16.1956 301.675 20.1405 338.216 20.1405C374.756 20.1405 374.754 16.1956 411.293 16.1956C447.832 16.1956 447.833 20.1405 484.372 20.1405C520.911 20.1405 520.913 16.1956 557.454 16.1956C593.995 16.1956 593.994 20.1405 630.534 20.1405C667.074 20.1405 667.079 16.1956 703.624 16.1956C740.169 16.1956 739.537 19.2452 775.899 20.1306C779.555 20.2196 784.858 19.0578 784.858 19.9476C784.858 20.8369 768.57 20.8369 768.57 21.7262C768.57 22.6154 784.858 22.6159 784.858 23.5056C784.858 24.3953 768.57 24.3957 768.57 25.2858C768.57 26.1759 784.858 26.1759 784.858 27.066C784.858 27.9561 768.57 27.9561 768.57 28.8462C768.57 29.7363 784.858 29.7365 784.858 30.6269C784.858 31.5167 768.57 31.5167 768.57 32.4066C768.57 33.2972 784.858 33.2972 784.858 34.1878C784.858 35.0791 768.007 35.482 768.727 36.356C770.324 38.2951 781.191 39.626 777.53 39.7153Z" fill="#008541"/>
<path d="M777.594 40.0581C741.24 40.9449 740.24 36.1232 703.702 36.1232C667.163 36.1232 667.163 40.068 630.623 40.068C594.082 40.068 594.082 36.1232 557.542 36.1232C521.002 36.1232 521.002 40.068 484.463 40.068C447.922 40.068 447.922 36.1232 411.381 36.1232C374.842 36.1232 374.842 40.068 338.303 40.068C301.764 40.068 301.764 36.1232 265.225 36.1232C228.683 36.1232 228.683 40.068 192.142 40.068C155.602 40.068 155.602 36.1232 119.063 36.1232C82.5177 36.1232 82.5177 40.068 45.9727 40.068C9.42781 40.068 10.0592 37.0184 -26.3026 36.1331C-29.9581 36.0441 -35.2612 37.2058 -35.2612 36.316C-35.2612 35.4267 -18.9733 35.4267 -18.9733 34.5375C-18.9733 33.6478 -35.2612 33.6478 -35.2612 32.7581C-35.2612 31.8684 -18.9733 31.868 -18.9733 30.9779C-18.9733 30.0878 -35.2612 30.0878 -35.2612 29.1977C-35.2612 28.3076 -18.9733 28.3076 -18.9733 27.4174C-18.9733 26.5273 -35.2612 26.5271 -35.2612 25.6368C-35.2612 24.7469 -18.9733 24.7469 -18.9733 23.8571C-18.9733 22.9664 -35.2612 22.9664 -35.2612 22.0758C-35.2612 21.1846 -18.9733 21.1846 -18.9733 20.2933C-18.9733 19.402 -31.5947 16.6377 -27.9333 16.5483C8.42073 15.6616 9.42065 20.4832 45.9587 20.4832C82.4968 20.4832 82.4986 16.5384 119.039 16.5384C155.579 16.5384 155.579 20.4832 192.12 20.4832C228.66 20.4832 228.659 16.5384 265.198 16.5384C301.738 16.5384 301.739 20.4832 338.28 20.4832C374.821 20.4832 374.819 16.5384 411.358 16.5384C447.896 16.5384 447.897 20.4832 484.437 20.4832C520.976 20.4832 520.978 16.5384 557.519 16.5384C594.06 16.5384 594.059 20.4832 630.599 20.4832C667.138 20.4832 667.143 16.5384 703.688 16.5384C740.233 16.5384 739.602 19.588 775.964 20.4733C779.619 20.5623 784.922 19.4006 784.922 20.2904C784.922 21.1797 768.634 21.1797 768.634 22.0689C768.634 22.9582 784.922 22.9586 784.922 23.8483C784.922 24.738 768.634 24.7384 768.634 25.6285C768.634 26.5186 784.922 26.5186 784.922 27.4087C784.922 28.2988 768.634 28.2988 768.634 29.189C768.634 30.0791 784.922 30.0793 784.922 30.9696C784.922 31.8595 768.634 31.8595 768.634 32.7493C768.634 33.64 784.922 33.64 784.922 34.5306C784.922 35.4218 768.072 35.8248 768.792 36.6988C770.388 38.6379 781.256 39.9688 777.594 40.0581Z" fill="#008440"/>
<path d="M777.658 40.4013C741.304 41.2881 740.304 36.4664 703.766 36.4664C667.227 36.4664 667.227 40.4113 630.687 40.4113C594.146 40.4113 594.146 36.4664 557.605 36.4664C521.066 36.4664 521.066 40.4113 484.527 40.4113C447.986 40.4113 447.986 36.4664 411.445 36.4664C374.906 36.4664 374.906 40.4113 338.367 40.4113C301.828 40.4113 301.828 36.4664 265.289 36.4664C228.747 36.4664 228.747 40.4113 192.206 40.4113C155.666 40.4113 155.666 36.4664 119.127 36.4664C82.5816 36.4664 82.5816 40.4113 46.0367 40.4113C9.49177 40.4113 10.1231 37.3617 -26.2386 36.4763C-29.8941 36.3873 -35.1973 37.5491 -35.1973 36.6593C-35.1973 35.77 -18.9093 35.77 -18.9093 34.8807C-18.9093 33.991 -35.1973 33.991 -35.1973 33.1013C-35.1973 32.2116 -18.9093 32.2112 -18.9093 31.3211C-18.9093 30.431 -35.1973 30.431 -35.1973 29.5409C-35.1973 28.6508 -18.9093 28.6508 -18.9093 27.7607C-18.9093 26.8706 -35.1973 26.8704 -35.1973 25.98C-35.1973 25.0902 -18.9093 25.0902 -18.9093 24.2003C-18.9093 23.3097 -35.1973 23.3097 -35.1973 22.4191C-35.1973 21.5278 -18.9093 21.5278 -18.9093 20.6366C-18.9093 19.7453 -31.5308 16.9809 -27.8694 16.8916C8.48469 16.0048 9.48462 20.8265 46.0227 20.8265C82.5607 20.8265 82.5625 16.8817 119.102 16.8817C155.642 16.8817 155.643 20.8265 192.184 20.8265C228.724 20.8265 228.723 16.8817 265.262 16.8817C301.802 16.8817 301.803 20.8265 338.344 20.8265C374.885 20.8265 374.883 16.8817 411.422 16.8817C447.96 16.8817 447.961 20.8265 484.5 20.8265C521.04 20.8265 521.042 16.8817 557.583 16.8817C594.124 16.8817 594.123 20.8265 630.662 20.8265C667.202 20.8265 667.207 16.8817 703.752 16.8817C740.297 16.8817 739.666 19.9313 776.028 20.8166C779.683 20.9056 784.986 19.7439 784.986 20.6337C784.986 21.5229 768.698 21.5229 768.698 22.4122C768.698 23.3015 784.986 23.3019 784.986 24.1916C784.986 25.0813 768.698 25.0817 768.698 25.9718C768.698 26.8619 784.986 26.8619 784.986 27.752C784.986 28.6421 768.698 28.6421 768.698 29.5322C768.698 30.4224 784.986 30.4226 784.986 31.3129C784.986 32.2028 768.698 32.2028 768.698 33.0926C768.698 33.9832 784.986 33.9832 784.986 34.8739C784.986 35.7651 768.136 36.168 768.856 37.0421C770.452 38.9812 781.32 40.312 777.658 40.4013Z" fill="#008340"/>
<path d="M777.721 40.7446C741.367 41.6314 740.367 36.8097 703.829 36.8097C667.29 36.8097 667.289 40.7545 630.75 40.7545C594.209 40.7545 594.209 36.8097 557.668 36.8097C521.129 36.8097 521.129 40.7545 484.59 40.7545C448.049 40.7545 448.049 36.8097 411.508 36.8097C374.969 36.8097 374.969 40.7545 338.43 40.7545C301.891 40.7545 301.891 36.8097 265.352 36.8097C228.81 36.8097 228.81 40.7545 192.269 40.7545C155.729 40.7545 155.729 36.8097 119.19 36.8097C82.6446 36.8097 82.6446 40.7545 46.0997 40.7545C9.55476 40.7545 10.1861 37.7049 -26.1756 36.8196C-29.8311 36.7306 -35.1343 37.8923 -35.1343 37.0025C-35.1343 36.1133 -18.8463 36.1133 -18.8463 35.224C-18.8463 34.3343 -35.1343 34.3343 -35.1343 33.4446C-35.1343 32.5549 -18.8463 32.5545 -18.8463 31.6644C-18.8463 30.7743 -35.1343 30.7743 -35.1343 29.8842C-35.1343 28.9941 -18.8463 28.9941 -18.8463 28.104C-18.8463 27.2138 -35.1343 27.2136 -35.1343 26.3233C-35.1343 25.4334 -18.8463 25.4334 -18.8463 24.5436C-18.8463 23.653 -35.1343 23.653 -35.1343 22.7623C-35.1343 21.8711 -18.8463 21.8711 -18.8463 20.9798C-18.8463 20.0886 -31.4678 17.3242 -27.8064 17.2348C8.54768 16.3481 9.54761 21.1698 46.0857 21.1698C82.6237 21.1698 82.6255 17.2249 119.165 17.2249C155.705 17.2249 155.706 21.1698 192.247 21.1698C228.787 21.1698 228.786 17.2249 265.325 17.2249C301.865 17.2249 301.866 21.1698 338.407 21.1698C374.948 21.1698 374.946 17.2249 411.485 17.2249C448.023 17.2249 448.024 21.1698 484.563 21.1698C521.103 21.1698 521.105 17.2249 557.646 17.2249C594.187 17.2249 594.186 21.1698 630.725 21.1698C667.265 21.1698 667.27 17.2249 703.815 17.2249C740.36 17.2249 739.729 20.2745 776.091 21.1599C779.746 21.2489 785.049 20.0871 785.049 20.9769C785.049 21.8662 768.761 21.8662 768.761 22.7555C768.761 23.6447 785.049 23.6452 785.049 24.5349C785.049 25.4246 768.761 25.425 768.761 26.3151C768.761 27.2052 785.049 27.2052 785.049 28.0953C785.049 28.9854 768.761 28.9854 768.761 29.8755C768.761 30.7656 785.049 30.7658 785.049 31.6562C785.049 32.546 768.761 32.546 768.761 33.4359C768.761 34.3265 785.049 34.3265 785.049 35.2171C785.049 36.1084 768.199 36.5113 768.919 37.3853C770.515 39.3244 781.383 40.6553 777.721 40.7446Z" fill="#00813F"/>
<path d="M777.786 41.0884C741.432 41.9751 740.432 37.1535 703.894 37.1535C667.354 37.1535 667.354 41.0983 630.814 41.0983C594.273 41.0983 594.273 37.1535 557.733 37.1535C521.193 37.1535 521.193 41.0983 484.654 41.0983C448.113 41.0983 448.113 37.1535 411.572 37.1535C375.032 37.1535 375.034 41.0983 338.495 41.0983C301.955 41.0983 301.955 37.1535 265.416 37.1535C228.877 37.1535 228.875 41.0983 192.334 41.0983C155.794 41.0983 155.794 37.1535 119.254 37.1535C82.7091 37.1535 82.7091 41.0983 46.1641 41.0983C9.61921 41.0983 10.2506 38.0487 -26.1112 37.1633C-29.7667 37.0744 -35.0698 38.2361 -35.0698 37.3463C-35.0698 36.457 -18.7819 36.457 -18.7819 35.5677C-18.7819 34.678 -35.0698 34.678 -35.0698 33.7883C-35.0698 32.8986 -18.7819 32.8982 -18.7819 32.0081C-18.7819 31.118 -35.0698 31.118 -35.0698 30.2279C-35.0698 29.3378 -18.7819 29.3378 -18.7819 28.4477C-18.7819 27.5576 -35.0698 27.5574 -35.0698 26.667C-35.0698 25.7772 -18.7819 25.7772 -18.7819 24.8873C-18.7819 23.9967 -35.0698 23.9967 -35.0698 23.1061C-35.0698 22.2149 -18.7819 22.2148 -18.7819 21.3236C-18.7819 20.4323 -31.4033 17.6679 -27.7419 17.5786C8.61213 16.6918 9.61206 21.5135 46.1501 21.5135C82.6882 21.5135 82.6899 17.5687 119.23 17.5687C155.77 17.5687 155.77 21.5135 192.311 21.5135C228.852 21.5135 228.85 17.5687 265.39 17.5687C301.929 17.5687 301.931 21.5135 338.471 21.5135C375.012 21.5135 375.01 17.5687 411.549 17.5687C448.088 17.5687 448.089 21.5135 484.628 21.5135C521.167 21.5135 521.169 17.5687 557.71 17.5687C594.251 17.5687 594.25 21.5135 630.79 21.5135C667.33 21.5135 667.335 17.5687 703.88 17.5687C740.425 17.5687 739.793 20.6183 776.155 21.5036C779.811 21.5926 785.114 20.4309 785.114 21.3207C785.114 22.21 768.826 22.21 768.826 23.0992C768.826 23.9889 785.114 23.9889 785.114 24.8786C785.114 25.7683 768.826 25.7687 768.826 26.6588C768.826 27.5489 785.114 27.5489 785.114 28.439C785.114 29.3291 768.826 29.3291 768.826 30.2192C768.826 31.1094 785.114 31.1096 785.114 31.9999C785.114 32.8898 768.826 32.8898 768.826 33.7796C768.826 34.6702 785.114 34.6702 785.114 35.5609C785.114 36.4521 768.263 36.8551 768.983 37.7291C770.579 39.6682 781.447 40.999 777.786 41.0884Z" fill="#00803E"/>
<path d="M777.849 41.4311C741.495 42.3179 740.495 37.4962 703.957 37.4962C667.417 37.4962 667.417 41.4411 630.877 41.4411C594.336 41.4411 594.336 37.4962 557.796 37.4962C521.256 37.4962 521.256 41.4411 484.717 41.4411C448.176 41.4411 448.176 37.4962 411.635 37.4962C375.097 37.4962 375.097 41.4411 338.558 41.4411C302.018 41.4411 302.018 37.4962 265.479 37.4962C228.938 37.4962 228.938 41.4411 192.397 41.4411C155.857 41.4411 155.857 37.4962 119.317 37.4962C82.7721 37.4962 82.7721 41.4411 46.2271 41.4411C9.6822 41.4411 10.3136 38.3915 -26.0482 37.5061C-29.7037 37.4171 -35.0068 38.5788 -35.0068 37.689C-35.0068 36.7998 -18.7189 36.7998 -18.7189 35.9105C-18.7189 35.0208 -35.0068 35.0208 -35.0068 34.1311C-35.0068 33.2414 -18.7189 33.241 -18.7189 32.3509C-18.7189 31.4608 -35.0068 31.4608 -35.0068 30.5707C-35.0068 29.6806 -18.7189 29.6806 -18.7189 28.7905C-18.7189 27.9003 -35.0068 27.9001 -35.0068 27.0098C-35.0068 26.1199 -18.7189 26.12 -18.7189 25.2301C-18.7189 24.3395 -35.0068 24.3395 -35.0068 23.4489C-35.0068 22.5576 -18.7189 22.5576 -18.7189 21.6664C-18.7189 20.7751 -31.3403 18.0107 -27.6789 17.9214C8.67512 17.0346 9.67505 21.8563 46.2131 21.8563C82.7512 21.8563 82.7529 17.9114 119.293 17.9114C155.833 17.9114 155.833 21.8563 192.374 21.8563C228.915 21.8563 228.913 17.9114 265.453 17.9114C301.992 17.9114 301.994 21.8563 338.534 21.8563C375.075 21.8563 375.073 17.9114 411.612 17.9114C448.151 17.9114 448.151 21.8563 484.691 21.8563C521.23 21.8563 521.232 17.9114 557.773 17.9114C594.314 17.9114 594.313 21.8563 630.853 21.8563C667.393 21.8563 667.398 17.9114 703.943 17.9114C740.488 17.9114 739.856 20.961 776.218 21.8464C779.874 21.9354 785.177 20.7737 785.177 21.6635C785.177 22.5527 768.889 22.5527 768.889 23.442C768.889 24.3317 785.177 24.3317 785.177 25.2214C785.177 26.1111 768.889 26.1115 768.889 27.0016C768.889 27.8917 785.177 27.8917 785.177 28.7818C785.177 29.6719 768.889 29.6719 768.889 30.562C768.889 31.4522 785.177 31.4524 785.177 32.3427C785.177 33.2326 768.889 33.2326 768.889 34.1224C768.889 35.013 785.177 35.013 785.177 35.9036C785.177 36.7949 768.326 37.1978 769.046 38.0718C770.642 40.0109 781.51 41.3418 777.849 41.4311Z" fill="#007E3E"/>
<mask id="mask2_124_697" style="mask-type:luminance" maskUnits="userSpaceOnUse" x="5" y="12" width="763" height="37">
<path d="M767.85 12.2007H5.8501V48.8017H767.85V12.2007Z" fill="white"/>
</mask>
<g mask="url(#mask2_124_697)">
<path d="M777.913 41.7744C741.559 42.6612 740.559 37.8395 704.021 37.8395C667.481 37.8395 667.481 41.7843 630.941 41.7843C594.4 41.7843 594.4 37.8395 557.86 37.8395C521.32 37.8395 521.32 41.7843 484.781 41.7843C448.24 41.7843 448.24 37.8395 411.699 37.8395C375.161 37.8395 375.161 41.7843 338.622 41.7843C302.082 41.7843 302.082 37.8395 265.543 37.8395C229.002 37.8395 229.002 41.7843 192.461 41.7843C155.921 41.7843 155.921 37.8395 119.381 37.8395C82.836 37.8395 82.836 41.7843 46.2911 41.7843C9.74616 41.7843 10.3775 38.7347 -25.9842 37.8494C-29.6397 37.7604 -34.9429 38.9221 -34.9429 38.0323C-34.9429 37.143 -18.6549 37.143 -18.6549 36.2538C-18.6549 35.3641 -34.9429 35.3641 -34.9429 34.4744C-34.9429 33.5847 -18.6549 33.5843 -18.6549 32.6942C-18.6549 31.8041 -34.9429 31.8041 -34.9429 30.914C-34.9429 30.0239 -18.6549 30.0239 -18.6549 29.1337C-18.6549 28.2436 -34.9429 28.2434 -34.9429 27.3531C-34.9429 26.4632 -18.6549 26.4632 -18.6549 25.5734C-18.6549 24.6827 -34.9429 24.6827 -34.9429 23.7921C-34.9429 22.9009 -18.6549 22.9009 -18.6549 22.0096C-18.6549 21.1184 -31.2764 18.354 -27.615 18.2646C8.73908 17.3779 9.73901 22.1995 46.2771 22.1995C82.8151 22.1995 82.8169 18.2547 119.357 18.2547C155.897 18.2547 155.897 22.1995 192.438 22.1995C228.978 22.1995 228.977 18.2547 265.517 18.2547C302.056 18.2547 302.058 22.1995 338.598 22.1995C375.139 22.1995 375.137 18.2547 411.676 18.2547C448.215 18.2547 448.215 22.1995 484.755 22.1995C521.294 22.1995 521.296 18.2547 557.837 18.2547C594.378 18.2547 594.377 22.1995 630.917 22.1995C667.457 22.1995 667.462 18.2547 704.007 18.2547C740.552 18.2547 739.92 21.3043 776.282 22.1896C779.938 22.2786 785.241 21.1169 785.241 22.0067C785.241 22.896 768.953 22.896 768.953 23.7853C768.953 24.675 785.241 24.675 785.241 25.5647C785.241 26.4544 768.953 26.4548 768.953 27.3449C768.953 28.235 785.241 28.235 785.241 29.125C785.241 30.0151 768.953 30.0151 768.953 30.9053C768.953 31.7954 785.241 31.7956 785.241 32.6859C785.241 33.5758 768.953 33.5758 768.953 34.4656C768.953 35.3563 785.241 35.3563 785.241 36.2469C785.241 37.1381 768.39 37.5411 769.11 38.4151C770.706 40.3542 781.574 41.6851 777.913 41.7744Z" fill="#007D3D"/>
</g>
</g>
</g>
<defs>
<filter id="filter0_d_124_697" x="0" y="8.20264" width="760.239" height="41.6807" filterUnits="userSpaceOnUse" color-interpolation-filters="sRGB">
<feFlood flood-opacity="0" result="BackgroundImageFix"/>
<feColorMatrix in="SourceAlpha" type="matrix" values="0 0 0 0 0 0 0 0 0 0 0 0 0 0 0 0 0 0 127 0" result="hardAlpha"/>
<feOffset dy="4"/>
<feGaussianBlur stdDeviation="2"/>
<feComposite in2="hardAlpha" operator="out"/>
<feColorMatrix type="matrix" values="0 0 0 0 0 0 0 0 0 0 0 0 0 0 0 0 0 0 0.25 0"/>
<feBlend mode="normal" in2="BackgroundImageFix" result="effect1_dropShadow_124_697"/>
<feBlend mode="normal" in="SourceGraphic" in2="effect1_dropShadow_124_697" result="shape"/>
</filter>
</defs>
</svg>
